<?xml version="1.0" encoding="UTF-8" standalone="no"?>
<svg
   width="87.540428"
   zoomAndPan="magnify"
   viewBox="0 0 65.655321 35.940788"
   height="47.921051"
   preserveAspectRatio="xMidYMid"
   version="1.0"
   id="svg100"
   xmlns="http://www.w3.org/2000/svg"
   xmlns:svg="http://www.w3.org/2000/svg">
  <defs
     id="defs1" />
  <g
     fill="#ff00ff"
     fill-opacity="1"
     id="g4"
     transform="translate(-59.984566,-0.38537407)">
    <g
       transform="translate(66.131031,12.744749)"
       id="g3">
      <g
         id="g2">
        <path
           d="m 1.21875,-8.84375 c 0.15625,-1.0625 0.28125,-1.769531 0.375,-2.125 0.113281,-0.457031 0.304688,-0.796875 0.578125,-1.015625 0.21875,-0.164063 0.550781,-0.273437 1,-0.328125 0.175781,-0.03125 0.414063,-0.04687 0.71875,-0.04687 0.3125,0 0.691406,0 1.140625,0 h 9.25 c -0.148438,1.125 -0.289062,1.882813 -0.421875,2.265625 -0.15625,0.46875 -0.40625,0.792969 -0.75,0.96875 -0.105469,0.054688 -0.21875,0.09375 -0.34375,0.125 -0.125,0.023438 -0.277344,0.046875 -0.453125,0.078125 -0.304688,0.054687 -0.859375,0.078125 -1.671875,0.078125 H 5.75 c -0.167969,0 -0.3125,0 -0.4375,0 -0.117188,0 -0.199219,0.00781 -0.25,0.015625 -0.117188,0 -0.199219,0.042969 -0.25,0.125 -0.03125,0.042969 -0.070312,0.121094 -0.109375,0.234375 0,0.0625 -0.023437,0.234375 -0.0625,0.515625 H 10.125 c 0.488281,0 0.894531,0 1.21875,0 0.332031,0 0.570312,0.015625 0.71875,0.046875 0.53125,0.054688 0.890625,0.1875 1.078125,0.40625 0.164063,0.179688 0.25,0.5 0.25,0.96875 V -6.375 c 0,0.148438 -0.02344,0.382812 -0.0625,0.703125 C 13.296875,-5.347656 13.25,-4.9375 13.1875,-4.4375 l -0.125,0.921875 c -0.07422,0.554687 -0.148438,1.007813 -0.21875,1.359375 -0.07422,0.355469 -0.136719,0.625 -0.1875,0.8125 C 12.5625,-1 12.445312,-0.742188 12.3125,-0.578125 c -0.199219,0.199219 -0.480469,0.351563 -0.84375,0.453125 -0.167969,0.023438 -0.460938,0.0429688 -0.875,0.0625 -0.417969,0.0234375 -0.945312,0.03125 -1.578125,0.03125 H 3.53125 c -0.648438,0 -1.167969,-0.0078125 -1.5625,-0.03125 C 1.570312,-0.0820312 1.28125,-0.101562 1.09375,-0.125 0.78125,-0.226562 0.554688,-0.359375 0.421875,-0.515625 0.304688,-0.703125 0.25,-0.988281 0.25,-1.375 c 0,-0.332031 0.070312,-1.046875 0.21875,-2.140625 h 8.203125 c 0.144531,0 0.269531,0 0.375,0 C 9.148438,-3.523438 9.21875,-3.53125 9.25,-3.53125 c 0.082031,-0.019531 0.15625,-0.0625 0.21875,-0.125 0.0625,-0.101562 0.09375,-0.207031 0.09375,-0.3125 0.039062,-0.09375 0.066406,-0.25 0.078125,-0.46875 H 3.53125 c -0.324219,0 -0.609375,-0.00391 -0.859375,-0.015625 -0.25,-0.00781 -0.453125,-0.019531 -0.609375,-0.03125 -0.460938,-0.050781 -0.796875,-0.164063 -1.015625,-0.34375 -0.167969,-0.207031 -0.25,-0.492187 -0.25,-0.859375 v -0.296875 c 0.03125,-0.164063 0.070313,-0.410156 0.125,-0.734375 0.050781,-0.320312 0.109375,-0.734375 0.171875,-1.234375 z m 0,0"
           id="path1" />
      </g>
    </g>
  </g>
  <g
     fill="#ff00ff"
     fill-opacity="1"
     id="g7"
     transform="translate(-59.984566,-0.38537407)">
    <g
       transform="translate(80.286498,12.744749)"
       id="g6">
      <g
         id="g5">
        <path
           d="m 11.359375,-12.359375 c 0.738281,0 1.253906,0.02734 1.546875,0.07813 0.363281,0.04297 0.613281,0.125 0.75,0.25 0.25,0.167969 0.375,0.515625 0.375,1.046875 0,0.04297 0,0.08984 0,0.140625 0,0.05469 -0.01172,0.121094 -0.03125,0.203125 0,0.148437 -0.01563,0.371094 -0.04687,0.671875 -0.03125,0.304688 -0.07813,0.679688 -0.140625,1.125 l -0.40625,2.78125 -0.34375,2.546875 c -0.07422,0.605469 -0.148438,1.09375 -0.21875,1.46875 -0.07422,0.367187 -0.140625,0.640625 -0.203125,0.828125 -0.105469,0.34375 -0.273437,0.609375 -0.5,0.796875 -0.1875,0.136719 -0.464844,0.246094 -0.828125,0.328125 -0.167969,0.0117188 -0.449219,0.03125 -0.84375,0.0625 C 10.070312,-0.0078125 9.554688,0 8.921875,0 H 3.515625 C 2.910156,0 2.414062,-0.0078125 2.03125,-0.03125 1.65625,-0.0625 1.378906,-0.0820312 1.203125,-0.09375 0.847656,-0.175781 0.597656,-0.300781 0.453125,-0.46875 0.316406,-0.65625 0.25,-0.945312 0.25,-1.34375 V -1.5 C 0.28125,-1.84375 0.351562,-2.515625 0.46875,-3.515625 L 0.625,-4.4375 c 0.0625,-0.445312 0.117188,-0.816406 0.171875,-1.109375 0.050781,-0.300781 0.082031,-0.53125 0.09375,-0.6875 0.125,-0.582031 0.289063,-0.976563 0.5,-1.1875 C 1.628906,-7.660156 1.957031,-7.800781 2.375,-7.84375 2.71875,-7.894531 3.351562,-7.921875 4.28125,-7.921875 H 9.5 c 0.09375,0 0.175781,-0.00391 0.25,-0.015625 0.082031,-0.00781 0.128906,-0.015625 0.140625,-0.015625 0.082031,-0.00781 0.160156,-0.050781 0.234375,-0.125 0.03906,-0.050781 0.0625,-0.125 0.0625,-0.21875 0.03906,-0.101563 0.06641,-0.285156 0.07813,-0.546875 H 4.78125 c -0.449219,0 -0.828125,-0.00391 -1.140625,-0.015625 C 3.335938,-8.867188 3.113281,-8.878906 2.96875,-8.890625 2.53125,-8.960938 2.222656,-9.113281 2.046875,-9.34375 1.890625,-9.570312 1.789062,-9.953125 1.75,-10.484375 1.75,-10.640625 1.74219,-10.84375 1.734375,-11.09375 1.722656,-11.34375 1.71875,-11.625 1.71875,-11.9375 v -0.421875 z m -6.625,7.921875 c -0.21875,0 -0.34375,0.011719 -0.375,0.03125 -0.054687,0 -0.109375,0.03125 -0.171875,0.09375 -0.03125,0.03125 -0.0625,0.15625 -0.09375,0.375 0,0.085938 -0.027344,0.226562 -0.078125,0.421875 h 4.875 c 0.101563,0 0.191406,0 0.265625,0 0.070312,-0.00781 0.117188,-0.015625 0.140625,-0.015625 0.101563,-0.019531 0.160156,-0.054688 0.171875,-0.109375 0.03125,-0.03125 0.0625,-0.113281 0.09375,-0.25 0.039062,-0.09375 0.066406,-0.273437 0.078125,-0.546875 z m 0,0"
           id="path4" />
      </g>
    </g>
  </g>
  <g
     fill="#ff00ff"
     fill-opacity="1"
     id="g10"
     transform="translate(-59.984566,-0.38537407)">
    <g
       transform="translate(94.541654,12.744749)"
       id="g9">
      <g
         id="g8">
        <path
           d="m 0.25,-12.359375 h 1.046875 c 0.300781,0 0.554687,0 0.765625,0 0.21875,0 0.394531,0.0078 0.53125,0.01563 0.144531,0 0.285156,0.0078 0.421875,0.01563 0.144531,0.01172 0.300781,0.02734 0.46875,0.04687 0.320313,0 0.539063,0.08594 0.65625,0.25 0.09375,0.117188 0.222656,0.230469 0.390625,0.34375 0.15625,0.105469 0.253906,0.320312 0.296875,0.640625 0.039063,0.167969 0.070313,0.324219 0.09375,0.46875 0.019531,0.136719 0.039063,0.273437 0.0625,0.40625 0.03125,0.117187 0.0625,0.28125 0.09375,0.5 C 5.117188,-9.453125 5.15625,-9.1875 5.1875,-8.875 l 0.75,5.359375 h 2.640625 c 0.125,-0.03125 0.207031,-0.0625 0.25,-0.09375 0.0625,-0.070313 0.101563,-0.148437 0.125,-0.234375 0.00781,-0.039062 0.019531,-0.109375 0.03125,-0.203125 0.019531,-0.09375 0.039063,-0.210937 0.0625,-0.359375 l 0.640625,-4.734375 0.484375,-3.21875 h 0.5 c 0.363281,0 0.671875,0 0.921875,0 0.25,0 0.445312,0.01563 0.59375,0.04687 0.476562,0.05469 0.800781,0.167969 0.96875,0.34375 0.1875,0.167969 0.28125,0.484375 0.28125,0.953125 v 0.453125 c -0.03125,0.335938 -0.109375,0.914062 -0.234375,1.734375 l -0.34375,2.45313 -0.390625,2.859375 c -0.136719,0.96875 -0.242188,1.609375 -0.3125,1.921875 -0.117188,0.511719 -0.289062,0.886719 -0.515625,1.125 -0.273437,0.230469 -0.703125,0.3710938 -1.296875,0.421875 -0.148438,0.0117188 -0.351562,0.0234375 -0.609375,0.03125 C 9.472656,-0.00390625 9.148438,0 8.765625,0 H 6.4375 c -0.5,0 -0.917969,-0.00390625 -1.25,-0.015625 -0.324219,-0.0078125 -0.574219,-0.0195312 -0.75,-0.03125 -0.585938,-0.070313 -1.007812,-0.238281 -1.265625,-0.5 C 2.929688,-0.796875 2.738281,-1.3125 2.59375,-2.09375 2.570312,-2.226562 2.546875,-2.414062 2.515625,-2.65625 2.484375,-2.894531 2.441406,-3.171875 2.390625,-3.484375 l -0.515625,-3.6875 -0.484375,-3.375 C 1.378906,-10.773438 1.347656,-10.96875 1.296875,-11.125 1.242188,-11.28125 1.191406,-11.394531 1.140625,-11.46875 1.097656,-11.550781 1.003906,-11.664062 0.859375,-11.8125 0.710938,-11.957031 0.507812,-12.140625 0.25,-12.359375 Z m 0,0"
           id="path7" />
      </g>
    </g>
  </g>
  <g
     fill="#ff00ff"
     fill-opacity="1"
     id="g13"
     transform="translate(-59.984566,-0.38537407)">
    <g
       transform="translate(108.22362,12.744749)"
       id="g12">
      <g
         id="g11">
        <path
           d="m 5.328125,-12.34375 h 5.4375 c 0.445313,0 0.820313,0 1.125,0 0.300781,0 0.523437,0.01172 0.671875,0.03125 0.550781,0.02344 0.925781,0.121094 1.125,0.296875 0.226562,0.167969 0.34375,0.511719 0.34375,1.03125 0,0.0625 0,0.140625 0,0.234375 0,0.09375 -0.01172,0.1875 -0.03125,0.28125 -0.01172,0.148438 -0.03906,0.355469 -0.07813,0.625 -0.03125,0.261719 -0.07031,0.59375 -0.109375,1 l -0.15625,0.921875 c -0.136714,1.011719 -0.246089,1.671875 -0.32812,1.984375 -0.09375,0.46875 -0.25,0.8125 -0.46875,1.03125 -0.230469,0.21875 -0.589844,0.359375 -1.078125,0.421875 C 11.46875,-4.429688 10.875,-4.40625 10,-4.40625 H 4.390625 C 4.316406,-4.40625 4.25,-4.375 4.1875,-4.3125 4.15625,-4.28125 4.125,-4.179688 4.09375,-4.015625 c 0,0.085937 -0.027344,0.25 -0.078125,0.5 H 9.5 c 0.976562,0 1.597656,0.027344 1.859375,0.078125 0.40625,0.054688 0.679687,0.179688 0.828125,0.375 0.1875,0.179688 0.296875,0.542969 0.328125,1.09375 0.03125,0.148438 0.04687,0.351562 0.04687,0.609375 0,0.261719 0,0.574219 0,0.9375 V 0 H 3.140625 C 2.640625,0 2.226562,-0.0078125 1.90625,-0.03125 1.582031,-0.0625 1.328125,-0.0820312 1.140625,-0.09375 0.796875,-0.195312 0.550781,-0.359375 0.40625,-0.578125 0.300781,-0.773438 0.25,-1.03125 0.25,-1.34375 v -0.203125 c 0.019531,-0.300781 0.09375,-0.957031 0.21875,-1.96875 l 0.75,-5.328125 0.296875,-1.796875 c 0.113281,-0.582031 0.289063,-0.988281 0.53125,-1.21875 0.257813,-0.238281 0.609375,-0.378906 1.046875,-0.421875 0.175781,-0.03906 0.453125,-0.0625 0.828125,-0.0625 0.375,0 0.84375,0 1.40625,0 z m 0.0625,3.5 c -0.25,0 -0.398437,0.00781 -0.4375,0.015625 -0.03125,0.023437 -0.078125,0.0625 -0.140625,0.125 -0.03125,0.074219 -0.070312,0.152344 -0.109375,0.234375 0,0.0625 -0.023437,0.246094 -0.0625,0.546875 h 5.15625 c 0.132813,-0.019531 0.234375,-0.0625 0.296875,-0.125 0.05078,-0.050781 0.07813,-0.128906 0.07813,-0.234375 0.03125,-0.113281 0.05469,-0.300781 0.07813,-0.5625 z m 0,0"
           id="path10" />
      </g>
    </g>
  </g>
  <g
     fill="#00ffff"
     fill-opacity="1"
     id="g16"
     transform="translate(-59.984566,-0.38537407)">
    <g
       transform="translate(64.884545,12.744749)"
       id="g15">
      <g
         id="g14">
        <path
           d="m 1.21875,-8.84375 c 0.15625,-1.0625 0.28125,-1.769531 0.375,-2.125 0.113281,-0.457031 0.304688,-0.796875 0.578125,-1.015625 0.21875,-0.164063 0.550781,-0.273437 1,-0.328125 0.175781,-0.03125 0.414063,-0.04687 0.71875,-0.04687 0.3125,0 0.691406,0 1.140625,0 h 9.25 c -0.148438,1.125 -0.289062,1.882813 -0.421875,2.265625 -0.15625,0.46875 -0.40625,0.792969 -0.75,0.96875 -0.105469,0.054688 -0.21875,0.09375 -0.34375,0.125 -0.125,0.023438 -0.277344,0.046875 -0.453125,0.078125 -0.304688,0.054687 -0.859375,0.078125 -1.671875,0.078125 H 5.75 c -0.167969,0 -0.3125,0 -0.4375,0 -0.117188,0 -0.199219,0.00781 -0.25,0.015625 -0.117188,0 -0.199219,0.042969 -0.25,0.125 -0.03125,0.042969 -0.070312,0.121094 -0.109375,0.234375 0,0.0625 -0.023437,0.234375 -0.0625,0.515625 H 10.125 c 0.488281,0 0.894531,0 1.21875,0 0.332031,0 0.570312,0.015625 0.71875,0.046875 0.53125,0.054688 0.890625,0.1875 1.078125,0.40625 0.164063,0.179688 0.25,0.5 0.25,0.96875 V -6.375 c 0,0.148438 -0.02344,0.382812 -0.0625,0.703125 C 13.296875,-5.347656 13.25,-4.9375 13.1875,-4.4375 l -0.125,0.921875 c -0.07422,0.554687 -0.148438,1.007813 -0.21875,1.359375 -0.07422,0.355469 -0.136719,0.625 -0.1875,0.8125 C 12.5625,-1 12.445312,-0.742188 12.3125,-0.578125 c -0.199219,0.199219 -0.480469,0.351563 -0.84375,0.453125 -0.167969,0.023438 -0.460938,0.0429688 -0.875,0.0625 -0.417969,0.0234375 -0.945312,0.03125 -1.578125,0.03125 H 3.53125 c -0.648438,0 -1.167969,-0.0078125 -1.5625,-0.03125 C 1.570312,-0.0820312 1.28125,-0.101562 1.09375,-0.125 0.78125,-0.226562 0.554688,-0.359375 0.421875,-0.515625 0.304688,-0.703125 0.25,-0.988281 0.25,-1.375 c 0,-0.332031 0.070312,-1.046875 0.21875,-2.140625 h 8.203125 c 0.144531,0 0.269531,0 0.375,0 C 9.148438,-3.523438 9.21875,-3.53125 9.25,-3.53125 c 0.082031,-0.019531 0.15625,-0.0625 0.21875,-0.125 0.0625,-0.101562 0.09375,-0.207031 0.09375,-0.3125 0.039062,-0.09375 0.066406,-0.25 0.078125,-0.46875 H 3.53125 c -0.324219,0 -0.609375,-0.00391 -0.859375,-0.015625 -0.25,-0.00781 -0.453125,-0.019531 -0.609375,-0.03125 -0.460938,-0.050781 -0.796875,-0.164063 -1.015625,-0.34375 -0.167969,-0.207031 -0.25,-0.492187 -0.25,-0.859375 v -0.296875 c 0.03125,-0.164063 0.070313,-0.410156 0.125,-0.734375 0.050781,-0.320312 0.109375,-0.734375 0.171875,-1.234375 z m 0,0"
           id="path13" />
      </g>
    </g>
  </g>
  <g
     fill="#00ffff"
     fill-opacity="1"
     id="g19"
     transform="translate(-59.984566,-0.38537407)">
    <g
       transform="translate(79.040013,12.744749)"
       id="g18">
      <g
         id="g17">
        <path
           d="m 11.359375,-12.359375 c 0.738281,0 1.253906,0.02734 1.546875,0.07813 0.363281,0.04297 0.613281,0.125 0.75,0.25 0.25,0.167969 0.375,0.515625 0.375,1.046875 0,0.04297 0,0.08984 0,0.140625 0,0.05469 -0.01172,0.121094 -0.03125,0.203125 0,0.148437 -0.01563,0.371094 -0.04687,0.671875 -0.03125,0.304688 -0.07813,0.679688 -0.140625,1.125 l -0.40625,2.78125 -0.34375,2.546875 c -0.07422,0.605469 -0.148438,1.09375 -0.21875,1.46875 -0.07422,0.367187 -0.140625,0.640625 -0.203125,0.828125 -0.105469,0.34375 -0.273437,0.609375 -0.5,0.796875 -0.1875,0.136719 -0.464844,0.246094 -0.828125,0.328125 -0.167969,0.0117188 -0.449219,0.03125 -0.84375,0.0625 C 10.070312,-0.0078125 9.554688,0 8.921875,0 H 3.515625 C 2.910156,0 2.414062,-0.0078125 2.03125,-0.03125 1.65625,-0.0625 1.378906,-0.0820312 1.203125,-0.09375 0.847656,-0.175781 0.597656,-0.300781 0.453125,-0.46875 0.316406,-0.65625 0.25,-0.945312 0.25,-1.34375 V -1.5 C 0.28125,-1.84375 0.351562,-2.515625 0.46875,-3.515625 L 0.625,-4.4375 c 0.0625,-0.445312 0.117188,-0.816406 0.171875,-1.109375 0.050781,-0.300781 0.082031,-0.53125 0.09375,-0.6875 0.125,-0.582031 0.289063,-0.976563 0.5,-1.1875 C 1.628906,-7.660156 1.957031,-7.800781 2.375,-7.84375 2.71875,-7.894531 3.351562,-7.921875 4.28125,-7.921875 H 9.5 c 0.09375,0 0.175781,-0.00391 0.25,-0.015625 0.082031,-0.00781 0.128906,-0.015625 0.140625,-0.015625 0.082031,-0.00781 0.160156,-0.050781 0.234375,-0.125 0.03906,-0.050781 0.0625,-0.125 0.0625,-0.21875 0.03906,-0.101563 0.06641,-0.285156 0.07813,-0.546875 H 4.78125 c -0.449219,0 -0.828125,-0.00391 -1.140625,-0.015625 C 3.335938,-8.867188 3.113281,-8.878906 2.96875,-8.890625 2.53125,-8.960938 2.222656,-9.113281 2.046875,-9.34375 1.890625,-9.570312 1.789062,-9.953125 1.75,-10.484375 1.75,-10.640625 1.74219,-10.84375 1.734375,-11.09375 1.722656,-11.34375 1.71875,-11.625 1.71875,-11.9375 v -0.421875 z m -6.625,7.921875 c -0.21875,0 -0.34375,0.011719 -0.375,0.03125 -0.054687,0 -0.109375,0.03125 -0.171875,0.09375 -0.03125,0.03125 -0.0625,0.15625 -0.09375,0.375 0,0.085938 -0.027344,0.226562 -0.078125,0.421875 h 4.875 c 0.101563,0 0.191406,0 0.265625,0 0.070312,-0.00781 0.117188,-0.015625 0.140625,-0.015625 0.101563,-0.019531 0.160156,-0.054688 0.171875,-0.109375 0.03125,-0.03125 0.0625,-0.113281 0.09375,-0.25 0.039062,-0.09375 0.066406,-0.273437 0.078125,-0.546875 z m 0,0"
           id="path16" />
      </g>
    </g>
  </g>
  <g
     fill="#00ffff"
     fill-opacity="1"
     id="g22"
     transform="translate(-59.984566,-0.38537407)">
    <g
       transform="translate(93.295168,12.744749)"
       id="g21">
      <g
         id="g20">
        <path
           d="m 0.25,-12.359375 h 1.046875 c 0.300781,0 0.554687,0 0.765625,0 0.21875,0 0.394531,0.0078 0.53125,0.01563 0.144531,0 0.285156,0.0078 0.421875,0.01563 0.144531,0.01172 0.300781,0.02734 0.46875,0.04687 0.320313,0 0.539063,0.08594 0.65625,0.25 0.09375,0.117188 0.222656,0.230469 0.390625,0.34375 0.15625,0.105469 0.253906,0.320312 0.296875,0.640625 0.039063,0.167969 0.070313,0.324219 0.09375,0.46875 0.019531,0.136719 0.039063,0.273437 0.0625,0.40625 0.03125,0.117187 0.0625,0.28125 0.09375,0.5 C 5.117188,-9.453125 5.15625,-9.1875 5.1875,-8.875 l 0.75,5.359375 h 2.640625 c 0.125,-0.03125 0.207031,-0.0625 0.25,-0.09375 0.0625,-0.070313 0.101563,-0.148437 0.125,-0.234375 0.00781,-0.039062 0.019531,-0.109375 0.03125,-0.203125 0.019531,-0.09375 0.039063,-0.210937 0.0625,-0.359375 l 0.640625,-4.734375 0.484375,-3.21875 h 0.5 c 0.363281,0 0.671875,0 0.921875,0 0.25,0 0.445312,0.01563 0.59375,0.04687 0.476562,0.05469 0.800781,0.167969 0.96875,0.34375 0.1875,0.167969 0.28125,0.484375 0.28125,0.953125 v 0.453125 c -0.03125,0.335938 -0.109375,0.914062 -0.234375,1.734375 l -0.34375,2.45313 -0.390625,2.859375 c -0.136719,0.96875 -0.242188,1.609375 -0.3125,1.921875 -0.117188,0.511719 -0.289062,0.886719 -0.515625,1.125 -0.273437,0.230469 -0.703125,0.3710938 -1.296875,0.421875 -0.148438,0.0117188 -0.351562,0.0234375 -0.609375,0.03125 C 9.472656,-0.00390625 9.148438,0 8.765625,0 H 6.4375 c -0.5,0 -0.917969,-0.00390625 -1.25,-0.015625 -0.324219,-0.0078125 -0.574219,-0.0195312 -0.75,-0.03125 -0.585938,-0.070313 -1.007812,-0.238281 -1.265625,-0.5 C 2.929688,-0.796875 2.738281,-1.3125 2.59375,-2.09375 2.570312,-2.226562 2.546875,-2.414062 2.515625,-2.65625 2.484375,-2.894531 2.441406,-3.171875 2.390625,-3.484375 l -0.515625,-3.6875 -0.484375,-3.375 C 1.378906,-10.773438 1.347656,-10.96875 1.296875,-11.125 1.242188,-11.28125 1.191406,-11.394531 1.140625,-11.46875 1.097656,-11.550781 1.003906,-11.664062 0.859375,-11.8125 0.710938,-11.957031 0.507812,-12.140625 0.25,-12.359375 Z m 0,0"
           id="path19" />
      </g>
    </g>
  </g>
  <g
     fill="#00ffff"
     fill-opacity="1"
     id="g25"
     transform="translate(-59.984566,-0.38537407)">
    <g
       transform="translate(106.97713,12.744749)"
       id="g24">
      <g
         id="g23">
        <path
           d="m 5.328125,-12.34375 h 5.4375 c 0.445313,0 0.820313,0 1.125,0 0.300781,0 0.523437,0.01172 0.671875,0.03125 0.550781,0.02344 0.925781,0.121094 1.125,0.296875 0.226562,0.167969 0.34375,0.511719 0.34375,1.03125 0,0.0625 0,0.140625 0,0.234375 0,0.09375 -0.01172,0.1875 -0.03125,0.28125 -0.01172,0.148438 -0.03906,0.355469 -0.07813,0.625 -0.03125,0.261719 -0.07031,0.59375 -0.109375,1 l -0.15625,0.921875 c -0.136714,1.011719 -0.246089,1.671875 -0.32812,1.984375 -0.09375,0.46875 -0.25,0.8125 -0.46875,1.03125 -0.230469,0.21875 -0.589844,0.359375 -1.078125,0.421875 C 11.46875,-4.429688 10.875,-4.40625 10,-4.40625 H 4.390625 C 4.316406,-4.40625 4.25,-4.375 4.1875,-4.3125 4.15625,-4.28125 4.125,-4.179688 4.09375,-4.015625 c 0,0.085937 -0.027344,0.25 -0.078125,0.5 H 9.5 c 0.976562,0 1.597656,0.027344 1.859375,0.078125 0.40625,0.054688 0.679687,0.179688 0.828125,0.375 0.1875,0.179688 0.296875,0.542969 0.328125,1.09375 0.03125,0.148438 0.04687,0.351562 0.04687,0.609375 0,0.261719 0,0.574219 0,0.9375 V 0 H 3.140625 C 2.640625,0 2.226562,-0.0078125 1.90625,-0.03125 1.582031,-0.0625 1.328125,-0.0820312 1.140625,-0.09375 0.796875,-0.195312 0.550781,-0.359375 0.40625,-0.578125 0.300781,-0.773438 0.25,-1.03125 0.25,-1.34375 v -0.203125 c 0.019531,-0.300781 0.09375,-0.957031 0.21875,-1.96875 l 0.75,-5.328125 0.296875,-1.796875 c 0.113281,-0.582031 0.289063,-0.988281 0.53125,-1.21875 0.257813,-0.238281 0.609375,-0.378906 1.046875,-0.421875 0.175781,-0.03906 0.453125,-0.0625 0.828125,-0.0625 0.375,0 0.84375,0 1.40625,0 z m 0.0625,3.5 c -0.25,0 -0.398437,0.00781 -0.4375,0.015625 -0.03125,0.023437 -0.078125,0.0625 -0.140625,0.125 -0.03125,0.074219 -0.070312,0.152344 -0.109375,0.234375 0,0.0625 -0.023437,0.246094 -0.0625,0.546875 h 5.15625 c 0.132813,-0.019531 0.234375,-0.0625 0.296875,-0.125 0.05078,-0.050781 0.07813,-0.128906 0.07813,-0.234375 0.03125,-0.113281 0.05469,-0.300781 0.07813,-0.5625 z m 0,0"
           id="path22" />
      </g>
    </g>
  </g>
  <g
     fill="#ff00ff"
     fill-opacity="1"
     id="g34"
     transform="translate(-59.984566,-0.38537407)">
    <g
       transform="translate(62.731052,31.248038)"
       id="g33">
      <g
         id="g32">
        <path
           d="M 3.140625,2.96875 C 3.085938,3.25 3.015625,3.503906 2.921875,3.734375 2.847656,3.890625 2.757812,4.03125 2.65625,4.15625 2.550781,4.289062 2.429688,4.410156 2.296875,4.515625 2.210938,4.578125 2.109375,4.632812 1.984375,4.6875 1.867188,4.75 1.738281,4.804688 1.59375,4.859375 1.457031,4.910156 1.304688,4.941406 1.140625,4.953125 0.972656,4.972656 0.789062,5 0.59375,5.03125 0.476562,5.050781 0.34375,5.0625 0.1875,5.0625 0.0390625,5.070312 -0.117188,5.078125 -0.296875,5.078125 H -1.5 c 0.15625,-0.125 0.289062,-0.230469 0.390625,-0.3125 0.09375,-0.074219 0.167969,-0.136719 0.21875,-0.1875 C -0.722656,4.421875 -0.625,4.304688 -0.59375,4.234375 -0.507812,4.148438 -0.453125,4.039062 -0.421875,3.90625 -0.390625,3.820312 -0.363281,3.691406 -0.34375,3.515625 L 0.09375,0 l 1.109375,-7.921875 0.125,-0.921875 c 0.0625,-0.445312 0.113281,-0.816406 0.15625,-1.109375 0.039063,-0.289063 0.066406,-0.507813 0.078125,-0.65625 0.125,-0.539063 0.273438,-0.925781 0.453125,-1.15625 0.25,-0.300781 0.675781,-0.472656 1.28125,-0.515625 0.34375,-0.05078 1.003906,-0.07813 1.984375,-0.07813 h 5.609375 c 0.425781,0 0.78125,0 1.0625,0 0.289063,0 0.507813,0.01563 0.65625,0.04687 0.78125,0.05469 1.242187,0.246094 1.390625,0.578125 0.05078,0.08594 0.08203,0.1875 0.09375,0.3125 0.01953,0.125 0.03125,0.261719 0.03125,0.40625 0,0.0625 0,0.136719 0,0.21875 0,0.07422 -0.0078,0.15625 -0.01563,0.25 0,0.28125 -0.07813,0.851563 -0.234375,1.703125 -0.03125,0.292969 -0.109375,0.886719 -0.234375,1.78125 -0.125,0.886719 -0.292969,2.070312 -0.5,3.546875 -0.07422,0.46875 -0.136719,0.859375 -0.1875,1.171875 -0.04297,0.3125 -0.08594,0.5625 -0.125,0.75 -0.09375,0.511719 -0.265625,0.886719 -0.515625,1.125 -0.1875,0.179688 -0.511719,0.308594 -0.96875,0.390625 C 10.988281,-0.0234375 10.359375,0 9.453125,0 h -5.8125 z m 0.96875,-6.484375 H 9.09375 c 0.050781,-0.00781 0.097656,-0.015625 0.140625,-0.015625 0.039063,0 0.070313,0 0.09375,0 C 9.367188,-3.570312 9.425781,-3.609375 9.5,-3.640625 9.582031,-3.722656 9.628906,-3.820312 9.640625,-3.9375 9.671875,-4.039062 9.695312,-4.195312 9.71875,-4.40625 l 0.625,-4.4375 H 5.875 c -0.292969,0 -0.476562,0.00781 -0.546875,0.015625 -0.148437,0 -0.261719,0.042969 -0.34375,0.125 -0.03125,0.042969 -0.074219,0.136719 -0.125,0.28125 -0.023437,0.03125 -0.042969,0.089844 -0.0625,0.171875 -0.011719,0.085938 -0.03125,0.195312 -0.0625,0.328125 z m 0,0"
           id="path31" />
      </g>
    </g>
  </g>
  <g
     fill="#ff00ff"
     fill-opacity="1"
     id="g37"
     transform="translate(-59.984566,-0.38537407)">
    <g
       transform="translate(77.085895,31.248038)"
       id="g36">
      <g
         id="g35">
        <path
           d="m 1.21875,-8.84375 c 0.101562,-0.75 0.179688,-1.238281 0.234375,-1.46875 0.144531,-0.769531 0.34375,-1.28125 0.59375,-1.53125 0.226563,-0.25 0.582031,-0.394531 1.0625,-0.4375 0.1875,-0.03906 0.445313,-0.0625 0.78125,-0.0625 0.332031,0 0.75,0 1.25,0 h 5.71875 c 0.613281,0 1.113281,0.01172 1.5,0.03125 0.394531,0.02344 0.675781,0.05469 0.84375,0.09375 0.300781,0.05469 0.519531,0.1875 0.65625,0.40625 0.113281,0.167969 0.171875,0.445312 0.171875,0.828125 v 0.25 c 0,0.3125 -0.07422,0.945313 -0.21875,1.890625 l -0.75,5.328125 c -0.117188,0.886719 -0.214844,1.496094 -0.296875,1.828125 -0.105469,0.460938 -0.230469,0.796875 -0.375,1.015625 -0.1875,0.28125 -0.523437,0.476563 -1,0.578125 -0.167969,0.0117188 -0.433594,0.03125 -0.796875,0.0625 C 10.226562,-0.0078125 9.765625,0 9.203125,0 H 3.34375 C 2.8125,0 2.367188,-0.0078125 2.015625,-0.03125 1.671875,-0.0625 1.40625,-0.0820312 1.21875,-0.09375 0.851562,-0.164062 0.585938,-0.304688 0.421875,-0.515625 0.367188,-0.617188 0.328125,-0.738281 0.296875,-0.875 0.265625,-1.019531 0.25,-1.175781 0.25,-1.34375 v -0.296875 c 0.03125,-0.332031 0.101562,-0.957031 0.21875,-1.875 C 0.519531,-3.847656 0.582031,-4.25 0.65625,-4.71875 0.726562,-5.195312 0.804688,-5.742188 0.890625,-6.359375 0.992188,-6.984375 1.070312,-7.5 1.125,-7.90625 1.175781,-8.3125 1.207031,-8.625 1.21875,-8.84375 Z m 4.765625,0 c -0.199219,0 -0.367187,0 -0.5,0 -0.136719,0 -0.234375,0.00781 -0.296875,0.015625 -0.167969,0.042969 -0.289062,0.09375 -0.359375,0.15625 C 4.785156,-8.617188 4.738281,-8.476562 4.6875,-8.25 c 0,0.023438 -0.00781,0.0625 -0.015625,0.125 -0.011719,0.054688 -0.023437,0.121094 -0.03125,0.203125 l -0.625,4.40625 h 5.1875 c 0.113281,-0.03125 0.1875,-0.0625 0.21875,-0.09375 0.0625,-0.070313 0.09375,-0.148437 0.09375,-0.234375 0.03125,-0.039062 0.054687,-0.109375 0.078125,-0.203125 0.019531,-0.09375 0.035156,-0.210937 0.046875,-0.359375 l 0.625,-4.4375 z m 0,0"
           id="path34" />
      </g>
    </g>
  </g>
  <g
     fill="#ff00ff"
     fill-opacity="1"
     id="g40"
     transform="translate(-59.984566,-0.38537407)">
    <g
       transform="translate(91.34105,31.248038)"
       id="g39">
      <g
         id="g38">
        <path
           d="m 6.234375,-17.453125 -0.578125,4.1875 H 2.125 L 2.1875,-13.9375 c 0.082031,-0.476562 0.148438,-0.867188 0.203125,-1.171875 0.050781,-0.3125 0.09375,-0.539063 0.125,-0.6875 0.101563,-0.519531 0.242187,-0.878906 0.421875,-1.078125 0.238281,-0.257812 0.570312,-0.425781 1,-0.5 0.382812,-0.05078 1.148438,-0.07813 2.296875,-0.07813 z M 2,-12.359375 h 3.53125 l -1.25,8.875 C 4.21875,-3.023438 4.160156,-2.632812 4.109375,-2.3125 4.054688,-2 4.007812,-1.757812 3.96875,-1.59375 c -0.105469,0.511719 -0.273438,0.886719 -0.5,1.125 -0.273438,0.230469 -0.671875,0.3710938 -1.203125,0.421875 -0.167969,0.0117188 -0.40625,0.0234375 -0.71875,0.03125 C 1.242188,-0.00390625 0.867188,0 0.421875,0 H -0.75 c 0.15625,-0.132812 0.28125,-0.242188 0.375,-0.328125 0.085938,-0.082031 0.152344,-0.144531 0.203125,-0.1875 0.21875,-0.21875 0.347656,-0.363281 0.390625,-0.4375 0.082031,-0.113281 0.144531,-0.238281 0.1875,-0.375 C 0.445312,-1.410156 0.476562,-1.570312 0.5,-1.8125 Z m 0,0"
           id="path37" />
      </g>
    </g>
  </g>
  <g
     fill="#ff00ff"
     fill-opacity="1"
     id="g43"
     transform="translate(-59.984566,-0.38537407)">
    <g
       transform="translate(97.073016,31.248038)"
       id="g42">
      <g
         id="g41">
        <path
           d="M 1.5,-8.828125 C 1.5625,-9.304688 1.617188,-9.695312 1.671875,-10 c 0.050781,-0.3125 0.082031,-0.539062 0.09375,-0.6875 0.101563,-0.519531 0.242187,-0.878906 0.421875,-1.078125 0.207031,-0.28125 0.539062,-0.445313 1,-0.5 0.332031,-0.05078 0.859375,-0.07813 1.578125,-0.07813 h 7 c 0.226563,0 0.429687,0 0.609375,0 0.175781,0 0.320312,0.01172 0.4375,0.03125 0.507812,0.02344 0.875,0.117188 1.09375,0.28125 0.25,0.167969 0.375,0.523438 0.375,1.0625 0,0.335938 -0.07422,1.046875 -0.21875,2.140625 l -0.125,0.90625 -0.5,3.515625 -0.125,0.921875 c -0.07422,0.511719 -0.140625,0.9375 -0.203125,1.28125 -0.05469,0.34375 -0.105469,0.59375 -0.15625,0.75 -0.09375,0.375 -0.21875,0.667969 -0.375,0.875 -0.199219,0.21875 -0.507813,0.382813 -0.921875,0.484375 C 11.5,-0.0820312 11.21875,-0.0625 10.8125,-0.03125 10.414062,-0.0078125 9.898438,0 9.265625,0 l 0.5,-3.484375 0.125,-0.921875 0.5,-3.515625 0.125,-0.90625 h -4.5625 C 5.890625,-8.835938 5.832031,-8.84375 5.78125,-8.84375 c -0.054688,0 -0.105469,0 -0.15625,0 -0.117188,0 -0.1875,0.00781 -0.21875,0.015625 -0.117188,0 -0.199219,0.027344 -0.25,0.078125 -0.0625,0.074219 -0.121094,0.171875 -0.171875,0.296875 0,0.074219 -0.027344,0.25 -0.078125,0.53125 l -0.5,3.515625 -0.125,0.921875 c -0.117188,0.875 -0.214844,1.480469 -0.296875,1.8125 -0.054687,0.273437 -0.121094,0.5 -0.203125,0.6875 -0.085938,0.179687 -0.171875,0.335937 -0.265625,0.46875 -0.21875,0.242187 -0.601563,0.398437 -1.140625,0.46875 -0.167969,0.0117188 -0.417969,0.0234375 -0.75,0.03125 C 1.289062,-0.00390625 0.882812,0 0.40625,0 H -0.75 c 0.335938,-0.28125 0.542969,-0.460938 0.625,-0.546875 0.1953125,-0.164063 0.332031,-0.300781 0.40625,-0.40625 0.03125,-0.039063 0.050781,-0.082031 0.0625,-0.125 C 0.363281,-1.117188 0.382812,-1.164062 0.40625,-1.21875 0.4375,-1.300781 0.46875,-1.476562 0.5,-1.75 l 0.25,-1.734375 0.125,-0.921875 0.5,-3.515625 z m 0,0"
           id="path40" />
      </g>
    </g>
  </g>
  <g
     fill="#ff00ff"
     fill-opacity="1"
     id="g46"
     transform="translate(-59.984566,-0.38537407)">
    <g
       transform="translate(111.57739,31.248038)"
       id="g45">
      <g
         id="g44">
        <path
           d="M 4.734375,-17.46875 H 7.03125 c 0.394531,0 0.691406,0.02734 0.890625,0.07813 0.414063,0.04297 0.695313,0.15625 0.84375,0.34375 C 8.921875,-16.847656 9,-16.53125 9,-16.09375 c 0,0.167969 -0.015625,0.429688 -0.046875,0.78125 -0.023437,0.34375 -0.074219,0.789062 -0.15625,1.328125 l -0.21875,1.625 H 14.0625 c -0.15625,1.0625 -0.28125,1.777344 -0.375,2.140625 -0.125,0.46875 -0.34375,0.808594 -0.65625,1.015625 -0.21875,0.136719 -0.511719,0.230469 -0.875,0.28125 -0.167969,0.023437 -0.429688,0.039063 -0.78125,0.046875 -0.355469,0 -0.808594,0 -1.359375,0 h -1.9375 l -0.125,0.921875 -0.5,3.515625 -0.125,0.90625 H 12.8125 c -0.07422,0.511719 -0.140625,0.945312 -0.203125,1.296875 -0.05469,0.34375 -0.101563,0.605469 -0.140625,0.78125 -0.105469,0.417969 -0.265625,0.734375 -0.484375,0.953125 -0.179687,0.1875 -0.5,0.324219 -0.96875,0.40625 -0.355469,0.0429688 -1.054687,0.0625 -2.09375,0.0625 h -2.25 c -1.074219,0 -1.789063,-0.0195312 -2.140625,-0.0625 -0.449219,-0.082031 -0.746094,-0.234375 -0.890625,-0.453125 -0.105469,-0.1875 -0.15625,-0.425781 -0.15625,-0.71875 v -0.40625 C 3.535156,-2.003906 3.632812,-2.625 3.78125,-3.53125 l 0.125,-0.90625 0.5,-3.515625 0.125,-0.921875 H 1 c 0.082031,-0.476562 0.144531,-0.878906 0.1875,-1.203125 0.050781,-0.320313 0.085938,-0.5625 0.109375,-0.71875 0.144531,-0.59375 0.359375,-1 0.640625,-1.21875 0.25,-0.144531 0.582031,-0.242187 1,-0.296875 0.164062,-0.03125 0.378906,-0.04687 0.640625,-0.04687 0.257813,0 0.570313,0 0.9375,0 H 5.03125 l 0.5,-3.59375 c 0.019531,-0.132813 0.03125,-0.238281 0.03125,-0.3125 0,-0.07031 0,-0.125 0,-0.15625 0,-0.144531 -0.023438,-0.242187 -0.0625,-0.296875 -0.011719,-0.05078 -0.039062,-0.101562 -0.078125,-0.15625 -0.042969,-0.0625 -0.105469,-0.117188 -0.1875,-0.171875 -0.03125,-0.05078 -0.089844,-0.109375 -0.171875,-0.171875 -0.085938,-0.07031 -0.195312,-0.15625 -0.328125,-0.25 z m 0,0"
           id="path43" />
      </g>
    </g>
  </g>
  <g
     fill="#00ffff"
     fill-opacity="1"
     id="g49"
     transform="translate(-59.984566,-0.38537407)">
    <g
       transform="translate(61.484566,31.248038)"
       id="g48">
      <g
         id="g47">
        <path
           d="M 3.140625,2.96875 C 3.085938,3.25 3.015625,3.503906 2.921875,3.734375 2.847656,3.890625 2.757812,4.03125 2.65625,4.15625 2.550781,4.289062 2.429688,4.410156 2.296875,4.515625 2.210938,4.578125 2.109375,4.632812 1.984375,4.6875 1.867188,4.75 1.738281,4.804688 1.59375,4.859375 1.457031,4.910156 1.304688,4.941406 1.140625,4.953125 0.972656,4.972656 0.789062,5 0.59375,5.03125 0.476562,5.050781 0.34375,5.0625 0.1875,5.0625 0.0390625,5.070312 -0.117188,5.078125 -0.296875,5.078125 H -1.5 c 0.15625,-0.125 0.289062,-0.230469 0.390625,-0.3125 0.09375,-0.074219 0.167969,-0.136719 0.21875,-0.1875 C -0.722656,4.421875 -0.625,4.304688 -0.59375,4.234375 -0.507812,4.148438 -0.453125,4.039062 -0.421875,3.90625 -0.390625,3.820312 -0.363281,3.691406 -0.34375,3.515625 L 0.09375,0 l 1.109375,-7.921875 0.125,-0.921875 c 0.0625,-0.445312 0.113281,-0.816406 0.15625,-1.109375 0.039063,-0.289063 0.066406,-0.507813 0.078125,-0.65625 0.125,-0.539063 0.273438,-0.925781 0.453125,-1.15625 0.25,-0.300781 0.675781,-0.472656 1.28125,-0.515625 0.34375,-0.05078 1.003906,-0.07813 1.984375,-0.07813 h 5.609375 c 0.425781,0 0.78125,0 1.0625,0 0.289063,0 0.507813,0.01563 0.65625,0.04687 0.78125,0.05469 1.242187,0.246094 1.390625,0.578125 0.05078,0.08594 0.08203,0.1875 0.09375,0.3125 0.01953,0.125 0.03125,0.261719 0.03125,0.40625 0,0.0625 0,0.136719 0,0.21875 0,0.07422 -0.0078,0.15625 -0.01563,0.25 0,0.28125 -0.07813,0.851563 -0.234375,1.703125 -0.03125,0.292969 -0.109375,0.886719 -0.234375,1.78125 -0.125,0.886719 -0.292969,2.070312 -0.5,3.546875 -0.07422,0.46875 -0.136719,0.859375 -0.1875,1.171875 -0.04297,0.3125 -0.08594,0.5625 -0.125,0.75 -0.09375,0.511719 -0.265625,0.886719 -0.515625,1.125 -0.1875,0.179688 -0.511719,0.308594 -0.96875,0.390625 C 10.988281,-0.0234375 10.359375,0 9.453125,0 h -5.8125 z m 0.96875,-6.484375 H 9.09375 c 0.050781,-0.00781 0.097656,-0.015625 0.140625,-0.015625 0.039063,0 0.070313,0 0.09375,0 C 9.367188,-3.570312 9.425781,-3.609375 9.5,-3.640625 9.582031,-3.722656 9.628906,-3.820312 9.640625,-3.9375 9.671875,-4.039062 9.695312,-4.195312 9.71875,-4.40625 l 0.625,-4.4375 H 5.875 c -0.292969,0 -0.476562,0.00781 -0.546875,0.015625 -0.148437,0 -0.261719,0.042969 -0.34375,0.125 -0.03125,0.042969 -0.074219,0.136719 -0.125,0.28125 -0.023437,0.03125 -0.042969,0.089844 -0.0625,0.171875 -0.011719,0.085938 -0.03125,0.195312 -0.0625,0.328125 z m 0,0"
           id="path46" />
      </g>
    </g>
  </g>
  <g
     fill="#00ffff"
     fill-opacity="1"
     id="g52"
     transform="translate(-59.984566,-0.38537407)">
    <g
       transform="translate(75.839409,31.248038)"
       id="g51">
      <g
         id="g50">
        <path
           d="m 1.21875,-8.84375 c 0.101562,-0.75 0.179688,-1.238281 0.234375,-1.46875 0.144531,-0.769531 0.34375,-1.28125 0.59375,-1.53125 0.226563,-0.25 0.582031,-0.394531 1.0625,-0.4375 0.1875,-0.03906 0.445313,-0.0625 0.78125,-0.0625 0.332031,0 0.75,0 1.25,0 h 5.71875 c 0.613281,0 1.113281,0.01172 1.5,0.03125 0.394531,0.02344 0.675781,0.05469 0.84375,0.09375 0.300781,0.05469 0.519531,0.1875 0.65625,0.40625 0.113281,0.167969 0.171875,0.445312 0.171875,0.828125 v 0.25 c 0,0.3125 -0.07422,0.945313 -0.21875,1.890625 l -0.75,5.328125 c -0.117188,0.886719 -0.214844,1.496094 -0.296875,1.828125 -0.105469,0.460938 -0.230469,0.796875 -0.375,1.015625 -0.1875,0.28125 -0.523437,0.476563 -1,0.578125 -0.167969,0.0117188 -0.433594,0.03125 -0.796875,0.0625 C 10.226562,-0.0078125 9.765625,0 9.203125,0 H 3.34375 C 2.8125,0 2.367188,-0.0078125 2.015625,-0.03125 1.671875,-0.0625 1.40625,-0.0820312 1.21875,-0.09375 0.851562,-0.164062 0.585938,-0.304688 0.421875,-0.515625 0.367188,-0.617188 0.328125,-0.738281 0.296875,-0.875 0.265625,-1.019531 0.25,-1.175781 0.25,-1.34375 v -0.296875 c 0.03125,-0.332031 0.101562,-0.957031 0.21875,-1.875 C 0.519531,-3.847656 0.582031,-4.25 0.65625,-4.71875 0.726562,-5.195312 0.804688,-5.742188 0.890625,-6.359375 0.992188,-6.984375 1.070312,-7.5 1.125,-7.90625 1.175781,-8.3125 1.207031,-8.625 1.21875,-8.84375 Z m 4.765625,0 c -0.199219,0 -0.367187,0 -0.5,0 -0.136719,0 -0.234375,0.00781 -0.296875,0.015625 -0.167969,0.042969 -0.289062,0.09375 -0.359375,0.15625 C 4.785156,-8.617188 4.738281,-8.476562 4.6875,-8.25 c 0,0.023438 -0.00781,0.0625 -0.015625,0.125 -0.011719,0.054688 -0.023437,0.121094 -0.03125,0.203125 l -0.625,4.40625 h 5.1875 c 0.113281,-0.03125 0.1875,-0.0625 0.21875,-0.09375 0.0625,-0.070313 0.09375,-0.148437 0.09375,-0.234375 0.03125,-0.039062 0.054687,-0.109375 0.078125,-0.203125 0.019531,-0.09375 0.035156,-0.210937 0.046875,-0.359375 l 0.625,-4.4375 z m 0,0"
           id="path49" />
      </g>
    </g>
  </g>
  <g
     fill="#00ffff"
     fill-opacity="1"
     id="g55"
     transform="translate(-59.984566,-0.38537407)">
    <g
       transform="translate(90.094565,31.248038)"
       id="g54">
      <g
         id="g53">
        <path
           d="m 6.234375,-17.453125 -0.578125,4.1875 H 2.125 L 2.1875,-13.9375 c 0.082031,-0.476562 0.148438,-0.867188 0.203125,-1.171875 0.050781,-0.3125 0.09375,-0.539063 0.125,-0.6875 0.101563,-0.519531 0.242187,-0.878906 0.421875,-1.078125 0.238281,-0.257812 0.570312,-0.425781 1,-0.5 0.382812,-0.05078 1.148438,-0.07813 2.296875,-0.07813 z M 2,-12.359375 h 3.53125 l -1.25,8.875 C 4.21875,-3.023438 4.160156,-2.632812 4.109375,-2.3125 4.054688,-2 4.007812,-1.757812 3.96875,-1.59375 c -0.105469,0.511719 -0.273438,0.886719 -0.5,1.125 -0.273438,0.230469 -0.671875,0.3710938 -1.203125,0.421875 -0.167969,0.0117188 -0.40625,0.0234375 -0.71875,0.03125 C 1.242188,-0.00390625 0.867188,0 0.421875,0 H -0.75 c 0.15625,-0.132812 0.28125,-0.242188 0.375,-0.328125 0.085938,-0.082031 0.152344,-0.144531 0.203125,-0.1875 0.21875,-0.21875 0.347656,-0.363281 0.390625,-0.4375 0.082031,-0.113281 0.144531,-0.238281 0.1875,-0.375 C 0.445312,-1.410156 0.476562,-1.570312 0.5,-1.8125 Z m 0,0"
           id="path52" />
      </g>
    </g>
  </g>
  <g
     fill="#00ffff"
     fill-opacity="1"
     id="g58"
     transform="translate(-59.984566,-0.38537407)">
    <g
       transform="translate(95.82653,31.248038)"
       id="g57">
      <g
         id="g56">
        <path
           d="M 1.5,-8.828125 C 1.5625,-9.304688 1.617188,-9.695312 1.671875,-10 c 0.050781,-0.3125 0.082031,-0.539062 0.09375,-0.6875 0.101563,-0.519531 0.242187,-0.878906 0.421875,-1.078125 0.207031,-0.28125 0.539062,-0.445313 1,-0.5 0.332031,-0.05078 0.859375,-0.07813 1.578125,-0.07813 h 7 c 0.226563,0 0.429687,0 0.609375,0 0.175781,0 0.320312,0.01172 0.4375,0.03125 0.507812,0.02344 0.875,0.117188 1.09375,0.28125 0.25,0.167969 0.375,0.523438 0.375,1.0625 0,0.335938 -0.07422,1.046875 -0.21875,2.140625 l -0.125,0.90625 -0.5,3.515625 -0.125,0.921875 c -0.07422,0.511719 -0.140625,0.9375 -0.203125,1.28125 -0.05469,0.34375 -0.105469,0.59375 -0.15625,0.75 -0.09375,0.375 -0.21875,0.667969 -0.375,0.875 -0.199219,0.21875 -0.507813,0.382813 -0.921875,0.484375 C 11.5,-0.0820312 11.21875,-0.0625 10.8125,-0.03125 10.414062,-0.0078125 9.898438,0 9.265625,0 l 0.5,-3.484375 0.125,-0.921875 0.5,-3.515625 0.125,-0.90625 h -4.5625 C 5.890625,-8.835938 5.832031,-8.84375 5.78125,-8.84375 c -0.054688,0 -0.105469,0 -0.15625,0 -0.117188,0 -0.1875,0.00781 -0.21875,0.015625 -0.117188,0 -0.199219,0.027344 -0.25,0.078125 -0.0625,0.074219 -0.121094,0.171875 -0.171875,0.296875 0,0.074219 -0.027344,0.25 -0.078125,0.53125 l -0.5,3.515625 -0.125,0.921875 c -0.117188,0.875 -0.214844,1.480469 -0.296875,1.8125 -0.054687,0.273437 -0.121094,0.5 -0.203125,0.6875 -0.085938,0.179687 -0.171875,0.335937 -0.265625,0.46875 -0.21875,0.242187 -0.601563,0.398437 -1.140625,0.46875 -0.167969,0.0117188 -0.417969,0.0234375 -0.75,0.03125 C 1.289062,-0.00390625 0.882812,0 0.40625,0 H -0.75 c 0.335938,-0.28125 0.542969,-0.460938 0.625,-0.546875 0.1953125,-0.164063 0.332031,-0.300781 0.40625,-0.40625 0.03125,-0.039063 0.050781,-0.082031 0.0625,-0.125 C 0.363281,-1.117188 0.382812,-1.164062 0.40625,-1.21875 0.4375,-1.300781 0.46875,-1.476562 0.5,-1.75 l 0.25,-1.734375 0.125,-0.921875 0.5,-3.515625 z m 0,0"
           id="path55" />
      </g>
    </g>
  </g>
  <g
     fill="#00ffff"
     fill-opacity="1"
     id="g61"
     transform="translate(-59.984566,-0.38537407)">
    <g
       transform="translate(110.3309,31.248038)"
       id="g60">
      <g
         id="g59">
        <path
           d="M 4.734375,-17.46875 H 7.03125 c 0.394531,0 0.691406,0.02734 0.890625,0.07813 0.414063,0.04297 0.695313,0.15625 0.84375,0.34375 C 8.921875,-16.847656 9,-16.53125 9,-16.09375 c 0,0.167969 -0.015625,0.429688 -0.046875,0.78125 -0.023437,0.34375 -0.074219,0.789062 -0.15625,1.328125 l -0.21875,1.625 H 14.0625 c -0.15625,1.0625 -0.28125,1.777344 -0.375,2.140625 -0.125,0.46875 -0.34375,0.808594 -0.65625,1.015625 -0.21875,0.136719 -0.511719,0.230469 -0.875,0.28125 -0.167969,0.023437 -0.429688,0.039063 -0.78125,0.046875 -0.355469,0 -0.808594,0 -1.359375,0 h -1.9375 l -0.125,0.921875 -0.5,3.515625 -0.125,0.90625 H 12.8125 c -0.07422,0.511719 -0.140625,0.945312 -0.203125,1.296875 -0.05469,0.34375 -0.101563,0.605469 -0.140625,0.78125 -0.105469,0.417969 -0.265625,0.734375 -0.484375,0.953125 -0.179687,0.1875 -0.5,0.324219 -0.96875,0.40625 -0.355469,0.0429688 -1.054687,0.0625 -2.09375,0.0625 h -2.25 c -1.074219,0 -1.789063,-0.0195312 -2.140625,-0.0625 -0.449219,-0.082031 -0.746094,-0.234375 -0.890625,-0.453125 -0.105469,-0.1875 -0.15625,-0.425781 -0.15625,-0.71875 v -0.40625 C 3.535156,-2.003906 3.632812,-2.625 3.78125,-3.53125 l 0.125,-0.90625 0.5,-3.515625 0.125,-0.921875 H 1 c 0.082031,-0.476562 0.144531,-0.878906 0.1875,-1.203125 0.050781,-0.320313 0.085938,-0.5625 0.109375,-0.71875 0.144531,-0.59375 0.359375,-1 0.640625,-1.21875 0.25,-0.144531 0.582031,-0.242187 1,-0.296875 0.164062,-0.03125 0.378906,-0.04687 0.640625,-0.04687 0.257813,0 0.570313,0 0.9375,0 H 5.03125 l 0.5,-3.59375 c 0.019531,-0.132813 0.03125,-0.238281 0.03125,-0.3125 0,-0.07031 0,-0.125 0,-0.15625 0,-0.144531 -0.023438,-0.242187 -0.0625,-0.296875 -0.011719,-0.05078 -0.039062,-0.101562 -0.078125,-0.15625 -0.042969,-0.0625 -0.105469,-0.117188 -0.1875,-0.171875 -0.03125,-0.05078 -0.089844,-0.109375 -0.171875,-0.171875 -0.085938,-0.07031 -0.195312,-0.15625 -0.328125,-0.25 z m 0,0"
           id="path58" />
      </g>
    </g>
  </g>
  <g
     fill="#24127b"
     fill-opacity="1"
     id="g70"
     transform="translate(-59.984566,-0.38537407)">
    <g
       transform="translate(65.507788,12.744749)"
       id="g69">
      <g
         id="g68">
        <path
           d="m 1.21875,-8.84375 c 0.15625,-1.0625 0.28125,-1.769531 0.375,-2.125 0.113281,-0.457031 0.304688,-0.796875 0.578125,-1.015625 0.21875,-0.164063 0.550781,-0.273437 1,-0.328125 0.175781,-0.03125 0.414063,-0.04687 0.71875,-0.04687 0.3125,0 0.691406,0 1.140625,0 h 9.25 c -0.148438,1.125 -0.289062,1.882813 -0.421875,2.265625 -0.15625,0.46875 -0.40625,0.792969 -0.75,0.96875 -0.105469,0.054688 -0.21875,0.09375 -0.34375,0.125 -0.125,0.023438 -0.277344,0.046875 -0.453125,0.078125 -0.304688,0.054687 -0.859375,0.078125 -1.671875,0.078125 H 5.75 c -0.167969,0 -0.3125,0 -0.4375,0 -0.117188,0 -0.199219,0.00781 -0.25,0.015625 -0.117188,0 -0.199219,0.042969 -0.25,0.125 -0.03125,0.042969 -0.070312,0.121094 -0.109375,0.234375 0,0.0625 -0.023437,0.234375 -0.0625,0.515625 H 10.125 c 0.488281,0 0.894531,0 1.21875,0 0.332031,0 0.570312,0.015625 0.71875,0.046875 0.53125,0.054688 0.890625,0.1875 1.078125,0.40625 0.164063,0.179688 0.25,0.5 0.25,0.96875 V -6.375 c 0,0.148438 -0.02344,0.382812 -0.0625,0.703125 C 13.296875,-5.347656 13.25,-4.9375 13.1875,-4.4375 l -0.125,0.921875 c -0.07422,0.554687 -0.148438,1.007813 -0.21875,1.359375 -0.07422,0.355469 -0.136719,0.625 -0.1875,0.8125 C 12.5625,-1 12.445312,-0.742188 12.3125,-0.578125 c -0.199219,0.199219 -0.480469,0.351563 -0.84375,0.453125 -0.167969,0.023438 -0.460938,0.0429688 -0.875,0.0625 -0.417969,0.0234375 -0.945312,0.03125 -1.578125,0.03125 H 3.53125 c -0.648438,0 -1.167969,-0.0078125 -1.5625,-0.03125 C 1.570312,-0.0820312 1.28125,-0.101562 1.09375,-0.125 0.78125,-0.226562 0.554688,-0.359375 0.421875,-0.515625 0.304688,-0.703125 0.25,-0.988281 0.25,-1.375 c 0,-0.332031 0.070312,-1.046875 0.21875,-2.140625 h 8.203125 c 0.144531,0 0.269531,0 0.375,0 C 9.148438,-3.523438 9.21875,-3.53125 9.25,-3.53125 c 0.082031,-0.019531 0.15625,-0.0625 0.21875,-0.125 0.0625,-0.101562 0.09375,-0.207031 0.09375,-0.3125 0.039062,-0.09375 0.066406,-0.25 0.078125,-0.46875 H 3.53125 c -0.324219,0 -0.609375,-0.00391 -0.859375,-0.015625 -0.25,-0.00781 -0.453125,-0.019531 -0.609375,-0.03125 -0.460938,-0.050781 -0.796875,-0.164063 -1.015625,-0.34375 -0.167969,-0.207031 -0.25,-0.492187 -0.25,-0.859375 v -0.296875 c 0.03125,-0.164063 0.070313,-0.410156 0.125,-0.734375 0.050781,-0.320312 0.109375,-0.734375 0.171875,-1.234375 z m 0,0"
           id="path67" />
      </g>
    </g>
  </g>
  <g
     fill="#24127b"
     fill-opacity="1"
     id="g73"
     transform="translate(-59.984566,-0.38537407)">
    <g
       transform="translate(79.663256,12.744749)"
       id="g72">
      <g
         id="g71">
        <path
           d="m 11.359375,-12.359375 c 0.738281,0 1.253906,0.02734 1.546875,0.07813 0.363281,0.04297 0.613281,0.125 0.75,0.25 0.25,0.167969 0.375,0.515625 0.375,1.046875 0,0.04297 0,0.08984 0,0.140625 0,0.05469 -0.01172,0.121094 -0.03125,0.203125 0,0.148437 -0.01563,0.371094 -0.04687,0.671875 -0.03125,0.304688 -0.07813,0.679688 -0.140625,1.125 l -0.40625,2.78125 -0.34375,2.546875 c -0.07422,0.605469 -0.148438,1.09375 -0.21875,1.46875 -0.07422,0.367187 -0.140625,0.640625 -0.203125,0.828125 -0.105469,0.34375 -0.273437,0.609375 -0.5,0.796875 -0.1875,0.136719 -0.464844,0.246094 -0.828125,0.328125 -0.167969,0.0117188 -0.449219,0.03125 -0.84375,0.0625 C 10.070312,-0.0078125 9.554688,0 8.921875,0 H 3.515625 C 2.910156,0 2.414062,-0.0078125 2.03125,-0.03125 1.65625,-0.0625 1.378906,-0.0820312 1.203125,-0.09375 0.847656,-0.175781 0.597656,-0.300781 0.453125,-0.46875 0.316406,-0.65625 0.25,-0.945312 0.25,-1.34375 V -1.5 C 0.28125,-1.84375 0.351562,-2.515625 0.46875,-3.515625 L 0.625,-4.4375 c 0.0625,-0.445312 0.117188,-0.816406 0.171875,-1.109375 0.050781,-0.300781 0.082031,-0.53125 0.09375,-0.6875 0.125,-0.582031 0.289063,-0.976563 0.5,-1.1875 C 1.628906,-7.660156 1.957031,-7.800781 2.375,-7.84375 2.71875,-7.894531 3.351562,-7.921875 4.28125,-7.921875 H 9.5 c 0.09375,0 0.175781,-0.00391 0.25,-0.015625 0.082031,-0.00781 0.128906,-0.015625 0.140625,-0.015625 0.082031,-0.00781 0.160156,-0.050781 0.234375,-0.125 0.03906,-0.050781 0.0625,-0.125 0.0625,-0.21875 0.03906,-0.101563 0.06641,-0.285156 0.07813,-0.546875 H 4.78125 c -0.449219,0 -0.828125,-0.00391 -1.140625,-0.015625 C 3.335938,-8.867188 3.113281,-8.878906 2.96875,-8.890625 2.53125,-8.960938 2.222656,-9.113281 2.046875,-9.34375 1.890625,-9.570312 1.789062,-9.953125 1.75,-10.484375 1.75,-10.640625 1.74219,-10.84375 1.734375,-11.09375 1.722656,-11.34375 1.71875,-11.625 1.71875,-11.9375 v -0.421875 z m -6.625,7.921875 c -0.21875,0 -0.34375,0.011719 -0.375,0.03125 -0.054687,0 -0.109375,0.03125 -0.171875,0.09375 -0.03125,0.03125 -0.0625,0.15625 -0.09375,0.375 0,0.085938 -0.027344,0.226562 -0.078125,0.421875 h 4.875 c 0.101563,0 0.191406,0 0.265625,0 0.070312,-0.00781 0.117188,-0.015625 0.140625,-0.015625 0.101563,-0.019531 0.160156,-0.054688 0.171875,-0.109375 0.03125,-0.03125 0.0625,-0.113281 0.09375,-0.25 0.039062,-0.09375 0.066406,-0.273437 0.078125,-0.546875 z m 0,0"
           id="path70" />
      </g>
    </g>
  </g>
  <g
     fill="#24127b"
     fill-opacity="1"
     id="g76"
     transform="translate(-59.984566,-0.38537407)">
    <g
       transform="translate(93.918411,12.744749)"
       id="g75">
      <g
         id="g74">
        <path
           d="m 0.25,-12.359375 h 1.046875 c 0.300781,0 0.554687,0 0.765625,0 0.21875,0 0.394531,0.0078 0.53125,0.01563 0.144531,0 0.285156,0.0078 0.421875,0.01563 0.144531,0.01172 0.300781,0.02734 0.46875,0.04687 0.320313,0 0.539063,0.08594 0.65625,0.25 0.09375,0.117188 0.222656,0.230469 0.390625,0.34375 0.15625,0.105469 0.253906,0.320312 0.296875,0.640625 0.039063,0.167969 0.070313,0.324219 0.09375,0.46875 0.019531,0.136719 0.039063,0.273437 0.0625,0.40625 0.03125,0.117187 0.0625,0.28125 0.09375,0.5 C 5.117188,-9.453125 5.15625,-9.1875 5.1875,-8.875 l 0.75,5.359375 h 2.640625 c 0.125,-0.03125 0.207031,-0.0625 0.25,-0.09375 0.0625,-0.070313 0.101563,-0.148437 0.125,-0.234375 0.00781,-0.039062 0.019531,-0.109375 0.03125,-0.203125 0.019531,-0.09375 0.039063,-0.210937 0.0625,-0.359375 l 0.640625,-4.734375 0.484375,-3.21875 h 0.5 c 0.363281,0 0.671875,0 0.921875,0 0.25,0 0.445312,0.01563 0.59375,0.04687 0.476562,0.05469 0.800781,0.167969 0.96875,0.34375 0.1875,0.167969 0.28125,0.484375 0.28125,0.953125 v 0.453125 c -0.03125,0.335938 -0.109375,0.914062 -0.234375,1.734375 l -0.34375,2.45313 -0.390625,2.859375 c -0.136719,0.96875 -0.242188,1.609375 -0.3125,1.921875 -0.117188,0.511719 -0.289062,0.886719 -0.515625,1.125 -0.273437,0.230469 -0.703125,0.3710938 -1.296875,0.421875 -0.148438,0.0117188 -0.351562,0.0234375 -0.609375,0.03125 C 9.472656,-0.00390625 9.148438,0 8.765625,0 H 6.4375 c -0.5,0 -0.917969,-0.00390625 -1.25,-0.015625 -0.324219,-0.0078125 -0.574219,-0.0195312 -0.75,-0.03125 -0.585938,-0.070313 -1.007812,-0.238281 -1.265625,-0.5 C 2.929688,-0.796875 2.738281,-1.3125 2.59375,-2.09375 2.570312,-2.226562 2.546875,-2.414062 2.515625,-2.65625 2.484375,-2.894531 2.441406,-3.171875 2.390625,-3.484375 l -0.515625,-3.6875 -0.484375,-3.375 C 1.378906,-10.773438 1.347656,-10.96875 1.296875,-11.125 1.242188,-11.28125 1.191406,-11.394531 1.140625,-11.46875 1.097656,-11.550781 1.003906,-11.664062 0.859375,-11.8125 0.710938,-11.957031 0.507812,-12.140625 0.25,-12.359375 Z m 0,0"
           id="path73" />
      </g>
    </g>
  </g>
  <g
     fill="#24127b"
     fill-opacity="1"
     id="g79"
     transform="translate(-59.984566,-0.38537407)">
    <g
       transform="translate(107.60038,12.744749)"
       id="g78">
      <g
         id="g77">
        <path
           d="m 5.328125,-12.34375 h 5.4375 c 0.445313,0 0.820313,0 1.125,0 0.300781,0 0.523437,0.01172 0.671875,0.03125 0.550781,0.02344 0.925781,0.121094 1.125,0.296875 0.226562,0.167969 0.34375,0.511719 0.34375,1.03125 0,0.0625 0,0.140625 0,0.234375 0,0.09375 -0.01172,0.1875 -0.03125,0.28125 -0.01172,0.148438 -0.03906,0.355469 -0.07813,0.625 -0.03125,0.261719 -0.07031,0.59375 -0.109375,1 l -0.15625,0.921875 c -0.136714,1.011719 -0.246089,1.671875 -0.32812,1.984375 -0.09375,0.46875 -0.25,0.8125 -0.46875,1.03125 -0.230469,0.21875 -0.589844,0.359375 -1.078125,0.421875 C 11.46875,-4.429688 10.875,-4.40625 10,-4.40625 H 4.390625 C 4.316406,-4.40625 4.25,-4.375 4.1875,-4.3125 4.15625,-4.28125 4.125,-4.179688 4.09375,-4.015625 c 0,0.085937 -0.027344,0.25 -0.078125,0.5 H 9.5 c 0.976562,0 1.597656,0.027344 1.859375,0.078125 0.40625,0.054688 0.679687,0.179688 0.828125,0.375 0.1875,0.179688 0.296875,0.542969 0.328125,1.09375 0.03125,0.148438 0.04687,0.351562 0.04687,0.609375 0,0.261719 0,0.574219 0,0.9375 V 0 H 3.140625 C 2.640625,0 2.226562,-0.0078125 1.90625,-0.03125 1.582031,-0.0625 1.328125,-0.0820312 1.140625,-0.09375 0.796875,-0.195312 0.550781,-0.359375 0.40625,-0.578125 0.300781,-0.773438 0.25,-1.03125 0.25,-1.34375 v -0.203125 c 0.019531,-0.300781 0.09375,-0.957031 0.21875,-1.96875 l 0.75,-5.328125 0.296875,-1.796875 c 0.113281,-0.582031 0.289063,-0.988281 0.53125,-1.21875 0.257813,-0.238281 0.609375,-0.378906 1.046875,-0.421875 0.175781,-0.03906 0.453125,-0.0625 0.828125,-0.0625 0.375,0 0.84375,0 1.40625,0 z m 0.0625,3.5 c -0.25,0 -0.398437,0.00781 -0.4375,0.015625 -0.03125,0.023437 -0.078125,0.0625 -0.140625,0.125 -0.03125,0.074219 -0.070312,0.152344 -0.109375,0.234375 0,0.0625 -0.023437,0.246094 -0.0625,0.546875 h 5.15625 c 0.132813,-0.019531 0.234375,-0.0625 0.296875,-0.125 0.05078,-0.050781 0.07813,-0.128906 0.07813,-0.234375 0.03125,-0.113281 0.05469,-0.300781 0.07813,-0.5625 z m 0,0"
           id="path76" />
      </g>
    </g>
  </g>
  <g
     fill="#24127b"
     fill-opacity="1"
     id="g85"
     transform="translate(-59.984566,-0.38537407)">
    <g
       transform="translate(62.107809,31.248038)"
       id="g84">
      <g
         id="g83">
        <path
           d="M 3.140625,2.96875 C 3.085938,3.25 3.015625,3.503906 2.921875,3.734375 2.847656,3.890625 2.757812,4.03125 2.65625,4.15625 2.550781,4.289062 2.429688,4.410156 2.296875,4.515625 2.210938,4.578125 2.109375,4.632812 1.984375,4.6875 1.867188,4.75 1.738281,4.804688 1.59375,4.859375 1.457031,4.910156 1.304688,4.941406 1.140625,4.953125 0.972656,4.972656 0.789062,5 0.59375,5.03125 0.476562,5.050781 0.34375,5.0625 0.1875,5.0625 0.0390625,5.070312 -0.117188,5.078125 -0.296875,5.078125 H -1.5 c 0.15625,-0.125 0.289062,-0.230469 0.390625,-0.3125 0.09375,-0.074219 0.167969,-0.136719 0.21875,-0.1875 C -0.722656,4.421875 -0.625,4.304688 -0.59375,4.234375 -0.507812,4.148438 -0.453125,4.039062 -0.421875,3.90625 -0.390625,3.820312 -0.363281,3.691406 -0.34375,3.515625 L 0.09375,0 l 1.109375,-7.921875 0.125,-0.921875 c 0.0625,-0.445312 0.113281,-0.816406 0.15625,-1.109375 0.039063,-0.289063 0.066406,-0.507813 0.078125,-0.65625 0.125,-0.539063 0.273438,-0.925781 0.453125,-1.15625 0.25,-0.300781 0.675781,-0.472656 1.28125,-0.515625 0.34375,-0.05078 1.003906,-0.07813 1.984375,-0.07813 h 5.609375 c 0.425781,0 0.78125,0 1.0625,0 0.289063,0 0.507813,0.01563 0.65625,0.04687 0.78125,0.05469 1.242187,0.246094 1.390625,0.578125 0.05078,0.08594 0.08203,0.1875 0.09375,0.3125 0.01953,0.125 0.03125,0.261719 0.03125,0.40625 0,0.0625 0,0.136719 0,0.21875 0,0.07422 -0.0078,0.15625 -0.01563,0.25 0,0.28125 -0.07813,0.851563 -0.234375,1.703125 -0.03125,0.292969 -0.109375,0.886719 -0.234375,1.78125 -0.125,0.886719 -0.292969,2.070312 -0.5,3.546875 -0.07422,0.46875 -0.136719,0.859375 -0.1875,1.171875 -0.04297,0.3125 -0.08594,0.5625 -0.125,0.75 -0.09375,0.511719 -0.265625,0.886719 -0.515625,1.125 -0.1875,0.179688 -0.511719,0.308594 -0.96875,0.390625 C 10.988281,-0.0234375 10.359375,0 9.453125,0 h -5.8125 z m 0.96875,-6.484375 H 9.09375 c 0.050781,-0.00781 0.097656,-0.015625 0.140625,-0.015625 0.039063,0 0.070313,0 0.09375,0 C 9.367188,-3.570312 9.425781,-3.609375 9.5,-3.640625 9.582031,-3.722656 9.628906,-3.820312 9.640625,-3.9375 9.671875,-4.039062 9.695312,-4.195312 9.71875,-4.40625 l 0.625,-4.4375 H 5.875 c -0.292969,0 -0.476562,0.00781 -0.546875,0.015625 -0.148437,0 -0.261719,0.042969 -0.34375,0.125 -0.03125,0.042969 -0.074219,0.136719 -0.125,0.28125 -0.023437,0.03125 -0.042969,0.089844 -0.0625,0.171875 -0.011719,0.085938 -0.03125,0.195312 -0.0625,0.328125 z m 0,0"
           id="path82" />
      </g>
    </g>
  </g>
  <g
     fill="#24127b"
     fill-opacity="1"
     id="g88"
     transform="translate(-59.984566,-0.38537407)">
    <g
       transform="translate(76.462652,31.248038)"
       id="g87">
      <g
         id="g86">
        <path
           d="m 1.21875,-8.84375 c 0.101562,-0.75 0.179688,-1.238281 0.234375,-1.46875 0.144531,-0.769531 0.34375,-1.28125 0.59375,-1.53125 0.226563,-0.25 0.582031,-0.394531 1.0625,-0.4375 0.1875,-0.03906 0.445313,-0.0625 0.78125,-0.0625 0.332031,0 0.75,0 1.25,0 h 5.71875 c 0.613281,0 1.113281,0.01172 1.5,0.03125 0.394531,0.02344 0.675781,0.05469 0.84375,0.09375 0.300781,0.05469 0.519531,0.1875 0.65625,0.40625 0.113281,0.167969 0.171875,0.445312 0.171875,0.828125 v 0.25 c 0,0.3125 -0.07422,0.945313 -0.21875,1.890625 l -0.75,5.328125 c -0.117188,0.886719 -0.214844,1.496094 -0.296875,1.828125 -0.105469,0.460938 -0.230469,0.796875 -0.375,1.015625 -0.1875,0.28125 -0.523437,0.476563 -1,0.578125 -0.167969,0.0117188 -0.433594,0.03125 -0.796875,0.0625 C 10.226562,-0.0078125 9.765625,0 9.203125,0 H 3.34375 C 2.8125,0 2.367188,-0.0078125 2.015625,-0.03125 1.671875,-0.0625 1.40625,-0.0820312 1.21875,-0.09375 0.851562,-0.164062 0.585938,-0.304688 0.421875,-0.515625 0.367188,-0.617188 0.328125,-0.738281 0.296875,-0.875 0.265625,-1.019531 0.25,-1.175781 0.25,-1.34375 v -0.296875 c 0.03125,-0.332031 0.101562,-0.957031 0.21875,-1.875 C 0.519531,-3.847656 0.582031,-4.25 0.65625,-4.71875 0.726562,-5.195312 0.804688,-5.742188 0.890625,-6.359375 0.992188,-6.984375 1.070312,-7.5 1.125,-7.90625 1.175781,-8.3125 1.207031,-8.625 1.21875,-8.84375 Z m 4.765625,0 c -0.199219,0 -0.367187,0 -0.5,0 -0.136719,0 -0.234375,0.00781 -0.296875,0.015625 -0.167969,0.042969 -0.289062,0.09375 -0.359375,0.15625 C 4.785156,-8.617188 4.738281,-8.476562 4.6875,-8.25 c 0,0.023438 -0.00781,0.0625 -0.015625,0.125 -0.011719,0.054688 -0.023437,0.121094 -0.03125,0.203125 l -0.625,4.40625 h 5.1875 c 0.113281,-0.03125 0.1875,-0.0625 0.21875,-0.09375 0.0625,-0.070313 0.09375,-0.148437 0.09375,-0.234375 0.03125,-0.039062 0.054687,-0.109375 0.078125,-0.203125 0.019531,-0.09375 0.035156,-0.210937 0.046875,-0.359375 l 0.625,-4.4375 z m 0,0"
           id="path85" />
      </g>
    </g>
  </g>
  <g
     fill="#24127b"
     fill-opacity="1"
     id="g91"
     transform="translate(-59.984566,-0.38537407)">
    <g
       transform="translate(90.717808,31.248038)"
       id="g90">
      <g
         id="g89">
        <path
           d="m 6.234375,-17.453125 -0.578125,4.1875 H 2.125 L 2.1875,-13.9375 c 0.082031,-0.476562 0.148438,-0.867188 0.203125,-1.171875 0.050781,-0.3125 0.09375,-0.539063 0.125,-0.6875 0.101563,-0.519531 0.242187,-0.878906 0.421875,-1.078125 0.238281,-0.257812 0.570312,-0.425781 1,-0.5 0.382812,-0.05078 1.148438,-0.07813 2.296875,-0.07813 z M 2,-12.359375 h 3.53125 l -1.25,8.875 C 4.21875,-3.023438 4.160156,-2.632812 4.109375,-2.3125 4.054688,-2 4.007812,-1.757812 3.96875,-1.59375 c -0.105469,0.511719 -0.273438,0.886719 -0.5,1.125 -0.273438,0.230469 -0.671875,0.3710938 -1.203125,0.421875 -0.167969,0.0117188 -0.40625,0.0234375 -0.71875,0.03125 C 1.242188,-0.00390625 0.867188,0 0.421875,0 H -0.75 c 0.15625,-0.132812 0.28125,-0.242188 0.375,-0.328125 0.085938,-0.082031 0.152344,-0.144531 0.203125,-0.1875 0.21875,-0.21875 0.347656,-0.363281 0.390625,-0.4375 0.082031,-0.113281 0.144531,-0.238281 0.1875,-0.375 C 0.445312,-1.410156 0.476562,-1.570312 0.5,-1.8125 Z m 0,0"
           id="path88" />
      </g>
    </g>
  </g>
  <g
     fill="#24127b"
     fill-opacity="1"
     id="g94"
     transform="translate(-59.984566,-0.38537407)">
    <g
       transform="translate(96.449773,31.248038)"
       id="g93">
      <g
         id="g92">
        <path
           d="M 1.5,-8.828125 C 1.5625,-9.304688 1.617188,-9.695312 1.671875,-10 c 0.050781,-0.3125 0.082031,-0.539062 0.09375,-0.6875 0.101563,-0.519531 0.242187,-0.878906 0.421875,-1.078125 0.207031,-0.28125 0.539062,-0.445313 1,-0.5 0.332031,-0.05078 0.859375,-0.07813 1.578125,-0.07813 h 7 c 0.226563,0 0.429687,0 0.609375,0 0.175781,0 0.320312,0.01172 0.4375,0.03125 0.507812,0.02344 0.875,0.117188 1.09375,0.28125 0.25,0.167969 0.375,0.523438 0.375,1.0625 0,0.335938 -0.07422,1.046875 -0.21875,2.140625 l -0.125,0.90625 -0.5,3.515625 -0.125,0.921875 c -0.07422,0.511719 -0.140625,0.9375 -0.203125,1.28125 -0.05469,0.34375 -0.105469,0.59375 -0.15625,0.75 -0.09375,0.375 -0.21875,0.667969 -0.375,0.875 -0.199219,0.21875 -0.507813,0.382813 -0.921875,0.484375 C 11.5,-0.0820312 11.21875,-0.0625 10.8125,-0.03125 10.414062,-0.0078125 9.898438,0 9.265625,0 l 0.5,-3.484375 0.125,-0.921875 0.5,-3.515625 0.125,-0.90625 h -4.5625 C 5.890625,-8.835938 5.832031,-8.84375 5.78125,-8.84375 c -0.054688,0 -0.105469,0 -0.15625,0 -0.117188,0 -0.1875,0.00781 -0.21875,0.015625 -0.117188,0 -0.199219,0.027344 -0.25,0.078125 -0.0625,0.074219 -0.121094,0.171875 -0.171875,0.296875 0,0.074219 -0.027344,0.25 -0.078125,0.53125 l -0.5,3.515625 -0.125,0.921875 c -0.117188,0.875 -0.214844,1.480469 -0.296875,1.8125 -0.054687,0.273437 -0.121094,0.5 -0.203125,0.6875 -0.085938,0.179687 -0.171875,0.335937 -0.265625,0.46875 -0.21875,0.242187 -0.601563,0.398437 -1.140625,0.46875 -0.167969,0.0117188 -0.417969,0.0234375 -0.75,0.03125 C 1.289062,-0.00390625 0.882812,0 0.40625,0 H -0.75 c 0.335938,-0.28125 0.542969,-0.460938 0.625,-0.546875 0.1953125,-0.164063 0.332031,-0.300781 0.40625,-0.40625 0.03125,-0.039063 0.050781,-0.082031 0.0625,-0.125 C 0.363281,-1.117188 0.382812,-1.164062 0.40625,-1.21875 0.4375,-1.300781 0.46875,-1.476562 0.5,-1.75 l 0.25,-1.734375 0.125,-0.921875 0.5,-3.515625 z m 0,0"
           id="path91" />
      </g>
    </g>
  </g>
  <g
     fill="#24127b"
     fill-opacity="1"
     id="g97"
     transform="translate(-59.984566,-0.38537407)">
    <g
       transform="translate(110.95414,31.248038)"
       id="g96">
      <g
         id="g95">
        <path
           d="M 4.734375,-17.46875 H 7.03125 c 0.394531,0 0.691406,0.02734 0.890625,0.07813 0.414063,0.04297 0.695313,0.15625 0.84375,0.34375 C 8.921875,-16.847656 9,-16.53125 9,-16.09375 c 0,0.167969 -0.015625,0.429688 -0.046875,0.78125 -0.023437,0.34375 -0.074219,0.789062 -0.15625,1.328125 l -0.21875,1.625 H 14.0625 c -0.15625,1.0625 -0.28125,1.777344 -0.375,2.140625 -0.125,0.46875 -0.34375,0.808594 -0.65625,1.015625 -0.21875,0.136719 -0.511719,0.230469 -0.875,0.28125 -0.167969,0.023437 -0.429688,0.039063 -0.78125,0.046875 -0.355469,0 -0.808594,0 -1.359375,0 h -1.9375 l -0.125,0.921875 -0.5,3.515625 -0.125,0.90625 H 12.8125 c -0.07422,0.511719 -0.140625,0.945312 -0.203125,1.296875 -0.05469,0.34375 -0.101563,0.605469 -0.140625,0.78125 -0.105469,0.417969 -0.265625,0.734375 -0.484375,0.953125 -0.179687,0.1875 -0.5,0.324219 -0.96875,0.40625 -0.355469,0.0429688 -1.054687,0.0625 -2.09375,0.0625 h -2.25 c -1.074219,0 -1.789063,-0.0195312 -2.140625,-0.0625 -0.449219,-0.082031 -0.746094,-0.234375 -0.890625,-0.453125 -0.105469,-0.1875 -0.15625,-0.425781 -0.15625,-0.71875 v -0.40625 C 3.535156,-2.003906 3.632812,-2.625 3.78125,-3.53125 l 0.125,-0.90625 0.5,-3.515625 0.125,-0.921875 H 1 c 0.082031,-0.476562 0.144531,-0.878906 0.1875,-1.203125 0.050781,-0.320313 0.085938,-0.5625 0.109375,-0.71875 0.144531,-0.59375 0.359375,-1 0.640625,-1.21875 0.25,-0.144531 0.582031,-0.242187 1,-0.296875 0.164062,-0.03125 0.378906,-0.04687 0.640625,-0.04687 0.257813,0 0.570313,0 0.9375,0 H 5.03125 l 0.5,-3.59375 c 0.019531,-0.132813 0.03125,-0.238281 0.03125,-0.3125 0,-0.07031 0,-0.125 0,-0.15625 0,-0.144531 -0.023438,-0.242187 -0.0625,-0.296875 -0.011719,-0.05078 -0.039062,-0.101562 -0.078125,-0.15625 -0.042969,-0.0625 -0.105469,-0.117188 -0.1875,-0.171875 -0.03125,-0.05078 -0.089844,-0.109375 -0.171875,-0.171875 -0.085938,-0.07031 -0.195312,-0.15625 -0.328125,-0.25 z m 0,0"
           id="path94" />
      </g>
    </g>
  </g>
</svg>
