<svg xmlns="http://www.w3.org/2000/svg" xmlns:xlink="http://www.w3.org/1999/xlink" width="250" zoomAndPan="magnify" viewBox="0 0 187.5 37.5" height="50" preserveAspectRatio="xMidYMid meet" version="1.0"><defs><g/><clipPath id="2184fdd668"><path d="M 0.988281 0 L 186.019531 0 L 186.019531 37.007812 L 0.988281 37.007812 Z M 0.988281 0 " clip-rule="nonzero"/></clipPath><clipPath id="320c9ec8e3"><path d="M 5 0 L 182 0 L 182 37.007812 L 5 37.007812 Z M 5 0 " clip-rule="nonzero"/></clipPath><clipPath id="2cb46bc610"><rect x="0" width="177" y="0" height="38"/></clipPath></defs><g clip-path="url(#2184fdd668)"><path fill="#ffffff" d="M 0.988281 0 L 186.019531 0 L 186.019531 37.007812 L 0.988281 37.007812 Z M 0.988281 0 " fill-opacity="1" fill-rule="nonzero"/><path fill="#ffffff" d="M 0.988281 0 L 186.019531 0 L 186.019531 37.007812 L 0.988281 37.007812 Z M 0.988281 0 " fill-opacity="1" fill-rule="nonzero"/></g><g clip-path="url(#320c9ec8e3)"><g transform="matrix(1, 0, 0, 1, 5, -0.000000000000001478)"><g clip-path="url(#2cb46bc610)"><g fill="#24127b" fill-opacity="1"><g transform="translate(1.489253, 30.01584)"><g><path d="M 7.113281 -7.820312 C 7.195312 -7.164062 7.417969 -6.601562 7.789062 -6.132812 C 8.167969 -5.652344 8.664062 -5.285156 9.28125 -5.019531 C 9.914062 -4.75 10.628906 -4.617188 11.429688 -4.617188 C 12.519531 -4.617188 13.429688 -4.796875 14.15625 -5.164062 C 14.75 -5.460938 15.046875 -5.929688 15.046875 -6.566406 C 15.046875 -6.992188 14.875 -7.332031 14.527344 -7.585938 C 14.074219 -7.914062 13.460938 -8.1875 12.683594 -8.398438 C 11.84375 -8.628906 10.929688 -8.859375 9.941406 -9.085938 C 8.929688 -9.324219 7.910156 -9.613281 6.886719 -9.953125 C 5.824219 -10.308594 4.851562 -10.789062 3.960938 -11.398438 C 3.035156 -12.03125 2.296875 -12.859375 1.742188 -13.878906 C 1.1875 -14.902344 0.90625 -16.183594 0.90625 -17.71875 C 0.90625 -19.242188 1.359375 -20.59375 2.261719 -21.777344 C 3.144531 -22.933594 4.359375 -23.839844 5.902344 -24.496094 C 7.425781 -25.140625 9.152344 -25.464844 11.082031 -25.464844 C 12.984375 -25.464844 14.683594 -25.082031 16.179688 -24.324219 C 17.683594 -23.558594 18.875 -22.507812 19.753906 -21.167969 C 20.640625 -19.820312 21.085938 -18.300781 21.085938 -16.609375 L 21.085938 -16.019531 L 14.675781 -16.019531 L 14.632812 -16.5625 C 14.554688 -17.566406 14.214844 -18.339844 13.621094 -18.886719 C 13.027344 -19.429688 12.125 -19.703125 10.910156 -19.703125 C 9.6875 -19.703125 8.765625 -19.496094 8.144531 -19.074219 C 7.601562 -18.707031 7.328125 -18.253906 7.328125 -17.71875 C 7.328125 -17.214844 7.503906 -16.828125 7.863281 -16.550781 C 8.316406 -16.199219 8.929688 -15.910156 9.707031 -15.675781 C 10.539062 -15.425781 11.449219 -15.191406 12.441406 -14.972656 C 13.46875 -14.75 14.488281 -14.472656 15.503906 -14.140625 C 16.550781 -13.800781 17.515625 -13.339844 18.40625 -12.753906 C 19.332031 -12.144531 20.074219 -11.34375 20.628906 -10.34375 C 21.1875 -9.339844 21.46875 -8.082031 21.46875 -6.566406 C 21.46875 -4.121094 20.542969 -2.21875 18.695312 -0.847656 C 16.898438 0.480469 14.410156 1.140625 11.222656 1.140625 C 9.257812 1.140625 7.492188 0.765625 5.929688 0.0078125 C 4.355469 -0.753906 3.097656 -1.804688 2.160156 -3.136719 C 1.214844 -4.480469 0.703125 -6.011719 0.628906 -7.722656 L 0.605469 -8.335938 L 7.050781 -8.335938 Z M 5.949219 -7.675781 L 6.53125 -7.746094 L 6.53125 -7.160156 L 1.214844 -7.160156 L 1.214844 -7.746094 L 1.800781 -7.773438 C 1.867188 -6.289062 2.304688 -4.96875 3.121094 -3.8125 C 3.941406 -2.644531 5.046875 -1.722656 6.441406 -1.050781 C 7.839844 -0.371094 9.4375 -0.03125 11.222656 -0.03125 C 14.152344 -0.03125 16.410156 -0.617188 17.996094 -1.792969 C 19.527344 -2.925781 20.292969 -4.515625 20.292969 -6.566406 C 20.292969 -7.878906 20.066406 -8.945312 19.605469 -9.773438 C 19.140625 -10.605469 18.527344 -11.269531 17.761719 -11.773438 C 16.960938 -12.300781 16.085938 -12.71875 15.140625 -13.027344 C 14.164062 -13.34375 13.179688 -13.613281 12.191406 -13.828125 C 11.167969 -14.050781 10.226562 -14.292969 9.367188 -14.550781 C 8.453125 -14.828125 7.710938 -15.183594 7.144531 -15.621094 C 6.484375 -16.132812 6.152344 -16.832031 6.152344 -17.71875 C 6.152344 -18.667969 6.597656 -19.445312 7.488281 -20.046875 C 8.304688 -20.601562 9.445312 -20.878906 10.910156 -20.878906 C 12.429688 -20.878906 13.597656 -20.5 14.414062 -19.75 C 15.234375 -18.996094 15.699219 -17.964844 15.800781 -16.65625 L 15.21875 -16.609375 L 15.21875 -17.195312 L 20.5 -17.195312 L 20.5 -16.609375 L 19.914062 -16.609375 C 19.914062 -18.066406 19.535156 -19.371094 18.777344 -20.523438 C 18.011719 -21.6875 16.96875 -22.605469 15.648438 -23.277344 C 14.316406 -23.953125 12.796875 -24.289062 11.082031 -24.289062 C 9.308594 -24.289062 7.734375 -24 6.359375 -23.417969 C 5.007812 -22.84375 3.953125 -22.058594 3.195312 -21.0625 C 2.453125 -20.09375 2.082031 -18.976562 2.082031 -17.71875 C 2.082031 -16.382812 2.3125 -15.289062 2.773438 -14.4375 C 3.238281 -13.582031 3.855469 -12.890625 4.621094 -12.367188 C 5.421875 -11.816406 6.300781 -11.386719 7.257812 -11.066406 C 8.246094 -10.738281 9.230469 -10.457031 10.207031 -10.230469 C 11.210938 -9.996094 12.140625 -9.761719 12.992188 -9.53125 C 13.90625 -9.277344 14.648438 -8.949219 15.214844 -8.535156 C 15.886719 -8.046875 16.222656 -7.390625 16.222656 -6.566406 C 16.222656 -5.445312 15.707031 -4.628906 14.679688 -4.113281 C 13.789062 -3.667969 12.703125 -3.445312 11.429688 -3.445312 C 10.472656 -3.445312 9.601562 -3.609375 8.820312 -3.941406 C 8.023438 -4.28125 7.371094 -4.769531 6.871094 -5.402344 C 6.363281 -6.046875 6.054688 -6.804688 5.949219 -7.675781 Z M 5.949219 -7.675781 "/></g></g></g><g fill="#24127b" fill-opacity="1"><g transform="translate(23.199281, 30.01584)"><g><path d="M 8.441406 1.140625 C 7.078125 1.140625 5.867188 0.886719 4.800781 0.371094 C 3.714844 -0.152344 2.859375 -0.914062 2.230469 -1.910156 C 1.601562 -2.910156 1.289062 -4.113281 1.289062 -5.523438 C 1.289062 -7.167969 1.691406 -8.484375 2.5 -9.472656 C 3.285156 -10.433594 4.308594 -11.15625 5.578125 -11.632812 C 6.792969 -12.089844 8.101562 -12.402344 9.503906 -12.570312 C 10.875 -12.734375 12.210938 -12.828125 13.503906 -12.851562 L 14.101562 -12.863281 L 14.101562 -7.425781 L 13.503906 -7.441406 C 11.285156 -7.484375 9.710938 -7.328125 8.773438 -6.972656 C 8.367188 -6.820312 8.070312 -6.628906 7.886719 -6.402344 C 7.722656 -6.199219 7.640625 -5.953125 7.640625 -5.664062 C 7.640625 -5.273438 7.773438 -5.003906 8.042969 -4.859375 C 8.429688 -4.652344 8.886719 -4.546875 9.414062 -4.546875 C 9.960938 -4.546875 10.527344 -4.632812 11.109375 -4.800781 C 11.628906 -4.953125 12.0625 -5.246094 12.414062 -5.683594 C 12.757812 -6.109375 12.929688 -6.773438 12.929688 -7.679688 L 12.929688 -10.695312 L 19.070312 -10.695312 L 19.070312 0.585938 L 12.929688 0.585938 L 12.929688 -1.875 L 13.515625 -1.875 L 13.992188 -1.535156 C 13.402344 -0.710938 12.601562 -0.0585938 11.597656 0.425781 C 10.601562 0.902344 9.550781 1.140625 8.441406 1.140625 Z M 8.441406 -0.03125 C 9.371094 -0.03125 10.253906 -0.230469 11.089844 -0.632812 C 11.914062 -1.03125 12.566406 -1.558594 13.039062 -2.21875 L 14.101562 -3.695312 L 14.101562 0 L 13.515625 0 L 13.515625 -0.585938 L 18.484375 -0.585938 L 18.484375 0 L 17.898438 0 L 17.898438 -10.109375 L 18.484375 -10.109375 L 18.484375 -9.523438 L 13.515625 -9.523438 L 13.515625 -10.109375 L 14.101562 -10.109375 L 14.101562 -7.679688 C 14.101562 -6.5 13.84375 -5.589844 13.328125 -4.949219 C 12.824219 -4.320312 12.195312 -3.894531 11.4375 -3.675781 C 10.746094 -3.476562 10.074219 -3.375 9.414062 -3.375 C 8.691406 -3.375 8.050781 -3.523438 7.488281 -3.828125 C 6.808594 -4.191406 6.464844 -4.804688 6.464844 -5.664062 C 6.464844 -6.230469 6.636719 -6.722656 6.976562 -7.140625 C 7.292969 -7.53125 7.753906 -7.84375 8.355469 -8.070312 C 9.433594 -8.480469 11.160156 -8.660156 13.527344 -8.613281 L 13.515625 -8.027344 L 12.929688 -8.027344 L 12.929688 -12.265625 L 13.515625 -12.265625 L 13.527344 -11.679688 C 12.273438 -11.65625 10.976562 -11.5625 9.640625 -11.40625 C 8.332031 -11.246094 7.117188 -10.957031 5.992188 -10.535156 C 4.921875 -10.132812 4.058594 -9.53125 3.40625 -8.730469 C 2.777344 -7.960938 2.460938 -6.890625 2.460938 -5.523438 C 2.460938 -4.339844 2.714844 -3.34375 3.222656 -2.535156 C 3.730469 -1.726562 4.425781 -1.109375 5.308594 -0.683594 C 6.214844 -0.25 7.257812 -0.03125 8.441406 -0.03125 Z M 0.628906 -12.265625 C 0.628906 -13.691406 1.003906 -15.042969 1.753906 -16.3125 C 2.5 -17.585938 3.582031 -18.621094 4.992188 -19.414062 C 6.402344 -20.203125 8.097656 -20.597656 10.074219 -20.597656 C 12.78125 -20.597656 14.898438 -19.855469 16.425781 -18.363281 C 17.945312 -16.886719 18.8125 -14.867188 19.035156 -12.316406 L 19.089844 -11.679688 L 12.96875 -11.679688 L 12.929688 -12.222656 C 12.871094 -13.054688 12.644531 -13.726562 12.25 -14.234375 C 11.90625 -14.683594 11.179688 -14.910156 10.074219 -14.910156 C 9.1875 -14.910156 8.519531 -14.78125 8.078125 -14.519531 C 7.664062 -14.277344 7.382812 -13.96875 7.234375 -13.59375 C 7.0625 -13.167969 6.980469 -12.722656 6.980469 -12.265625 L 6.980469 -11.679688 L 0.628906 -11.679688 Z M 1.800781 -12.265625 L 1.214844 -12.265625 L 1.214844 -12.851562 L 6.394531 -12.851562 L 6.394531 -12.265625 L 5.804688 -12.265625 C 5.804688 -12.871094 5.917969 -13.460938 6.144531 -14.027344 C 6.390625 -14.648438 6.835938 -15.152344 7.484375 -15.53125 C 8.109375 -15.898438 8.972656 -16.082031 10.074219 -16.082031 C 11.566406 -16.082031 12.601562 -15.703125 13.179688 -14.949219 C 13.714844 -14.253906 14.023438 -13.375 14.101562 -12.308594 L 13.515625 -12.265625 L 13.515625 -12.851562 L 18.449219 -12.851562 L 18.449219 -12.265625 L 17.863281 -12.214844 C 17.667969 -14.476562 16.917969 -16.25 15.609375 -17.527344 C 14.308594 -18.792969 12.464844 -19.425781 10.074219 -19.425781 C 8.300781 -19.425781 6.800781 -19.082031 5.566406 -18.390625 C 4.339844 -17.699219 3.40625 -16.808594 2.765625 -15.71875 C 2.121094 -14.628906 1.800781 -13.476562 1.800781 -12.265625 Z M 1.800781 -12.265625 "/></g></g></g><g fill="#24127b" fill-opacity="1"><g transform="translate(42.19974, 30.01584)"><g><path d="M 0.625 -20.042969 L 6.390625 -20.042969 L 11.917969 0.585938 L 6.097656 0.585938 L -0.164062 -20.042969 Z M 0.625 -18.871094 L 0.625 -19.457031 L 1.1875 -19.628906 L 7.09375 -0.171875 L 6.53125 0 L 6.53125 -0.585938 L 11.152344 -0.585938 L 11.152344 0 L 10.585938 0.152344 L 5.375 -19.304688 L 5.941406 -19.457031 L 5.941406 -18.871094 Z M 19.707031 -19.285156 L 13.671875 0.585938 L 7.851562 0.585938 L 13.378906 -20.042969 L 19.933594 -20.042969 Z M 18.582031 -19.628906 L 19.144531 -19.457031 L 19.144531 -18.871094 L 13.828125 -18.871094 L 13.828125 -19.457031 L 14.394531 -19.304688 L 9.183594 0.152344 L 8.617188 0 L 8.617188 -0.585938 L 13.238281 -0.585938 L 13.238281 0 L 12.675781 -0.171875 Z M 18.582031 -19.628906 "/></g></g></g><g fill="#24127b" fill-opacity="1"><g transform="translate(61.200259, 30.01584)"><g><path d="M 5.527344 -8.0625 L 5.527344 -12.675781 L 18.453125 -12.675781 L 13.902344 -10.007812 L 14.117188 -11.253906 C 14.21875 -11.824219 14.160156 -12.402344 13.953125 -12.988281 C 13.75 -13.5625 13.394531 -14.039062 12.886719 -14.417969 C 12.386719 -14.792969 11.695312 -14.980469 10.804688 -14.980469 C 9.636719 -14.980469 8.640625 -14.597656 7.816406 -13.832031 C 7.011719 -13.085938 6.636719 -11.933594 6.699219 -10.378906 L 6.726562 -9.765625 L 0.25 -9.765625 L 0.28125 -10.386719 C 0.40625 -12.597656 0.957031 -14.460938 1.941406 -15.972656 C 2.925781 -17.484375 4.191406 -18.636719 5.746094 -19.421875 C 7.289062 -20.207031 8.972656 -20.597656 10.804688 -20.597656 C 12.210938 -20.597656 13.539062 -20.316406 14.800781 -19.75 C 16.0625 -19.179688 17.148438 -18.351562 18.0625 -17.261719 C 18.976562 -16.175781 19.640625 -14.851562 20.058594 -13.285156 C 20.472656 -11.722656 20.535156 -9.953125 20.246094 -7.976562 L 20.171875 -7.472656 L 5.527344 -7.472656 Z M 6.703125 -8.0625 L 6.113281 -8.0625 L 6.113281 -8.648438 L 19.664062 -8.648438 L 19.664062 -8.0625 L 19.085938 -8.144531 C 19.351562 -9.964844 19.296875 -11.578125 18.925781 -12.984375 C 18.554688 -14.378906 17.96875 -15.554688 17.167969 -16.507812 C 16.367188 -17.460938 15.417969 -18.183594 14.316406 -18.679688 C 13.210938 -19.175781 12.042969 -19.425781 10.804688 -19.425781 C 9.160156 -19.425781 7.652344 -19.078125 6.277344 -18.378906 C 4.910156 -17.683594 3.792969 -16.667969 2.921875 -15.332031 C 2.054688 -13.996094 1.5625 -12.324219 1.453125 -10.320312 L 0.867188 -10.355469 L 0.867188 -10.941406 L 6.113281 -10.941406 L 6.113281 -10.355469 L 5.527344 -10.332031 C 5.453125 -12.246094 5.949219 -13.703125 7.019531 -14.691406 C 8.070312 -15.664062 9.332031 -16.152344 10.804688 -16.152344 C 11.953125 -16.152344 12.882812 -15.886719 13.589844 -15.355469 C 14.285156 -14.835938 14.777344 -14.175781 15.058594 -13.382812 C 15.335938 -12.601562 15.40625 -11.824219 15.273438 -11.054688 L 14.695312 -11.152344 L 14.398438 -11.660156 L 16 -12.597656 L 16.296875 -12.089844 L 16.296875 -11.503906 L 6.113281 -11.503906 L 6.113281 -12.089844 L 6.703125 -12.089844 Z M 10.804688 1.140625 C 8.90625 1.140625 7.210938 0.761719 5.726562 0 C 4.234375 -0.765625 3.03125 -1.835938 2.117188 -3.21875 C 1.210938 -4.59375 0.636719 -6.179688 0.390625 -7.980469 L 0.300781 -8.648438 L 6.617188 -8.648438 L 6.695312 -8.148438 C 6.863281 -7.0625 7.269531 -6.171875 7.917969 -5.472656 C 8.53125 -4.808594 9.492188 -4.476562 10.804688 -4.476562 C 11.632812 -4.476562 12.304688 -4.664062 12.832031 -5.03125 C 13.359375 -5.402344 13.730469 -5.859375 13.941406 -6.398438 L 14.089844 -6.769531 L 20.453125 -6.769531 L 20.308594 -6.066406 C 20.011719 -4.628906 19.429688 -3.371094 18.558594 -2.289062 C 17.691406 -1.210938 16.59375 -0.367188 15.269531 0.238281 C 13.953125 0.839844 12.464844 1.140625 10.804688 1.140625 Z M 10.804688 -0.03125 C 12.296875 -0.03125 13.621094 -0.296875 14.78125 -0.828125 C 15.9375 -1.359375 16.890625 -2.089844 17.644531 -3.027344 C 18.394531 -3.960938 18.902344 -5.050781 19.160156 -6.304688 L 19.734375 -6.183594 L 19.734375 -5.597656 L 14.488281 -5.597656 L 14.488281 -6.183594 L 15.035156 -5.96875 C 14.738281 -5.210938 14.226562 -4.578125 13.503906 -4.070312 C 12.777344 -3.5625 11.878906 -3.304688 10.804688 -3.304688 C 9.152344 -3.304688 7.902344 -3.761719 7.058594 -4.675781 C 6.246094 -5.550781 5.738281 -6.648438 5.535156 -7.972656 L 6.113281 -8.0625 L 6.113281 -7.472656 L 0.972656 -7.472656 L 0.972656 -8.0625 L 1.554688 -8.140625 C 1.773438 -6.515625 2.289062 -5.089844 3.09375 -3.867188 C 3.894531 -2.65625 4.949219 -1.714844 6.261719 -1.042969 C 7.578125 -0.367188 9.09375 -0.03125 10.804688 -0.03125 Z M 10.804688 -0.03125 "/></g></g></g><g fill="#24127b" fill-opacity="1"><g transform="translate(81.868288, 30.01584)"><g/></g></g><g fill="#24127b" fill-opacity="1"><g transform="translate(88.815529, 30.01584)"><g><path d="M 6.84375 -12.957031 L 10.800781 -12.957031 L 10.800781 -7.40625 L 6.257812 -7.40625 L 6.257812 -12.957031 Z M 6.84375 -11.78125 L 6.84375 -12.367188 L 7.429688 -12.367188 L 7.429688 -7.992188 L 6.84375 -7.992188 L 6.84375 -8.578125 L 10.214844 -8.578125 L 10.214844 -7.992188 L 9.628906 -7.992188 L 9.628906 -12.367188 L 10.214844 -12.367188 L 10.214844 -11.78125 Z M 10.214844 -12.957031 C 11.277344 -12.957031 12.1875 -13.046875 12.941406 -13.234375 C 13.609375 -13.398438 14.117188 -13.699219 14.460938 -14.140625 C 14.804688 -14.578125 14.980469 -15.25 14.980469 -16.15625 C 14.980469 -17.0625 14.804688 -17.734375 14.460938 -18.171875 C 14.117188 -18.613281 13.609375 -18.914062 12.941406 -19.078125 C 12.1875 -19.265625 11.277344 -19.355469 10.214844 -19.355469 L 9.628906 -19.355469 L 9.628906 -24.90625 L 10.214844 -24.90625 C 12.386719 -24.90625 14.296875 -24.628906 15.941406 -24.078125 C 17.644531 -23.507812 18.980469 -22.574219 19.945312 -21.285156 C 20.914062 -19.988281 21.398438 -18.277344 21.398438 -16.15625 C 21.398438 -14.058594 20.914062 -12.355469 19.945312 -11.046875 C 18.980469 -9.742188 17.644531 -8.804688 15.941406 -8.234375 C 14.296875 -7.679688 12.386719 -7.40625 10.214844 -7.40625 L 9.628906 -7.40625 L 9.628906 -12.957031 Z M 10.214844 -11.78125 L 10.214844 -12.367188 L 10.800781 -12.367188 L 10.800781 -7.992188 L 10.214844 -7.992188 L 10.214844 -8.578125 C 12.257812 -8.578125 14.042969 -8.832031 15.570312 -9.347656 C 17.039062 -9.839844 18.183594 -10.640625 19.003906 -11.746094 C 19.816406 -12.847656 20.226562 -14.316406 20.226562 -16.15625 C 20.226562 -18.019531 19.816406 -19.492188 19.003906 -20.582031 C 18.1875 -21.675781 17.039062 -22.472656 15.570312 -22.964844 C 14.042969 -23.476562 12.257812 -23.734375 10.214844 -23.734375 L 10.214844 -24.320312 L 10.800781 -24.320312 L 10.800781 -19.941406 L 10.214844 -19.941406 L 10.214844 -20.53125 C 11.375 -20.53125 12.375 -20.425781 13.222656 -20.21875 C 14.152344 -19.988281 14.871094 -19.546875 15.382812 -18.898438 C 15.894531 -18.246094 16.152344 -17.332031 16.152344 -16.15625 C 16.152344 -14.976562 15.894531 -14.0625 15.382812 -13.414062 C 14.871094 -12.761719 14.152344 -12.324219 13.222656 -12.09375 C 12.375 -11.886719 11.375 -11.78125 10.214844 -11.78125 Z M 6.84375 -24.90625 L 10.800781 -24.90625 L 10.800781 -19.355469 L 6.257812 -19.355469 L 6.257812 -24.90625 Z M 6.84375 -23.734375 L 6.84375 -24.320312 L 7.429688 -24.320312 L 7.429688 -19.941406 L 6.84375 -19.941406 L 6.84375 -20.53125 L 10.214844 -20.53125 L 10.214844 -19.941406 L 9.628906 -19.941406 L 9.628906 -24.320312 L 10.214844 -24.320312 L 10.214844 -23.734375 Z M 7.429688 -22.027344 L 7.429688 0.585938 L 1.21875 0.585938 L 1.21875 -22.613281 L 7.429688 -22.613281 Z M 6.257812 -22.027344 L 6.84375 -22.027344 L 6.84375 -21.441406 L 1.808594 -21.441406 L 1.808594 -22.027344 L 2.394531 -22.027344 L 2.394531 0 L 1.808594 0 L 1.808594 -0.585938 L 6.84375 -0.585938 L 6.84375 0 L 6.257812 0 Z M 6.257812 -22.027344 "/></g></g></g><g fill="#24127b" fill-opacity="1"><g transform="translate(110.317118, 30.01584)"><g><path d="M 10.804688 1.140625 C 8.707031 1.140625 6.867188 0.679688 5.28125 -0.238281 C 3.691406 -1.164062 2.457031 -2.453125 1.582031 -4.101562 C 0.714844 -5.742188 0.28125 -7.605469 0.28125 -9.695312 C 0.28125 -11.804688 0.714844 -13.679688 1.582031 -15.320312 C 2.457031 -16.96875 3.691406 -18.261719 5.277344 -19.199219 C 6.863281 -20.132812 8.71875 -20.597656 10.839844 -20.597656 C 12.941406 -20.597656 14.777344 -20.132812 16.351562 -19.195312 C 17.929688 -18.261719 19.152344 -16.96875 20.027344 -15.320312 C 20.894531 -13.679688 21.328125 -11.804688 21.328125 -9.695312 C 21.328125 -7.605469 20.894531 -5.742188 20.027344 -4.101562 C 19.152344 -2.453125 17.925781 -1.164062 16.347656 -0.242188 C 14.773438 0.679688 12.925781 1.140625 10.804688 1.140625 Z M 10.804688 -0.03125 C 12.714844 -0.03125 14.363281 -0.4375 15.753906 -1.253906 C 17.140625 -2.066406 18.21875 -3.199219 18.992188 -4.652344 C 19.765625 -6.117188 20.15625 -7.796875 20.15625 -9.695312 C 20.15625 -11.613281 19.765625 -13.304688 18.992188 -14.769531 C 18.21875 -16.222656 17.140625 -17.363281 15.753906 -18.1875 C 14.363281 -19.011719 12.726562 -19.425781 10.839844 -19.425781 C 8.929688 -19.425781 7.277344 -19.011719 5.875 -18.1875 C 4.476562 -17.363281 3.390625 -16.222656 2.621094 -14.769531 C 1.84375 -13.304688 1.453125 -11.613281 1.453125 -9.695312 C 1.453125 -7.796875 1.84375 -6.117188 2.621094 -4.652344 C 3.390625 -3.199219 4.472656 -2.066406 5.871094 -1.253906 C 7.273438 -0.4375 8.917969 -0.03125 10.804688 -0.03125 Z M 10.839844 -4.476562 C 11.824219 -4.476562 12.617188 -4.699219 13.21875 -5.144531 C 13.835938 -5.597656 14.296875 -6.214844 14.601562 -6.992188 C 14.921875 -7.800781 15.082031 -8.703125 15.082031 -9.695312 C 15.082031 -10.707031 14.921875 -11.628906 14.601562 -12.453125 C 14.296875 -13.238281 13.835938 -13.859375 13.21875 -14.3125 C 12.617188 -14.757812 11.824219 -14.980469 10.839844 -14.980469 C 9.832031 -14.980469 9.019531 -14.753906 8.40625 -14.308594 C 7.78125 -13.855469 7.316406 -13.234375 7.007812 -12.453125 C 6.6875 -11.628906 6.527344 -10.707031 6.527344 -9.695312 C 6.527344 -8.703125 6.6875 -7.800781 7.007812 -6.992188 C 7.3125 -6.214844 7.777344 -5.601562 8.40625 -5.148438 C 9.019531 -4.699219 9.832031 -4.476562 10.839844 -4.476562 Z M 10.839844 -3.304688 C 9.578125 -3.304688 8.535156 -3.601562 7.714844 -4.199219 C 6.90625 -4.785156 6.304688 -5.574219 5.917969 -6.558594 C 5.542969 -7.507812 5.355469 -8.554688 5.355469 -9.695312 C 5.355469 -10.855469 5.542969 -11.917969 5.914062 -12.878906 C 6.304688 -13.875 6.90625 -14.667969 7.714844 -15.257812 C 8.535156 -15.855469 9.578125 -16.152344 10.839844 -16.152344 C 12.082031 -16.152344 13.105469 -15.851562 13.914062 -15.253906 C 14.714844 -14.667969 15.304688 -13.875 15.695312 -12.878906 C 16.070312 -11.917969 16.257812 -10.855469 16.257812 -9.695312 C 16.257812 -8.554688 16.070312 -7.507812 15.695312 -6.558594 C 15.304688 -5.574219 14.710938 -4.789062 13.914062 -4.199219 C 13.105469 -3.605469 12.082031 -3.304688 10.839844 -3.304688 Z M 10.839844 -3.304688 "/></g></g></g><g fill="#24127b" fill-opacity="1"><g transform="translate(131.81878, 30.01584)"><g><path d="M 3.058594 -20.042969 L 8.613281 -20.042969 L 8.613281 0.585938 L 2.472656 0.585938 L 2.472656 -20.042969 Z M 3.058594 -18.871094 L 3.058594 -19.457031 L 3.644531 -19.457031 L 3.644531 0 L 3.058594 0 L 3.058594 -0.585938 L 8.027344 -0.585938 L 8.027344 0 L 7.4375 0 L 7.4375 -19.457031 L 8.027344 -19.457031 L 8.027344 -18.871094 Z M 1.535156 -26.976562 L 7.425781 -28.324219 L 8.902344 -21.863281 L 2.441406 -20.386719 L 0.964844 -26.847656 Z M 1.796875 -25.832031 L 1.667969 -26.40625 L 2.238281 -26.535156 L 3.457031 -21.21875 L 2.882812 -21.089844 L 2.753906 -21.660156 L 8.070312 -22.878906 L 8.199219 -22.304688 L 7.628906 -22.175781 L 6.410156 -27.492188 L 6.984375 -27.621094 L 7.113281 -27.050781 Z M 1.796875 -25.832031 "/></g></g></g><g fill="#24127b" fill-opacity="1"><g transform="translate(141.683859, 30.01584)"><g><path d="M 1.597656 -20.042969 L 7.152344 -20.042969 L 7.152344 -16.46875 L 6.566406 -16.46875 L 6.023438 -16.691406 C 6.304688 -17.382812 6.71875 -18.019531 7.265625 -18.605469 C 7.824219 -19.203125 8.554688 -19.683594 9.453125 -20.050781 C 10.347656 -20.417969 11.433594 -20.597656 12.714844 -20.597656 C 14.0625 -20.597656 15.265625 -20.320312 16.324219 -19.769531 C 17.414062 -19.199219 18.261719 -18.269531 18.875 -16.980469 C 19.46875 -15.730469 19.765625 -14.066406 19.765625 -11.988281 L 19.765625 0.585938 L 13.625 0.585938 L 13.625 -11.535156 C 13.625 -12.265625 13.570312 -12.929688 13.460938 -13.53125 C 13.367188 -14.039062 13.167969 -14.433594 12.859375 -14.714844 C 12.566406 -14.984375 12.054688 -15.117188 11.328125 -15.117188 C 10.730469 -15.117188 10.101562 -14.945312 9.449219 -14.597656 C 8.808594 -14.257812 8.265625 -13.691406 7.824219 -12.898438 C 7.378906 -12.097656 7.152344 -10.96875 7.152344 -9.519531 L 7.152344 0.585938 L 1.011719 0.585938 L 1.011719 -20.042969 Z M 1.597656 -18.871094 L 1.597656 -19.457031 L 2.183594 -19.457031 L 2.183594 0 L 1.597656 0 L 1.597656 -0.585938 L 6.566406 -0.585938 L 6.566406 0 L 5.980469 0 L 5.980469 -9.519531 C 5.980469 -11.171875 6.253906 -12.492188 6.800781 -13.472656 C 7.355469 -14.464844 8.054688 -15.183594 8.898438 -15.632812 C 9.722656 -16.070312 10.535156 -16.289062 11.328125 -16.289062 C 12.359375 -16.289062 13.132812 -16.054688 13.652344 -15.582031 C 14.152344 -15.121094 14.472656 -14.507812 14.613281 -13.742188 C 14.734375 -13.070312 14.796875 -12.335938 14.796875 -11.535156 L 14.796875 0 L 14.210938 0 L 14.210938 -0.585938 L 19.179688 -0.585938 L 19.179688 0 L 18.59375 0 L 18.59375 -11.988281 C 18.59375 -13.890625 18.332031 -15.386719 17.816406 -16.476562 C 17.316406 -17.53125 16.636719 -18.28125 15.78125 -18.730469 C 14.890625 -19.195312 13.871094 -19.425781 12.714844 -19.425781 C 11.589844 -19.425781 10.648438 -19.273438 9.898438 -18.964844 C 9.15625 -18.664062 8.5625 -18.277344 8.125 -17.804688 C 7.675781 -17.324219 7.335938 -16.804688 7.109375 -16.246094 L 5.980469 -16.46875 L 5.980469 -19.457031 L 6.566406 -19.457031 L 6.566406 -18.871094 Z M 1.597656 -18.871094 "/></g></g></g><g fill="#24127b" fill-opacity="1"><g transform="translate(162.24765, 30.01584)"><g><path d="M 2.367188 0 L 2.367188 -24.90625 L 8.507812 -24.90625 L 8.507812 -4.238281 L 7.921875 -4.238281 L 7.921875 -4.824219 L 12.816406 -4.824219 L 12.816406 0.585938 L 2.367188 0.585938 Z M 3.539062 0 L 2.953125 0 L 2.953125 -0.585938 L 12.230469 -0.585938 L 12.230469 0 L 11.644531 0 L 11.644531 -4.238281 L 12.230469 -4.238281 L 12.230469 -3.652344 L 7.335938 -3.652344 L 7.335938 -24.320312 L 7.921875 -24.320312 L 7.921875 -23.734375 L 2.953125 -23.734375 L 2.953125 -24.320312 L 3.539062 -24.320312 Z M 0.144531 -15.21875 L 0.144531 -20.042969 L 12.261719 -20.042969 L 12.261719 -14.632812 L 0.144531 -14.632812 Z M 1.316406 -15.21875 L 0.730469 -15.21875 L 0.730469 -15.804688 L 11.675781 -15.804688 L 11.675781 -15.21875 L 11.085938 -15.21875 L 11.085938 -19.457031 L 11.675781 -19.457031 L 11.675781 -18.871094 L 0.730469 -18.871094 L 0.730469 -19.457031 L 1.316406 -19.457031 Z M 1.316406 -15.21875 "/></g></g></g><g fill="#24127b" fill-opacity="1"><g transform="translate(1.489253, 30.01584)"><g><path d="M 6.53125 -7.75 C 6.625 -6.988281 6.890625 -6.328125 7.328125 -5.765625 C 7.773438 -5.210938 8.347656 -4.785156 9.046875 -4.484375 C 9.753906 -4.179688 10.550781 -4.03125 11.4375 -4.03125 C 12.613281 -4.03125 13.609375 -4.234375 14.421875 -4.640625 C 15.234375 -5.046875 15.640625 -5.6875 15.640625 -6.5625 C 15.640625 -7.1875 15.382812 -7.6875 14.875 -8.0625 C 14.363281 -8.4375 13.6875 -8.738281 12.84375 -8.96875 C 12 -9.195312 11.078125 -9.425781 10.078125 -9.65625 C 9.078125 -9.894531 8.070312 -10.179688 7.0625 -10.515625 C 6.0625 -10.847656 5.132812 -11.300781 4.28125 -11.875 C 3.4375 -12.457031 2.757812 -13.21875 2.25 -14.15625 C 1.75 -15.09375 1.5 -16.28125 1.5 -17.71875 C 1.5 -19.113281 1.910156 -20.347656 2.734375 -21.421875 C 3.554688 -22.503906 4.691406 -23.347656 6.140625 -23.953125 C 7.585938 -24.566406 9.234375 -24.875 11.078125 -24.875 C 12.890625 -24.875 14.5 -24.515625 15.90625 -23.796875 C 17.320312 -23.078125 18.441406 -22.09375 19.265625 -20.84375 C 20.085938 -19.59375 20.5 -18.179688 20.5 -16.609375 L 15.21875 -16.609375 C 15.125 -17.765625 14.722656 -18.664062 14.015625 -19.3125 C 13.316406 -19.96875 12.28125 -20.296875 10.90625 -20.296875 C 9.5625 -20.296875 8.53125 -20.050781 7.8125 -19.5625 C 7.09375 -19.070312 6.734375 -18.457031 6.734375 -17.71875 C 6.734375 -17.03125 6.988281 -16.488281 7.5 -16.09375 C 8.007812 -15.695312 8.6875 -15.367188 9.53125 -15.109375 C 10.382812 -14.859375 11.3125 -14.625 12.3125 -14.40625 C 13.320312 -14.1875 14.320312 -13.910156 15.3125 -13.578125 C 16.3125 -13.253906 17.234375 -12.816406 18.078125 -12.265625 C 18.929688 -11.710938 19.613281 -10.976562 20.125 -10.0625 C 20.632812 -9.144531 20.890625 -7.976562 20.890625 -6.5625 C 20.890625 -4.320312 20.039062 -2.570312 18.34375 -1.3125 C 16.65625 -0.0625 14.28125 0.5625 11.21875 0.5625 C 9.34375 0.5625 7.664062 0.203125 6.1875 -0.515625 C 4.707031 -1.234375 3.523438 -2.21875 2.640625 -3.46875 C 1.765625 -4.71875 1.289062 -6.144531 1.21875 -7.75 Z M 6.53125 -7.75 "/></g></g></g><g fill="#24127b" fill-opacity="1"><g transform="translate(23.199281, 30.01584)"><g><path d="M 8.4375 0.5625 C 7.164062 0.5625 6.035156 0.320312 5.046875 -0.15625 C 4.066406 -0.632812 3.289062 -1.320312 2.71875 -2.21875 C 2.15625 -3.125 1.875 -4.226562 1.875 -5.53125 C 1.875 -7.03125 2.234375 -8.21875 2.953125 -9.09375 C 3.671875 -9.976562 4.613281 -10.640625 5.78125 -11.078125 C 6.957031 -11.523438 8.222656 -11.828125 9.578125 -11.984375 C 10.929688 -12.148438 12.242188 -12.242188 13.515625 -12.265625 L 13.515625 -8.03125 C 11.222656 -8.070312 9.570312 -7.898438 8.5625 -7.515625 C 7.550781 -7.140625 7.046875 -6.523438 7.046875 -5.671875 C 7.046875 -5.035156 7.285156 -4.59375 7.765625 -4.34375 C 8.242188 -4.09375 8.796875 -3.96875 9.421875 -3.96875 C 10.023438 -3.96875 10.644531 -4.054688 11.28125 -4.234375 C 11.914062 -4.421875 12.445312 -4.78125 12.875 -5.3125 C 13.300781 -5.84375 13.515625 -6.632812 13.515625 -7.6875 L 13.515625 -10.109375 L 18.484375 -10.109375 L 18.484375 0 L 13.515625 0 L 13.515625 -1.875 C 12.984375 -1.132812 12.257812 -0.539062 11.34375 -0.09375 C 10.425781 0.34375 9.457031 0.5625 8.4375 0.5625 Z M 1.21875 -12.265625 C 1.21875 -13.585938 1.5625 -14.835938 2.25 -16.015625 C 2.945312 -17.203125 3.957031 -18.164062 5.28125 -18.90625 C 6.601562 -19.644531 8.203125 -20.015625 10.078125 -20.015625 C 12.628906 -20.015625 14.609375 -19.320312 16.015625 -17.9375 C 17.429688 -16.5625 18.242188 -14.671875 18.453125 -12.265625 L 13.515625 -12.265625 C 13.441406 -13.210938 13.175781 -13.988281 12.71875 -14.59375 C 12.257812 -15.195312 11.378906 -15.5 10.078125 -15.5 C 9.078125 -15.5 8.3125 -15.34375 7.78125 -15.03125 C 7.25 -14.71875 6.882812 -14.3125 6.6875 -13.8125 C 6.488281 -13.3125 6.390625 -12.796875 6.390625 -12.265625 Z M 1.21875 -12.265625 "/></g></g></g><g fill="#24127b" fill-opacity="1"><g transform="translate(42.19974, 30.01584)"><g><path d="M 0.625 -19.453125 L 5.9375 -19.453125 L 11.15625 0 L 6.53125 0 Z M 19.140625 -19.453125 L 13.234375 0 L 8.625 0 L 13.828125 -19.453125 Z M 19.140625 -19.453125 "/></g></g></g><g fill="#24127b" fill-opacity="1"><g transform="translate(61.200259, 30.01584)"><g><path d="M 6.109375 -8.0625 L 6.109375 -12.09375 L 16.296875 -12.09375 L 14.703125 -11.15625 C 14.816406 -11.820312 14.75 -12.5 14.5 -13.1875 C 14.257812 -13.875 13.835938 -14.441406 13.234375 -14.890625 C 12.640625 -15.335938 11.832031 -15.5625 10.8125 -15.5625 C 9.488281 -15.5625 8.359375 -15.128906 7.421875 -14.265625 C 6.484375 -13.398438 6.046875 -12.097656 6.109375 -10.359375 L 0.875 -10.359375 C 0.988281 -12.460938 1.507812 -14.226562 2.4375 -15.65625 C 3.363281 -17.082031 4.554688 -18.164062 6.015625 -18.90625 C 7.472656 -19.644531 9.070312 -20.015625 10.8125 -20.015625 C 12.125 -20.015625 13.367188 -19.75 14.546875 -19.21875 C 15.734375 -18.6875 16.753906 -17.910156 17.609375 -16.890625 C 18.472656 -15.867188 19.097656 -14.613281 19.484375 -13.125 C 19.878906 -11.644531 19.941406 -9.957031 19.671875 -8.0625 Z M 10.8125 0.5625 C 9 0.5625 7.390625 0.203125 5.984375 -0.515625 C 4.585938 -1.234375 3.460938 -2.238281 2.609375 -3.53125 C 1.753906 -4.832031 1.207031 -6.34375 0.96875 -8.0625 L 6.109375 -8.0625 C 6.296875 -6.851562 6.753906 -5.851562 7.484375 -5.0625 C 8.210938 -4.28125 9.320312 -3.890625 10.8125 -3.890625 C 11.757812 -3.890625 12.546875 -4.109375 13.171875 -4.546875 C 13.796875 -4.992188 14.234375 -5.539062 14.484375 -6.1875 L 19.734375 -6.1875 C 19.460938 -4.84375 18.921875 -3.664062 18.109375 -2.65625 C 17.296875 -1.644531 16.269531 -0.851562 15.03125 -0.28125 C 13.789062 0.28125 12.382812 0.5625 10.8125 0.5625 Z M 10.8125 0.5625 "/></g></g></g><g fill="#24127b" fill-opacity="1"><g transform="translate(81.868288, 30.01584)"><g/></g></g><g fill="#24127b" fill-opacity="1"><g transform="translate(88.815529, 30.01584)"><g><path d="M 6.84375 -12.375 L 10.21875 -12.375 L 10.21875 -8 L 6.84375 -8 Z M 10.21875 -12.375 C 11.332031 -12.375 12.285156 -12.472656 13.078125 -12.671875 C 13.878906 -12.867188 14.492188 -13.238281 14.921875 -13.78125 C 15.347656 -14.320312 15.5625 -15.113281 15.5625 -16.15625 C 15.5625 -17.195312 15.347656 -17.988281 14.921875 -18.53125 C 14.492188 -19.082031 13.878906 -19.457031 13.078125 -19.65625 C 12.285156 -19.851562 11.332031 -19.953125 10.21875 -19.953125 L 10.21875 -24.328125 C 12.320312 -24.328125 14.164062 -24.054688 15.75 -23.515625 C 17.34375 -22.984375 18.582031 -22.117188 19.46875 -20.921875 C 20.363281 -19.734375 20.8125 -18.144531 20.8125 -16.15625 C 20.8125 -14.1875 20.363281 -12.597656 19.46875 -11.390625 C 18.582031 -10.191406 17.34375 -9.328125 15.75 -8.796875 C 14.164062 -8.265625 12.320312 -8 10.21875 -8 Z M 6.84375 -24.328125 L 10.21875 -24.328125 L 10.21875 -19.953125 L 6.84375 -19.953125 Z M 6.84375 -22.03125 L 6.84375 0 L 1.8125 0 L 1.8125 -22.03125 Z M 6.84375 -22.03125 "/></g></g></g><g fill="#24127b" fill-opacity="1"><g transform="translate(110.317118, 30.01584)"><g><path d="M 10.8125 0.5625 C 8.8125 0.5625 7.066406 0.128906 5.578125 -0.734375 C 4.085938 -1.609375 2.929688 -2.820312 2.109375 -4.375 C 1.285156 -5.925781 0.875 -7.695312 0.875 -9.6875 C 0.875 -11.707031 1.285156 -13.492188 2.109375 -15.046875 C 2.929688 -16.597656 4.085938 -17.8125 5.578125 -18.6875 C 7.066406 -19.570312 8.820312 -20.015625 10.84375 -20.015625 C 12.832031 -20.015625 14.566406 -19.570312 16.046875 -18.6875 C 17.535156 -17.8125 18.691406 -16.597656 19.515625 -15.046875 C 20.335938 -13.492188 20.75 -11.707031 20.75 -9.6875 C 20.75 -7.695312 20.335938 -5.925781 19.515625 -4.375 C 18.691406 -2.820312 17.535156 -1.609375 16.046875 -0.734375 C 14.566406 0.128906 12.820312 0.5625 10.8125 0.5625 Z M 10.84375 -3.890625 C 11.957031 -3.890625 12.863281 -4.148438 13.5625 -4.671875 C 14.269531 -5.191406 14.796875 -5.890625 15.140625 -6.765625 C 15.492188 -7.648438 15.671875 -8.625 15.671875 -9.6875 C 15.671875 -10.78125 15.492188 -11.769531 15.140625 -12.65625 C 14.796875 -13.550781 14.269531 -14.257812 13.5625 -14.78125 C 12.863281 -15.300781 11.957031 -15.5625 10.84375 -15.5625 C 9.707031 -15.5625 8.78125 -15.300781 8.0625 -14.78125 C 7.34375 -14.257812 6.804688 -13.550781 6.453125 -12.65625 C 6.109375 -11.769531 5.9375 -10.78125 5.9375 -9.6875 C 5.9375 -8.625 6.109375 -7.648438 6.453125 -6.765625 C 6.804688 -5.890625 7.34375 -5.191406 8.0625 -4.671875 C 8.78125 -4.148438 9.707031 -3.890625 10.84375 -3.890625 Z M 10.84375 -3.890625 "/></g></g></g><g fill="#24127b" fill-opacity="1"><g transform="translate(131.81878, 30.01584)"><g><path d="M 3.0625 -19.453125 L 8.03125 -19.453125 L 8.03125 0 L 3.0625 0 Z M 1.671875 -26.40625 L 6.984375 -27.625 L 8.203125 -22.3125 L 2.890625 -21.09375 Z M 1.671875 -26.40625 "/></g></g></g><g fill="#24127b" fill-opacity="1"><g transform="translate(141.683859, 30.01584)"><g><path d="M 1.59375 -19.453125 L 6.5625 -19.453125 L 6.5625 -16.46875 C 6.820312 -17.09375 7.195312 -17.671875 7.6875 -18.203125 C 8.1875 -18.742188 8.847656 -19.179688 9.671875 -19.515625 C 10.492188 -19.847656 11.507812 -20.015625 12.71875 -20.015625 C 13.96875 -20.015625 15.078125 -19.757812 16.046875 -19.25 C 17.023438 -18.738281 17.789062 -17.898438 18.34375 -16.734375 C 18.90625 -15.566406 19.1875 -13.984375 19.1875 -11.984375 L 19.1875 0 L 14.21875 0 L 14.21875 -11.53125 C 14.21875 -12.300781 14.15625 -13.003906 14.03125 -13.640625 C 13.914062 -14.273438 13.65625 -14.773438 13.25 -15.140625 C 12.851562 -15.515625 12.210938 -15.703125 11.328125 -15.703125 C 10.628906 -15.703125 9.910156 -15.503906 9.171875 -15.109375 C 8.429688 -14.722656 7.8125 -14.082031 7.3125 -13.1875 C 6.8125 -12.289062 6.5625 -11.066406 6.5625 -9.515625 L 6.5625 0 L 1.59375 0 Z M 1.59375 -19.453125 "/></g></g></g><g fill="#24127b" fill-opacity="1"><g transform="translate(162.24765, 30.01584)"><g><path d="M 2.953125 0 L 2.953125 -24.328125 L 7.921875 -24.328125 L 7.921875 -4.234375 L 12.234375 -4.234375 L 12.234375 0 Z M 0.734375 -15.21875 L 0.734375 -19.453125 L 11.671875 -19.453125 L 11.671875 -15.21875 Z M 0.734375 -15.21875 "/></g></g></g></g></g></g></svg>