<svg xmlns="http://www.w3.org/2000/svg" xmlns:xlink="http://www.w3.org/1999/xlink" width="250" zoomAndPan="magnify" viewBox="0 0 187.5 37.5" height="50" preserveAspectRatio="xMidYMid meet" version="1.0"><defs><filter x="0%" y="0%" width="100%" height="100%" id="4b8a949839"><feColorMatrix values="0 0 0 0 1 0 0 0 0 1 0 0 0 0 1 0 0 0 1 0" color-interpolation-filters="sRGB"/></filter><g/><clipPath id="b1ce5a50e4"><path d="M 19 0 L 167 0 L 167 37.007812 L 19 37.007812 Z M 19 0 " clip-rule="nonzero"/></clipPath><mask id="8ea4ec218f"><g filter="url(#4b8a949839)"><rect x="-18.75" width="225" fill="#000000" y="-3.75" height="45" fill-opacity="0.85"/></g></mask><clipPath id="54be8b6f49"><rect x="0" width="148" y="0" height="38"/></clipPath></defs><g clip-path="url(#b1ce5a50e4)"><g mask="url(#8ea4ec218f)"><g transform="matrix(1, 0, 0, 1, 19, -0.000000000000001478)"><g clip-path="url(#54be8b6f49)"><g fill="#ff00ff" fill-opacity="1"><g transform="translate(3.927568, 30.345394)"><g><path d="M 8.515625 -23.234375 C 7.566406 -23.242188 6.75 -23.066406 6.0625 -22.703125 C 5.382812 -22.335938 4.84375 -21.84375 4.4375 -21.21875 C 4.039062 -20.601562 3.78125 -19.925781 3.65625 -19.1875 C 3.53125 -18.445312 3.546875 -17.703125 3.703125 -16.953125 C 3.867188 -16.203125 4.164062 -15.515625 4.59375 -14.890625 C 5.03125 -14.265625 5.609375 -13.757812 6.328125 -13.375 C 7.054688 -12.988281 7.921875 -12.796875 8.921875 -12.796875 L 12.203125 -12.765625 C 13.347656 -12.765625 14.300781 -12.546875 15.0625 -12.109375 C 15.820312 -11.671875 16.394531 -11.097656 16.78125 -10.390625 C 17.164062 -9.691406 17.359375 -8.945312 17.359375 -8.15625 C 17.359375 -7.226562 17.179688 -6.382812 16.828125 -5.625 C 16.472656 -4.863281 15.953125 -4.257812 15.265625 -3.8125 C 14.578125 -3.363281 13.738281 -3.140625 12.75 -3.140625 L 9.609375 -3.171875 C 8.753906 -3.191406 7.925781 -3.347656 7.125 -3.640625 C 6.332031 -3.941406 5.65625 -4.390625 5.09375 -4.984375 C 4.53125 -5.585938 4.179688 -6.335938 4.046875 -7.234375 L 7.171875 -7.8125 C 7.304688 -7.414062 7.550781 -7.078125 7.90625 -6.796875 C 8.257812 -6.515625 8.65625 -6.359375 9.09375 -6.328125 L 12.71875 -6.328125 C 13.113281 -6.328125 13.429688 -6.441406 13.671875 -6.671875 C 13.921875 -6.898438 14.082031 -7.1875 14.15625 -7.53125 C 14.238281 -7.875 14.238281 -8.21875 14.15625 -8.5625 C 14.070312 -8.90625 13.910156 -9.191406 13.671875 -9.421875 C 13.429688 -9.660156 13.113281 -9.78125 12.71875 -9.78125 L 9.40625 -9.78125 C 7.894531 -9.78125 6.570312 -10.007812 5.4375 -10.46875 C 4.300781 -10.9375 3.359375 -11.5625 2.609375 -12.34375 C 1.867188 -13.125 1.304688 -14 0.921875 -14.96875 C 0.546875 -15.945312 0.34375 -16.957031 0.3125 -18 C 0.289062 -19.039062 0.445312 -20.046875 0.78125 -21.015625 C 1.125 -21.992188 1.632812 -22.875 2.3125 -23.65625 C 2.988281 -24.445312 3.835938 -25.070312 4.859375 -25.53125 C 5.878906 -26 7.0625 -26.234375 8.40625 -26.234375 L 11.9375 -26.234375 C 12.957031 -26.234375 13.941406 -26.070312 14.890625 -25.75 C 15.847656 -25.425781 16.726562 -24.960938 17.53125 -24.359375 C 18.332031 -23.765625 19 -23.054688 19.53125 -22.234375 C 20.0625 -21.410156 20.421875 -20.492188 20.609375 -19.484375 L 17.671875 -18.96875 C 17.566406 -19.675781 17.332031 -20.296875 16.96875 -20.828125 C 16.601562 -21.367188 16.140625 -21.816406 15.578125 -22.171875 C 15.023438 -22.523438 14.410156 -22.789062 13.734375 -22.96875 C 13.066406 -23.144531 12.382812 -23.234375 11.6875 -23.234375 Z M 12.75 -2.78125 C 13.632812 -2.78125 14.390625 -2.921875 15.015625 -3.203125 C 15.648438 -3.484375 16.160156 -3.875 16.546875 -4.375 C 16.941406 -4.882812 17.234375 -5.460938 17.421875 -6.109375 C 17.609375 -6.765625 17.703125 -7.445312 17.703125 -8.15625 C 17.703125 -8.78125 17.59375 -9.390625 17.375 -9.984375 C 17.15625 -10.578125 16.816406 -11.109375 16.359375 -11.578125 C 15.910156 -12.054688 15.335938 -12.4375 14.640625 -12.71875 C 13.953125 -13 13.140625 -13.140625 12.203125 -13.140625 L 8.875 -13.140625 C 7.945312 -13.148438 7.148438 -13.332031 6.484375 -13.6875 C 5.828125 -14.050781 5.296875 -14.523438 4.890625 -15.109375 C 4.492188 -15.691406 4.21875 -16.332031 4.0625 -17.03125 C 3.914062 -17.726562 3.898438 -18.421875 4.015625 -19.109375 C 4.128906 -19.804688 4.367188 -20.441406 4.734375 -21.015625 C 5.097656 -21.597656 5.59375 -22.0625 6.21875 -22.40625 C 6.84375 -22.75 7.59375 -22.921875 8.46875 -22.921875 L 11.71875 -22.921875 C 12.582031 -22.921875 13.410156 -22.769531 14.203125 -22.46875 C 15.003906 -22.164062 15.679688 -21.710938 16.234375 -21.109375 C 16.796875 -20.515625 17.132812 -19.765625 17.25 -18.859375 L 14.15625 -18.265625 C 14.019531 -18.671875 13.773438 -19.015625 13.421875 -19.296875 C 13.078125 -19.585938 12.679688 -19.738281 12.234375 -19.75 L 8.625 -19.75 C 8.21875 -19.75 7.890625 -19.628906 7.640625 -19.390625 C 7.398438 -19.160156 7.238281 -18.875 7.15625 -18.53125 C 7.070312 -18.195312 7.070312 -17.859375 7.15625 -17.515625 C 7.238281 -17.171875 7.398438 -16.882812 7.640625 -16.65625 C 7.890625 -16.425781 8.21875 -16.3125 8.625 -16.3125 L 11.9375 -16.3125 C 13.394531 -16.3125 14.675781 -16.082031 15.78125 -15.625 C 16.882812 -15.164062 17.8125 -14.546875 18.5625 -13.765625 C 19.3125 -12.992188 19.878906 -12.117188 20.265625 -11.140625 C 20.660156 -10.171875 20.863281 -9.175781 20.875 -8.15625 C 20.882812 -7.125 20.703125 -6.113281 20.328125 -5.125 C 19.953125 -4.144531 19.394531 -3.253906 18.65625 -2.453125 C 17.914062 -1.660156 16.988281 -1.03125 15.875 -0.5625 C 14.757812 -0.09375 13.472656 0.140625 12.015625 0.140625 L 9.40625 0.140625 C 8.394531 0.140625 7.40625 -0.015625 6.4375 -0.328125 C 5.476562 -0.648438 4.597656 -1.113281 3.796875 -1.71875 C 2.992188 -2.320312 2.316406 -3.035156 1.765625 -3.859375 C 1.210938 -4.679688 0.84375 -5.597656 0.65625 -6.609375 L 3.671875 -7.125 C 3.765625 -6.40625 3.992188 -5.773438 4.359375 -5.234375 C 4.734375 -4.703125 5.195312 -4.253906 5.75 -3.890625 C 6.3125 -3.523438 6.925781 -3.253906 7.59375 -3.078125 C 8.257812 -2.898438 8.945312 -2.8125 9.65625 -2.8125 Z M 12.75 -2.78125 "/></g></g></g><g fill="#ff00ff" fill-opacity="1"><g transform="translate(23.480036, 30.345394)"><g><path d="M 3.703125 -8.546875 C 3.703125 -7.765625 3.847656 -7.035156 4.140625 -6.359375 C 4.429688 -5.691406 4.828125 -5.101562 5.328125 -4.59375 C 5.835938 -4.09375 6.425781 -3.695312 7.09375 -3.40625 C 7.769531 -3.125 8.476562 -2.984375 9.21875 -2.984375 C 10.132812 -2.984375 11.015625 -3.207031 11.859375 -3.65625 C 12.117188 -3.207031 12.429688 -2.78125 12.796875 -2.375 C 13.160156 -1.976562 13.546875 -1.601562 13.953125 -1.25 C 13.253906 -0.820312 12.515625 -0.484375 11.734375 -0.234375 C 10.953125 0.00390625 10.113281 0.125 9.21875 0.125 C 8.070312 0.125 6.972656 -0.09375 5.921875 -0.53125 C 4.867188 -0.976562 3.9375 -1.597656 3.125 -2.390625 C 2.320312 -3.179688 1.6875 -4.101562 1.21875 -5.15625 C 0.75 -6.207031 0.515625 -7.335938 0.515625 -8.546875 C 0.515625 -9.753906 0.738281 -10.882812 1.1875 -11.9375 C 1.644531 -12.988281 2.269531 -13.910156 3.0625 -14.703125 C 3.851562 -15.503906 4.773438 -16.128906 5.828125 -16.578125 C 6.878906 -17.023438 8.007812 -17.25 9.21875 -17.25 C 10.414062 -17.25 11.535156 -17.023438 12.578125 -16.578125 C 13.628906 -16.128906 14.550781 -15.503906 15.34375 -14.703125 C 16.144531 -13.910156 16.769531 -12.988281 17.21875 -11.9375 C 17.664062 -10.882812 17.890625 -9.753906 17.890625 -8.546875 L 17.890625 -3.609375 C 16.859375 -4.023438 16.066406 -4.675781 15.515625 -5.5625 C 14.972656 -6.457031 14.703125 -7.453125 14.703125 -8.546875 C 14.703125 -9.304688 14.5625 -10.019531 14.28125 -10.6875 C 14 -11.351562 13.609375 -11.941406 13.109375 -12.453125 C 12.609375 -12.960938 12.023438 -13.359375 11.359375 -13.640625 C 10.691406 -13.921875 9.976562 -14.0625 9.21875 -14.0625 C 8.445312 -14.0625 7.726562 -13.921875 7.0625 -13.640625 C 6.40625 -13.359375 5.820312 -12.960938 5.3125 -12.453125 C 4.8125 -11.941406 4.414062 -11.351562 4.125 -10.6875 C 3.84375 -10.019531 3.703125 -9.304688 3.703125 -8.546875 Z M 7.265625 -8.546875 C 7.265625 -8.890625 7.351562 -9.207031 7.53125 -9.5 C 7.707031 -9.800781 7.941406 -10.039062 8.234375 -10.21875 C 8.535156 -10.40625 8.863281 -10.5 9.21875 -10.5 C 9.59375 -10.5 9.929688 -10.40625 10.234375 -10.21875 C 10.535156 -10.039062 10.769531 -9.796875 10.9375 -9.484375 C 11.101562 -9.179688 11.171875 -8.84375 11.140625 -8.46875 C 11.128906 -7.46875 11.289062 -6.5 11.625 -5.5625 C 11.957031 -4.625 12.425781 -3.765625 13.03125 -2.984375 C 13.644531 -2.210938 14.363281 -1.554688 15.1875 -1.015625 C 16.019531 -0.484375 16.921875 -0.101562 17.890625 0.125 L 17.890625 -3.203125 C 17.128906 -3.472656 16.484375 -3.878906 15.953125 -4.421875 C 15.421875 -4.960938 15.015625 -5.585938 14.734375 -6.296875 C 14.460938 -7.015625 14.328125 -7.765625 14.328125 -8.546875 C 14.328125 -9.242188 14.195312 -9.898438 13.9375 -10.515625 C 13.675781 -11.140625 13.3125 -11.6875 12.84375 -12.15625 C 12.375 -12.625 11.832031 -12.988281 11.21875 -13.25 C 10.601562 -13.519531 9.9375 -13.65625 9.21875 -13.65625 C 8.5 -13.65625 7.828125 -13.519531 7.203125 -13.25 C 6.578125 -12.988281 6.03125 -12.625 5.5625 -12.15625 C 5.09375 -11.6875 4.726562 -11.140625 4.46875 -10.515625 C 4.207031 -9.898438 4.078125 -9.242188 4.078125 -8.546875 C 4.078125 -7.828125 4.210938 -7.15625 4.484375 -6.53125 C 4.753906 -5.914062 5.128906 -5.375 5.609375 -4.90625 C 6.085938 -4.445312 6.632812 -4.085938 7.25 -3.828125 C 7.875 -3.566406 8.53125 -3.4375 9.21875 -3.4375 C 9.675781 -3.4375 10.101562 -3.484375 10.5 -3.578125 C 10.90625 -3.679688 11.28125 -3.832031 11.625 -4.03125 C 11.363281 -4.519531 11.148438 -5.035156 10.984375 -5.578125 C 10.816406 -6.128906 10.695312 -6.675781 10.625 -7.21875 C 10.476562 -6.988281 10.273438 -6.816406 10.015625 -6.703125 C 9.765625 -6.597656 9.5 -6.546875 9.21875 -6.546875 C 8.863281 -6.546875 8.535156 -6.632812 8.234375 -6.8125 C 7.941406 -7 7.707031 -7.242188 7.53125 -7.546875 C 7.351562 -7.847656 7.265625 -8.179688 7.265625 -8.546875 Z M 7.265625 -8.546875 "/></g></g></g><g fill="#ff00ff" fill-opacity="1"><g transform="translate(40.522102, 30.345394)"><g><path d="M 5.46875 0 L 2.671875 -2.8125 C 1.910156 -3.582031 1.335938 -4.472656 0.953125 -5.484375 C 0.566406 -6.492188 0.375 -7.550781 0.375 -8.65625 L 0.375 -17.203125 L 3.515625 -17.203125 L 3.515625 -8.625 C 3.515625 -7.863281 3.65625 -7.15625 3.9375 -6.5 C 4.226562 -5.84375 4.613281 -5.265625 5.09375 -4.765625 L 8.953125 -0.859375 L 12.84375 -4.765625 C 13.320312 -5.265625 13.707031 -5.84375 14 -6.5 C 14.289062 -7.15625 14.4375 -7.863281 14.4375 -8.625 L 14.4375 -17.203125 L 17.578125 -17.203125 L 17.578125 -8.65625 C 17.578125 -7.550781 17.382812 -6.492188 17 -5.484375 C 16.613281 -4.472656 16.035156 -3.582031 15.265625 -2.8125 L 12.5 0 Z M 3.921875 -17.203125 L 7.03125 -17.203125 L 7.03125 -8.65625 C 7.03125 -8.25 7.132812 -7.878906 7.34375 -7.546875 C 7.5625 -7.210938 7.816406 -6.90625 8.109375 -6.625 C 8.410156 -6.351562 8.691406 -6.09375 8.953125 -5.84375 C 9.210938 -6.09375 9.5 -6.351562 9.8125 -6.625 C 10.125 -6.90625 10.390625 -7.210938 10.609375 -7.546875 C 10.835938 -7.878906 10.953125 -8.25 10.953125 -8.65625 L 10.953125 -17.203125 L 14.03125 -17.203125 L 14.03125 -8.65625 C 14.03125 -7.96875 13.894531 -7.304688 13.625 -6.671875 C 13.363281 -6.046875 13 -5.492188 12.53125 -5.015625 L 8.953125 -1.4375 L 5.390625 -5.015625 C 4.929688 -5.492188 4.570312 -6.046875 4.3125 -6.671875 C 4.050781 -7.304688 3.921875 -7.96875 3.921875 -8.65625 Z M 3.921875 -17.203125 "/></g></g></g><g fill="#ff00ff" fill-opacity="1"><g transform="translate(57.012243, 30.345394)"><g><path d="M 8.84375 -14.125 C 8.082031 -14.125 7.367188 -13.976562 6.703125 -13.6875 C 6.046875 -13.40625 5.460938 -13.007812 4.953125 -12.5 C 4.453125 -12 4.054688 -11.421875 3.765625 -10.765625 C 3.484375 -10.109375 3.34375 -9.398438 3.34375 -8.640625 C 3.34375 -7.878906 3.484375 -7.164062 3.765625 -6.5 C 4.054688 -5.84375 4.453125 -5.257812 4.953125 -4.75 C 5.460938 -4.25 6.046875 -3.859375 6.703125 -3.578125 C 7.367188 -3.296875 8.082031 -3.15625 8.84375 -3.15625 L 16.6875 -3.15625 L 16.6875 0 L 8.84375 0 C 7.65625 0 6.539062 -0.21875 5.5 -0.65625 C 4.457031 -1.101562 3.535156 -1.722656 2.734375 -2.515625 C 1.941406 -3.316406 1.320312 -4.238281 0.875 -5.28125 C 0.4375 -6.332031 0.21875 -7.453125 0.21875 -8.640625 C 0.21875 -9.835938 0.4375 -10.953125 0.875 -11.984375 C 1.320312 -13.023438 1.941406 -13.941406 2.734375 -14.734375 C 3.535156 -15.535156 4.457031 -16.15625 5.5 -16.59375 C 6.539062 -17.039062 7.65625 -17.265625 8.84375 -17.265625 C 9.84375 -17.265625 10.8125 -17.144531 11.75 -16.90625 C 12.6875 -16.664062 13.535156 -16.28125 14.296875 -15.75 C 15.054688 -15.226562 15.671875 -14.554688 16.140625 -13.734375 C 16.617188 -12.921875 16.894531 -11.929688 16.96875 -10.765625 C 17.019531 -10.117188 16.972656 -9.476562 16.828125 -8.84375 C 16.691406 -8.207031 16.40625 -7.628906 15.96875 -7.109375 L 12.84375 -7.09375 C 13.289062 -7.582031 13.578125 -8.132812 13.703125 -8.75 C 13.835938 -9.375 13.867188 -9.945312 13.796875 -10.46875 C 13.710938 -11.164062 13.453125 -11.785156 13.015625 -12.328125 C 12.585938 -12.878906 12.015625 -13.316406 11.296875 -13.640625 C 10.585938 -13.960938 9.769531 -14.125 8.84375 -14.125 Z M 16.6875 -3.53125 C 15.394531 -3.53125 14.09375 -3.53125 12.78125 -3.53125 C 11.46875 -3.539062 10.15625 -3.546875 8.84375 -3.546875 C 8.144531 -3.546875 7.488281 -3.675781 6.875 -3.9375 C 6.257812 -4.195312 5.71875 -4.5625 5.25 -5.03125 C 4.78125 -5.5 4.410156 -6.039062 4.140625 -6.65625 C 3.867188 -7.269531 3.734375 -7.929688 3.734375 -8.640625 C 3.734375 -9.335938 3.867188 -9.992188 4.140625 -10.609375 C 4.410156 -11.222656 4.78125 -11.765625 5.25 -12.234375 C 5.71875 -12.710938 6.257812 -13.082031 6.875 -13.34375 C 7.488281 -13.601562 8.144531 -13.734375 8.84375 -13.734375 C 9.738281 -13.734375 10.515625 -13.585938 11.171875 -13.296875 C 11.828125 -13.015625 12.347656 -12.625 12.734375 -12.125 C 13.117188 -11.632812 13.347656 -11.078125 13.421875 -10.453125 C 13.484375 -9.941406 13.457031 -9.410156 13.34375 -8.859375 C 13.238281 -8.304688 12.941406 -7.71875 12.453125 -7.09375 L 8.6875 -7.09375 L 8.6875 -7.828125 C 9.15625 -7.816406 9.523438 -7.90625 9.796875 -8.09375 C 10.066406 -8.28125 10.25 -8.507812 10.34375 -8.78125 C 10.445312 -9.0625 10.457031 -9.335938 10.375 -9.609375 C 10.289062 -9.890625 10.117188 -10.125 9.859375 -10.3125 C 9.609375 -10.5 9.269531 -10.59375 8.84375 -10.59375 C 8.488281 -10.59375 8.160156 -10.503906 7.859375 -10.328125 C 7.566406 -10.148438 7.332031 -9.910156 7.15625 -9.609375 C 6.976562 -9.316406 6.890625 -8.992188 6.890625 -8.640625 C 6.890625 -8.265625 6.976562 -7.925781 7.15625 -7.625 C 7.34375 -7.320312 7.59375 -7.082031 7.90625 -6.90625 C 8.21875 -6.738281 8.554688 -6.660156 8.921875 -6.671875 L 16.6875 -6.671875 Z M 16.6875 -3.53125 "/></g></g></g><g fill="#ff00ff" fill-opacity="1"><g transform="translate(72.808015, 30.345394)"><g/></g></g><g fill="#ff00ff" fill-opacity="1"><g transform="translate(79.577052, 30.345394)"><g><path d="M 12.03125 -9.546875 C 12.84375 -9.546875 13.609375 -9.695312 14.328125 -10 C 15.046875 -10.3125 15.679688 -10.742188 16.234375 -11.296875 C 16.785156 -11.847656 17.21875 -12.484375 17.53125 -13.203125 C 17.84375 -13.921875 18 -14.691406 18 -15.515625 L 18 -17.046875 C 18 -17.890625 17.84375 -18.671875 17.53125 -19.390625 C 17.21875 -20.117188 16.785156 -20.753906 16.234375 -21.296875 C 15.679688 -21.835938 15.046875 -22.265625 14.328125 -22.578125 C 13.609375 -22.890625 12.84375 -23.046875 12.03125 -23.046875 L 9.59375 -23.046875 C 8.789062 -23.046875 8.03125 -22.890625 7.3125 -22.578125 C 6.59375 -22.265625 5.957031 -21.835938 5.40625 -21.296875 C 4.851562 -20.765625 4.414062 -20.140625 4.09375 -19.421875 C 3.78125 -18.703125 3.625 -17.929688 3.625 -17.109375 L 3.625 0 L 0.5 0 L 0.5 -17.140625 C 0.5 -18.378906 0.738281 -19.546875 1.21875 -20.640625 C 1.695312 -21.734375 2.359375 -22.691406 3.203125 -23.515625 C 4.046875 -24.335938 5.015625 -24.984375 6.109375 -25.453125 C 7.210938 -25.921875 8.390625 -26.15625 9.640625 -26.15625 L 12 -26.15625 C 13.257812 -26.15625 14.441406 -25.914062 15.546875 -25.4375 C 16.648438 -24.96875 17.617188 -24.3125 18.453125 -23.46875 C 19.296875 -22.625 19.953125 -21.648438 20.421875 -20.546875 C 20.898438 -19.453125 21.140625 -18.285156 21.140625 -17.046875 L 21.140625 -15.515625 C 21.140625 -14.253906 20.898438 -13.070312 20.421875 -11.96875 C 19.953125 -10.863281 19.296875 -9.890625 18.453125 -9.046875 C 17.617188 -8.210938 16.648438 -7.554688 15.546875 -7.078125 C 14.441406 -6.609375 13.257812 -6.375 12 -6.375 L 7.21875 -6.375 L 7.21875 0 L 4.046875 0 L 4.046875 -9.546875 Z M 4.046875 -17.046875 C 4.046875 -17.785156 4.179688 -18.492188 4.453125 -19.171875 C 4.722656 -19.847656 5.109375 -20.445312 5.609375 -20.96875 C 6.117188 -21.5 6.710938 -21.914062 7.390625 -22.21875 C 8.066406 -22.519531 8.800781 -22.671875 9.59375 -22.671875 L 12.03125 -22.671875 C 12.800781 -22.671875 13.519531 -22.519531 14.1875 -22.21875 C 14.863281 -21.925781 15.457031 -21.519531 15.96875 -21 C 16.488281 -20.488281 16.894531 -19.894531 17.1875 -19.21875 C 17.476562 -18.539062 17.625 -17.816406 17.625 -17.046875 L 17.625 -15.515625 C 17.625 -14.753906 17.476562 -14.035156 17.1875 -13.359375 C 16.894531 -12.679688 16.488281 -12.085938 15.96875 -11.578125 C 15.457031 -11.078125 14.863281 -10.679688 14.1875 -10.390625 C 13.519531 -10.097656 12.800781 -9.953125 12.03125 -9.953125 L 4.046875 -9.953125 Z M 14.421875 -17.046875 C 14.421875 -17.503906 14.3125 -17.914062 14.09375 -18.28125 C 13.875 -18.65625 13.585938 -18.953125 13.234375 -19.171875 C 12.878906 -19.390625 12.476562 -19.5 12.03125 -19.5 L 9.59375 -19.5 C 9.15625 -19.5 8.753906 -19.390625 8.390625 -19.171875 C 8.035156 -18.953125 7.75 -18.65625 7.53125 -18.28125 C 7.320312 -17.914062 7.21875 -17.503906 7.21875 -17.046875 L 7.21875 -13.09375 L 12.03125 -13.09375 C 12.476562 -13.09375 12.878906 -13.203125 13.234375 -13.421875 C 13.585938 -13.640625 13.875 -13.929688 14.09375 -14.296875 C 14.3125 -14.660156 14.421875 -15.066406 14.421875 -15.515625 Z M 14.421875 -17.046875 "/></g></g></g><g fill="#ff00ff" fill-opacity="1"><g transform="translate(98.239206, 30.345394)"><g><path d="M 9 -17.34375 C 10.21875 -17.34375 11.359375 -17.113281 12.421875 -16.65625 C 13.492188 -16.195312 14.4375 -15.5625 15.25 -14.75 C 16.0625 -13.9375 16.695312 -12.992188 17.15625 -11.921875 C 17.625 -10.859375 17.859375 -9.71875 17.859375 -8.5 C 17.859375 -7.300781 17.625 -6.171875 17.15625 -5.109375 C 16.695312 -4.046875 16.0625 -3.109375 15.25 -2.296875 C 14.4375 -1.492188 13.492188 -0.859375 12.421875 -0.390625 C 11.359375 0.0664062 10.21875 0.296875 9 0.296875 C 7.789062 0.296875 6.65625 0.0664062 5.59375 -0.390625 C 4.53125 -0.859375 3.59375 -1.492188 2.78125 -2.296875 C 1.976562 -3.109375 1.347656 -4.046875 0.890625 -5.109375 C 0.441406 -6.171875 0.21875 -7.300781 0.21875 -8.5 C 0.21875 -9.71875 0.441406 -10.859375 0.890625 -11.921875 C 1.347656 -12.992188 1.976562 -13.9375 2.78125 -14.75 C 3.59375 -15.5625 4.53125 -16.195312 5.59375 -16.65625 C 6.65625 -17.113281 7.789062 -17.34375 9 -17.34375 Z M 9 -2.90625 C 9.769531 -2.90625 10.492188 -3.050781 11.171875 -3.34375 C 11.859375 -3.632812 12.460938 -4.035156 12.984375 -4.546875 C 13.503906 -5.066406 13.910156 -5.664062 14.203125 -6.34375 C 14.503906 -7.019531 14.65625 -7.738281 14.65625 -8.5 C 14.65625 -9.28125 14.503906 -10.007812 14.203125 -10.6875 C 13.910156 -11.375 13.503906 -11.972656 12.984375 -12.484375 C 12.460938 -13.003906 11.859375 -13.410156 11.171875 -13.703125 C 10.492188 -13.992188 9.769531 -14.140625 9 -14.140625 C 8.238281 -14.140625 7.519531 -13.992188 6.84375 -13.703125 C 6.164062 -13.410156 5.570312 -13.003906 5.0625 -12.484375 C 4.550781 -11.972656 4.148438 -11.375 3.859375 -10.6875 C 3.566406 -10.007812 3.421875 -9.28125 3.421875 -8.5 C 3.421875 -7.738281 3.566406 -7.019531 3.859375 -6.34375 C 4.148438 -5.664062 4.550781 -5.066406 5.0625 -4.546875 C 5.570312 -4.035156 6.164062 -3.632812 6.84375 -3.34375 C 7.519531 -3.050781 8.238281 -2.90625 9 -2.90625 Z M 9 -13.6875 C 9.71875 -13.6875 10.390625 -13.550781 11.015625 -13.28125 C 11.648438 -13.007812 12.207031 -12.632812 12.6875 -12.15625 C 13.164062 -11.6875 13.535156 -11.132812 13.796875 -10.5 C 14.066406 -9.875 14.203125 -9.207031 14.203125 -8.5 C 14.203125 -7.769531 14.066406 -7.09375 13.796875 -6.46875 C 13.535156 -5.84375 13.164062 -5.289062 12.6875 -4.8125 C 12.207031 -4.34375 11.648438 -3.972656 11.015625 -3.703125 C 10.390625 -3.441406 9.71875 -3.3125 9 -3.3125 C 8.28125 -3.3125 7.609375 -3.441406 6.984375 -3.703125 C 6.359375 -3.972656 5.804688 -4.34375 5.328125 -4.8125 C 4.847656 -5.289062 4.472656 -5.84375 4.203125 -6.46875 C 3.941406 -7.09375 3.8125 -7.769531 3.8125 -8.5 C 3.8125 -9.207031 3.941406 -9.875 4.203125 -10.5 C 4.472656 -11.132812 4.847656 -11.6875 5.328125 -12.15625 C 5.804688 -12.632812 6.359375 -13.007812 6.984375 -13.28125 C 7.609375 -13.550781 8.28125 -13.6875 9 -13.6875 Z M 9 -6.5 C 9.363281 -6.5 9.695312 -6.585938 10 -6.765625 C 10.3125 -6.953125 10.554688 -7.203125 10.734375 -7.515625 C 10.921875 -7.828125 11.015625 -8.15625 11.015625 -8.5 C 11.015625 -8.863281 10.921875 -9.195312 10.734375 -9.5 C 10.554688 -9.800781 10.3125 -10.039062 10 -10.21875 C 9.695312 -10.394531 9.363281 -10.484375 9 -10.484375 C 8.644531 -10.484375 8.316406 -10.394531 8.015625 -10.21875 C 7.710938 -10.039062 7.46875 -9.800781 7.28125 -9.5 C 7.101562 -9.195312 7.015625 -8.863281 7.015625 -8.5 C 7.015625 -8.15625 7.101562 -7.828125 7.28125 -7.515625 C 7.46875 -7.203125 7.710938 -6.953125 8.015625 -6.765625 C 8.316406 -6.585938 8.644531 -6.5 9 -6.5 Z M 9 -6.5 "/></g></g></g><g fill="#ff00ff" fill-opacity="1"><g transform="translate(114.693739, 30.345394)"><g><path d="M 0.25 -21.5625 C 0.25 -22.257812 0.414062 -22.890625 0.75 -23.453125 C 1.082031 -24.023438 1.53125 -24.476562 2.09375 -24.8125 C 2.664062 -25.15625 3.296875 -25.328125 3.984375 -25.328125 C 4.691406 -25.328125 5.328125 -25.15625 5.890625 -24.8125 C 6.453125 -24.476562 6.898438 -24.023438 7.234375 -23.453125 C 7.578125 -22.890625 7.75 -22.257812 7.75 -21.5625 C 7.75 -20.875 7.578125 -20.242188 7.234375 -19.671875 C 6.898438 -19.109375 6.453125 -18.660156 5.890625 -18.328125 C 5.328125 -17.992188 4.691406 -17.828125 3.984375 -17.828125 C 3.296875 -17.828125 2.664062 -17.992188 2.09375 -18.328125 C 1.53125 -18.660156 1.082031 -19.109375 0.75 -19.671875 C 0.414062 -20.242188 0.25 -20.875 0.25 -21.5625 Z M 3.546875 -21.5625 C 3.546875 -21.46875 3.585938 -21.378906 3.671875 -21.296875 C 3.753906 -21.210938 3.84375 -21.171875 3.9375 -21.171875 C 4.03125 -21.171875 4.113281 -21.210938 4.1875 -21.296875 C 4.257812 -21.378906 4.296875 -21.46875 4.296875 -21.5625 C 4.296875 -21.65625 4.257812 -21.738281 4.1875 -21.8125 C 4.113281 -21.882812 4.03125 -21.921875 3.9375 -21.921875 C 3.84375 -21.921875 3.753906 -21.882812 3.671875 -21.8125 C 3.585938 -21.738281 3.546875 -21.65625 3.546875 -21.5625 Z M 0.609375 -17.140625 L 3.78125 -17.140625 L 3.78125 0 L 0.609375 0 Z M 7.28125 0 L 4.109375 0 L 4.109375 -17.140625 L 7.28125 -17.140625 Z M 7.28125 0 "/></g></g></g><g fill="#ff00ff" fill-opacity="1"><g transform="translate(121.160098, 30.345394)"><g><path d="M 9.015625 -14.265625 C 8.179688 -14.265625 7.410156 -14.101562 6.703125 -13.78125 C 5.992188 -13.457031 5.378906 -13 4.859375 -12.40625 C 4.347656 -11.8125 3.96875 -11.101562 3.71875 -10.28125 C 3.519531 -11.113281 3.125 -11.847656 2.53125 -12.484375 C 1.945312 -13.117188 1.25 -13.597656 0.4375 -13.921875 L 0.4375 -17.171875 C 1.707031 -16.890625 2.8125 -16.351562 3.75 -15.5625 C 4.5 -16.144531 5.328125 -16.585938 6.234375 -16.890625 C 7.148438 -17.191406 8.078125 -17.34375 9.015625 -17.34375 C 10.203125 -17.34375 11.3125 -17.117188 12.34375 -16.671875 C 13.375 -16.234375 14.273438 -15.617188 15.046875 -14.828125 C 15.828125 -14.046875 16.4375 -13.132812 16.875 -12.09375 C 17.320312 -11.0625 17.546875 -9.945312 17.546875 -8.75 L 17.546875 0 L 14.4375 0 L 14.4375 -8.828125 C 14.4375 -9.578125 14.296875 -10.273438 14.015625 -10.921875 C 13.734375 -11.566406 13.34375 -12.140625 12.84375 -12.640625 C 12.34375 -13.140625 11.765625 -13.53125 11.109375 -13.8125 C 10.453125 -14.101562 9.753906 -14.253906 9.015625 -14.265625 Z M 9.015625 -10.75 C 9.367188 -10.75 9.691406 -10.65625 9.984375 -10.46875 C 10.273438 -10.289062 10.507812 -10.050781 10.6875 -9.75 C 10.863281 -9.457031 10.953125 -9.132812 10.953125 -8.78125 L 10.953125 0 L 14.03125 0 L 14.03125 -8.78125 C 14.03125 -9.476562 13.898438 -10.128906 13.640625 -10.734375 C 13.378906 -11.347656 13.015625 -11.890625 12.546875 -12.359375 C 12.085938 -12.835938 11.554688 -13.207031 10.953125 -13.46875 C 10.347656 -13.726562 9.703125 -13.859375 9.015625 -13.859375 C 8.328125 -13.859375 7.675781 -13.722656 7.0625 -13.453125 C 6.445312 -13.179688 5.90625 -12.8125 5.4375 -12.34375 C 4.976562 -11.875 4.613281 -11.332031 4.34375 -10.71875 C 4.082031 -10.113281 3.953125 -9.46875 3.953125 -8.78125 L 3.953125 0 L 7.0625 0 L 7.0625 -8.78125 C 7.0625 -9.320312 7.242188 -9.785156 7.609375 -10.171875 C 7.984375 -10.554688 8.453125 -10.75 9.015625 -10.75 Z M 0.4375 0 L 3.578125 0 L 3.578125 -8.78125 C 3.578125 -9.46875 3.445312 -10.117188 3.1875 -10.734375 C 2.9375 -11.347656 2.578125 -11.894531 2.109375 -12.375 C 1.640625 -12.863281 1.082031 -13.242188 0.4375 -13.515625 Z M 0.4375 0 "/></g></g></g><g fill="#ff00ff" fill-opacity="1"><g transform="translate(137.739255, 30.345394)"><g><path d="M 3.734375 -14 L 3.734375 -17.890625 C 3.734375 -18.648438 3.585938 -19.363281 3.296875 -20.03125 C 3.003906 -20.695312 2.597656 -21.28125 2.078125 -21.78125 C 1.554688 -22.289062 0.945312 -22.664062 0.25 -22.90625 L 0.25 -26.140625 C 1.082031 -25.960938 1.878906 -25.65625 2.640625 -25.21875 C 3.410156 -24.789062 4.097656 -24.210938 4.703125 -23.484375 C 5.304688 -22.753906 5.78125 -21.863281 6.125 -20.8125 C 6.476562 -19.757812 6.65625 -18.523438 6.65625 -17.109375 L 8.71875 -17.109375 L 8.71875 -14 Z M 3.328125 -17.890625 C 3.328125 -18.554688 3.195312 -19.195312 2.9375 -19.8125 C 2.675781 -20.425781 2.3125 -20.96875 1.84375 -21.4375 C 1.382812 -21.90625 0.851562 -22.253906 0.25 -22.484375 L 0.25 -8.53125 C 0.25 -7.34375 0.46875 -6.222656 0.90625 -5.171875 C 1.351562 -4.128906 1.96875 -3.210938 2.75 -2.421875 C 3.539062 -1.628906 4.453125 -1.003906 5.484375 -0.546875 C 6.515625 -0.0976562 7.625 0.125 8.8125 0.125 L 8.8125 -2.953125 C 8.050781 -2.953125 7.335938 -3.097656 6.671875 -3.390625 C 6.015625 -3.679688 5.4375 -4.078125 4.9375 -4.578125 C 4.4375 -5.085938 4.039062 -5.675781 3.75 -6.34375 C 3.46875 -7.019531 3.328125 -7.726562 3.328125 -8.46875 Z M 6.84375 -8.46875 C 6.84375 -8.113281 6.925781 -7.785156 7.09375 -7.484375 C 7.269531 -7.179688 7.507812 -6.9375 7.8125 -6.75 C 8.113281 -6.570312 8.445312 -6.484375 8.8125 -6.484375 L 8.8125 -3.359375 C 8.101562 -3.359375 7.441406 -3.492188 6.828125 -3.765625 C 6.210938 -4.046875 5.671875 -4.421875 5.203125 -4.890625 C 4.742188 -5.367188 4.382812 -5.910156 4.125 -6.515625 C 3.863281 -7.128906 3.734375 -7.78125 3.734375 -8.46875 L 3.734375 -13.59375 L 8.71875 -13.59375 L 8.71875 -10.5 L 6.84375 -10.5 Z M 6.84375 -8.46875 "/></g></g></g><g fill="#00ffff" fill-opacity="1"><g transform="translate(1.602587, 30.345394)"><g><path d="M 8.515625 -23.234375 C 7.566406 -23.242188 6.75 -23.066406 6.0625 -22.703125 C 5.382812 -22.335938 4.84375 -21.84375 4.4375 -21.21875 C 4.039062 -20.601562 3.78125 -19.925781 3.65625 -19.1875 C 3.53125 -18.445312 3.546875 -17.703125 3.703125 -16.953125 C 3.867188 -16.203125 4.164062 -15.515625 4.59375 -14.890625 C 5.03125 -14.265625 5.609375 -13.757812 6.328125 -13.375 C 7.054688 -12.988281 7.921875 -12.796875 8.921875 -12.796875 L 12.203125 -12.765625 C 13.347656 -12.765625 14.300781 -12.546875 15.0625 -12.109375 C 15.820312 -11.671875 16.394531 -11.097656 16.78125 -10.390625 C 17.164062 -9.691406 17.359375 -8.945312 17.359375 -8.15625 C 17.359375 -7.226562 17.179688 -6.382812 16.828125 -5.625 C 16.472656 -4.863281 15.953125 -4.257812 15.265625 -3.8125 C 14.578125 -3.363281 13.738281 -3.140625 12.75 -3.140625 L 9.609375 -3.171875 C 8.753906 -3.191406 7.925781 -3.347656 7.125 -3.640625 C 6.332031 -3.941406 5.65625 -4.390625 5.09375 -4.984375 C 4.53125 -5.585938 4.179688 -6.335938 4.046875 -7.234375 L 7.171875 -7.8125 C 7.304688 -7.414062 7.550781 -7.078125 7.90625 -6.796875 C 8.257812 -6.515625 8.65625 -6.359375 9.09375 -6.328125 L 12.71875 -6.328125 C 13.113281 -6.328125 13.429688 -6.441406 13.671875 -6.671875 C 13.921875 -6.898438 14.082031 -7.1875 14.15625 -7.53125 C 14.238281 -7.875 14.238281 -8.21875 14.15625 -8.5625 C 14.070312 -8.90625 13.910156 -9.191406 13.671875 -9.421875 C 13.429688 -9.660156 13.113281 -9.78125 12.71875 -9.78125 L 9.40625 -9.78125 C 7.894531 -9.78125 6.570312 -10.007812 5.4375 -10.46875 C 4.300781 -10.9375 3.359375 -11.5625 2.609375 -12.34375 C 1.867188 -13.125 1.304688 -14 0.921875 -14.96875 C 0.546875 -15.945312 0.34375 -16.957031 0.3125 -18 C 0.289062 -19.039062 0.445312 -20.046875 0.78125 -21.015625 C 1.125 -21.992188 1.632812 -22.875 2.3125 -23.65625 C 2.988281 -24.445312 3.835938 -25.070312 4.859375 -25.53125 C 5.878906 -26 7.0625 -26.234375 8.40625 -26.234375 L 11.9375 -26.234375 C 12.957031 -26.234375 13.941406 -26.070312 14.890625 -25.75 C 15.847656 -25.425781 16.726562 -24.960938 17.53125 -24.359375 C 18.332031 -23.765625 19 -23.054688 19.53125 -22.234375 C 20.0625 -21.410156 20.421875 -20.492188 20.609375 -19.484375 L 17.671875 -18.96875 C 17.566406 -19.675781 17.332031 -20.296875 16.96875 -20.828125 C 16.601562 -21.367188 16.140625 -21.816406 15.578125 -22.171875 C 15.023438 -22.523438 14.410156 -22.789062 13.734375 -22.96875 C 13.066406 -23.144531 12.382812 -23.234375 11.6875 -23.234375 Z M 12.75 -2.78125 C 13.632812 -2.78125 14.390625 -2.921875 15.015625 -3.203125 C 15.648438 -3.484375 16.160156 -3.875 16.546875 -4.375 C 16.941406 -4.882812 17.234375 -5.460938 17.421875 -6.109375 C 17.609375 -6.765625 17.703125 -7.445312 17.703125 -8.15625 C 17.703125 -8.78125 17.59375 -9.390625 17.375 -9.984375 C 17.15625 -10.578125 16.816406 -11.109375 16.359375 -11.578125 C 15.910156 -12.054688 15.335938 -12.4375 14.640625 -12.71875 C 13.953125 -13 13.140625 -13.140625 12.203125 -13.140625 L 8.875 -13.140625 C 7.945312 -13.148438 7.148438 -13.332031 6.484375 -13.6875 C 5.828125 -14.050781 5.296875 -14.523438 4.890625 -15.109375 C 4.492188 -15.691406 4.21875 -16.332031 4.0625 -17.03125 C 3.914062 -17.726562 3.898438 -18.421875 4.015625 -19.109375 C 4.128906 -19.804688 4.367188 -20.441406 4.734375 -21.015625 C 5.097656 -21.597656 5.59375 -22.0625 6.21875 -22.40625 C 6.84375 -22.75 7.59375 -22.921875 8.46875 -22.921875 L 11.71875 -22.921875 C 12.582031 -22.921875 13.410156 -22.769531 14.203125 -22.46875 C 15.003906 -22.164062 15.679688 -21.710938 16.234375 -21.109375 C 16.796875 -20.515625 17.132812 -19.765625 17.25 -18.859375 L 14.15625 -18.265625 C 14.019531 -18.671875 13.773438 -19.015625 13.421875 -19.296875 C 13.078125 -19.585938 12.679688 -19.738281 12.234375 -19.75 L 8.625 -19.75 C 8.21875 -19.75 7.890625 -19.628906 7.640625 -19.390625 C 7.398438 -19.160156 7.238281 -18.875 7.15625 -18.53125 C 7.070312 -18.195312 7.070312 -17.859375 7.15625 -17.515625 C 7.238281 -17.171875 7.398438 -16.882812 7.640625 -16.65625 C 7.890625 -16.425781 8.21875 -16.3125 8.625 -16.3125 L 11.9375 -16.3125 C 13.394531 -16.3125 14.675781 -16.082031 15.78125 -15.625 C 16.882812 -15.164062 17.8125 -14.546875 18.5625 -13.765625 C 19.3125 -12.992188 19.878906 -12.117188 20.265625 -11.140625 C 20.660156 -10.171875 20.863281 -9.175781 20.875 -8.15625 C 20.882812 -7.125 20.703125 -6.113281 20.328125 -5.125 C 19.953125 -4.144531 19.394531 -3.253906 18.65625 -2.453125 C 17.914062 -1.660156 16.988281 -1.03125 15.875 -0.5625 C 14.757812 -0.09375 13.472656 0.140625 12.015625 0.140625 L 9.40625 0.140625 C 8.394531 0.140625 7.40625 -0.015625 6.4375 -0.328125 C 5.476562 -0.648438 4.597656 -1.113281 3.796875 -1.71875 C 2.992188 -2.320312 2.316406 -3.035156 1.765625 -3.859375 C 1.210938 -4.679688 0.84375 -5.597656 0.65625 -6.609375 L 3.671875 -7.125 C 3.765625 -6.40625 3.992188 -5.773438 4.359375 -5.234375 C 4.734375 -4.703125 5.195312 -4.253906 5.75 -3.890625 C 6.3125 -3.523438 6.925781 -3.253906 7.59375 -3.078125 C 8.257812 -2.898438 8.945312 -2.8125 9.65625 -2.8125 Z M 12.75 -2.78125 "/></g></g></g><g fill="#00ffff" fill-opacity="1"><g transform="translate(21.155054, 30.345394)"><g><path d="M 3.703125 -8.546875 C 3.703125 -7.765625 3.847656 -7.035156 4.140625 -6.359375 C 4.429688 -5.691406 4.828125 -5.101562 5.328125 -4.59375 C 5.835938 -4.09375 6.425781 -3.695312 7.09375 -3.40625 C 7.769531 -3.125 8.476562 -2.984375 9.21875 -2.984375 C 10.132812 -2.984375 11.015625 -3.207031 11.859375 -3.65625 C 12.117188 -3.207031 12.429688 -2.78125 12.796875 -2.375 C 13.160156 -1.976562 13.546875 -1.601562 13.953125 -1.25 C 13.253906 -0.820312 12.515625 -0.484375 11.734375 -0.234375 C 10.953125 0.00390625 10.113281 0.125 9.21875 0.125 C 8.070312 0.125 6.972656 -0.09375 5.921875 -0.53125 C 4.867188 -0.976562 3.9375 -1.597656 3.125 -2.390625 C 2.320312 -3.179688 1.6875 -4.101562 1.21875 -5.15625 C 0.75 -6.207031 0.515625 -7.335938 0.515625 -8.546875 C 0.515625 -9.753906 0.738281 -10.882812 1.1875 -11.9375 C 1.644531 -12.988281 2.269531 -13.910156 3.0625 -14.703125 C 3.851562 -15.503906 4.773438 -16.128906 5.828125 -16.578125 C 6.878906 -17.023438 8.007812 -17.25 9.21875 -17.25 C 10.414062 -17.25 11.535156 -17.023438 12.578125 -16.578125 C 13.628906 -16.128906 14.550781 -15.503906 15.34375 -14.703125 C 16.144531 -13.910156 16.769531 -12.988281 17.21875 -11.9375 C 17.664062 -10.882812 17.890625 -9.753906 17.890625 -8.546875 L 17.890625 -3.609375 C 16.859375 -4.023438 16.066406 -4.675781 15.515625 -5.5625 C 14.972656 -6.457031 14.703125 -7.453125 14.703125 -8.546875 C 14.703125 -9.304688 14.5625 -10.019531 14.28125 -10.6875 C 14 -11.351562 13.609375 -11.941406 13.109375 -12.453125 C 12.609375 -12.960938 12.023438 -13.359375 11.359375 -13.640625 C 10.691406 -13.921875 9.976562 -14.0625 9.21875 -14.0625 C 8.445312 -14.0625 7.726562 -13.921875 7.0625 -13.640625 C 6.40625 -13.359375 5.820312 -12.960938 5.3125 -12.453125 C 4.8125 -11.941406 4.414062 -11.351562 4.125 -10.6875 C 3.84375 -10.019531 3.703125 -9.304688 3.703125 -8.546875 Z M 7.265625 -8.546875 C 7.265625 -8.890625 7.351562 -9.207031 7.53125 -9.5 C 7.707031 -9.800781 7.941406 -10.039062 8.234375 -10.21875 C 8.535156 -10.40625 8.863281 -10.5 9.21875 -10.5 C 9.59375 -10.5 9.929688 -10.40625 10.234375 -10.21875 C 10.535156 -10.039062 10.769531 -9.796875 10.9375 -9.484375 C 11.101562 -9.179688 11.171875 -8.84375 11.140625 -8.46875 C 11.128906 -7.46875 11.289062 -6.5 11.625 -5.5625 C 11.957031 -4.625 12.425781 -3.765625 13.03125 -2.984375 C 13.644531 -2.210938 14.363281 -1.554688 15.1875 -1.015625 C 16.019531 -0.484375 16.921875 -0.101562 17.890625 0.125 L 17.890625 -3.203125 C 17.128906 -3.472656 16.484375 -3.878906 15.953125 -4.421875 C 15.421875 -4.960938 15.015625 -5.585938 14.734375 -6.296875 C 14.460938 -7.015625 14.328125 -7.765625 14.328125 -8.546875 C 14.328125 -9.242188 14.195312 -9.898438 13.9375 -10.515625 C 13.675781 -11.140625 13.3125 -11.6875 12.84375 -12.15625 C 12.375 -12.625 11.832031 -12.988281 11.21875 -13.25 C 10.601562 -13.519531 9.9375 -13.65625 9.21875 -13.65625 C 8.5 -13.65625 7.828125 -13.519531 7.203125 -13.25 C 6.578125 -12.988281 6.03125 -12.625 5.5625 -12.15625 C 5.09375 -11.6875 4.726562 -11.140625 4.46875 -10.515625 C 4.207031 -9.898438 4.078125 -9.242188 4.078125 -8.546875 C 4.078125 -7.828125 4.210938 -7.15625 4.484375 -6.53125 C 4.753906 -5.914062 5.128906 -5.375 5.609375 -4.90625 C 6.085938 -4.445312 6.632812 -4.085938 7.25 -3.828125 C 7.875 -3.566406 8.53125 -3.4375 9.21875 -3.4375 C 9.675781 -3.4375 10.101562 -3.484375 10.5 -3.578125 C 10.90625 -3.679688 11.28125 -3.832031 11.625 -4.03125 C 11.363281 -4.519531 11.148438 -5.035156 10.984375 -5.578125 C 10.816406 -6.128906 10.695312 -6.675781 10.625 -7.21875 C 10.476562 -6.988281 10.273438 -6.816406 10.015625 -6.703125 C 9.765625 -6.597656 9.5 -6.546875 9.21875 -6.546875 C 8.863281 -6.546875 8.535156 -6.632812 8.234375 -6.8125 C 7.941406 -7 7.707031 -7.242188 7.53125 -7.546875 C 7.351562 -7.847656 7.265625 -8.179688 7.265625 -8.546875 Z M 7.265625 -8.546875 "/></g></g></g><g fill="#00ffff" fill-opacity="1"><g transform="translate(38.19712, 30.345394)"><g><path d="M 5.46875 0 L 2.671875 -2.8125 C 1.910156 -3.582031 1.335938 -4.472656 0.953125 -5.484375 C 0.566406 -6.492188 0.375 -7.550781 0.375 -8.65625 L 0.375 -17.203125 L 3.515625 -17.203125 L 3.515625 -8.625 C 3.515625 -7.863281 3.65625 -7.15625 3.9375 -6.5 C 4.226562 -5.84375 4.613281 -5.265625 5.09375 -4.765625 L 8.953125 -0.859375 L 12.84375 -4.765625 C 13.320312 -5.265625 13.707031 -5.84375 14 -6.5 C 14.289062 -7.15625 14.4375 -7.863281 14.4375 -8.625 L 14.4375 -17.203125 L 17.578125 -17.203125 L 17.578125 -8.65625 C 17.578125 -7.550781 17.382812 -6.492188 17 -5.484375 C 16.613281 -4.472656 16.035156 -3.582031 15.265625 -2.8125 L 12.5 0 Z M 3.921875 -17.203125 L 7.03125 -17.203125 L 7.03125 -8.65625 C 7.03125 -8.25 7.132812 -7.878906 7.34375 -7.546875 C 7.5625 -7.210938 7.816406 -6.90625 8.109375 -6.625 C 8.410156 -6.351562 8.691406 -6.09375 8.953125 -5.84375 C 9.210938 -6.09375 9.5 -6.351562 9.8125 -6.625 C 10.125 -6.90625 10.390625 -7.210938 10.609375 -7.546875 C 10.835938 -7.878906 10.953125 -8.25 10.953125 -8.65625 L 10.953125 -17.203125 L 14.03125 -17.203125 L 14.03125 -8.65625 C 14.03125 -7.96875 13.894531 -7.304688 13.625 -6.671875 C 13.363281 -6.046875 13 -5.492188 12.53125 -5.015625 L 8.953125 -1.4375 L 5.390625 -5.015625 C 4.929688 -5.492188 4.570312 -6.046875 4.3125 -6.671875 C 4.050781 -7.304688 3.921875 -7.96875 3.921875 -8.65625 Z M 3.921875 -17.203125 "/></g></g></g><g fill="#00ffff" fill-opacity="1"><g transform="translate(54.687262, 30.345394)"><g><path d="M 8.84375 -14.125 C 8.082031 -14.125 7.367188 -13.976562 6.703125 -13.6875 C 6.046875 -13.40625 5.460938 -13.007812 4.953125 -12.5 C 4.453125 -12 4.054688 -11.421875 3.765625 -10.765625 C 3.484375 -10.109375 3.34375 -9.398438 3.34375 -8.640625 C 3.34375 -7.878906 3.484375 -7.164062 3.765625 -6.5 C 4.054688 -5.84375 4.453125 -5.257812 4.953125 -4.75 C 5.460938 -4.25 6.046875 -3.859375 6.703125 -3.578125 C 7.367188 -3.296875 8.082031 -3.15625 8.84375 -3.15625 L 16.6875 -3.15625 L 16.6875 0 L 8.84375 0 C 7.65625 0 6.539062 -0.21875 5.5 -0.65625 C 4.457031 -1.101562 3.535156 -1.722656 2.734375 -2.515625 C 1.941406 -3.316406 1.320312 -4.238281 0.875 -5.28125 C 0.4375 -6.332031 0.21875 -7.453125 0.21875 -8.640625 C 0.21875 -9.835938 0.4375 -10.953125 0.875 -11.984375 C 1.320312 -13.023438 1.941406 -13.941406 2.734375 -14.734375 C 3.535156 -15.535156 4.457031 -16.15625 5.5 -16.59375 C 6.539062 -17.039062 7.65625 -17.265625 8.84375 -17.265625 C 9.84375 -17.265625 10.8125 -17.144531 11.75 -16.90625 C 12.6875 -16.664062 13.535156 -16.28125 14.296875 -15.75 C 15.054688 -15.226562 15.671875 -14.554688 16.140625 -13.734375 C 16.617188 -12.921875 16.894531 -11.929688 16.96875 -10.765625 C 17.019531 -10.117188 16.972656 -9.476562 16.828125 -8.84375 C 16.691406 -8.207031 16.40625 -7.628906 15.96875 -7.109375 L 12.84375 -7.09375 C 13.289062 -7.582031 13.578125 -8.132812 13.703125 -8.75 C 13.835938 -9.375 13.867188 -9.945312 13.796875 -10.46875 C 13.710938 -11.164062 13.453125 -11.785156 13.015625 -12.328125 C 12.585938 -12.878906 12.015625 -13.316406 11.296875 -13.640625 C 10.585938 -13.960938 9.769531 -14.125 8.84375 -14.125 Z M 16.6875 -3.53125 C 15.394531 -3.53125 14.09375 -3.53125 12.78125 -3.53125 C 11.46875 -3.539062 10.15625 -3.546875 8.84375 -3.546875 C 8.144531 -3.546875 7.488281 -3.675781 6.875 -3.9375 C 6.257812 -4.195312 5.71875 -4.5625 5.25 -5.03125 C 4.78125 -5.5 4.410156 -6.039062 4.140625 -6.65625 C 3.867188 -7.269531 3.734375 -7.929688 3.734375 -8.640625 C 3.734375 -9.335938 3.867188 -9.992188 4.140625 -10.609375 C 4.410156 -11.222656 4.78125 -11.765625 5.25 -12.234375 C 5.71875 -12.710938 6.257812 -13.082031 6.875 -13.34375 C 7.488281 -13.601562 8.144531 -13.734375 8.84375 -13.734375 C 9.738281 -13.734375 10.515625 -13.585938 11.171875 -13.296875 C 11.828125 -13.015625 12.347656 -12.625 12.734375 -12.125 C 13.117188 -11.632812 13.347656 -11.078125 13.421875 -10.453125 C 13.484375 -9.941406 13.457031 -9.410156 13.34375 -8.859375 C 13.238281 -8.304688 12.941406 -7.71875 12.453125 -7.09375 L 8.6875 -7.09375 L 8.6875 -7.828125 C 9.15625 -7.816406 9.523438 -7.90625 9.796875 -8.09375 C 10.066406 -8.28125 10.25 -8.507812 10.34375 -8.78125 C 10.445312 -9.0625 10.457031 -9.335938 10.375 -9.609375 C 10.289062 -9.890625 10.117188 -10.125 9.859375 -10.3125 C 9.609375 -10.5 9.269531 -10.59375 8.84375 -10.59375 C 8.488281 -10.59375 8.160156 -10.503906 7.859375 -10.328125 C 7.566406 -10.148438 7.332031 -9.910156 7.15625 -9.609375 C 6.976562 -9.316406 6.890625 -8.992188 6.890625 -8.640625 C 6.890625 -8.265625 6.976562 -7.925781 7.15625 -7.625 C 7.34375 -7.320312 7.59375 -7.082031 7.90625 -6.90625 C 8.21875 -6.738281 8.554688 -6.660156 8.921875 -6.671875 L 16.6875 -6.671875 Z M 16.6875 -3.53125 "/></g></g></g><g fill="#00ffff" fill-opacity="1"><g transform="translate(70.483033, 30.345394)"><g/></g></g><g fill="#00ffff" fill-opacity="1"><g transform="translate(77.25207, 30.345394)"><g><path d="M 12.03125 -9.546875 C 12.84375 -9.546875 13.609375 -9.695312 14.328125 -10 C 15.046875 -10.3125 15.679688 -10.742188 16.234375 -11.296875 C 16.785156 -11.847656 17.21875 -12.484375 17.53125 -13.203125 C 17.84375 -13.921875 18 -14.691406 18 -15.515625 L 18 -17.046875 C 18 -17.890625 17.84375 -18.671875 17.53125 -19.390625 C 17.21875 -20.117188 16.785156 -20.753906 16.234375 -21.296875 C 15.679688 -21.835938 15.046875 -22.265625 14.328125 -22.578125 C 13.609375 -22.890625 12.84375 -23.046875 12.03125 -23.046875 L 9.59375 -23.046875 C 8.789062 -23.046875 8.03125 -22.890625 7.3125 -22.578125 C 6.59375 -22.265625 5.957031 -21.835938 5.40625 -21.296875 C 4.851562 -20.765625 4.414062 -20.140625 4.09375 -19.421875 C 3.78125 -18.703125 3.625 -17.929688 3.625 -17.109375 L 3.625 0 L 0.5 0 L 0.5 -17.140625 C 0.5 -18.378906 0.738281 -19.546875 1.21875 -20.640625 C 1.695312 -21.734375 2.359375 -22.691406 3.203125 -23.515625 C 4.046875 -24.335938 5.015625 -24.984375 6.109375 -25.453125 C 7.210938 -25.921875 8.390625 -26.15625 9.640625 -26.15625 L 12 -26.15625 C 13.257812 -26.15625 14.441406 -25.914062 15.546875 -25.4375 C 16.648438 -24.96875 17.617188 -24.3125 18.453125 -23.46875 C 19.296875 -22.625 19.953125 -21.648438 20.421875 -20.546875 C 20.898438 -19.453125 21.140625 -18.285156 21.140625 -17.046875 L 21.140625 -15.515625 C 21.140625 -14.253906 20.898438 -13.070312 20.421875 -11.96875 C 19.953125 -10.863281 19.296875 -9.890625 18.453125 -9.046875 C 17.617188 -8.210938 16.648438 -7.554688 15.546875 -7.078125 C 14.441406 -6.609375 13.257812 -6.375 12 -6.375 L 7.21875 -6.375 L 7.21875 0 L 4.046875 0 L 4.046875 -9.546875 Z M 4.046875 -17.046875 C 4.046875 -17.785156 4.179688 -18.492188 4.453125 -19.171875 C 4.722656 -19.847656 5.109375 -20.445312 5.609375 -20.96875 C 6.117188 -21.5 6.710938 -21.914062 7.390625 -22.21875 C 8.066406 -22.519531 8.800781 -22.671875 9.59375 -22.671875 L 12.03125 -22.671875 C 12.800781 -22.671875 13.519531 -22.519531 14.1875 -22.21875 C 14.863281 -21.925781 15.457031 -21.519531 15.96875 -21 C 16.488281 -20.488281 16.894531 -19.894531 17.1875 -19.21875 C 17.476562 -18.539062 17.625 -17.816406 17.625 -17.046875 L 17.625 -15.515625 C 17.625 -14.753906 17.476562 -14.035156 17.1875 -13.359375 C 16.894531 -12.679688 16.488281 -12.085938 15.96875 -11.578125 C 15.457031 -11.078125 14.863281 -10.679688 14.1875 -10.390625 C 13.519531 -10.097656 12.800781 -9.953125 12.03125 -9.953125 L 4.046875 -9.953125 Z M 14.421875 -17.046875 C 14.421875 -17.503906 14.3125 -17.914062 14.09375 -18.28125 C 13.875 -18.65625 13.585938 -18.953125 13.234375 -19.171875 C 12.878906 -19.390625 12.476562 -19.5 12.03125 -19.5 L 9.59375 -19.5 C 9.15625 -19.5 8.753906 -19.390625 8.390625 -19.171875 C 8.035156 -18.953125 7.75 -18.65625 7.53125 -18.28125 C 7.320312 -17.914062 7.21875 -17.503906 7.21875 -17.046875 L 7.21875 -13.09375 L 12.03125 -13.09375 C 12.476562 -13.09375 12.878906 -13.203125 13.234375 -13.421875 C 13.585938 -13.640625 13.875 -13.929688 14.09375 -14.296875 C 14.3125 -14.660156 14.421875 -15.066406 14.421875 -15.515625 Z M 14.421875 -17.046875 "/></g></g></g><g fill="#00ffff" fill-opacity="1"><g transform="translate(95.914224, 30.345394)"><g><path d="M 9 -17.34375 C 10.21875 -17.34375 11.359375 -17.113281 12.421875 -16.65625 C 13.492188 -16.195312 14.4375 -15.5625 15.25 -14.75 C 16.0625 -13.9375 16.695312 -12.992188 17.15625 -11.921875 C 17.625 -10.859375 17.859375 -9.71875 17.859375 -8.5 C 17.859375 -7.300781 17.625 -6.171875 17.15625 -5.109375 C 16.695312 -4.046875 16.0625 -3.109375 15.25 -2.296875 C 14.4375 -1.492188 13.492188 -0.859375 12.421875 -0.390625 C 11.359375 0.0664062 10.21875 0.296875 9 0.296875 C 7.789062 0.296875 6.65625 0.0664062 5.59375 -0.390625 C 4.53125 -0.859375 3.59375 -1.492188 2.78125 -2.296875 C 1.976562 -3.109375 1.347656 -4.046875 0.890625 -5.109375 C 0.441406 -6.171875 0.21875 -7.300781 0.21875 -8.5 C 0.21875 -9.71875 0.441406 -10.859375 0.890625 -11.921875 C 1.347656 -12.992188 1.976562 -13.9375 2.78125 -14.75 C 3.59375 -15.5625 4.53125 -16.195312 5.59375 -16.65625 C 6.65625 -17.113281 7.789062 -17.34375 9 -17.34375 Z M 9 -2.90625 C 9.769531 -2.90625 10.492188 -3.050781 11.171875 -3.34375 C 11.859375 -3.632812 12.460938 -4.035156 12.984375 -4.546875 C 13.503906 -5.066406 13.910156 -5.664062 14.203125 -6.34375 C 14.503906 -7.019531 14.65625 -7.738281 14.65625 -8.5 C 14.65625 -9.28125 14.503906 -10.007812 14.203125 -10.6875 C 13.910156 -11.375 13.503906 -11.972656 12.984375 -12.484375 C 12.460938 -13.003906 11.859375 -13.410156 11.171875 -13.703125 C 10.492188 -13.992188 9.769531 -14.140625 9 -14.140625 C 8.238281 -14.140625 7.519531 -13.992188 6.84375 -13.703125 C 6.164062 -13.410156 5.570312 -13.003906 5.0625 -12.484375 C 4.550781 -11.972656 4.148438 -11.375 3.859375 -10.6875 C 3.566406 -10.007812 3.421875 -9.28125 3.421875 -8.5 C 3.421875 -7.738281 3.566406 -7.019531 3.859375 -6.34375 C 4.148438 -5.664062 4.550781 -5.066406 5.0625 -4.546875 C 5.570312 -4.035156 6.164062 -3.632812 6.84375 -3.34375 C 7.519531 -3.050781 8.238281 -2.90625 9 -2.90625 Z M 9 -13.6875 C 9.71875 -13.6875 10.390625 -13.550781 11.015625 -13.28125 C 11.648438 -13.007812 12.207031 -12.632812 12.6875 -12.15625 C 13.164062 -11.6875 13.535156 -11.132812 13.796875 -10.5 C 14.066406 -9.875 14.203125 -9.207031 14.203125 -8.5 C 14.203125 -7.769531 14.066406 -7.09375 13.796875 -6.46875 C 13.535156 -5.84375 13.164062 -5.289062 12.6875 -4.8125 C 12.207031 -4.34375 11.648438 -3.972656 11.015625 -3.703125 C 10.390625 -3.441406 9.71875 -3.3125 9 -3.3125 C 8.28125 -3.3125 7.609375 -3.441406 6.984375 -3.703125 C 6.359375 -3.972656 5.804688 -4.34375 5.328125 -4.8125 C 4.847656 -5.289062 4.472656 -5.84375 4.203125 -6.46875 C 3.941406 -7.09375 3.8125 -7.769531 3.8125 -8.5 C 3.8125 -9.207031 3.941406 -9.875 4.203125 -10.5 C 4.472656 -11.132812 4.847656 -11.6875 5.328125 -12.15625 C 5.804688 -12.632812 6.359375 -13.007812 6.984375 -13.28125 C 7.609375 -13.550781 8.28125 -13.6875 9 -13.6875 Z M 9 -6.5 C 9.363281 -6.5 9.695312 -6.585938 10 -6.765625 C 10.3125 -6.953125 10.554688 -7.203125 10.734375 -7.515625 C 10.921875 -7.828125 11.015625 -8.15625 11.015625 -8.5 C 11.015625 -8.863281 10.921875 -9.195312 10.734375 -9.5 C 10.554688 -9.800781 10.3125 -10.039062 10 -10.21875 C 9.695312 -10.394531 9.363281 -10.484375 9 -10.484375 C 8.644531 -10.484375 8.316406 -10.394531 8.015625 -10.21875 C 7.710938 -10.039062 7.46875 -9.800781 7.28125 -9.5 C 7.101562 -9.195312 7.015625 -8.863281 7.015625 -8.5 C 7.015625 -8.15625 7.101562 -7.828125 7.28125 -7.515625 C 7.46875 -7.203125 7.710938 -6.953125 8.015625 -6.765625 C 8.316406 -6.585938 8.644531 -6.5 9 -6.5 Z M 9 -6.5 "/></g></g></g><g fill="#00ffff" fill-opacity="1"><g transform="translate(112.368757, 30.345394)"><g><path d="M 0.25 -21.5625 C 0.25 -22.257812 0.414062 -22.890625 0.75 -23.453125 C 1.082031 -24.023438 1.53125 -24.476562 2.09375 -24.8125 C 2.664062 -25.15625 3.296875 -25.328125 3.984375 -25.328125 C 4.691406 -25.328125 5.328125 -25.15625 5.890625 -24.8125 C 6.453125 -24.476562 6.898438 -24.023438 7.234375 -23.453125 C 7.578125 -22.890625 7.75 -22.257812 7.75 -21.5625 C 7.75 -20.875 7.578125 -20.242188 7.234375 -19.671875 C 6.898438 -19.109375 6.453125 -18.660156 5.890625 -18.328125 C 5.328125 -17.992188 4.691406 -17.828125 3.984375 -17.828125 C 3.296875 -17.828125 2.664062 -17.992188 2.09375 -18.328125 C 1.53125 -18.660156 1.082031 -19.109375 0.75 -19.671875 C 0.414062 -20.242188 0.25 -20.875 0.25 -21.5625 Z M 3.546875 -21.5625 C 3.546875 -21.46875 3.585938 -21.378906 3.671875 -21.296875 C 3.753906 -21.210938 3.84375 -21.171875 3.9375 -21.171875 C 4.03125 -21.171875 4.113281 -21.210938 4.1875 -21.296875 C 4.257812 -21.378906 4.296875 -21.46875 4.296875 -21.5625 C 4.296875 -21.65625 4.257812 -21.738281 4.1875 -21.8125 C 4.113281 -21.882812 4.03125 -21.921875 3.9375 -21.921875 C 3.84375 -21.921875 3.753906 -21.882812 3.671875 -21.8125 C 3.585938 -21.738281 3.546875 -21.65625 3.546875 -21.5625 Z M 0.609375 -17.140625 L 3.78125 -17.140625 L 3.78125 0 L 0.609375 0 Z M 7.28125 0 L 4.109375 0 L 4.109375 -17.140625 L 7.28125 -17.140625 Z M 7.28125 0 "/></g></g></g><g fill="#00ffff" fill-opacity="1"><g transform="translate(118.835116, 30.345394)"><g><path d="M 9.015625 -14.265625 C 8.179688 -14.265625 7.410156 -14.101562 6.703125 -13.78125 C 5.992188 -13.457031 5.378906 -13 4.859375 -12.40625 C 4.347656 -11.8125 3.96875 -11.101562 3.71875 -10.28125 C 3.519531 -11.113281 3.125 -11.847656 2.53125 -12.484375 C 1.945312 -13.117188 1.25 -13.597656 0.4375 -13.921875 L 0.4375 -17.171875 C 1.707031 -16.890625 2.8125 -16.351562 3.75 -15.5625 C 4.5 -16.144531 5.328125 -16.585938 6.234375 -16.890625 C 7.148438 -17.191406 8.078125 -17.34375 9.015625 -17.34375 C 10.203125 -17.34375 11.3125 -17.117188 12.34375 -16.671875 C 13.375 -16.234375 14.273438 -15.617188 15.046875 -14.828125 C 15.828125 -14.046875 16.4375 -13.132812 16.875 -12.09375 C 17.320312 -11.0625 17.546875 -9.945312 17.546875 -8.75 L 17.546875 0 L 14.4375 0 L 14.4375 -8.828125 C 14.4375 -9.578125 14.296875 -10.273438 14.015625 -10.921875 C 13.734375 -11.566406 13.34375 -12.140625 12.84375 -12.640625 C 12.34375 -13.140625 11.765625 -13.53125 11.109375 -13.8125 C 10.453125 -14.101562 9.753906 -14.253906 9.015625 -14.265625 Z M 9.015625 -10.75 C 9.367188 -10.75 9.691406 -10.65625 9.984375 -10.46875 C 10.273438 -10.289062 10.507812 -10.050781 10.6875 -9.75 C 10.863281 -9.457031 10.953125 -9.132812 10.953125 -8.78125 L 10.953125 0 L 14.03125 0 L 14.03125 -8.78125 C 14.03125 -9.476562 13.898438 -10.128906 13.640625 -10.734375 C 13.378906 -11.347656 13.015625 -11.890625 12.546875 -12.359375 C 12.085938 -12.835938 11.554688 -13.207031 10.953125 -13.46875 C 10.347656 -13.726562 9.703125 -13.859375 9.015625 -13.859375 C 8.328125 -13.859375 7.675781 -13.722656 7.0625 -13.453125 C 6.445312 -13.179688 5.90625 -12.8125 5.4375 -12.34375 C 4.976562 -11.875 4.613281 -11.332031 4.34375 -10.71875 C 4.082031 -10.113281 3.953125 -9.46875 3.953125 -8.78125 L 3.953125 0 L 7.0625 0 L 7.0625 -8.78125 C 7.0625 -9.320312 7.242188 -9.785156 7.609375 -10.171875 C 7.984375 -10.554688 8.453125 -10.75 9.015625 -10.75 Z M 0.4375 0 L 3.578125 0 L 3.578125 -8.78125 C 3.578125 -9.46875 3.445312 -10.117188 3.1875 -10.734375 C 2.9375 -11.347656 2.578125 -11.894531 2.109375 -12.375 C 1.640625 -12.863281 1.082031 -13.242188 0.4375 -13.515625 Z M 0.4375 0 "/></g></g></g><g fill="#00ffff" fill-opacity="1"><g transform="translate(135.414273, 30.345394)"><g><path d="M 3.734375 -14 L 3.734375 -17.890625 C 3.734375 -18.648438 3.585938 -19.363281 3.296875 -20.03125 C 3.003906 -20.695312 2.597656 -21.28125 2.078125 -21.78125 C 1.554688 -22.289062 0.945312 -22.664062 0.25 -22.90625 L 0.25 -26.140625 C 1.082031 -25.960938 1.878906 -25.65625 2.640625 -25.21875 C 3.410156 -24.789062 4.097656 -24.210938 4.703125 -23.484375 C 5.304688 -22.753906 5.78125 -21.863281 6.125 -20.8125 C 6.476562 -19.757812 6.65625 -18.523438 6.65625 -17.109375 L 8.71875 -17.109375 L 8.71875 -14 Z M 3.328125 -17.890625 C 3.328125 -18.554688 3.195312 -19.195312 2.9375 -19.8125 C 2.675781 -20.425781 2.3125 -20.96875 1.84375 -21.4375 C 1.382812 -21.90625 0.851562 -22.253906 0.25 -22.484375 L 0.25 -8.53125 C 0.25 -7.34375 0.46875 -6.222656 0.90625 -5.171875 C 1.351562 -4.128906 1.96875 -3.210938 2.75 -2.421875 C 3.539062 -1.628906 4.453125 -1.003906 5.484375 -0.546875 C 6.515625 -0.0976562 7.625 0.125 8.8125 0.125 L 8.8125 -2.953125 C 8.050781 -2.953125 7.335938 -3.097656 6.671875 -3.390625 C 6.015625 -3.679688 5.4375 -4.078125 4.9375 -4.578125 C 4.4375 -5.085938 4.039062 -5.675781 3.75 -6.34375 C 3.46875 -7.019531 3.328125 -7.726562 3.328125 -8.46875 Z M 6.84375 -8.46875 C 6.84375 -8.113281 6.925781 -7.785156 7.09375 -7.484375 C 7.269531 -7.179688 7.507812 -6.9375 7.8125 -6.75 C 8.113281 -6.570312 8.445312 -6.484375 8.8125 -6.484375 L 8.8125 -3.359375 C 8.101562 -3.359375 7.441406 -3.492188 6.828125 -3.765625 C 6.210938 -4.046875 5.671875 -4.421875 5.203125 -4.890625 C 4.742188 -5.367188 4.382812 -5.910156 4.125 -6.515625 C 3.863281 -7.128906 3.734375 -7.78125 3.734375 -8.46875 L 3.734375 -13.59375 L 8.71875 -13.59375 L 8.71875 -10.5 L 6.84375 -10.5 Z M 6.84375 -8.46875 "/></g></g></g><g fill="#24127b" fill-opacity="1"><g transform="translate(2.765078, 30.345394)"><g><path d="M 8.515625 -23.234375 C 7.566406 -23.242188 6.75 -23.066406 6.0625 -22.703125 C 5.382812 -22.335938 4.84375 -21.84375 4.4375 -21.21875 C 4.039062 -20.601562 3.78125 -19.925781 3.65625 -19.1875 C 3.53125 -18.445312 3.546875 -17.703125 3.703125 -16.953125 C 3.867188 -16.203125 4.164062 -15.515625 4.59375 -14.890625 C 5.03125 -14.265625 5.609375 -13.757812 6.328125 -13.375 C 7.054688 -12.988281 7.921875 -12.796875 8.921875 -12.796875 L 12.203125 -12.765625 C 13.347656 -12.765625 14.300781 -12.546875 15.0625 -12.109375 C 15.820312 -11.671875 16.394531 -11.097656 16.78125 -10.390625 C 17.164062 -9.691406 17.359375 -8.945312 17.359375 -8.15625 C 17.359375 -7.226562 17.179688 -6.382812 16.828125 -5.625 C 16.472656 -4.863281 15.953125 -4.257812 15.265625 -3.8125 C 14.578125 -3.363281 13.738281 -3.140625 12.75 -3.140625 L 9.609375 -3.171875 C 8.753906 -3.191406 7.925781 -3.347656 7.125 -3.640625 C 6.332031 -3.941406 5.65625 -4.390625 5.09375 -4.984375 C 4.53125 -5.585938 4.179688 -6.335938 4.046875 -7.234375 L 7.171875 -7.8125 C 7.304688 -7.414062 7.550781 -7.078125 7.90625 -6.796875 C 8.257812 -6.515625 8.65625 -6.359375 9.09375 -6.328125 L 12.71875 -6.328125 C 13.113281 -6.328125 13.429688 -6.441406 13.671875 -6.671875 C 13.921875 -6.898438 14.082031 -7.1875 14.15625 -7.53125 C 14.238281 -7.875 14.238281 -8.21875 14.15625 -8.5625 C 14.070312 -8.90625 13.910156 -9.191406 13.671875 -9.421875 C 13.429688 -9.660156 13.113281 -9.78125 12.71875 -9.78125 L 9.40625 -9.78125 C 7.894531 -9.78125 6.570312 -10.007812 5.4375 -10.46875 C 4.300781 -10.9375 3.359375 -11.5625 2.609375 -12.34375 C 1.867188 -13.125 1.304688 -14 0.921875 -14.96875 C 0.546875 -15.945312 0.34375 -16.957031 0.3125 -18 C 0.289062 -19.039062 0.445312 -20.046875 0.78125 -21.015625 C 1.125 -21.992188 1.632812 -22.875 2.3125 -23.65625 C 2.988281 -24.445312 3.835938 -25.070312 4.859375 -25.53125 C 5.878906 -26 7.0625 -26.234375 8.40625 -26.234375 L 11.9375 -26.234375 C 12.957031 -26.234375 13.941406 -26.070312 14.890625 -25.75 C 15.847656 -25.425781 16.726562 -24.960938 17.53125 -24.359375 C 18.332031 -23.765625 19 -23.054688 19.53125 -22.234375 C 20.0625 -21.410156 20.421875 -20.492188 20.609375 -19.484375 L 17.671875 -18.96875 C 17.566406 -19.675781 17.332031 -20.296875 16.96875 -20.828125 C 16.601562 -21.367188 16.140625 -21.816406 15.578125 -22.171875 C 15.023438 -22.523438 14.410156 -22.789062 13.734375 -22.96875 C 13.066406 -23.144531 12.382812 -23.234375 11.6875 -23.234375 Z M 12.75 -2.78125 C 13.632812 -2.78125 14.390625 -2.921875 15.015625 -3.203125 C 15.648438 -3.484375 16.160156 -3.875 16.546875 -4.375 C 16.941406 -4.882812 17.234375 -5.460938 17.421875 -6.109375 C 17.609375 -6.765625 17.703125 -7.445312 17.703125 -8.15625 C 17.703125 -8.78125 17.59375 -9.390625 17.375 -9.984375 C 17.15625 -10.578125 16.816406 -11.109375 16.359375 -11.578125 C 15.910156 -12.054688 15.335938 -12.4375 14.640625 -12.71875 C 13.953125 -13 13.140625 -13.140625 12.203125 -13.140625 L 8.875 -13.140625 C 7.945312 -13.148438 7.148438 -13.332031 6.484375 -13.6875 C 5.828125 -14.050781 5.296875 -14.523438 4.890625 -15.109375 C 4.492188 -15.691406 4.21875 -16.332031 4.0625 -17.03125 C 3.914062 -17.726562 3.898438 -18.421875 4.015625 -19.109375 C 4.128906 -19.804688 4.367188 -20.441406 4.734375 -21.015625 C 5.097656 -21.597656 5.59375 -22.0625 6.21875 -22.40625 C 6.84375 -22.75 7.59375 -22.921875 8.46875 -22.921875 L 11.71875 -22.921875 C 12.582031 -22.921875 13.410156 -22.769531 14.203125 -22.46875 C 15.003906 -22.164062 15.679688 -21.710938 16.234375 -21.109375 C 16.796875 -20.515625 17.132812 -19.765625 17.25 -18.859375 L 14.15625 -18.265625 C 14.019531 -18.671875 13.773438 -19.015625 13.421875 -19.296875 C 13.078125 -19.585938 12.679688 -19.738281 12.234375 -19.75 L 8.625 -19.75 C 8.21875 -19.75 7.890625 -19.628906 7.640625 -19.390625 C 7.398438 -19.160156 7.238281 -18.875 7.15625 -18.53125 C 7.070312 -18.195312 7.070312 -17.859375 7.15625 -17.515625 C 7.238281 -17.171875 7.398438 -16.882812 7.640625 -16.65625 C 7.890625 -16.425781 8.21875 -16.3125 8.625 -16.3125 L 11.9375 -16.3125 C 13.394531 -16.3125 14.675781 -16.082031 15.78125 -15.625 C 16.882812 -15.164062 17.8125 -14.546875 18.5625 -13.765625 C 19.3125 -12.992188 19.878906 -12.117188 20.265625 -11.140625 C 20.660156 -10.171875 20.863281 -9.175781 20.875 -8.15625 C 20.882812 -7.125 20.703125 -6.113281 20.328125 -5.125 C 19.953125 -4.144531 19.394531 -3.253906 18.65625 -2.453125 C 17.914062 -1.660156 16.988281 -1.03125 15.875 -0.5625 C 14.757812 -0.09375 13.472656 0.140625 12.015625 0.140625 L 9.40625 0.140625 C 8.394531 0.140625 7.40625 -0.015625 6.4375 -0.328125 C 5.476562 -0.648438 4.597656 -1.113281 3.796875 -1.71875 C 2.992188 -2.320312 2.316406 -3.035156 1.765625 -3.859375 C 1.210938 -4.679688 0.84375 -5.597656 0.65625 -6.609375 L 3.671875 -7.125 C 3.765625 -6.40625 3.992188 -5.773438 4.359375 -5.234375 C 4.734375 -4.703125 5.195312 -4.253906 5.75 -3.890625 C 6.3125 -3.523438 6.925781 -3.253906 7.59375 -3.078125 C 8.257812 -2.898438 8.945312 -2.8125 9.65625 -2.8125 Z M 12.75 -2.78125 "/></g></g></g><g fill="#24127b" fill-opacity="1"><g transform="translate(22.317545, 30.345394)"><g><path d="M 3.703125 -8.546875 C 3.703125 -7.765625 3.847656 -7.035156 4.140625 -6.359375 C 4.429688 -5.691406 4.828125 -5.101562 5.328125 -4.59375 C 5.835938 -4.09375 6.425781 -3.695312 7.09375 -3.40625 C 7.769531 -3.125 8.476562 -2.984375 9.21875 -2.984375 C 10.132812 -2.984375 11.015625 -3.207031 11.859375 -3.65625 C 12.117188 -3.207031 12.429688 -2.78125 12.796875 -2.375 C 13.160156 -1.976562 13.546875 -1.601562 13.953125 -1.25 C 13.253906 -0.820312 12.515625 -0.484375 11.734375 -0.234375 C 10.953125 0.00390625 10.113281 0.125 9.21875 0.125 C 8.070312 0.125 6.972656 -0.09375 5.921875 -0.53125 C 4.867188 -0.976562 3.9375 -1.597656 3.125 -2.390625 C 2.320312 -3.179688 1.6875 -4.101562 1.21875 -5.15625 C 0.75 -6.207031 0.515625 -7.335938 0.515625 -8.546875 C 0.515625 -9.753906 0.738281 -10.882812 1.1875 -11.9375 C 1.644531 -12.988281 2.269531 -13.910156 3.0625 -14.703125 C 3.851562 -15.503906 4.773438 -16.128906 5.828125 -16.578125 C 6.878906 -17.023438 8.007812 -17.25 9.21875 -17.25 C 10.414062 -17.25 11.535156 -17.023438 12.578125 -16.578125 C 13.628906 -16.128906 14.550781 -15.503906 15.34375 -14.703125 C 16.144531 -13.910156 16.769531 -12.988281 17.21875 -11.9375 C 17.664062 -10.882812 17.890625 -9.753906 17.890625 -8.546875 L 17.890625 -3.609375 C 16.859375 -4.023438 16.066406 -4.675781 15.515625 -5.5625 C 14.972656 -6.457031 14.703125 -7.453125 14.703125 -8.546875 C 14.703125 -9.304688 14.5625 -10.019531 14.28125 -10.6875 C 14 -11.351562 13.609375 -11.941406 13.109375 -12.453125 C 12.609375 -12.960938 12.023438 -13.359375 11.359375 -13.640625 C 10.691406 -13.921875 9.976562 -14.0625 9.21875 -14.0625 C 8.445312 -14.0625 7.726562 -13.921875 7.0625 -13.640625 C 6.40625 -13.359375 5.820312 -12.960938 5.3125 -12.453125 C 4.8125 -11.941406 4.414062 -11.351562 4.125 -10.6875 C 3.84375 -10.019531 3.703125 -9.304688 3.703125 -8.546875 Z M 7.265625 -8.546875 C 7.265625 -8.890625 7.351562 -9.207031 7.53125 -9.5 C 7.707031 -9.800781 7.941406 -10.039062 8.234375 -10.21875 C 8.535156 -10.40625 8.863281 -10.5 9.21875 -10.5 C 9.59375 -10.5 9.929688 -10.40625 10.234375 -10.21875 C 10.535156 -10.039062 10.769531 -9.796875 10.9375 -9.484375 C 11.101562 -9.179688 11.171875 -8.84375 11.140625 -8.46875 C 11.128906 -7.46875 11.289062 -6.5 11.625 -5.5625 C 11.957031 -4.625 12.425781 -3.765625 13.03125 -2.984375 C 13.644531 -2.210938 14.363281 -1.554688 15.1875 -1.015625 C 16.019531 -0.484375 16.921875 -0.101562 17.890625 0.125 L 17.890625 -3.203125 C 17.128906 -3.472656 16.484375 -3.878906 15.953125 -4.421875 C 15.421875 -4.960938 15.015625 -5.585938 14.734375 -6.296875 C 14.460938 -7.015625 14.328125 -7.765625 14.328125 -8.546875 C 14.328125 -9.242188 14.195312 -9.898438 13.9375 -10.515625 C 13.675781 -11.140625 13.3125 -11.6875 12.84375 -12.15625 C 12.375 -12.625 11.832031 -12.988281 11.21875 -13.25 C 10.601562 -13.519531 9.9375 -13.65625 9.21875 -13.65625 C 8.5 -13.65625 7.828125 -13.519531 7.203125 -13.25 C 6.578125 -12.988281 6.03125 -12.625 5.5625 -12.15625 C 5.09375 -11.6875 4.726562 -11.140625 4.46875 -10.515625 C 4.207031 -9.898438 4.078125 -9.242188 4.078125 -8.546875 C 4.078125 -7.828125 4.210938 -7.15625 4.484375 -6.53125 C 4.753906 -5.914062 5.128906 -5.375 5.609375 -4.90625 C 6.085938 -4.445312 6.632812 -4.085938 7.25 -3.828125 C 7.875 -3.566406 8.53125 -3.4375 9.21875 -3.4375 C 9.675781 -3.4375 10.101562 -3.484375 10.5 -3.578125 C 10.90625 -3.679688 11.28125 -3.832031 11.625 -4.03125 C 11.363281 -4.519531 11.148438 -5.035156 10.984375 -5.578125 C 10.816406 -6.128906 10.695312 -6.675781 10.625 -7.21875 C 10.476562 -6.988281 10.273438 -6.816406 10.015625 -6.703125 C 9.765625 -6.597656 9.5 -6.546875 9.21875 -6.546875 C 8.863281 -6.546875 8.535156 -6.632812 8.234375 -6.8125 C 7.941406 -7 7.707031 -7.242188 7.53125 -7.546875 C 7.351562 -7.847656 7.265625 -8.179688 7.265625 -8.546875 Z M 7.265625 -8.546875 "/></g></g></g><g fill="#24127b" fill-opacity="1"><g transform="translate(39.359611, 30.345394)"><g><path d="M 5.46875 0 L 2.671875 -2.8125 C 1.910156 -3.582031 1.335938 -4.472656 0.953125 -5.484375 C 0.566406 -6.492188 0.375 -7.550781 0.375 -8.65625 L 0.375 -17.203125 L 3.515625 -17.203125 L 3.515625 -8.625 C 3.515625 -7.863281 3.65625 -7.15625 3.9375 -6.5 C 4.226562 -5.84375 4.613281 -5.265625 5.09375 -4.765625 L 8.953125 -0.859375 L 12.84375 -4.765625 C 13.320312 -5.265625 13.707031 -5.84375 14 -6.5 C 14.289062 -7.15625 14.4375 -7.863281 14.4375 -8.625 L 14.4375 -17.203125 L 17.578125 -17.203125 L 17.578125 -8.65625 C 17.578125 -7.550781 17.382812 -6.492188 17 -5.484375 C 16.613281 -4.472656 16.035156 -3.582031 15.265625 -2.8125 L 12.5 0 Z M 3.921875 -17.203125 L 7.03125 -17.203125 L 7.03125 -8.65625 C 7.03125 -8.25 7.132812 -7.878906 7.34375 -7.546875 C 7.5625 -7.210938 7.816406 -6.90625 8.109375 -6.625 C 8.410156 -6.351562 8.691406 -6.09375 8.953125 -5.84375 C 9.210938 -6.09375 9.5 -6.351562 9.8125 -6.625 C 10.125 -6.90625 10.390625 -7.210938 10.609375 -7.546875 C 10.835938 -7.878906 10.953125 -8.25 10.953125 -8.65625 L 10.953125 -17.203125 L 14.03125 -17.203125 L 14.03125 -8.65625 C 14.03125 -7.96875 13.894531 -7.304688 13.625 -6.671875 C 13.363281 -6.046875 13 -5.492188 12.53125 -5.015625 L 8.953125 -1.4375 L 5.390625 -5.015625 C 4.929688 -5.492188 4.570312 -6.046875 4.3125 -6.671875 C 4.050781 -7.304688 3.921875 -7.96875 3.921875 -8.65625 Z M 3.921875 -17.203125 "/></g></g></g><g fill="#24127b" fill-opacity="1"><g transform="translate(55.849752, 30.345394)"><g><path d="M 8.84375 -14.125 C 8.082031 -14.125 7.367188 -13.976562 6.703125 -13.6875 C 6.046875 -13.40625 5.460938 -13.007812 4.953125 -12.5 C 4.453125 -12 4.054688 -11.421875 3.765625 -10.765625 C 3.484375 -10.109375 3.34375 -9.398438 3.34375 -8.640625 C 3.34375 -7.878906 3.484375 -7.164062 3.765625 -6.5 C 4.054688 -5.84375 4.453125 -5.257812 4.953125 -4.75 C 5.460938 -4.25 6.046875 -3.859375 6.703125 -3.578125 C 7.367188 -3.296875 8.082031 -3.15625 8.84375 -3.15625 L 16.6875 -3.15625 L 16.6875 0 L 8.84375 0 C 7.65625 0 6.539062 -0.21875 5.5 -0.65625 C 4.457031 -1.101562 3.535156 -1.722656 2.734375 -2.515625 C 1.941406 -3.316406 1.320312 -4.238281 0.875 -5.28125 C 0.4375 -6.332031 0.21875 -7.453125 0.21875 -8.640625 C 0.21875 -9.835938 0.4375 -10.953125 0.875 -11.984375 C 1.320312 -13.023438 1.941406 -13.941406 2.734375 -14.734375 C 3.535156 -15.535156 4.457031 -16.15625 5.5 -16.59375 C 6.539062 -17.039062 7.65625 -17.265625 8.84375 -17.265625 C 9.84375 -17.265625 10.8125 -17.144531 11.75 -16.90625 C 12.6875 -16.664062 13.535156 -16.28125 14.296875 -15.75 C 15.054688 -15.226562 15.671875 -14.554688 16.140625 -13.734375 C 16.617188 -12.921875 16.894531 -11.929688 16.96875 -10.765625 C 17.019531 -10.117188 16.972656 -9.476562 16.828125 -8.84375 C 16.691406 -8.207031 16.40625 -7.628906 15.96875 -7.109375 L 12.84375 -7.09375 C 13.289062 -7.582031 13.578125 -8.132812 13.703125 -8.75 C 13.835938 -9.375 13.867188 -9.945312 13.796875 -10.46875 C 13.710938 -11.164062 13.453125 -11.785156 13.015625 -12.328125 C 12.585938 -12.878906 12.015625 -13.316406 11.296875 -13.640625 C 10.585938 -13.960938 9.769531 -14.125 8.84375 -14.125 Z M 16.6875 -3.53125 C 15.394531 -3.53125 14.09375 -3.53125 12.78125 -3.53125 C 11.46875 -3.539062 10.15625 -3.546875 8.84375 -3.546875 C 8.144531 -3.546875 7.488281 -3.675781 6.875 -3.9375 C 6.257812 -4.195312 5.71875 -4.5625 5.25 -5.03125 C 4.78125 -5.5 4.410156 -6.039062 4.140625 -6.65625 C 3.867188 -7.269531 3.734375 -7.929688 3.734375 -8.640625 C 3.734375 -9.335938 3.867188 -9.992188 4.140625 -10.609375 C 4.410156 -11.222656 4.78125 -11.765625 5.25 -12.234375 C 5.71875 -12.710938 6.257812 -13.082031 6.875 -13.34375 C 7.488281 -13.601562 8.144531 -13.734375 8.84375 -13.734375 C 9.738281 -13.734375 10.515625 -13.585938 11.171875 -13.296875 C 11.828125 -13.015625 12.347656 -12.625 12.734375 -12.125 C 13.117188 -11.632812 13.347656 -11.078125 13.421875 -10.453125 C 13.484375 -9.941406 13.457031 -9.410156 13.34375 -8.859375 C 13.238281 -8.304688 12.941406 -7.71875 12.453125 -7.09375 L 8.6875 -7.09375 L 8.6875 -7.828125 C 9.15625 -7.816406 9.523438 -7.90625 9.796875 -8.09375 C 10.066406 -8.28125 10.25 -8.507812 10.34375 -8.78125 C 10.445312 -9.0625 10.457031 -9.335938 10.375 -9.609375 C 10.289062 -9.890625 10.117188 -10.125 9.859375 -10.3125 C 9.609375 -10.5 9.269531 -10.59375 8.84375 -10.59375 C 8.488281 -10.59375 8.160156 -10.503906 7.859375 -10.328125 C 7.566406 -10.148438 7.332031 -9.910156 7.15625 -9.609375 C 6.976562 -9.316406 6.890625 -8.992188 6.890625 -8.640625 C 6.890625 -8.265625 6.976562 -7.925781 7.15625 -7.625 C 7.34375 -7.320312 7.59375 -7.082031 7.90625 -6.90625 C 8.21875 -6.738281 8.554688 -6.660156 8.921875 -6.671875 L 16.6875 -6.671875 Z M 16.6875 -3.53125 "/></g></g></g><g fill="#24127b" fill-opacity="1"><g transform="translate(71.645524, 30.345394)"><g/></g></g><g fill="#24127b" fill-opacity="1"><g transform="translate(78.414561, 30.345394)"><g><path d="M 12.03125 -9.546875 C 12.84375 -9.546875 13.609375 -9.695312 14.328125 -10 C 15.046875 -10.3125 15.679688 -10.742188 16.234375 -11.296875 C 16.785156 -11.847656 17.21875 -12.484375 17.53125 -13.203125 C 17.84375 -13.921875 18 -14.691406 18 -15.515625 L 18 -17.046875 C 18 -17.890625 17.84375 -18.671875 17.53125 -19.390625 C 17.21875 -20.117188 16.785156 -20.753906 16.234375 -21.296875 C 15.679688 -21.835938 15.046875 -22.265625 14.328125 -22.578125 C 13.609375 -22.890625 12.84375 -23.046875 12.03125 -23.046875 L 9.59375 -23.046875 C 8.789062 -23.046875 8.03125 -22.890625 7.3125 -22.578125 C 6.59375 -22.265625 5.957031 -21.835938 5.40625 -21.296875 C 4.851562 -20.765625 4.414062 -20.140625 4.09375 -19.421875 C 3.78125 -18.703125 3.625 -17.929688 3.625 -17.109375 L 3.625 0 L 0.5 0 L 0.5 -17.140625 C 0.5 -18.378906 0.738281 -19.546875 1.21875 -20.640625 C 1.695312 -21.734375 2.359375 -22.691406 3.203125 -23.515625 C 4.046875 -24.335938 5.015625 -24.984375 6.109375 -25.453125 C 7.210938 -25.921875 8.390625 -26.15625 9.640625 -26.15625 L 12 -26.15625 C 13.257812 -26.15625 14.441406 -25.914062 15.546875 -25.4375 C 16.648438 -24.96875 17.617188 -24.3125 18.453125 -23.46875 C 19.296875 -22.625 19.953125 -21.648438 20.421875 -20.546875 C 20.898438 -19.453125 21.140625 -18.285156 21.140625 -17.046875 L 21.140625 -15.515625 C 21.140625 -14.253906 20.898438 -13.070312 20.421875 -11.96875 C 19.953125 -10.863281 19.296875 -9.890625 18.453125 -9.046875 C 17.617188 -8.210938 16.648438 -7.554688 15.546875 -7.078125 C 14.441406 -6.609375 13.257812 -6.375 12 -6.375 L 7.21875 -6.375 L 7.21875 0 L 4.046875 0 L 4.046875 -9.546875 Z M 4.046875 -17.046875 C 4.046875 -17.785156 4.179688 -18.492188 4.453125 -19.171875 C 4.722656 -19.847656 5.109375 -20.445312 5.609375 -20.96875 C 6.117188 -21.5 6.710938 -21.914062 7.390625 -22.21875 C 8.066406 -22.519531 8.800781 -22.671875 9.59375 -22.671875 L 12.03125 -22.671875 C 12.800781 -22.671875 13.519531 -22.519531 14.1875 -22.21875 C 14.863281 -21.925781 15.457031 -21.519531 15.96875 -21 C 16.488281 -20.488281 16.894531 -19.894531 17.1875 -19.21875 C 17.476562 -18.539062 17.625 -17.816406 17.625 -17.046875 L 17.625 -15.515625 C 17.625 -14.753906 17.476562 -14.035156 17.1875 -13.359375 C 16.894531 -12.679688 16.488281 -12.085938 15.96875 -11.578125 C 15.457031 -11.078125 14.863281 -10.679688 14.1875 -10.390625 C 13.519531 -10.097656 12.800781 -9.953125 12.03125 -9.953125 L 4.046875 -9.953125 Z M 14.421875 -17.046875 C 14.421875 -17.503906 14.3125 -17.914062 14.09375 -18.28125 C 13.875 -18.65625 13.585938 -18.953125 13.234375 -19.171875 C 12.878906 -19.390625 12.476562 -19.5 12.03125 -19.5 L 9.59375 -19.5 C 9.15625 -19.5 8.753906 -19.390625 8.390625 -19.171875 C 8.035156 -18.953125 7.75 -18.65625 7.53125 -18.28125 C 7.320312 -17.914062 7.21875 -17.503906 7.21875 -17.046875 L 7.21875 -13.09375 L 12.03125 -13.09375 C 12.476562 -13.09375 12.878906 -13.203125 13.234375 -13.421875 C 13.585938 -13.640625 13.875 -13.929688 14.09375 -14.296875 C 14.3125 -14.660156 14.421875 -15.066406 14.421875 -15.515625 Z M 14.421875 -17.046875 "/></g></g></g><g fill="#24127b" fill-opacity="1"><g transform="translate(97.076715, 30.345394)"><g><path d="M 9 -17.34375 C 10.21875 -17.34375 11.359375 -17.113281 12.421875 -16.65625 C 13.492188 -16.195312 14.4375 -15.5625 15.25 -14.75 C 16.0625 -13.9375 16.695312 -12.992188 17.15625 -11.921875 C 17.625 -10.859375 17.859375 -9.71875 17.859375 -8.5 C 17.859375 -7.300781 17.625 -6.171875 17.15625 -5.109375 C 16.695312 -4.046875 16.0625 -3.109375 15.25 -2.296875 C 14.4375 -1.492188 13.492188 -0.859375 12.421875 -0.390625 C 11.359375 0.0664062 10.21875 0.296875 9 0.296875 C 7.789062 0.296875 6.65625 0.0664062 5.59375 -0.390625 C 4.53125 -0.859375 3.59375 -1.492188 2.78125 -2.296875 C 1.976562 -3.109375 1.347656 -4.046875 0.890625 -5.109375 C 0.441406 -6.171875 0.21875 -7.300781 0.21875 -8.5 C 0.21875 -9.71875 0.441406 -10.859375 0.890625 -11.921875 C 1.347656 -12.992188 1.976562 -13.9375 2.78125 -14.75 C 3.59375 -15.5625 4.53125 -16.195312 5.59375 -16.65625 C 6.65625 -17.113281 7.789062 -17.34375 9 -17.34375 Z M 9 -2.90625 C 9.769531 -2.90625 10.492188 -3.050781 11.171875 -3.34375 C 11.859375 -3.632812 12.460938 -4.035156 12.984375 -4.546875 C 13.503906 -5.066406 13.910156 -5.664062 14.203125 -6.34375 C 14.503906 -7.019531 14.65625 -7.738281 14.65625 -8.5 C 14.65625 -9.28125 14.503906 -10.007812 14.203125 -10.6875 C 13.910156 -11.375 13.503906 -11.972656 12.984375 -12.484375 C 12.460938 -13.003906 11.859375 -13.410156 11.171875 -13.703125 C 10.492188 -13.992188 9.769531 -14.140625 9 -14.140625 C 8.238281 -14.140625 7.519531 -13.992188 6.84375 -13.703125 C 6.164062 -13.410156 5.570312 -13.003906 5.0625 -12.484375 C 4.550781 -11.972656 4.148438 -11.375 3.859375 -10.6875 C 3.566406 -10.007812 3.421875 -9.28125 3.421875 -8.5 C 3.421875 -7.738281 3.566406 -7.019531 3.859375 -6.34375 C 4.148438 -5.664062 4.550781 -5.066406 5.0625 -4.546875 C 5.570312 -4.035156 6.164062 -3.632812 6.84375 -3.34375 C 7.519531 -3.050781 8.238281 -2.90625 9 -2.90625 Z M 9 -13.6875 C 9.71875 -13.6875 10.390625 -13.550781 11.015625 -13.28125 C 11.648438 -13.007812 12.207031 -12.632812 12.6875 -12.15625 C 13.164062 -11.6875 13.535156 -11.132812 13.796875 -10.5 C 14.066406 -9.875 14.203125 -9.207031 14.203125 -8.5 C 14.203125 -7.769531 14.066406 -7.09375 13.796875 -6.46875 C 13.535156 -5.84375 13.164062 -5.289062 12.6875 -4.8125 C 12.207031 -4.34375 11.648438 -3.972656 11.015625 -3.703125 C 10.390625 -3.441406 9.71875 -3.3125 9 -3.3125 C 8.28125 -3.3125 7.609375 -3.441406 6.984375 -3.703125 C 6.359375 -3.972656 5.804688 -4.34375 5.328125 -4.8125 C 4.847656 -5.289062 4.472656 -5.84375 4.203125 -6.46875 C 3.941406 -7.09375 3.8125 -7.769531 3.8125 -8.5 C 3.8125 -9.207031 3.941406 -9.875 4.203125 -10.5 C 4.472656 -11.132812 4.847656 -11.6875 5.328125 -12.15625 C 5.804688 -12.632812 6.359375 -13.007812 6.984375 -13.28125 C 7.609375 -13.550781 8.28125 -13.6875 9 -13.6875 Z M 9 -6.5 C 9.363281 -6.5 9.695312 -6.585938 10 -6.765625 C 10.3125 -6.953125 10.554688 -7.203125 10.734375 -7.515625 C 10.921875 -7.828125 11.015625 -8.15625 11.015625 -8.5 C 11.015625 -8.863281 10.921875 -9.195312 10.734375 -9.5 C 10.554688 -9.800781 10.3125 -10.039062 10 -10.21875 C 9.695312 -10.394531 9.363281 -10.484375 9 -10.484375 C 8.644531 -10.484375 8.316406 -10.394531 8.015625 -10.21875 C 7.710938 -10.039062 7.46875 -9.800781 7.28125 -9.5 C 7.101562 -9.195312 7.015625 -8.863281 7.015625 -8.5 C 7.015625 -8.15625 7.101562 -7.828125 7.28125 -7.515625 C 7.46875 -7.203125 7.710938 -6.953125 8.015625 -6.765625 C 8.316406 -6.585938 8.644531 -6.5 9 -6.5 Z M 9 -6.5 "/></g></g></g><g fill="#24127b" fill-opacity="1"><g transform="translate(113.531248, 30.345394)"><g><path d="M 0.25 -21.5625 C 0.25 -22.257812 0.414062 -22.890625 0.75 -23.453125 C 1.082031 -24.023438 1.53125 -24.476562 2.09375 -24.8125 C 2.664062 -25.15625 3.296875 -25.328125 3.984375 -25.328125 C 4.691406 -25.328125 5.328125 -25.15625 5.890625 -24.8125 C 6.453125 -24.476562 6.898438 -24.023438 7.234375 -23.453125 C 7.578125 -22.890625 7.75 -22.257812 7.75 -21.5625 C 7.75 -20.875 7.578125 -20.242188 7.234375 -19.671875 C 6.898438 -19.109375 6.453125 -18.660156 5.890625 -18.328125 C 5.328125 -17.992188 4.691406 -17.828125 3.984375 -17.828125 C 3.296875 -17.828125 2.664062 -17.992188 2.09375 -18.328125 C 1.53125 -18.660156 1.082031 -19.109375 0.75 -19.671875 C 0.414062 -20.242188 0.25 -20.875 0.25 -21.5625 Z M 3.546875 -21.5625 C 3.546875 -21.46875 3.585938 -21.378906 3.671875 -21.296875 C 3.753906 -21.210938 3.84375 -21.171875 3.9375 -21.171875 C 4.03125 -21.171875 4.113281 -21.210938 4.1875 -21.296875 C 4.257812 -21.378906 4.296875 -21.46875 4.296875 -21.5625 C 4.296875 -21.65625 4.257812 -21.738281 4.1875 -21.8125 C 4.113281 -21.882812 4.03125 -21.921875 3.9375 -21.921875 C 3.84375 -21.921875 3.753906 -21.882812 3.671875 -21.8125 C 3.585938 -21.738281 3.546875 -21.65625 3.546875 -21.5625 Z M 0.609375 -17.140625 L 3.78125 -17.140625 L 3.78125 0 L 0.609375 0 Z M 7.28125 0 L 4.109375 0 L 4.109375 -17.140625 L 7.28125 -17.140625 Z M 7.28125 0 "/></g></g></g><g fill="#24127b" fill-opacity="1"><g transform="translate(119.997607, 30.345394)"><g><path d="M 9.015625 -14.265625 C 8.179688 -14.265625 7.410156 -14.101562 6.703125 -13.78125 C 5.992188 -13.457031 5.378906 -13 4.859375 -12.40625 C 4.347656 -11.8125 3.96875 -11.101562 3.71875 -10.28125 C 3.519531 -11.113281 3.125 -11.847656 2.53125 -12.484375 C 1.945312 -13.117188 1.25 -13.597656 0.4375 -13.921875 L 0.4375 -17.171875 C 1.707031 -16.890625 2.8125 -16.351562 3.75 -15.5625 C 4.5 -16.144531 5.328125 -16.585938 6.234375 -16.890625 C 7.148438 -17.191406 8.078125 -17.34375 9.015625 -17.34375 C 10.203125 -17.34375 11.3125 -17.117188 12.34375 -16.671875 C 13.375 -16.234375 14.273438 -15.617188 15.046875 -14.828125 C 15.828125 -14.046875 16.4375 -13.132812 16.875 -12.09375 C 17.320312 -11.0625 17.546875 -9.945312 17.546875 -8.75 L 17.546875 0 L 14.4375 0 L 14.4375 -8.828125 C 14.4375 -9.578125 14.296875 -10.273438 14.015625 -10.921875 C 13.734375 -11.566406 13.34375 -12.140625 12.84375 -12.640625 C 12.34375 -13.140625 11.765625 -13.53125 11.109375 -13.8125 C 10.453125 -14.101562 9.753906 -14.253906 9.015625 -14.265625 Z M 9.015625 -10.75 C 9.367188 -10.75 9.691406 -10.65625 9.984375 -10.46875 C 10.273438 -10.289062 10.507812 -10.050781 10.6875 -9.75 C 10.863281 -9.457031 10.953125 -9.132812 10.953125 -8.78125 L 10.953125 0 L 14.03125 0 L 14.03125 -8.78125 C 14.03125 -9.476562 13.898438 -10.128906 13.640625 -10.734375 C 13.378906 -11.347656 13.015625 -11.890625 12.546875 -12.359375 C 12.085938 -12.835938 11.554688 -13.207031 10.953125 -13.46875 C 10.347656 -13.726562 9.703125 -13.859375 9.015625 -13.859375 C 8.328125 -13.859375 7.675781 -13.722656 7.0625 -13.453125 C 6.445312 -13.179688 5.90625 -12.8125 5.4375 -12.34375 C 4.976562 -11.875 4.613281 -11.332031 4.34375 -10.71875 C 4.082031 -10.113281 3.953125 -9.46875 3.953125 -8.78125 L 3.953125 0 L 7.0625 0 L 7.0625 -8.78125 C 7.0625 -9.320312 7.242188 -9.785156 7.609375 -10.171875 C 7.984375 -10.554688 8.453125 -10.75 9.015625 -10.75 Z M 0.4375 0 L 3.578125 0 L 3.578125 -8.78125 C 3.578125 -9.46875 3.445312 -10.117188 3.1875 -10.734375 C 2.9375 -11.347656 2.578125 -11.894531 2.109375 -12.375 C 1.640625 -12.863281 1.082031 -13.242188 0.4375 -13.515625 Z M 0.4375 0 "/></g></g></g><g fill="#24127b" fill-opacity="1"><g transform="translate(136.576764, 30.345394)"><g><path d="M 3.734375 -14 L 3.734375 -17.890625 C 3.734375 -18.648438 3.585938 -19.363281 3.296875 -20.03125 C 3.003906 -20.695312 2.597656 -21.28125 2.078125 -21.78125 C 1.554688 -22.289062 0.945312 -22.664062 0.25 -22.90625 L 0.25 -26.140625 C 1.082031 -25.960938 1.878906 -25.65625 2.640625 -25.21875 C 3.410156 -24.789062 4.097656 -24.210938 4.703125 -23.484375 C 5.304688 -22.753906 5.78125 -21.863281 6.125 -20.8125 C 6.476562 -19.757812 6.65625 -18.523438 6.65625 -17.109375 L 8.71875 -17.109375 L 8.71875 -14 Z M 3.328125 -17.890625 C 3.328125 -18.554688 3.195312 -19.195312 2.9375 -19.8125 C 2.675781 -20.425781 2.3125 -20.96875 1.84375 -21.4375 C 1.382812 -21.90625 0.851562 -22.253906 0.25 -22.484375 L 0.25 -8.53125 C 0.25 -7.34375 0.46875 -6.222656 0.90625 -5.171875 C 1.351562 -4.128906 1.96875 -3.210938 2.75 -2.421875 C 3.539062 -1.628906 4.453125 -1.003906 5.484375 -0.546875 C 6.515625 -0.0976562 7.625 0.125 8.8125 0.125 L 8.8125 -2.953125 C 8.050781 -2.953125 7.335938 -3.097656 6.671875 -3.390625 C 6.015625 -3.679688 5.4375 -4.078125 4.9375 -4.578125 C 4.4375 -5.085938 4.039062 -5.675781 3.75 -6.34375 C 3.46875 -7.019531 3.328125 -7.726562 3.328125 -8.46875 Z M 6.84375 -8.46875 C 6.84375 -8.113281 6.925781 -7.785156 7.09375 -7.484375 C 7.269531 -7.179688 7.507812 -6.9375 7.8125 -6.75 C 8.113281 -6.570312 8.445312 -6.484375 8.8125 -6.484375 L 8.8125 -3.359375 C 8.101562 -3.359375 7.441406 -3.492188 6.828125 -3.765625 C 6.210938 -4.046875 5.671875 -4.421875 5.203125 -4.890625 C 4.742188 -5.367188 4.382812 -5.910156 4.125 -6.515625 C 3.863281 -7.128906 3.734375 -7.78125 3.734375 -8.46875 L 3.734375 -13.59375 L 8.71875 -13.59375 L 8.71875 -10.5 L 6.84375 -10.5 Z M 6.84375 -8.46875 "/></g></g></g></g></g></g></g></svg>