<svg xmlns="http://www.w3.org/2000/svg" xmlns:xlink="http://www.w3.org/1999/xlink" width="250" zoomAndPan="magnify" viewBox="0 0 187.5 37.5" height="50" preserveAspectRatio="xMidYMid meet" version="1.0"><defs><filter x="0%" y="0%" width="100%" height="100%" id="bfe41b5260"><feColorMatrix values="0 0 0 0 1 0 0 0 0 1 0 0 0 0 1 0 0 0 1 0" color-interpolation-filters="sRGB"/></filter><g/><clipPath id="42a7779036"><path d="M 1 7 L 186.019531 7 L 186.019531 35 L 1 35 Z M 1 7 " clip-rule="nonzero"/></clipPath><mask id="236509c94d"><g filter="url(#bfe41b5260)"><rect x="-18.75" width="225" fill="#000000" y="-3.75" height="45" fill-opacity="0.85"/></g></mask><clipPath id="c90f11b2af"><path d="M 4 0.578125 L 24 0.578125 L 24 21 L 4 21 Z M 4 0.578125 " clip-rule="nonzero"/></clipPath><clipPath id="cdba37c928"><path d="M 24 0.578125 L 49 0.578125 L 49 21 L 24 21 Z M 24 0.578125 " clip-rule="nonzero"/></clipPath><clipPath id="7696780efe"><path d="M 42 0.578125 L 67 0.578125 L 67 21 L 42 21 Z M 42 0.578125 " clip-rule="nonzero"/></clipPath><clipPath id="481d5e0021"><path d="M 67 0.578125 L 86 0.578125 L 86 21 L 67 21 Z M 67 0.578125 " clip-rule="nonzero"/></clipPath><clipPath id="2af5cb8dc2"><path d="M 96 0.578125 L 116 0.578125 L 116 21 L 96 21 Z M 96 0.578125 " clip-rule="nonzero"/></clipPath><clipPath id="4f601d4c27"><path d="M 116 0.578125 L 137 0.578125 L 137 21 L 116 21 Z M 116 0.578125 " clip-rule="nonzero"/></clipPath><clipPath id="97f9b4d0e8"><path d="M 137 0.578125 L 142 0.578125 L 142 21 L 137 21 Z M 137 0.578125 " clip-rule="nonzero"/></clipPath><clipPath id="8bc3dc75cb"><path d="M 144 0.578125 L 165 0.578125 L 165 21 L 144 21 Z M 144 0.578125 " clip-rule="nonzero"/></clipPath><clipPath id="f63c1ac373"><path d="M 166 0.578125 L 185 0.578125 L 185 21 L 166 21 Z M 166 0.578125 " clip-rule="nonzero"/></clipPath><clipPath id="70ff6e2ef8"><path d="M 2 0.578125 L 22 0.578125 L 22 21 L 2 21 Z M 2 0.578125 " clip-rule="nonzero"/></clipPath><clipPath id="bbac8ca948"><path d="M 22 0.578125 L 47 0.578125 L 47 21 L 22 21 Z M 22 0.578125 " clip-rule="nonzero"/></clipPath><clipPath id="1d68068e73"><path d="M 40 0.578125 L 65 0.578125 L 65 21 L 40 21 Z M 40 0.578125 " clip-rule="nonzero"/></clipPath><clipPath id="45e4ea0b73"><path d="M 65 0.578125 L 84 0.578125 L 84 21 L 65 21 Z M 65 0.578125 " clip-rule="nonzero"/></clipPath><clipPath id="6db231e773"><path d="M 94 0.578125 L 114 0.578125 L 114 21 L 94 21 Z M 94 0.578125 " clip-rule="nonzero"/></clipPath><clipPath id="2ec08611f5"><path d="M 114 0.578125 L 135 0.578125 L 135 21 L 114 21 Z M 114 0.578125 " clip-rule="nonzero"/></clipPath><clipPath id="fde7d1691c"><path d="M 135 0.578125 L 141 0.578125 L 141 21 L 135 21 Z M 135 0.578125 " clip-rule="nonzero"/></clipPath><clipPath id="8c88ebcb71"><path d="M 142 0.578125 L 164 0.578125 L 164 21 L 142 21 Z M 142 0.578125 " clip-rule="nonzero"/></clipPath><clipPath id="049143e535"><path d="M 164 0.578125 L 183 0.578125 L 183 21 L 164 21 Z M 164 0.578125 " clip-rule="nonzero"/></clipPath><clipPath id="457641c22f"><path d="M 3 0.578125 L 23 0.578125 L 23 21 L 3 21 Z M 3 0.578125 " clip-rule="nonzero"/></clipPath><clipPath id="6c9212c80b"><path d="M 23 0.578125 L 48 0.578125 L 48 21 L 23 21 Z M 23 0.578125 " clip-rule="nonzero"/></clipPath><clipPath id="927f81d6b0"><path d="M 41 0.578125 L 66 0.578125 L 66 21 L 41 21 Z M 41 0.578125 " clip-rule="nonzero"/></clipPath><clipPath id="3585f4bf1e"><path d="M 66 0.578125 L 85 0.578125 L 85 21 L 66 21 Z M 66 0.578125 " clip-rule="nonzero"/></clipPath><clipPath id="ce78a75739"><path d="M 95 0.578125 L 115 0.578125 L 115 21 L 95 21 Z M 95 0.578125 " clip-rule="nonzero"/></clipPath><clipPath id="e1919e74bb"><path d="M 115 0.578125 L 136 0.578125 L 136 21 L 115 21 Z M 115 0.578125 " clip-rule="nonzero"/></clipPath><clipPath id="ef40112a81"><path d="M 136 0.578125 L 142 0.578125 L 142 21 L 136 21 Z M 136 0.578125 " clip-rule="nonzero"/></clipPath><clipPath id="45989bfebf"><path d="M 143 0.578125 L 165 0.578125 L 165 21 L 143 21 Z M 143 0.578125 " clip-rule="nonzero"/></clipPath><clipPath id="30b4cf5233"><path d="M 165 0.578125 L 184 0.578125 L 184 21 L 165 21 Z M 165 0.578125 " clip-rule="nonzero"/></clipPath><clipPath id="b45f4374ff"><rect x="0" width="186" y="0" height="28"/></clipPath></defs><g clip-path="url(#42a7779036)"><g mask="url(#236509c94d)"><g transform="matrix(1, 0, 0, 1, 1, 7)"><g clip-path="url(#b45f4374ff)"><g clip-path="url(#c90f11b2af)"><g fill="#ff00ff" fill-opacity="1"><g transform="translate(2.954462, 20.57581)"><g><path d="M 1.8125 -11.546875 C 2.125 -10.796875 2.554688 -10.144531 3.109375 -9.59375 C 3.660156 -9.050781 4.300781 -8.617188 5.03125 -8.296875 C 5.769531 -7.972656 6.554688 -7.8125 7.390625 -7.8125 L 16.328125 -7.8125 L 16.328125 -4.328125 L 1.8125 -4.328125 L 1.8125 0 L 14.578125 0 C 15.410156 0 16.195312 -0.15625 16.9375 -0.46875 C 17.6875 -0.789062 18.332031 -1.226562 18.875 -1.78125 C 19.425781 -2.332031 19.859375 -2.972656 20.171875 -3.703125 C 20.492188 -4.441406 20.65625 -5.226562 20.65625 -6.0625 C 20.65625 -6.894531 20.492188 -7.675781 20.171875 -8.40625 C 19.859375 -9.144531 19.425781 -9.789062 18.875 -10.34375 C 18.332031 -10.894531 17.6875 -11.328125 16.9375 -11.640625 C 16.195312 -11.960938 15.410156 -12.125 14.578125 -12.125 L 5.671875 -12.125 L 5.671875 -15.640625 L 20.15625 -15.640625 L 20.15625 -19.96875 L 7.390625 -19.96875 C 6.554688 -19.96875 5.769531 -19.804688 5.03125 -19.484375 C 4.300781 -19.171875 3.660156 -18.738281 3.109375 -18.1875 C 2.554688 -17.632812 2.117188 -16.984375 1.796875 -16.234375 C 1.484375 -15.492188 1.328125 -14.707031 1.328125 -13.875 C 1.328125 -13.039062 1.488281 -12.265625 1.8125 -11.546875 Z M 1.8125 -11.546875 "/></g></g></g></g><g clip-path="url(#cdba37c928)"><g fill="#ff00ff" fill-opacity="1"><g transform="translate(23.408512, 20.57581)"><g><path d="M 17.359375 -7.796875 L 20.5 0 L 24.890625 0 L 16.890625 -19.9375 L 8.9375 -19.9375 L 0.9375 0 L 5.3125 0 L 8.453125 -7.796875 Z M 10.21875 -12.203125 L 12.734375 -18.484375 L 13.078125 -18.484375 L 15.609375 -12.203125 Z M 10.21875 -12.203125 "/></g></g></g></g><g clip-path="url(#7696780efe)"><g fill="#ff00ff" fill-opacity="1"><g transform="translate(41.308671, 20.57581)"><g><path d="M 12.734375 -1.46875 L 5.3125 -19.9375 L 0.9375 -19.9375 L 8.9375 0 L 16.890625 0 L 24.890625 -19.9375 L 20.5 -19.9375 L 13.078125 -1.46875 Z M 12.734375 -1.46875 "/></g></g></g></g><g clip-path="url(#481d5e0021)"><g fill="#ff00ff" fill-opacity="1"><g transform="translate(65.592904, 20.57581)"><g><path d="M 20 0 L 20 -4.390625 L 6.25 -4.390625 L 6.25 -7.84375 L 12.84375 -7.84375 L 12.84375 -12.234375 L 6.25 -12.234375 L 6.25 -15.578125 L 20.03125 -15.578125 L 20.03125 -19.9375 L 1.859375 -19.9375 L 1.859375 0 Z M 20 0 "/></g></g></g></g><g fill="#ff00ff" fill-opacity="1"><g transform="translate(85.408589, 20.57581)"><g/></g></g><g clip-path="url(#2af5cb8dc2)"><g fill="#ff00ff" fill-opacity="1"><g transform="translate(94.505072, 20.57581)"><g><path d="M 17.46875 -19.46875 C 16.726562 -19.78125 15.941406 -19.9375 15.109375 -19.9375 L 1.859375 -19.9375 L 1.859375 0 L 6.21875 0 L 6.21875 -7.8125 L 15.109375 -7.8125 C 15.941406 -7.8125 16.722656 -7.972656 17.453125 -8.296875 C 18.191406 -8.617188 18.835938 -9.050781 19.390625 -9.59375 C 19.941406 -10.144531 20.375 -10.785156 20.6875 -11.515625 C 21.007812 -12.253906 21.171875 -13.039062 21.171875 -13.875 C 21.171875 -14.707031 21.007812 -15.492188 20.6875 -16.234375 C 20.375 -16.972656 19.941406 -17.613281 19.390625 -18.15625 C 18.835938 -18.707031 18.195312 -19.144531 17.46875 -19.46875 Z M 16.859375 -15.609375 L 16.859375 -12.125 L 6.21875 -12.125 L 6.21875 -15.609375 Z M 16.859375 -15.609375 "/></g></g></g></g><g clip-path="url(#4f601d4c27)"><g fill="#ff00ff" fill-opacity="1"><g transform="translate(115.464496, 20.57581)"><g><path d="M 3.859375 -2.921875 C 4.765625 -2.015625 5.816406 -1.300781 7.015625 -0.78125 C 8.222656 -0.257812 9.519531 0 10.90625 0 C 12.289062 0 13.582031 -0.257812 14.78125 -0.78125 C 15.988281 -1.300781 17.046875 -2.015625 17.953125 -2.921875 C 18.859375 -3.828125 19.570312 -4.878906 20.09375 -6.078125 C 20.613281 -7.285156 20.875 -8.582031 20.875 -9.96875 C 20.875 -11.351562 20.613281 -12.644531 20.09375 -13.84375 C 19.570312 -15.050781 18.859375 -16.109375 17.953125 -17.015625 C 17.046875 -17.921875 15.988281 -18.632812 14.78125 -19.15625 C 13.582031 -19.675781 12.289062 -19.9375 10.90625 -19.9375 C 9.519531 -19.9375 8.222656 -19.675781 7.015625 -19.15625 C 5.816406 -18.632812 4.765625 -17.921875 3.859375 -17.015625 C 2.953125 -16.109375 2.238281 -15.050781 1.71875 -13.84375 C 1.195312 -12.644531 0.9375 -11.351562 0.9375 -9.96875 C 0.9375 -8.582031 1.195312 -7.285156 1.71875 -6.078125 C 2.238281 -4.878906 2.953125 -3.828125 3.859375 -2.921875 Z M 5.234375 -4.3125 L 5.234375 -15.640625 L 16.5625 -15.640625 L 16.5625 -4.3125 Z M 5.234375 -4.3125 "/></g></g></g></g><g clip-path="url(#97f9b4d0e8)"><g fill="#ff00ff" fill-opacity="1"><g transform="translate(135.732362, 20.57581)"><g><path d="M 1.859375 -19.9375 L 1.859375 0 L 6.21875 0 L 6.21875 -19.9375 Z M 1.859375 -19.9375 "/></g></g></g></g><g clip-path="url(#8bc3dc75cb)"><g fill="#ff00ff" fill-opacity="1"><g transform="translate(142.275393, 20.57581)"><g><path d="M 22.578125 -19.9375 L 18.1875 -19.9375 L 18.1875 -1.46875 L 17.84375 -1.46875 L 10.421875 -19.9375 L 1.859375 -19.9375 L 1.859375 0 L 6.25 0 L 6.25 -18.484375 L 6.625 -18.484375 L 14.046875 0 L 22.578125 0 Z M 22.578125 -19.9375 "/></g></g></g></g><g clip-path="url(#f63c1ac373)"><g fill="#ff00ff" fill-opacity="1"><g transform="translate(165.176511, 20.57581)"><g><path d="M 18.984375 -19.96875 L 0.9375 -19.96875 L 0.9375 -15.578125 L 7.765625 -15.578125 L 7.765625 0 L 12.125 0 L 12.125 -15.578125 L 18.984375 -15.578125 Z M 18.984375 -19.96875 "/></g></g></g></g><g clip-path="url(#70ff6e2ef8)"><g fill="#00ffff" fill-opacity="1"><g transform="translate(1.258578, 20.57581)"><g><path d="M 1.8125 -11.546875 C 2.125 -10.796875 2.554688 -10.144531 3.109375 -9.59375 C 3.660156 -9.050781 4.300781 -8.617188 5.03125 -8.296875 C 5.769531 -7.972656 6.554688 -7.8125 7.390625 -7.8125 L 16.328125 -7.8125 L 16.328125 -4.328125 L 1.8125 -4.328125 L 1.8125 0 L 14.578125 0 C 15.410156 0 16.195312 -0.15625 16.9375 -0.46875 C 17.6875 -0.789062 18.332031 -1.226562 18.875 -1.78125 C 19.425781 -2.332031 19.859375 -2.972656 20.171875 -3.703125 C 20.492188 -4.441406 20.65625 -5.226562 20.65625 -6.0625 C 20.65625 -6.894531 20.492188 -7.675781 20.171875 -8.40625 C 19.859375 -9.144531 19.425781 -9.789062 18.875 -10.34375 C 18.332031 -10.894531 17.6875 -11.328125 16.9375 -11.640625 C 16.195312 -11.960938 15.410156 -12.125 14.578125 -12.125 L 5.671875 -12.125 L 5.671875 -15.640625 L 20.15625 -15.640625 L 20.15625 -19.96875 L 7.390625 -19.96875 C 6.554688 -19.96875 5.769531 -19.804688 5.03125 -19.484375 C 4.300781 -19.171875 3.660156 -18.738281 3.109375 -18.1875 C 2.554688 -17.632812 2.117188 -16.984375 1.796875 -16.234375 C 1.484375 -15.492188 1.328125 -14.707031 1.328125 -13.875 C 1.328125 -13.039062 1.488281 -12.265625 1.8125 -11.546875 Z M 1.8125 -11.546875 "/></g></g></g></g><g clip-path="url(#bbac8ca948)"><g fill="#00ffff" fill-opacity="1"><g transform="translate(21.712628, 20.57581)"><g><path d="M 17.359375 -7.796875 L 20.5 0 L 24.890625 0 L 16.890625 -19.9375 L 8.9375 -19.9375 L 0.9375 0 L 5.3125 0 L 8.453125 -7.796875 Z M 10.21875 -12.203125 L 12.734375 -18.484375 L 13.078125 -18.484375 L 15.609375 -12.203125 Z M 10.21875 -12.203125 "/></g></g></g></g><g clip-path="url(#1d68068e73)"><g fill="#00ffff" fill-opacity="1"><g transform="translate(39.612787, 20.57581)"><g><path d="M 12.734375 -1.46875 L 5.3125 -19.9375 L 0.9375 -19.9375 L 8.9375 0 L 16.890625 0 L 24.890625 -19.9375 L 20.5 -19.9375 L 13.078125 -1.46875 Z M 12.734375 -1.46875 "/></g></g></g></g><g clip-path="url(#45e4ea0b73)"><g fill="#00ffff" fill-opacity="1"><g transform="translate(63.89702, 20.57581)"><g><path d="M 20 0 L 20 -4.390625 L 6.25 -4.390625 L 6.25 -7.84375 L 12.84375 -7.84375 L 12.84375 -12.234375 L 6.25 -12.234375 L 6.25 -15.578125 L 20.03125 -15.578125 L 20.03125 -19.9375 L 1.859375 -19.9375 L 1.859375 0 Z M 20 0 "/></g></g></g></g><g fill="#00ffff" fill-opacity="1"><g transform="translate(83.712705, 20.57581)"><g/></g></g><g clip-path="url(#6db231e773)"><g fill="#00ffff" fill-opacity="1"><g transform="translate(92.809188, 20.57581)"><g><path d="M 17.46875 -19.46875 C 16.726562 -19.78125 15.941406 -19.9375 15.109375 -19.9375 L 1.859375 -19.9375 L 1.859375 0 L 6.21875 0 L 6.21875 -7.8125 L 15.109375 -7.8125 C 15.941406 -7.8125 16.722656 -7.972656 17.453125 -8.296875 C 18.191406 -8.617188 18.835938 -9.050781 19.390625 -9.59375 C 19.941406 -10.144531 20.375 -10.785156 20.6875 -11.515625 C 21.007812 -12.253906 21.171875 -13.039062 21.171875 -13.875 C 21.171875 -14.707031 21.007812 -15.492188 20.6875 -16.234375 C 20.375 -16.972656 19.941406 -17.613281 19.390625 -18.15625 C 18.835938 -18.707031 18.195312 -19.144531 17.46875 -19.46875 Z M 16.859375 -15.609375 L 16.859375 -12.125 L 6.21875 -12.125 L 6.21875 -15.609375 Z M 16.859375 -15.609375 "/></g></g></g></g><g clip-path="url(#2ec08611f5)"><g fill="#00ffff" fill-opacity="1"><g transform="translate(113.768612, 20.57581)"><g><path d="M 3.859375 -2.921875 C 4.765625 -2.015625 5.816406 -1.300781 7.015625 -0.78125 C 8.222656 -0.257812 9.519531 0 10.90625 0 C 12.289062 0 13.582031 -0.257812 14.78125 -0.78125 C 15.988281 -1.300781 17.046875 -2.015625 17.953125 -2.921875 C 18.859375 -3.828125 19.570312 -4.878906 20.09375 -6.078125 C 20.613281 -7.285156 20.875 -8.582031 20.875 -9.96875 C 20.875 -11.351562 20.613281 -12.644531 20.09375 -13.84375 C 19.570312 -15.050781 18.859375 -16.109375 17.953125 -17.015625 C 17.046875 -17.921875 15.988281 -18.632812 14.78125 -19.15625 C 13.582031 -19.675781 12.289062 -19.9375 10.90625 -19.9375 C 9.519531 -19.9375 8.222656 -19.675781 7.015625 -19.15625 C 5.816406 -18.632812 4.765625 -17.921875 3.859375 -17.015625 C 2.953125 -16.109375 2.238281 -15.050781 1.71875 -13.84375 C 1.195312 -12.644531 0.9375 -11.351562 0.9375 -9.96875 C 0.9375 -8.582031 1.195312 -7.285156 1.71875 -6.078125 C 2.238281 -4.878906 2.953125 -3.828125 3.859375 -2.921875 Z M 5.234375 -4.3125 L 5.234375 -15.640625 L 16.5625 -15.640625 L 16.5625 -4.3125 Z M 5.234375 -4.3125 "/></g></g></g></g><g clip-path="url(#fde7d1691c)"><g fill="#00ffff" fill-opacity="1"><g transform="translate(134.036478, 20.57581)"><g><path d="M 1.859375 -19.9375 L 1.859375 0 L 6.21875 0 L 6.21875 -19.9375 Z M 1.859375 -19.9375 "/></g></g></g></g><g clip-path="url(#8c88ebcb71)"><g fill="#00ffff" fill-opacity="1"><g transform="translate(140.579509, 20.57581)"><g><path d="M 22.578125 -19.9375 L 18.1875 -19.9375 L 18.1875 -1.46875 L 17.84375 -1.46875 L 10.421875 -19.9375 L 1.859375 -19.9375 L 1.859375 0 L 6.25 0 L 6.25 -18.484375 L 6.625 -18.484375 L 14.046875 0 L 22.578125 0 Z M 22.578125 -19.9375 "/></g></g></g></g><g clip-path="url(#049143e535)"><g fill="#00ffff" fill-opacity="1"><g transform="translate(163.480627, 20.57581)"><g><path d="M 18.984375 -19.96875 L 0.9375 -19.96875 L 0.9375 -15.578125 L 7.765625 -15.578125 L 7.765625 0 L 12.125 0 L 12.125 -15.578125 L 18.984375 -15.578125 Z M 18.984375 -19.96875 "/></g></g></g></g><g clip-path="url(#457641c22f)"><g fill="#24127b" fill-opacity="1"><g transform="translate(2.10652, 20.57581)"><g><path d="M 1.8125 -11.546875 C 2.125 -10.796875 2.554688 -10.144531 3.109375 -9.59375 C 3.660156 -9.050781 4.300781 -8.617188 5.03125 -8.296875 C 5.769531 -7.972656 6.554688 -7.8125 7.390625 -7.8125 L 16.328125 -7.8125 L 16.328125 -4.328125 L 1.8125 -4.328125 L 1.8125 0 L 14.578125 0 C 15.410156 0 16.195312 -0.15625 16.9375 -0.46875 C 17.6875 -0.789062 18.332031 -1.226562 18.875 -1.78125 C 19.425781 -2.332031 19.859375 -2.972656 20.171875 -3.703125 C 20.492188 -4.441406 20.65625 -5.226562 20.65625 -6.0625 C 20.65625 -6.894531 20.492188 -7.675781 20.171875 -8.40625 C 19.859375 -9.144531 19.425781 -9.789062 18.875 -10.34375 C 18.332031 -10.894531 17.6875 -11.328125 16.9375 -11.640625 C 16.195312 -11.960938 15.410156 -12.125 14.578125 -12.125 L 5.671875 -12.125 L 5.671875 -15.640625 L 20.15625 -15.640625 L 20.15625 -19.96875 L 7.390625 -19.96875 C 6.554688 -19.96875 5.769531 -19.804688 5.03125 -19.484375 C 4.300781 -19.171875 3.660156 -18.738281 3.109375 -18.1875 C 2.554688 -17.632812 2.117188 -16.984375 1.796875 -16.234375 C 1.484375 -15.492188 1.328125 -14.707031 1.328125 -13.875 C 1.328125 -13.039062 1.488281 -12.265625 1.8125 -11.546875 Z M 1.8125 -11.546875 "/></g></g></g></g><g clip-path="url(#6c9212c80b)"><g fill="#24127b" fill-opacity="1"><g transform="translate(22.56057, 20.57581)"><g><path d="M 17.359375 -7.796875 L 20.5 0 L 24.890625 0 L 16.890625 -19.9375 L 8.9375 -19.9375 L 0.9375 0 L 5.3125 0 L 8.453125 -7.796875 Z M 10.21875 -12.203125 L 12.734375 -18.484375 L 13.078125 -18.484375 L 15.609375 -12.203125 Z M 10.21875 -12.203125 "/></g></g></g></g><g clip-path="url(#927f81d6b0)"><g fill="#24127b" fill-opacity="1"><g transform="translate(40.460729, 20.57581)"><g><path d="M 12.734375 -1.46875 L 5.3125 -19.9375 L 0.9375 -19.9375 L 8.9375 0 L 16.890625 0 L 24.890625 -19.9375 L 20.5 -19.9375 L 13.078125 -1.46875 Z M 12.734375 -1.46875 "/></g></g></g></g><g clip-path="url(#3585f4bf1e)"><g fill="#24127b" fill-opacity="1"><g transform="translate(64.744962, 20.57581)"><g><path d="M 20 0 L 20 -4.390625 L 6.25 -4.390625 L 6.25 -7.84375 L 12.84375 -7.84375 L 12.84375 -12.234375 L 6.25 -12.234375 L 6.25 -15.578125 L 20.03125 -15.578125 L 20.03125 -19.9375 L 1.859375 -19.9375 L 1.859375 0 Z M 20 0 "/></g></g></g></g><g fill="#24127b" fill-opacity="1"><g transform="translate(84.560647, 20.57581)"><g/></g></g><g clip-path="url(#ce78a75739)"><g fill="#24127b" fill-opacity="1"><g transform="translate(93.65713, 20.57581)"><g><path d="M 17.46875 -19.46875 C 16.726562 -19.78125 15.941406 -19.9375 15.109375 -19.9375 L 1.859375 -19.9375 L 1.859375 0 L 6.21875 0 L 6.21875 -7.8125 L 15.109375 -7.8125 C 15.941406 -7.8125 16.722656 -7.972656 17.453125 -8.296875 C 18.191406 -8.617188 18.835938 -9.050781 19.390625 -9.59375 C 19.941406 -10.144531 20.375 -10.785156 20.6875 -11.515625 C 21.007812 -12.253906 21.171875 -13.039062 21.171875 -13.875 C 21.171875 -14.707031 21.007812 -15.492188 20.6875 -16.234375 C 20.375 -16.972656 19.941406 -17.613281 19.390625 -18.15625 C 18.835938 -18.707031 18.195312 -19.144531 17.46875 -19.46875 Z M 16.859375 -15.609375 L 16.859375 -12.125 L 6.21875 -12.125 L 6.21875 -15.609375 Z M 16.859375 -15.609375 "/></g></g></g></g><g clip-path="url(#e1919e74bb)"><g fill="#24127b" fill-opacity="1"><g transform="translate(114.616554, 20.57581)"><g><path d="M 3.859375 -2.921875 C 4.765625 -2.015625 5.816406 -1.300781 7.015625 -0.78125 C 8.222656 -0.257812 9.519531 0 10.90625 0 C 12.289062 0 13.582031 -0.257812 14.78125 -0.78125 C 15.988281 -1.300781 17.046875 -2.015625 17.953125 -2.921875 C 18.859375 -3.828125 19.570312 -4.878906 20.09375 -6.078125 C 20.613281 -7.285156 20.875 -8.582031 20.875 -9.96875 C 20.875 -11.351562 20.613281 -12.644531 20.09375 -13.84375 C 19.570312 -15.050781 18.859375 -16.109375 17.953125 -17.015625 C 17.046875 -17.921875 15.988281 -18.632812 14.78125 -19.15625 C 13.582031 -19.675781 12.289062 -19.9375 10.90625 -19.9375 C 9.519531 -19.9375 8.222656 -19.675781 7.015625 -19.15625 C 5.816406 -18.632812 4.765625 -17.921875 3.859375 -17.015625 C 2.953125 -16.109375 2.238281 -15.050781 1.71875 -13.84375 C 1.195312 -12.644531 0.9375 -11.351562 0.9375 -9.96875 C 0.9375 -8.582031 1.195312 -7.285156 1.71875 -6.078125 C 2.238281 -4.878906 2.953125 -3.828125 3.859375 -2.921875 Z M 5.234375 -4.3125 L 5.234375 -15.640625 L 16.5625 -15.640625 L 16.5625 -4.3125 Z M 5.234375 -4.3125 "/></g></g></g></g><g clip-path="url(#ef40112a81)"><g fill="#24127b" fill-opacity="1"><g transform="translate(134.88442, 20.57581)"><g><path d="M 1.859375 -19.9375 L 1.859375 0 L 6.21875 0 L 6.21875 -19.9375 Z M 1.859375 -19.9375 "/></g></g></g></g><g clip-path="url(#45989bfebf)"><g fill="#24127b" fill-opacity="1"><g transform="translate(141.427451, 20.57581)"><g><path d="M 22.578125 -19.9375 L 18.1875 -19.9375 L 18.1875 -1.46875 L 17.84375 -1.46875 L 10.421875 -19.9375 L 1.859375 -19.9375 L 1.859375 0 L 6.25 0 L 6.25 -18.484375 L 6.625 -18.484375 L 14.046875 0 L 22.578125 0 Z M 22.578125 -19.9375 "/></g></g></g></g><g clip-path="url(#30b4cf5233)"><g fill="#24127b" fill-opacity="1"><g transform="translate(164.328569, 20.57581)"><g><path d="M 18.984375 -19.96875 L 0.9375 -19.96875 L 0.9375 -15.578125 L 7.765625 -15.578125 L 7.765625 0 L 12.125 0 L 12.125 -15.578125 L 18.984375 -15.578125 Z M 18.984375 -19.96875 "/></g></g></g></g></g></g></g></g></svg>