<svg xmlns="http://www.w3.org/2000/svg" xmlns:xlink="http://www.w3.org/1999/xlink" width="250" zoomAndPan="magnify" viewBox="0 0 187.5 37.5" height="50" preserveAspectRatio="xMidYMid meet" version="1.0"><defs><filter x="0%" y="0%" width="100%" height="100%" id="5c8fd74705"><feColorMatrix values="0 0 0 0 1 0 0 0 0 1 0 0 0 0 1 0 0 0 1 0" color-interpolation-filters="sRGB"/></filter><g/><clipPath id="edb43524e5"><path d="M 9 1 L 171 1 L 171 37.007812 L 9 37.007812 Z M 9 1 " clip-rule="nonzero"/></clipPath><mask id="6849633505"><g filter="url(#5c8fd74705)"><rect x="-18.75" width="225" fill="#000000" y="-3.75" height="45" fill-opacity="0.85"/></g></mask><clipPath id="4c3904d0f5"><path d="M 0.0390625 0.421875 L 161.09375 0.421875 L 161.09375 36.007812 L 0.0390625 36.007812 Z M 0.0390625 0.421875 " clip-rule="nonzero"/></clipPath><clipPath id="506fe51a37"><rect x="0" width="162" y="0" height="37"/></clipPath><clipPath id="ad4d12489d"><rect x="0" width="162" y="0" height="37"/></clipPath></defs><g clip-path="url(#edb43524e5)"><g mask="url(#6849633505)"><g transform="matrix(1, 0, 0, 1, 9, 1)"><g clip-path="url(#ad4d12489d)"><g clip-path="url(#4c3904d0f5)"><g transform="matrix(1, 0, 0, 1, 0, -0.000000000000001332)"><g clip-path="url(#506fe51a37)"><g fill="#ff00ff" fill-opacity="1"><g transform="translate(3.939395, 30.845842)"><g><path d="M 7.71875 -29.765625 C 9.132812 -29.765625 10.40625 -29.429688 11.53125 -28.765625 C 12.65625 -28.097656 13.539062 -27.203125 14.1875 -26.078125 C 14.84375 -24.953125 15.171875 -23.691406 15.171875 -22.296875 L 15.171875 -18.96875 L 8.09375 -18.96875 L 8.09375 -22.296875 C 8.09375 -22.609375 7.976562 -22.75 7.75 -22.71875 C 7.53125 -22.6875 7.421875 -22.546875 7.421875 -22.296875 L 7.421875 -18.71875 C 7.421875 -18.601562 7.460938 -18.523438 7.546875 -18.484375 C 7.628906 -18.441406 7.6875 -18.421875 7.71875 -18.421875 C 9.132812 -18.421875 10.40625 -18.085938 11.53125 -17.421875 C 12.65625 -16.753906 13.539062 -15.859375 14.1875 -14.734375 C 14.84375 -13.609375 15.171875 -12.351562 15.171875 -10.96875 L 15.171875 -7.421875 C 15.171875 -6.054688 14.84375 -4.8125 14.1875 -3.6875 C 13.539062 -2.5625 12.65625 -1.664062 11.53125 -1 C 10.40625 -0.332031 9.132812 0 7.71875 0 C 6.351562 0 5.113281 -0.320312 4 -0.96875 C 2.882812 -1.625 2 -2.507812 1.34375 -3.625 C 0.695312 -4.738281 0.375 -5.976562 0.375 -7.34375 L 0.375 -10.796875 L 7.421875 -10.796875 L 7.421875 -7.34375 C 7.421875 -7.113281 7.53125 -7 7.75 -7 C 7.976562 -7 8.09375 -7.113281 8.09375 -7.34375 L 8.09375 -10.96875 C 8.09375 -11.21875 7.96875 -11.34375 7.71875 -11.34375 C 6.351562 -11.34375 5.113281 -11.675781 4 -12.34375 C 2.882812 -13.007812 2 -13.910156 1.34375 -15.046875 C 0.695312 -16.191406 0.375 -17.441406 0.375 -18.796875 L 0.375 -22.296875 C 0.375 -23.691406 0.695312 -24.953125 1.34375 -26.078125 C 2 -27.203125 2.882812 -28.097656 4 -28.765625 C 5.113281 -29.429688 6.351562 -29.765625 7.71875 -29.765625 Z M 7.71875 -29.765625 "/></g></g></g><g fill="#ff00ff" fill-opacity="1"><g transform="translate(21.284737, 30.845842)"><g><path d="M 2.5 -2.203125 C 1.582031 -3.117188 0.945312 -4.125 0.59375 -5.21875 C 0.25 -6.320312 0.160156 -7.421875 0.328125 -8.515625 C 0.492188 -9.617188 0.882812 -10.628906 1.5 -11.546875 C 2.113281 -12.460938 2.921875 -13.195312 3.921875 -13.75 C 4.921875 -14.3125 6.070312 -14.59375 7.375 -14.59375 L 7.375 -7.34375 C 7.375 -7.34375 7.378906 -7.328125 7.390625 -7.296875 C 7.410156 -7.265625 7.4375 -7.222656 7.46875 -7.171875 C 7.550781 -7.085938 7.644531 -7.046875 7.75 -7.046875 C 7.75 -7.046875 7.769531 -7.050781 7.8125 -7.0625 C 7.851562 -7.082031 7.90625 -7.117188 7.96875 -7.171875 C 8.019531 -7.222656 8.046875 -7.265625 8.046875 -7.296875 C 8.046875 -7.328125 8.046875 -7.34375 8.046875 -7.34375 L 8.046875 -14.96875 C 8.046875 -15.21875 7.945312 -15.34375 7.75 -15.34375 L 0.328125 -15.34375 L 0.328125 -22.421875 L 7.75 -22.421875 C 9.144531 -22.421875 10.390625 -22.085938 11.484375 -21.421875 C 12.578125 -20.753906 13.453125 -19.859375 14.109375 -18.734375 C 14.765625 -17.609375 15.09375 -16.351562 15.09375 -14.96875 L 15.09375 -7.34375 C 15.09375 -6.007812 14.757812 -4.785156 14.09375 -3.671875 C 13.425781 -2.554688 12.535156 -1.664062 11.421875 -1 C 10.304688 -0.332031 9.082031 0 7.75 0 C 6.8125 0 5.878906 -0.1875 4.953125 -0.5625 C 4.035156 -0.9375 3.21875 -1.484375 2.5 -2.203125 Z M 2.5 -2.203125 "/></g></g></g><g fill="#ff00ff" fill-opacity="1"><g transform="translate(38.588384, 30.845842)"><g><path d="M 7.84375 0 C 7.644531 0 7.257812 -0.128906 6.6875 -0.390625 C 6.125 -0.660156 5.484375 -1.03125 4.765625 -1.5 C 4.054688 -1.96875 3.367188 -2.519531 2.703125 -3.15625 C 2.035156 -3.800781 1.488281 -4.503906 1.0625 -5.265625 C 0.632812 -6.035156 0.421875 -6.820312 0.421875 -7.625 L 0.421875 -22.421875 L 7.46875 -22.421875 L 7.46875 -7.34375 C 7.46875 -7.113281 7.597656 -7 7.859375 -7 C 8.117188 -7 8.25 -7.113281 8.25 -7.34375 L 8.25 -22.421875 L 15.171875 -22.421875 L 15.171875 -7.625 C 15.171875 -6.820312 14.953125 -6.035156 14.515625 -5.265625 C 14.085938 -4.503906 13.539062 -3.800781 12.875 -3.15625 C 12.207031 -2.519531 11.523438 -1.96875 10.828125 -1.5 C 10.140625 -1.03125 9.515625 -0.660156 8.953125 -0.390625 C 8.398438 -0.128906 8.03125 0 7.84375 0 Z M 7.84375 0 "/></g></g></g><g fill="#ff00ff" fill-opacity="1"><g transform="translate(55.975421, 30.845842)"><g><path d="M 13 -20.171875 C 13.914062 -19.285156 14.539062 -18.289062 14.875 -17.1875 C 15.207031 -16.09375 15.296875 -14.992188 15.140625 -13.890625 C 14.992188 -12.796875 14.613281 -11.785156 14 -10.859375 C 13.394531 -9.929688 12.597656 -9.1875 11.609375 -8.625 C 10.617188 -8.070312 9.472656 -7.796875 8.171875 -7.796875 L 8.171875 -15.046875 C 8.171875 -15.265625 8.046875 -15.375 7.796875 -15.375 C 7.546875 -15.375 7.421875 -15.265625 7.421875 -15.046875 L 7.421875 -7.421875 C 7.421875 -7.171875 7.546875 -7.046875 7.796875 -7.046875 L 15.171875 -7.046875 L 15.171875 0 L 7.796875 0 C 5.847656 0 4.082031 -0.722656 2.5 -2.171875 C 1.113281 -3.585938 0.421875 -5.335938 0.421875 -7.421875 L 0.421875 -15.046875 C 0.421875 -16.410156 0.753906 -17.640625 1.421875 -18.734375 C 2.085938 -19.835938 2.984375 -20.710938 4.109375 -21.359375 C 5.234375 -22.015625 6.460938 -22.34375 7.796875 -22.34375 C 8.742188 -22.34375 9.675781 -22.164062 10.59375 -21.8125 C 11.507812 -21.46875 12.3125 -20.921875 13 -20.171875 Z M 13 -20.171875 "/></g></g></g><g fill="#ff00ff" fill-opacity="1"><g transform="translate(73.320762, 30.845842)"><g/></g></g><g fill="#ff00ff" fill-opacity="1"><g transform="translate(82.368757, 30.845842)"><g><path d="M 7.875 -29.8125 C 9.269531 -29.8125 10.515625 -29.46875 11.609375 -28.78125 C 12.703125 -28.101562 13.578125 -27.203125 14.234375 -26.078125 C 14.890625 -24.953125 15.21875 -23.707031 15.21875 -22.34375 L 15.21875 -14.5 C 15.21875 -13.226562 14.914062 -12.050781 14.3125 -10.96875 C 13.71875 -9.882812 12.898438 -9.015625 11.859375 -8.359375 C 10.816406 -7.703125 9.613281 -7.375 8.25 -7.375 L 8.25 -22.34375 C 8.25 -22.59375 8.117188 -22.71875 7.859375 -22.71875 C 7.597656 -22.71875 7.46875 -22.59375 7.46875 -22.34375 L 7.46875 0 L 0.421875 0 L 0.421875 -22.34375 C 0.421875 -23.707031 0.757812 -24.953125 1.4375 -26.078125 C 2.113281 -27.203125 3.015625 -28.101562 4.140625 -28.78125 C 5.273438 -29.46875 6.519531 -29.8125 7.875 -29.8125 Z M 7.875 -29.8125 "/></g></g></g><g fill="#ff00ff" fill-opacity="1"><g transform="translate(99.755793, 30.845842)"><g><path d="M 7.796875 -22.390625 C 9.242188 -22.390625 10.515625 -22.054688 11.609375 -21.390625 C 12.703125 -20.722656 13.5625 -19.828125 14.1875 -18.703125 C 14.8125 -17.578125 15.125 -16.316406 15.125 -14.921875 L 15.125 -7.34375 C 15.125 -5.976562 14.8125 -4.734375 14.1875 -3.609375 C 13.5625 -2.484375 12.703125 -1.578125 11.609375 -0.890625 C 10.515625 -0.210938 9.242188 0.125 7.796875 0.125 C 6.347656 0.125 5.066406 -0.210938 3.953125 -0.890625 C 2.847656 -1.578125 1.984375 -2.484375 1.359375 -3.609375 C 0.734375 -4.734375 0.421875 -5.976562 0.421875 -7.34375 L 0.421875 -14.921875 C 0.421875 -16.316406 0.734375 -17.578125 1.359375 -18.703125 C 1.984375 -19.828125 2.847656 -20.722656 3.953125 -21.390625 C 5.066406 -22.054688 6.347656 -22.390625 7.796875 -22.390625 Z M 8.171875 -15.046875 C 8.171875 -15.242188 8.046875 -15.34375 7.796875 -15.34375 C 7.546875 -15.34375 7.421875 -15.242188 7.421875 -15.046875 L 7.421875 -7.25 C 7.421875 -7 7.546875 -6.875 7.796875 -6.875 C 8.046875 -6.875 8.171875 -7 8.171875 -7.25 Z M 8.171875 -15.046875 "/></g></g></g><g fill="#ff00ff" fill-opacity="1"><g transform="translate(117.101135, 30.845842)"><g><path d="M 0.421875 -23.09375 L 0.421875 -29.765625 L 7.46875 -29.765625 L 7.46875 -23.09375 Z M 0.421875 0 L 0.421875 -22.34375 L 7.46875 -22.34375 L 7.46875 0 Z M 0.421875 0 "/></g></g></g><g fill="#ff00ff" fill-opacity="1"><g transform="translate(126.774564, 30.845842)"><g><path d="M 7.84375 -22.390625 C 9.257812 -22.390625 10.515625 -22.054688 11.609375 -21.390625 C 12.703125 -20.722656 13.5625 -19.828125 14.1875 -18.703125 C 14.8125 -17.578125 15.125 -16.316406 15.125 -14.921875 L 15.125 0 L 8.171875 0 L 8.171875 -15.046875 C 8.171875 -15.242188 8.050781 -15.34375 7.8125 -15.34375 C 7.582031 -15.34375 7.46875 -15.242188 7.46875 -15.046875 L 7.46875 0 L 0.421875 0 L 0.421875 -14.921875 C 0.421875 -16.316406 0.734375 -17.578125 1.359375 -18.703125 C 1.984375 -19.828125 2.859375 -20.722656 3.984375 -21.390625 C 5.109375 -22.054688 6.394531 -22.390625 7.84375 -22.390625 Z M 7.84375 -22.390625 "/></g></g></g><g fill="#ff00ff" fill-opacity="1"><g transform="translate(144.119905, 30.845842)"><g><path d="M 7.5 -29.765625 L 7.5 -22.421875 L 15.21875 -22.421875 L 15.21875 -15.46875 L 7.5 -15.46875 L 7.5 -7.34375 C 7.5 -7.113281 7.625 -7 7.875 -7 C 8.125 -7 8.25 -7.113281 8.25 -7.34375 L 8.25 -14.71875 L 15.21875 -14.71875 L 15.21875 -7.421875 C 15.21875 -6.054688 14.890625 -4.8125 14.234375 -3.6875 C 13.578125 -2.5625 12.691406 -1.664062 11.578125 -1 C 10.472656 -0.332031 9.238281 0 7.875 0 C 6.519531 0 5.273438 -0.320312 4.140625 -0.96875 C 3.015625 -1.625 2.113281 -2.507812 1.4375 -3.625 C 0.757812 -4.738281 0.421875 -5.976562 0.421875 -7.34375 L 0.421875 -29.765625 Z M 7.5 -29.765625 "/></g></g></g><g fill="#00ffff" fill-opacity="1"><g transform="translate(1.28109, 30.845842)"><g><path d="M 7.71875 -29.765625 C 9.132812 -29.765625 10.40625 -29.429688 11.53125 -28.765625 C 12.65625 -28.097656 13.539062 -27.203125 14.1875 -26.078125 C 14.84375 -24.953125 15.171875 -23.691406 15.171875 -22.296875 L 15.171875 -18.96875 L 8.09375 -18.96875 L 8.09375 -22.296875 C 8.09375 -22.609375 7.976562 -22.75 7.75 -22.71875 C 7.53125 -22.6875 7.421875 -22.546875 7.421875 -22.296875 L 7.421875 -18.71875 C 7.421875 -18.601562 7.460938 -18.523438 7.546875 -18.484375 C 7.628906 -18.441406 7.6875 -18.421875 7.71875 -18.421875 C 9.132812 -18.421875 10.40625 -18.085938 11.53125 -17.421875 C 12.65625 -16.753906 13.539062 -15.859375 14.1875 -14.734375 C 14.84375 -13.609375 15.171875 -12.351562 15.171875 -10.96875 L 15.171875 -7.421875 C 15.171875 -6.054688 14.84375 -4.8125 14.1875 -3.6875 C 13.539062 -2.5625 12.65625 -1.664062 11.53125 -1 C 10.40625 -0.332031 9.132812 0 7.71875 0 C 6.351562 0 5.113281 -0.320312 4 -0.96875 C 2.882812 -1.625 2 -2.507812 1.34375 -3.625 C 0.695312 -4.738281 0.375 -5.976562 0.375 -7.34375 L 0.375 -10.796875 L 7.421875 -10.796875 L 7.421875 -7.34375 C 7.421875 -7.113281 7.53125 -7 7.75 -7 C 7.976562 -7 8.09375 -7.113281 8.09375 -7.34375 L 8.09375 -10.96875 C 8.09375 -11.21875 7.96875 -11.34375 7.71875 -11.34375 C 6.351562 -11.34375 5.113281 -11.675781 4 -12.34375 C 2.882812 -13.007812 2 -13.910156 1.34375 -15.046875 C 0.695312 -16.191406 0.375 -17.441406 0.375 -18.796875 L 0.375 -22.296875 C 0.375 -23.691406 0.695312 -24.953125 1.34375 -26.078125 C 2 -27.203125 2.882812 -28.097656 4 -28.765625 C 5.113281 -29.429688 6.351562 -29.765625 7.71875 -29.765625 Z M 7.71875 -29.765625 "/></g></g></g><g fill="#00ffff" fill-opacity="1"><g transform="translate(18.626432, 30.845842)"><g><path d="M 2.5 -2.203125 C 1.582031 -3.117188 0.945312 -4.125 0.59375 -5.21875 C 0.25 -6.320312 0.160156 -7.421875 0.328125 -8.515625 C 0.492188 -9.617188 0.882812 -10.628906 1.5 -11.546875 C 2.113281 -12.460938 2.921875 -13.195312 3.921875 -13.75 C 4.921875 -14.3125 6.070312 -14.59375 7.375 -14.59375 L 7.375 -7.34375 C 7.375 -7.34375 7.378906 -7.328125 7.390625 -7.296875 C 7.410156 -7.265625 7.4375 -7.222656 7.46875 -7.171875 C 7.550781 -7.085938 7.644531 -7.046875 7.75 -7.046875 C 7.75 -7.046875 7.769531 -7.050781 7.8125 -7.0625 C 7.851562 -7.082031 7.90625 -7.117188 7.96875 -7.171875 C 8.019531 -7.222656 8.046875 -7.265625 8.046875 -7.296875 C 8.046875 -7.328125 8.046875 -7.34375 8.046875 -7.34375 L 8.046875 -14.96875 C 8.046875 -15.21875 7.945312 -15.34375 7.75 -15.34375 L 0.328125 -15.34375 L 0.328125 -22.421875 L 7.75 -22.421875 C 9.144531 -22.421875 10.390625 -22.085938 11.484375 -21.421875 C 12.578125 -20.753906 13.453125 -19.859375 14.109375 -18.734375 C 14.765625 -17.609375 15.09375 -16.351562 15.09375 -14.96875 L 15.09375 -7.34375 C 15.09375 -6.007812 14.757812 -4.785156 14.09375 -3.671875 C 13.425781 -2.554688 12.535156 -1.664062 11.421875 -1 C 10.304688 -0.332031 9.082031 0 7.75 0 C 6.8125 0 5.878906 -0.1875 4.953125 -0.5625 C 4.035156 -0.9375 3.21875 -1.484375 2.5 -2.203125 Z M 2.5 -2.203125 "/></g></g></g><g fill="#00ffff" fill-opacity="1"><g transform="translate(35.930079, 30.845842)"><g><path d="M 7.84375 0 C 7.644531 0 7.257812 -0.128906 6.6875 -0.390625 C 6.125 -0.660156 5.484375 -1.03125 4.765625 -1.5 C 4.054688 -1.96875 3.367188 -2.519531 2.703125 -3.15625 C 2.035156 -3.800781 1.488281 -4.503906 1.0625 -5.265625 C 0.632812 -6.035156 0.421875 -6.820312 0.421875 -7.625 L 0.421875 -22.421875 L 7.46875 -22.421875 L 7.46875 -7.34375 C 7.46875 -7.113281 7.597656 -7 7.859375 -7 C 8.117188 -7 8.25 -7.113281 8.25 -7.34375 L 8.25 -22.421875 L 15.171875 -22.421875 L 15.171875 -7.625 C 15.171875 -6.820312 14.953125 -6.035156 14.515625 -5.265625 C 14.085938 -4.503906 13.539062 -3.800781 12.875 -3.15625 C 12.207031 -2.519531 11.523438 -1.96875 10.828125 -1.5 C 10.140625 -1.03125 9.515625 -0.660156 8.953125 -0.390625 C 8.398438 -0.128906 8.03125 0 7.84375 0 Z M 7.84375 0 "/></g></g></g><g fill="#00ffff" fill-opacity="1"><g transform="translate(53.317116, 30.845842)"><g><path d="M 13 -20.171875 C 13.914062 -19.285156 14.539062 -18.289062 14.875 -17.1875 C 15.207031 -16.09375 15.296875 -14.992188 15.140625 -13.890625 C 14.992188 -12.796875 14.613281 -11.785156 14 -10.859375 C 13.394531 -9.929688 12.597656 -9.1875 11.609375 -8.625 C 10.617188 -8.070312 9.472656 -7.796875 8.171875 -7.796875 L 8.171875 -15.046875 C 8.171875 -15.265625 8.046875 -15.375 7.796875 -15.375 C 7.546875 -15.375 7.421875 -15.265625 7.421875 -15.046875 L 7.421875 -7.421875 C 7.421875 -7.171875 7.546875 -7.046875 7.796875 -7.046875 L 15.171875 -7.046875 L 15.171875 0 L 7.796875 0 C 5.847656 0 4.082031 -0.722656 2.5 -2.171875 C 1.113281 -3.585938 0.421875 -5.335938 0.421875 -7.421875 L 0.421875 -15.046875 C 0.421875 -16.410156 0.753906 -17.640625 1.421875 -18.734375 C 2.085938 -19.835938 2.984375 -20.710938 4.109375 -21.359375 C 5.234375 -22.015625 6.460938 -22.34375 7.796875 -22.34375 C 8.742188 -22.34375 9.675781 -22.164062 10.59375 -21.8125 C 11.507812 -21.46875 12.3125 -20.921875 13 -20.171875 Z M 13 -20.171875 "/></g></g></g><g fill="#00ffff" fill-opacity="1"><g transform="translate(70.662457, 30.845842)"><g/></g></g><g fill="#00ffff" fill-opacity="1"><g transform="translate(79.710452, 30.845842)"><g><path d="M 7.875 -29.8125 C 9.269531 -29.8125 10.515625 -29.46875 11.609375 -28.78125 C 12.703125 -28.101562 13.578125 -27.203125 14.234375 -26.078125 C 14.890625 -24.953125 15.21875 -23.707031 15.21875 -22.34375 L 15.21875 -14.5 C 15.21875 -13.226562 14.914062 -12.050781 14.3125 -10.96875 C 13.71875 -9.882812 12.898438 -9.015625 11.859375 -8.359375 C 10.816406 -7.703125 9.613281 -7.375 8.25 -7.375 L 8.25 -22.34375 C 8.25 -22.59375 8.117188 -22.71875 7.859375 -22.71875 C 7.597656 -22.71875 7.46875 -22.59375 7.46875 -22.34375 L 7.46875 0 L 0.421875 0 L 0.421875 -22.34375 C 0.421875 -23.707031 0.757812 -24.953125 1.4375 -26.078125 C 2.113281 -27.203125 3.015625 -28.101562 4.140625 -28.78125 C 5.273438 -29.46875 6.519531 -29.8125 7.875 -29.8125 Z M 7.875 -29.8125 "/></g></g></g><g fill="#00ffff" fill-opacity="1"><g transform="translate(97.097489, 30.845842)"><g><path d="M 7.796875 -22.390625 C 9.242188 -22.390625 10.515625 -22.054688 11.609375 -21.390625 C 12.703125 -20.722656 13.5625 -19.828125 14.1875 -18.703125 C 14.8125 -17.578125 15.125 -16.316406 15.125 -14.921875 L 15.125 -7.34375 C 15.125 -5.976562 14.8125 -4.734375 14.1875 -3.609375 C 13.5625 -2.484375 12.703125 -1.578125 11.609375 -0.890625 C 10.515625 -0.210938 9.242188 0.125 7.796875 0.125 C 6.347656 0.125 5.066406 -0.210938 3.953125 -0.890625 C 2.847656 -1.578125 1.984375 -2.484375 1.359375 -3.609375 C 0.734375 -4.734375 0.421875 -5.976562 0.421875 -7.34375 L 0.421875 -14.921875 C 0.421875 -16.316406 0.734375 -17.578125 1.359375 -18.703125 C 1.984375 -19.828125 2.847656 -20.722656 3.953125 -21.390625 C 5.066406 -22.054688 6.347656 -22.390625 7.796875 -22.390625 Z M 8.171875 -15.046875 C 8.171875 -15.242188 8.046875 -15.34375 7.796875 -15.34375 C 7.546875 -15.34375 7.421875 -15.242188 7.421875 -15.046875 L 7.421875 -7.25 C 7.421875 -7 7.546875 -6.875 7.796875 -6.875 C 8.046875 -6.875 8.171875 -7 8.171875 -7.25 Z M 8.171875 -15.046875 "/></g></g></g><g fill="#00ffff" fill-opacity="1"><g transform="translate(114.44283, 30.845842)"><g><path d="M 0.421875 -23.09375 L 0.421875 -29.765625 L 7.46875 -29.765625 L 7.46875 -23.09375 Z M 0.421875 0 L 0.421875 -22.34375 L 7.46875 -22.34375 L 7.46875 0 Z M 0.421875 0 "/></g></g></g><g fill="#00ffff" fill-opacity="1"><g transform="translate(124.116259, 30.845842)"><g><path d="M 7.84375 -22.390625 C 9.257812 -22.390625 10.515625 -22.054688 11.609375 -21.390625 C 12.703125 -20.722656 13.5625 -19.828125 14.1875 -18.703125 C 14.8125 -17.578125 15.125 -16.316406 15.125 -14.921875 L 15.125 0 L 8.171875 0 L 8.171875 -15.046875 C 8.171875 -15.242188 8.050781 -15.34375 7.8125 -15.34375 C 7.582031 -15.34375 7.46875 -15.242188 7.46875 -15.046875 L 7.46875 0 L 0.421875 0 L 0.421875 -14.921875 C 0.421875 -16.316406 0.734375 -17.578125 1.359375 -18.703125 C 1.984375 -19.828125 2.859375 -20.722656 3.984375 -21.390625 C 5.109375 -22.054688 6.394531 -22.390625 7.84375 -22.390625 Z M 7.84375 -22.390625 "/></g></g></g><g fill="#00ffff" fill-opacity="1"><g transform="translate(141.4616, 30.845842)"><g><path d="M 7.5 -29.765625 L 7.5 -22.421875 L 15.21875 -22.421875 L 15.21875 -15.46875 L 7.5 -15.46875 L 7.5 -7.34375 C 7.5 -7.113281 7.625 -7 7.875 -7 C 8.125 -7 8.25 -7.113281 8.25 -7.34375 L 8.25 -14.71875 L 15.21875 -14.71875 L 15.21875 -7.421875 C 15.21875 -6.054688 14.890625 -4.8125 14.234375 -3.6875 C 13.578125 -2.5625 12.691406 -1.664062 11.578125 -1 C 10.472656 -0.332031 9.238281 0 7.875 0 C 6.519531 0 5.273438 -0.320312 4.140625 -0.96875 C 3.015625 -1.625 2.113281 -2.507812 1.4375 -3.625 C 0.757812 -4.738281 0.421875 -5.976562 0.421875 -7.34375 L 0.421875 -29.765625 Z M 7.5 -29.765625 "/></g></g></g><g fill="#24127b" fill-opacity="1"><g transform="translate(2.610243, 30.845842)"><g><path d="M 7.71875 -29.765625 C 9.132812 -29.765625 10.40625 -29.429688 11.53125 -28.765625 C 12.65625 -28.097656 13.539062 -27.203125 14.1875 -26.078125 C 14.84375 -24.953125 15.171875 -23.691406 15.171875 -22.296875 L 15.171875 -18.96875 L 8.09375 -18.96875 L 8.09375 -22.296875 C 8.09375 -22.609375 7.976562 -22.75 7.75 -22.71875 C 7.53125 -22.6875 7.421875 -22.546875 7.421875 -22.296875 L 7.421875 -18.71875 C 7.421875 -18.601562 7.460938 -18.523438 7.546875 -18.484375 C 7.628906 -18.441406 7.6875 -18.421875 7.71875 -18.421875 C 9.132812 -18.421875 10.40625 -18.085938 11.53125 -17.421875 C 12.65625 -16.753906 13.539062 -15.859375 14.1875 -14.734375 C 14.84375 -13.609375 15.171875 -12.351562 15.171875 -10.96875 L 15.171875 -7.421875 C 15.171875 -6.054688 14.84375 -4.8125 14.1875 -3.6875 C 13.539062 -2.5625 12.65625 -1.664062 11.53125 -1 C 10.40625 -0.332031 9.132812 0 7.71875 0 C 6.351562 0 5.113281 -0.320312 4 -0.96875 C 2.882812 -1.625 2 -2.507812 1.34375 -3.625 C 0.695312 -4.738281 0.375 -5.976562 0.375 -7.34375 L 0.375 -10.796875 L 7.421875 -10.796875 L 7.421875 -7.34375 C 7.421875 -7.113281 7.53125 -7 7.75 -7 C 7.976562 -7 8.09375 -7.113281 8.09375 -7.34375 L 8.09375 -10.96875 C 8.09375 -11.21875 7.96875 -11.34375 7.71875 -11.34375 C 6.351562 -11.34375 5.113281 -11.675781 4 -12.34375 C 2.882812 -13.007812 2 -13.910156 1.34375 -15.046875 C 0.695312 -16.191406 0.375 -17.441406 0.375 -18.796875 L 0.375 -22.296875 C 0.375 -23.691406 0.695312 -24.953125 1.34375 -26.078125 C 2 -27.203125 2.882812 -28.097656 4 -28.765625 C 5.113281 -29.429688 6.351562 -29.765625 7.71875 -29.765625 Z M 7.71875 -29.765625 "/></g></g></g><g fill="#24127b" fill-opacity="1"><g transform="translate(19.955584, 30.845842)"><g><path d="M 2.5 -2.203125 C 1.582031 -3.117188 0.945312 -4.125 0.59375 -5.21875 C 0.25 -6.320312 0.160156 -7.421875 0.328125 -8.515625 C 0.492188 -9.617188 0.882812 -10.628906 1.5 -11.546875 C 2.113281 -12.460938 2.921875 -13.195312 3.921875 -13.75 C 4.921875 -14.3125 6.070312 -14.59375 7.375 -14.59375 L 7.375 -7.34375 C 7.375 -7.34375 7.378906 -7.328125 7.390625 -7.296875 C 7.410156 -7.265625 7.4375 -7.222656 7.46875 -7.171875 C 7.550781 -7.085938 7.644531 -7.046875 7.75 -7.046875 C 7.75 -7.046875 7.769531 -7.050781 7.8125 -7.0625 C 7.851562 -7.082031 7.90625 -7.117188 7.96875 -7.171875 C 8.019531 -7.222656 8.046875 -7.265625 8.046875 -7.296875 C 8.046875 -7.328125 8.046875 -7.34375 8.046875 -7.34375 L 8.046875 -14.96875 C 8.046875 -15.21875 7.945312 -15.34375 7.75 -15.34375 L 0.328125 -15.34375 L 0.328125 -22.421875 L 7.75 -22.421875 C 9.144531 -22.421875 10.390625 -22.085938 11.484375 -21.421875 C 12.578125 -20.753906 13.453125 -19.859375 14.109375 -18.734375 C 14.765625 -17.609375 15.09375 -16.351562 15.09375 -14.96875 L 15.09375 -7.34375 C 15.09375 -6.007812 14.757812 -4.785156 14.09375 -3.671875 C 13.425781 -2.554688 12.535156 -1.664062 11.421875 -1 C 10.304688 -0.332031 9.082031 0 7.75 0 C 6.8125 0 5.878906 -0.1875 4.953125 -0.5625 C 4.035156 -0.9375 3.21875 -1.484375 2.5 -2.203125 Z M 2.5 -2.203125 "/></g></g></g><g fill="#24127b" fill-opacity="1"><g transform="translate(37.259232, 30.845842)"><g><path d="M 7.84375 0 C 7.644531 0 7.257812 -0.128906 6.6875 -0.390625 C 6.125 -0.660156 5.484375 -1.03125 4.765625 -1.5 C 4.054688 -1.96875 3.367188 -2.519531 2.703125 -3.15625 C 2.035156 -3.800781 1.488281 -4.503906 1.0625 -5.265625 C 0.632812 -6.035156 0.421875 -6.820312 0.421875 -7.625 L 0.421875 -22.421875 L 7.46875 -22.421875 L 7.46875 -7.34375 C 7.46875 -7.113281 7.597656 -7 7.859375 -7 C 8.117188 -7 8.25 -7.113281 8.25 -7.34375 L 8.25 -22.421875 L 15.171875 -22.421875 L 15.171875 -7.625 C 15.171875 -6.820312 14.953125 -6.035156 14.515625 -5.265625 C 14.085938 -4.503906 13.539062 -3.800781 12.875 -3.15625 C 12.207031 -2.519531 11.523438 -1.96875 10.828125 -1.5 C 10.140625 -1.03125 9.515625 -0.660156 8.953125 -0.390625 C 8.398438 -0.128906 8.03125 0 7.84375 0 Z M 7.84375 0 "/></g></g></g><g fill="#24127b" fill-opacity="1"><g transform="translate(54.646268, 30.845842)"><g><path d="M 13 -20.171875 C 13.914062 -19.285156 14.539062 -18.289062 14.875 -17.1875 C 15.207031 -16.09375 15.296875 -14.992188 15.140625 -13.890625 C 14.992188 -12.796875 14.613281 -11.785156 14 -10.859375 C 13.394531 -9.929688 12.597656 -9.1875 11.609375 -8.625 C 10.617188 -8.070312 9.472656 -7.796875 8.171875 -7.796875 L 8.171875 -15.046875 C 8.171875 -15.265625 8.046875 -15.375 7.796875 -15.375 C 7.546875 -15.375 7.421875 -15.265625 7.421875 -15.046875 L 7.421875 -7.421875 C 7.421875 -7.171875 7.546875 -7.046875 7.796875 -7.046875 L 15.171875 -7.046875 L 15.171875 0 L 7.796875 0 C 5.847656 0 4.082031 -0.722656 2.5 -2.171875 C 1.113281 -3.585938 0.421875 -5.335938 0.421875 -7.421875 L 0.421875 -15.046875 C 0.421875 -16.410156 0.753906 -17.640625 1.421875 -18.734375 C 2.085938 -19.835938 2.984375 -20.710938 4.109375 -21.359375 C 5.234375 -22.015625 6.460938 -22.34375 7.796875 -22.34375 C 8.742188 -22.34375 9.675781 -22.164062 10.59375 -21.8125 C 11.507812 -21.46875 12.3125 -20.921875 13 -20.171875 Z M 13 -20.171875 "/></g></g></g><g fill="#24127b" fill-opacity="1"><g transform="translate(71.99161, 30.845842)"><g/></g></g><g fill="#24127b" fill-opacity="1"><g transform="translate(81.039604, 30.845842)"><g><path d="M 7.875 -29.8125 C 9.269531 -29.8125 10.515625 -29.46875 11.609375 -28.78125 C 12.703125 -28.101562 13.578125 -27.203125 14.234375 -26.078125 C 14.890625 -24.953125 15.21875 -23.707031 15.21875 -22.34375 L 15.21875 -14.5 C 15.21875 -13.226562 14.914062 -12.050781 14.3125 -10.96875 C 13.71875 -9.882812 12.898438 -9.015625 11.859375 -8.359375 C 10.816406 -7.703125 9.613281 -7.375 8.25 -7.375 L 8.25 -22.34375 C 8.25 -22.59375 8.117188 -22.71875 7.859375 -22.71875 C 7.597656 -22.71875 7.46875 -22.59375 7.46875 -22.34375 L 7.46875 0 L 0.421875 0 L 0.421875 -22.34375 C 0.421875 -23.707031 0.757812 -24.953125 1.4375 -26.078125 C 2.113281 -27.203125 3.015625 -28.101562 4.140625 -28.78125 C 5.273438 -29.46875 6.519531 -29.8125 7.875 -29.8125 Z M 7.875 -29.8125 "/></g></g></g><g fill="#24127b" fill-opacity="1"><g transform="translate(98.426641, 30.845842)"><g><path d="M 7.796875 -22.390625 C 9.242188 -22.390625 10.515625 -22.054688 11.609375 -21.390625 C 12.703125 -20.722656 13.5625 -19.828125 14.1875 -18.703125 C 14.8125 -17.578125 15.125 -16.316406 15.125 -14.921875 L 15.125 -7.34375 C 15.125 -5.976562 14.8125 -4.734375 14.1875 -3.609375 C 13.5625 -2.484375 12.703125 -1.578125 11.609375 -0.890625 C 10.515625 -0.210938 9.242188 0.125 7.796875 0.125 C 6.347656 0.125 5.066406 -0.210938 3.953125 -0.890625 C 2.847656 -1.578125 1.984375 -2.484375 1.359375 -3.609375 C 0.734375 -4.734375 0.421875 -5.976562 0.421875 -7.34375 L 0.421875 -14.921875 C 0.421875 -16.316406 0.734375 -17.578125 1.359375 -18.703125 C 1.984375 -19.828125 2.847656 -20.722656 3.953125 -21.390625 C 5.066406 -22.054688 6.347656 -22.390625 7.796875 -22.390625 Z M 8.171875 -15.046875 C 8.171875 -15.242188 8.046875 -15.34375 7.796875 -15.34375 C 7.546875 -15.34375 7.421875 -15.242188 7.421875 -15.046875 L 7.421875 -7.25 C 7.421875 -7 7.546875 -6.875 7.796875 -6.875 C 8.046875 -6.875 8.171875 -7 8.171875 -7.25 Z M 8.171875 -15.046875 "/></g></g></g><g fill="#24127b" fill-opacity="1"><g transform="translate(115.771983, 30.845842)"><g><path d="M 0.421875 -23.09375 L 0.421875 -29.765625 L 7.46875 -29.765625 L 7.46875 -23.09375 Z M 0.421875 0 L 0.421875 -22.34375 L 7.46875 -22.34375 L 7.46875 0 Z M 0.421875 0 "/></g></g></g><g fill="#24127b" fill-opacity="1"><g transform="translate(125.445411, 30.845842)"><g><path d="M 7.84375 -22.390625 C 9.257812 -22.390625 10.515625 -22.054688 11.609375 -21.390625 C 12.703125 -20.722656 13.5625 -19.828125 14.1875 -18.703125 C 14.8125 -17.578125 15.125 -16.316406 15.125 -14.921875 L 15.125 0 L 8.171875 0 L 8.171875 -15.046875 C 8.171875 -15.242188 8.050781 -15.34375 7.8125 -15.34375 C 7.582031 -15.34375 7.46875 -15.242188 7.46875 -15.046875 L 7.46875 0 L 0.421875 0 L 0.421875 -14.921875 C 0.421875 -16.316406 0.734375 -17.578125 1.359375 -18.703125 C 1.984375 -19.828125 2.859375 -20.722656 3.984375 -21.390625 C 5.109375 -22.054688 6.394531 -22.390625 7.84375 -22.390625 Z M 7.84375 -22.390625 "/></g></g></g><g fill="#24127b" fill-opacity="1"><g transform="translate(142.790753, 30.845842)"><g><path d="M 7.5 -29.765625 L 7.5 -22.421875 L 15.21875 -22.421875 L 15.21875 -15.46875 L 7.5 -15.46875 L 7.5 -7.34375 C 7.5 -7.113281 7.625 -7 7.875 -7 C 8.125 -7 8.25 -7.113281 8.25 -7.34375 L 8.25 -14.71875 L 15.21875 -14.71875 L 15.21875 -7.421875 C 15.21875 -6.054688 14.890625 -4.8125 14.234375 -3.6875 C 13.578125 -2.5625 12.691406 -1.664062 11.578125 -1 C 10.472656 -0.332031 9.238281 0 7.875 0 C 6.519531 0 5.273438 -0.320312 4.140625 -0.96875 C 3.015625 -1.625 2.113281 -2.507812 1.4375 -3.625 C 0.757812 -4.738281 0.421875 -5.976562 0.421875 -7.34375 L 0.421875 -29.765625 Z M 7.5 -29.765625 "/></g></g></g></g></g></g></g></g></g></g></svg>