<svg xmlns="http://www.w3.org/2000/svg" xmlns:xlink="http://www.w3.org/1999/xlink" width="250" zoomAndPan="magnify" viewBox="0 0 187.5 37.5" height="50" preserveAspectRatio="xMidYMid meet" version="1.0"><defs><g/></defs><g fill="#24127b" fill-opacity="0.4"><g transform="translate(3.510166, 30.168496)"><g><path d="M 18.875 -16.4375 C 18.875 -15.664062 18.695312 -14.96875 18.34375 -14.34375 C 17.988281 -13.71875 17.460938 -13.226562 16.765625 -12.875 C 16.273438 -13.15625 15.742188 -13.375 15.171875 -13.53125 C 14.609375 -13.6875 14.03125 -13.785156 13.4375 -13.828125 C 13.320312 -13.828125 13.25 -13.769531 13.21875 -13.65625 C 13.1875 -13.550781 13.226562 -13.476562 13.34375 -13.4375 C 14.675781 -13.144531 15.765625 -12.609375 16.609375 -11.828125 C 17.453125 -11.054688 18.050781 -10.164062 18.40625 -9.15625 C 18.757812 -8.144531 18.878906 -7.101562 18.765625 -6.03125 C 18.660156 -4.96875 18.304688 -3.976562 17.703125 -3.0625 C 17.097656 -2.144531 16.25 -1.40625 15.15625 -0.84375 C 14.070312 -0.28125 12.75 0 11.1875 0 L 4.671875 0 C 3.816406 0 3.03125 -0.242188 2.3125 -0.734375 C 1.601562 -1.234375 1.03125 -1.847656 0.59375 -2.578125 C 0.15625 -3.316406 -0.0625 -4.035156 -0.0625 -4.734375 C -0.0625 -5.546875 0.0820312 -6.253906 0.375 -6.859375 C 0.675781 -7.460938 1.15625 -8 1.8125 -8.46875 C 2.382812 -8.09375 3.035156 -7.804688 3.765625 -7.609375 C 4.503906 -7.410156 5.222656 -7.3125 5.921875 -7.3125 C 6.035156 -7.3125 6.101562 -7.363281 6.125 -7.46875 C 6.144531 -7.582031 6.097656 -7.660156 5.984375 -7.703125 C 5.566406 -7.742188 5.148438 -7.832031 4.734375 -7.96875 C 4.316406 -8.101562 3.910156 -8.269531 3.515625 -8.46875 C 2.535156 -8.988281 1.757812 -9.65625 1.1875 -10.46875 C 0.613281 -11.28125 0.242188 -12.160156 0.078125 -13.109375 C -0.0859375 -14.066406 -0.0625 -15.015625 0.15625 -15.953125 C 0.382812 -16.890625 0.8125 -17.742188 1.4375 -18.515625 C 2.0625 -19.296875 2.890625 -19.921875 3.921875 -20.390625 C 4.953125 -20.867188 6.179688 -21.109375 7.609375 -21.109375 L 14.0625 -21.109375 C 14.957031 -21.109375 15.765625 -20.898438 16.484375 -20.484375 C 17.210938 -20.066406 17.789062 -19.503906 18.21875 -18.796875 C 18.65625 -18.097656 18.875 -17.3125 18.875 -16.4375 Z M 18.875 -16.4375 "/></g></g></g><g fill="#24127b" fill-opacity="0.4"><g transform="translate(23.282258, 30.168496)"><g><path d="M 13 -6.484375 L 7.765625 -1.375 C 7.304688 -0.914062 6.785156 -0.570312 6.203125 -0.34375 C 5.617188 -0.113281 5.03125 0 4.4375 0 C 3.820312 0 3.21875 -0.113281 2.625 -0.34375 C 2.039062 -0.570312 1.523438 -0.914062 1.078125 -1.375 C 0.160156 -2.320312 -0.296875 -3.410156 -0.296875 -4.640625 C -0.296875 -5.890625 0.160156 -6.988281 1.078125 -7.9375 L 12.453125 -19.46875 C 12.910156 -20.007812 13.453125 -20.414062 14.078125 -20.6875 C 14.703125 -20.96875 15.351562 -21.109375 16.03125 -21.109375 C 16.425781 -21.109375 16.828125 -21.050781 17.234375 -20.9375 C 17.640625 -20.832031 18.019531 -20.671875 18.375 -20.453125 C 19.101562 -20.078125 19.679688 -19.523438 20.109375 -18.796875 C 20.535156 -18.078125 20.75 -17.273438 20.75 -16.390625 L 20.75 -4.671875 C 20.75 -3.816406 20.519531 -3.03125 20.0625 -2.3125 C 19.613281 -1.601562 19.03125 -1.039062 18.3125 -0.625 C 17.601562 -0.207031 16.851562 0 16.0625 0 C 14.851562 0 13.847656 -0.332031 13.046875 -1 C 12.253906 -1.664062 11.734375 -2.492188 11.484375 -3.484375 L 13.296875 -6.25 C 13.328125 -6.363281 13.300781 -6.453125 13.21875 -6.515625 C 13.144531 -6.585938 13.070312 -6.578125 13 -6.484375 Z M 13 -6.484375 "/></g></g></g><g fill="#24127b" fill-opacity="0.4"><g transform="translate(44.927492, 30.168496)"><g><path d="M 7.796875 -14.59375 L 12.96875 -19.71875 C 13.894531 -20.644531 14.992188 -21.109375 16.265625 -21.109375 C 17.140625 -21.109375 17.9375 -20.894531 18.65625 -20.46875 C 19.382812 -20.039062 19.957031 -19.472656 20.375 -18.765625 C 20.800781 -18.066406 21.015625 -17.28125 21.015625 -16.40625 C 21.015625 -15.789062 20.894531 -15.191406 20.65625 -14.609375 C 20.425781 -14.023438 20.082031 -13.503906 19.625 -13.046875 L 8.265625 -1.671875 C 7.765625 -1.171875 7.210938 -0.765625 6.609375 -0.453125 C 6.003906 -0.148438 5.359375 0 4.671875 0 C 3.878906 0 3.128906 -0.191406 2.421875 -0.578125 C 1.722656 -0.960938 1.144531 -1.507812 0.6875 -2.21875 C 0.226562 -2.9375 0 -3.78125 0 -4.75 L 0 -16.40625 C 0 -17.28125 0.226562 -18.070312 0.6875 -18.78125 C 1.144531 -19.5 1.726562 -20.066406 2.4375 -20.484375 C 3.15625 -20.898438 3.910156 -21.109375 4.703125 -21.109375 C 5.929688 -21.109375 6.9375 -20.796875 7.71875 -20.171875 C 8.5 -19.546875 9.03125 -18.71875 9.3125 -17.6875 L 7.515625 -14.859375 C 7.441406 -14.722656 7.445312 -14.625 7.53125 -14.5625 C 7.625 -14.507812 7.710938 -14.519531 7.796875 -14.59375 Z M 7.796875 -14.59375 "/></g></g></g><g fill="#24127b" fill-opacity="0.4"><g transform="translate(66.513254, 30.168496)"><g><path d="M 0 -16.328125 C 0 -17.210938 0.203125 -18.015625 0.609375 -18.734375 C 1.015625 -19.460938 1.578125 -20.039062 2.296875 -20.46875 C 3.023438 -20.894531 3.851562 -21.109375 4.78125 -21.109375 L 12.546875 -21.109375 C 13.484375 -21.109375 14.296875 -20.878906 14.984375 -20.421875 C 15.679688 -19.972656 16.222656 -19.382812 16.609375 -18.65625 C 16.992188 -17.9375 17.1875 -17.171875 17.1875 -16.359375 C 17.1875 -15.523438 16.988281 -14.757812 16.59375 -14.0625 C 16.195312 -13.375 15.632812 -12.820312 14.90625 -12.40625 C 14.1875 -11.988281 13.320312 -11.757812 12.3125 -11.71875 C 12.207031 -11.71875 12.15625 -11.660156 12.15625 -11.546875 C 12.15625 -11.441406 12.207031 -11.367188 12.3125 -11.328125 C 13.125 -11.234375 13.914062 -11.285156 14.6875 -11.484375 C 15.457031 -11.691406 16.140625 -12.101562 16.734375 -12.71875 C 17.035156 -12.070312 17.1875 -11.378906 17.1875 -10.640625 C 17.1875 -9.253906 16.765625 -8.15625 15.921875 -7.34375 C 15.078125 -6.53125 13.972656 -6.046875 12.609375 -5.890625 C 12.503906 -5.890625 12.453125 -5.828125 12.453125 -5.703125 C 12.453125 -5.585938 12.503906 -5.53125 12.609375 -5.53125 C 13.378906 -5.445312 14.128906 -5.503906 14.859375 -5.703125 C 15.597656 -5.898438 16.242188 -6.328125 16.796875 -6.984375 C 16.953125 -6.722656 17.066406 -6.4375 17.140625 -6.125 C 17.210938 -5.8125 17.25 -5.335938 17.25 -4.703125 C 17.25 -4.242188 17.15625 -3.738281 16.96875 -3.1875 C 16.789062 -2.644531 16.507812 -2.128906 16.125 -1.640625 C 15.738281 -1.160156 15.253906 -0.765625 14.671875 -0.453125 C 14.085938 -0.148438 13.378906 0 12.546875 0 L 4.734375 0 C 3.859375 0 3.054688 -0.210938 2.328125 -0.640625 C 1.609375 -1.066406 1.039062 -1.632812 0.625 -2.34375 C 0.207031 -3.0625 0 -3.847656 0 -4.703125 Z M 0 -16.328125 "/></g></g></g><g fill="#24127b" fill-opacity="0.4"><g transform="translate(84.531125, 30.168496)"><g/></g></g><g fill="#24127b" fill-opacity="0.4"><g transform="translate(92.233436, 30.168496)"><g/></g></g><g fill="#24127b" fill-opacity="0.4"><g transform="translate(92.233436, 30.168496)"><g><path d="M 4.9375 0.296875 C 4.019531 0.296875 3.1875 0.078125 2.4375 -0.359375 C 1.6875 -0.796875 1.09375 -1.378906 0.65625 -2.109375 C 0.21875 -2.847656 0 -3.660156 0 -4.546875 L 0 -16.296875 C 0 -17.179688 0.21875 -17.984375 0.65625 -18.703125 C 1.09375 -19.429688 1.6875 -20.015625 2.4375 -20.453125 C 3.1875 -20.890625 4.019531 -21.109375 4.9375 -21.109375 L 10.796875 -21.109375 C 11.984375 -21.109375 13.085938 -20.890625 14.109375 -20.453125 C 15.128906 -20.015625 16.019531 -19.410156 16.78125 -18.640625 C 17.550781 -17.867188 18.148438 -16.96875 18.578125 -15.9375 C 19.015625 -14.90625 19.234375 -13.804688 19.234375 -12.640625 C 19.234375 -11.453125 19.003906 -10.34375 18.546875 -9.3125 C 18.097656 -8.28125 17.472656 -7.367188 16.671875 -6.578125 C 15.878906 -5.796875 14.957031 -5.191406 13.90625 -4.765625 C 12.863281 -4.347656 11.75 -4.15625 10.5625 -4.1875 L 10.015625 -7.109375 C 9.984375 -7.222656 9.925781 -7.269531 9.84375 -7.25 C 9.757812 -7.226562 9.71875 -7.160156 9.71875 -7.046875 L 9.71875 -4.546875 C 9.71875 -3.671875 9.5 -2.867188 9.0625 -2.140625 C 8.632812 -1.410156 8.054688 -0.820312 7.328125 -0.375 C 6.609375 0.0703125 5.8125 0.296875 4.9375 0.296875 Z M 10.171875 -13.734375 C 10.085938 -13.734375 10.007812 -13.734375 9.9375 -13.734375 C 9.875 -13.734375 9.800781 -13.710938 9.71875 -13.671875 L 9.71875 -11.625 C 9.882812 -11.53125 10.035156 -11.484375 10.171875 -11.484375 C 10.484375 -11.484375 10.753906 -11.59375 10.984375 -11.8125 C 11.210938 -12.039062 11.328125 -12.316406 11.328125 -12.640625 C 11.328125 -12.953125 11.210938 -13.210938 10.984375 -13.421875 C 10.753906 -13.628906 10.484375 -13.734375 10.171875 -13.734375 Z M 10.171875 -13.734375 "/></g></g></g><g fill="#24127b" fill-opacity="0.4"><g transform="translate(112.005528, 30.168496)"><g><path d="M 10.796875 -21.109375 C 12.285156 -21.109375 13.6875 -20.832031 15 -20.28125 C 16.320312 -19.726562 17.476562 -18.957031 18.46875 -17.96875 C 19.457031 -16.988281 20.234375 -15.847656 20.796875 -14.546875 C 21.359375 -13.253906 21.640625 -11.863281 21.640625 -10.375 C 21.640625 -8.882812 21.359375 -7.488281 20.796875 -6.1875 C 20.234375 -4.894531 19.457031 -3.765625 18.46875 -2.796875 C 17.476562 -1.828125 16.320312 -1.066406 15 -0.515625 C 13.6875 0.0234375 12.285156 0.296875 10.796875 0.296875 C 9.328125 0.296875 7.9375 0.0234375 6.625 -0.515625 C 5.320312 -1.066406 4.171875 -1.828125 3.171875 -2.796875 C 2.179688 -3.765625 1.40625 -4.894531 0.84375 -6.1875 C 0.28125 -7.488281 0 -8.882812 0 -10.375 C 0 -11.863281 0.28125 -13.253906 0.84375 -14.546875 C 1.40625 -15.847656 2.179688 -16.988281 3.171875 -17.96875 C 4.171875 -18.957031 5.320312 -19.726562 6.625 -20.28125 C 7.9375 -20.832031 9.328125 -21.109375 10.796875 -21.109375 Z M 10.796875 -11.6875 C 10.492188 -11.6875 10.222656 -11.578125 9.984375 -11.359375 C 9.753906 -11.140625 9.640625 -10.84375 9.640625 -10.46875 C 9.640625 -10.132812 9.753906 -9.84375 9.984375 -9.59375 C 10.222656 -9.34375 10.492188 -9.21875 10.796875 -9.21875 C 11.128906 -9.21875 11.421875 -9.34375 11.671875 -9.59375 C 11.921875 -9.84375 12.046875 -10.132812 12.046875 -10.46875 C 12.046875 -10.84375 11.921875 -11.140625 11.671875 -11.359375 C 11.421875 -11.578125 11.128906 -11.6875 10.796875 -11.6875 Z M 10.796875 -11.6875 "/></g></g></g><g fill="#24127b" fill-opacity="0.4"><g transform="translate(134.453538, 30.168496)"><g><path d="M 4.703125 0 C 3.828125 0 3.03125 -0.21875 2.3125 -0.65625 C 1.601562 -1.09375 1.039062 -1.671875 0.625 -2.390625 C 0.207031 -3.117188 0 -3.90625 0 -4.75 L 0 -16.4375 C 0 -17.3125 0.207031 -18.097656 0.625 -18.796875 C 1.039062 -19.503906 1.601562 -20.066406 2.3125 -20.484375 C 3.03125 -20.898438 3.828125 -21.109375 4.703125 -21.109375 C 5.609375 -21.109375 6.414062 -20.898438 7.125 -20.484375 C 7.84375 -20.066406 8.414062 -19.503906 8.84375 -18.796875 C 9.269531 -18.097656 9.484375 -17.3125 9.484375 -16.4375 L 9.484375 -4.75 C 9.484375 -3.90625 9.269531 -3.117188 8.84375 -2.390625 C 8.414062 -1.671875 7.84375 -1.09375 7.125 -0.65625 C 6.414062 -0.21875 5.609375 0 4.703125 0 Z M 4.703125 0 "/></g></g></g><g fill="#24127b" fill-opacity="0.4"><g transform="translate(144.889635, 30.168496)"><g><path d="M 21.109375 -4.375 C 21.109375 -3.363281 20.890625 -2.507812 20.453125 -1.8125 C 20.015625 -1.113281 19.4375 -0.585938 18.71875 -0.234375 C 18.007812 0.117188 17.238281 0.296875 16.40625 0.296875 C 15.789062 0.296875 15.191406 0.179688 14.609375 -0.046875 C 14.023438 -0.273438 13.503906 -0.617188 13.046875 -1.078125 L 7.9375 -6.21875 C 7.894531 -6.3125 7.828125 -6.304688 7.734375 -6.203125 C 7.648438 -6.109375 7.628906 -6.015625 7.671875 -5.921875 L 9.359375 -3.296875 C 9.148438 -2.265625 8.609375 -1.40625 7.734375 -0.71875 C 6.859375 -0.0390625 5.863281 0.296875 4.75 0.296875 C 3.882812 0.296875 3.085938 0.0820312 2.359375 -0.34375 C 1.640625 -0.769531 1.066406 -1.335938 0.640625 -2.046875 C 0.210938 -2.765625 0 -3.566406 0 -4.453125 L 0 -16.359375 C 0 -17.222656 0.210938 -18.007812 0.640625 -18.71875 C 1.066406 -19.4375 1.640625 -20.015625 2.359375 -20.453125 C 3.085938 -20.890625 3.882812 -21.109375 4.75 -21.109375 C 5.46875 -21.109375 6.144531 -20.941406 6.78125 -20.609375 C 7.414062 -20.285156 7.953125 -19.898438 8.390625 -19.453125 L 13.234375 -14.6875 C 13.273438 -14.601562 13.335938 -14.59375 13.421875 -14.65625 C 13.515625 -14.71875 13.539062 -14.785156 13.5 -14.859375 L 11.75 -17.421875 C 11.90625 -18.097656 12.203125 -18.710938 12.640625 -19.265625 C 13.078125 -19.816406 13.613281 -20.257812 14.25 -20.59375 C 14.894531 -20.9375 15.585938 -21.109375 16.328125 -21.109375 C 17.378906 -21.109375 18.253906 -20.890625 18.953125 -20.453125 C 19.660156 -20.015625 20.195312 -19.4375 20.5625 -18.71875 C 20.925781 -18.007812 21.109375 -17.222656 21.109375 -16.359375 Z M 21.109375 -4.375 "/></g></g></g><g fill="#24127b" fill-opacity="0.4"><g transform="translate(166.891653, 30.168496)"><g><path d="M 13.96875 -21.109375 C 14.863281 -21.109375 15.671875 -20.890625 16.390625 -20.453125 C 17.117188 -20.015625 17.695312 -19.429688 18.125 -18.703125 C 18.550781 -17.984375 18.765625 -17.191406 18.765625 -16.328125 C 18.765625 -15.472656 18.554688 -14.691406 18.140625 -13.984375 C 17.722656 -13.285156 17.160156 -12.71875 16.453125 -12.28125 C 15.753906 -11.84375 14.957031 -11.625 14.0625 -11.625 L 14.09375 -4.484375 C 14.09375 -3.617188 13.875 -2.816406 13.4375 -2.078125 C 13 -1.347656 12.414062 -0.765625 11.6875 -0.328125 C 10.96875 0.109375 10.175781 0.328125 9.3125 0.328125 C 8.457031 0.328125 7.671875 0.109375 6.953125 -0.328125 C 6.242188 -0.765625 5.675781 -1.347656 5.25 -2.078125 C 4.820312 -2.816406 4.609375 -3.617188 4.609375 -4.484375 L 4.609375 -11.625 C 3.734375 -11.625 2.9375 -11.84375 2.21875 -12.28125 C 1.507812 -12.71875 0.945312 -13.285156 0.53125 -13.984375 C 0.113281 -14.691406 -0.09375 -15.472656 -0.09375 -16.328125 C -0.09375 -17.191406 0.113281 -17.984375 0.53125 -18.703125 C 0.945312 -19.429688 1.507812 -20.015625 2.21875 -20.453125 C 2.9375 -20.890625 3.734375 -21.109375 4.609375 -21.109375 Z M 13.96875 -21.109375 "/></g></g></g><g fill="#24127b" fill-opacity="1"><g transform="translate(2.195722, 28.854051)"><g><path d="M 18.875 -16.4375 C 18.875 -15.664062 18.695312 -14.96875 18.34375 -14.34375 C 17.988281 -13.71875 17.460938 -13.226562 16.765625 -12.875 C 16.273438 -13.15625 15.742188 -13.375 15.171875 -13.53125 C 14.609375 -13.6875 14.03125 -13.785156 13.4375 -13.828125 C 13.320312 -13.828125 13.25 -13.769531 13.21875 -13.65625 C 13.1875 -13.550781 13.226562 -13.476562 13.34375 -13.4375 C 14.675781 -13.144531 15.765625 -12.609375 16.609375 -11.828125 C 17.453125 -11.054688 18.050781 -10.164062 18.40625 -9.15625 C 18.757812 -8.144531 18.878906 -7.101562 18.765625 -6.03125 C 18.660156 -4.96875 18.304688 -3.976562 17.703125 -3.0625 C 17.097656 -2.144531 16.25 -1.40625 15.15625 -0.84375 C 14.070312 -0.28125 12.75 0 11.1875 0 L 4.671875 0 C 3.816406 0 3.03125 -0.242188 2.3125 -0.734375 C 1.601562 -1.234375 1.03125 -1.847656 0.59375 -2.578125 C 0.15625 -3.316406 -0.0625 -4.035156 -0.0625 -4.734375 C -0.0625 -5.546875 0.0820312 -6.253906 0.375 -6.859375 C 0.675781 -7.460938 1.15625 -8 1.8125 -8.46875 C 2.382812 -8.09375 3.035156 -7.804688 3.765625 -7.609375 C 4.503906 -7.410156 5.222656 -7.3125 5.921875 -7.3125 C 6.035156 -7.3125 6.101562 -7.363281 6.125 -7.46875 C 6.144531 -7.582031 6.097656 -7.660156 5.984375 -7.703125 C 5.566406 -7.742188 5.148438 -7.832031 4.734375 -7.96875 C 4.316406 -8.101562 3.910156 -8.269531 3.515625 -8.46875 C 2.535156 -8.988281 1.757812 -9.65625 1.1875 -10.46875 C 0.613281 -11.28125 0.242188 -12.160156 0.078125 -13.109375 C -0.0859375 -14.066406 -0.0625 -15.015625 0.15625 -15.953125 C 0.382812 -16.890625 0.8125 -17.742188 1.4375 -18.515625 C 2.0625 -19.296875 2.890625 -19.921875 3.921875 -20.390625 C 4.953125 -20.867188 6.179688 -21.109375 7.609375 -21.109375 L 14.0625 -21.109375 C 14.957031 -21.109375 15.765625 -20.898438 16.484375 -20.484375 C 17.210938 -20.066406 17.789062 -19.503906 18.21875 -18.796875 C 18.65625 -18.097656 18.875 -17.3125 18.875 -16.4375 Z M 18.875 -16.4375 "/></g></g></g><g fill="#24127b" fill-opacity="1"><g transform="translate(21.967814, 28.854051)"><g><path d="M 13 -6.484375 L 7.765625 -1.375 C 7.304688 -0.914062 6.785156 -0.570312 6.203125 -0.34375 C 5.617188 -0.113281 5.03125 0 4.4375 0 C 3.820312 0 3.21875 -0.113281 2.625 -0.34375 C 2.039062 -0.570312 1.523438 -0.914062 1.078125 -1.375 C 0.160156 -2.320312 -0.296875 -3.410156 -0.296875 -4.640625 C -0.296875 -5.890625 0.160156 -6.988281 1.078125 -7.9375 L 12.453125 -19.46875 C 12.910156 -20.007812 13.453125 -20.414062 14.078125 -20.6875 C 14.703125 -20.96875 15.351562 -21.109375 16.03125 -21.109375 C 16.425781 -21.109375 16.828125 -21.050781 17.234375 -20.9375 C 17.640625 -20.832031 18.019531 -20.671875 18.375 -20.453125 C 19.101562 -20.078125 19.679688 -19.523438 20.109375 -18.796875 C 20.535156 -18.078125 20.75 -17.273438 20.75 -16.390625 L 20.75 -4.671875 C 20.75 -3.816406 20.519531 -3.03125 20.0625 -2.3125 C 19.613281 -1.601562 19.03125 -1.039062 18.3125 -0.625 C 17.601562 -0.207031 16.851562 0 16.0625 0 C 14.851562 0 13.847656 -0.332031 13.046875 -1 C 12.253906 -1.664062 11.734375 -2.492188 11.484375 -3.484375 L 13.296875 -6.25 C 13.328125 -6.363281 13.300781 -6.453125 13.21875 -6.515625 C 13.144531 -6.585938 13.070312 -6.578125 13 -6.484375 Z M 13 -6.484375 "/></g></g></g><g fill="#24127b" fill-opacity="1"><g transform="translate(43.613048, 28.854051)"><g><path d="M 7.796875 -14.59375 L 12.96875 -19.71875 C 13.894531 -20.644531 14.992188 -21.109375 16.265625 -21.109375 C 17.140625 -21.109375 17.9375 -20.894531 18.65625 -20.46875 C 19.382812 -20.039062 19.957031 -19.472656 20.375 -18.765625 C 20.800781 -18.066406 21.015625 -17.28125 21.015625 -16.40625 C 21.015625 -15.789062 20.894531 -15.191406 20.65625 -14.609375 C 20.425781 -14.023438 20.082031 -13.503906 19.625 -13.046875 L 8.265625 -1.671875 C 7.765625 -1.171875 7.210938 -0.765625 6.609375 -0.453125 C 6.003906 -0.148438 5.359375 0 4.671875 0 C 3.878906 0 3.128906 -0.191406 2.421875 -0.578125 C 1.722656 -0.960938 1.144531 -1.507812 0.6875 -2.21875 C 0.226562 -2.9375 0 -3.78125 0 -4.75 L 0 -16.40625 C 0 -17.28125 0.226562 -18.070312 0.6875 -18.78125 C 1.144531 -19.5 1.726562 -20.066406 2.4375 -20.484375 C 3.15625 -20.898438 3.910156 -21.109375 4.703125 -21.109375 C 5.929688 -21.109375 6.9375 -20.796875 7.71875 -20.171875 C 8.5 -19.546875 9.03125 -18.71875 9.3125 -17.6875 L 7.515625 -14.859375 C 7.441406 -14.722656 7.445312 -14.625 7.53125 -14.5625 C 7.625 -14.507812 7.710938 -14.519531 7.796875 -14.59375 Z M 7.796875 -14.59375 "/></g></g></g><g fill="#24127b" fill-opacity="1"><g transform="translate(65.198809, 28.854051)"><g><path d="M 0 -16.328125 C 0 -17.210938 0.203125 -18.015625 0.609375 -18.734375 C 1.015625 -19.460938 1.578125 -20.039062 2.296875 -20.46875 C 3.023438 -20.894531 3.851562 -21.109375 4.78125 -21.109375 L 12.546875 -21.109375 C 13.484375 -21.109375 14.296875 -20.878906 14.984375 -20.421875 C 15.679688 -19.972656 16.222656 -19.382812 16.609375 -18.65625 C 16.992188 -17.9375 17.1875 -17.171875 17.1875 -16.359375 C 17.1875 -15.523438 16.988281 -14.757812 16.59375 -14.0625 C 16.195312 -13.375 15.632812 -12.820312 14.90625 -12.40625 C 14.1875 -11.988281 13.320312 -11.757812 12.3125 -11.71875 C 12.207031 -11.71875 12.15625 -11.660156 12.15625 -11.546875 C 12.15625 -11.441406 12.207031 -11.367188 12.3125 -11.328125 C 13.125 -11.234375 13.914062 -11.285156 14.6875 -11.484375 C 15.457031 -11.691406 16.140625 -12.101562 16.734375 -12.71875 C 17.035156 -12.070312 17.1875 -11.378906 17.1875 -10.640625 C 17.1875 -9.253906 16.765625 -8.15625 15.921875 -7.34375 C 15.078125 -6.53125 13.972656 -6.046875 12.609375 -5.890625 C 12.503906 -5.890625 12.453125 -5.828125 12.453125 -5.703125 C 12.453125 -5.585938 12.503906 -5.53125 12.609375 -5.53125 C 13.378906 -5.445312 14.128906 -5.503906 14.859375 -5.703125 C 15.597656 -5.898438 16.242188 -6.328125 16.796875 -6.984375 C 16.953125 -6.722656 17.066406 -6.4375 17.140625 -6.125 C 17.210938 -5.8125 17.25 -5.335938 17.25 -4.703125 C 17.25 -4.242188 17.15625 -3.738281 16.96875 -3.1875 C 16.789062 -2.644531 16.507812 -2.128906 16.125 -1.640625 C 15.738281 -1.160156 15.253906 -0.765625 14.671875 -0.453125 C 14.085938 -0.148438 13.378906 0 12.546875 0 L 4.734375 0 C 3.859375 0 3.054688 -0.210938 2.328125 -0.640625 C 1.609375 -1.066406 1.039062 -1.632812 0.625 -2.34375 C 0.207031 -3.0625 0 -3.847656 0 -4.703125 Z M 0 -16.328125 "/></g></g></g><g fill="#24127b" fill-opacity="1"><g transform="translate(83.216681, 28.854051)"><g/></g></g><g fill="#24127b" fill-opacity="1"><g transform="translate(90.918991, 28.854051)"><g/></g></g><g fill="#f472b6" fill-opacity="1"><g transform="translate(90.918991, 28.854051)"><g><path d="M 4.9375 0.296875 C 4.019531 0.296875 3.1875 0.078125 2.4375 -0.359375 C 1.6875 -0.796875 1.09375 -1.378906 0.65625 -2.109375 C 0.21875 -2.847656 0 -3.660156 0 -4.546875 L 0 -16.296875 C 0 -17.179688 0.21875 -17.984375 0.65625 -18.703125 C 1.09375 -19.429688 1.6875 -20.015625 2.4375 -20.453125 C 3.1875 -20.890625 4.019531 -21.109375 4.9375 -21.109375 L 10.796875 -21.109375 C 11.984375 -21.109375 13.085938 -20.890625 14.109375 -20.453125 C 15.128906 -20.015625 16.019531 -19.410156 16.78125 -18.640625 C 17.550781 -17.867188 18.148438 -16.96875 18.578125 -15.9375 C 19.015625 -14.90625 19.234375 -13.804688 19.234375 -12.640625 C 19.234375 -11.453125 19.003906 -10.34375 18.546875 -9.3125 C 18.097656 -8.28125 17.472656 -7.367188 16.671875 -6.578125 C 15.878906 -5.796875 14.957031 -5.191406 13.90625 -4.765625 C 12.863281 -4.347656 11.75 -4.15625 10.5625 -4.1875 L 10.015625 -7.109375 C 9.984375 -7.222656 9.925781 -7.269531 9.84375 -7.25 C 9.757812 -7.226562 9.71875 -7.160156 9.71875 -7.046875 L 9.71875 -4.546875 C 9.71875 -3.671875 9.5 -2.867188 9.0625 -2.140625 C 8.632812 -1.410156 8.054688 -0.820312 7.328125 -0.375 C 6.609375 0.0703125 5.8125 0.296875 4.9375 0.296875 Z M 10.171875 -13.734375 C 10.085938 -13.734375 10.007812 -13.734375 9.9375 -13.734375 C 9.875 -13.734375 9.800781 -13.710938 9.71875 -13.671875 L 9.71875 -11.625 C 9.882812 -11.53125 10.035156 -11.484375 10.171875 -11.484375 C 10.484375 -11.484375 10.753906 -11.59375 10.984375 -11.8125 C 11.210938 -12.039062 11.328125 -12.316406 11.328125 -12.640625 C 11.328125 -12.953125 11.210938 -13.210938 10.984375 -13.421875 C 10.753906 -13.628906 10.484375 -13.734375 10.171875 -13.734375 Z M 10.171875 -13.734375 "/></g></g></g><g fill="#f472b6" fill-opacity="1"><g transform="translate(110.691083, 28.854051)"><g><path d="M 10.796875 -21.109375 C 12.285156 -21.109375 13.6875 -20.832031 15 -20.28125 C 16.320312 -19.726562 17.476562 -18.957031 18.46875 -17.96875 C 19.457031 -16.988281 20.234375 -15.847656 20.796875 -14.546875 C 21.359375 -13.253906 21.640625 -11.863281 21.640625 -10.375 C 21.640625 -8.882812 21.359375 -7.488281 20.796875 -6.1875 C 20.234375 -4.894531 19.457031 -3.765625 18.46875 -2.796875 C 17.476562 -1.828125 16.320312 -1.066406 15 -0.515625 C 13.6875 0.0234375 12.285156 0.296875 10.796875 0.296875 C 9.328125 0.296875 7.9375 0.0234375 6.625 -0.515625 C 5.320312 -1.066406 4.171875 -1.828125 3.171875 -2.796875 C 2.179688 -3.765625 1.40625 -4.894531 0.84375 -6.1875 C 0.28125 -7.488281 0 -8.882812 0 -10.375 C 0 -11.863281 0.28125 -13.253906 0.84375 -14.546875 C 1.40625 -15.847656 2.179688 -16.988281 3.171875 -17.96875 C 4.171875 -18.957031 5.320312 -19.726562 6.625 -20.28125 C 7.9375 -20.832031 9.328125 -21.109375 10.796875 -21.109375 Z M 10.796875 -11.6875 C 10.492188 -11.6875 10.222656 -11.578125 9.984375 -11.359375 C 9.753906 -11.140625 9.640625 -10.84375 9.640625 -10.46875 C 9.640625 -10.132812 9.753906 -9.84375 9.984375 -9.59375 C 10.222656 -9.34375 10.492188 -9.21875 10.796875 -9.21875 C 11.128906 -9.21875 11.421875 -9.34375 11.671875 -9.59375 C 11.921875 -9.84375 12.046875 -10.132812 12.046875 -10.46875 C 12.046875 -10.84375 11.921875 -11.140625 11.671875 -11.359375 C 11.421875 -11.578125 11.128906 -11.6875 10.796875 -11.6875 Z M 10.796875 -11.6875 "/></g></g></g><g fill="#f472b6" fill-opacity="1"><g transform="translate(133.139094, 28.854051)"><g><path d="M 4.703125 0 C 3.828125 0 3.03125 -0.21875 2.3125 -0.65625 C 1.601562 -1.09375 1.039062 -1.671875 0.625 -2.390625 C 0.207031 -3.117188 0 -3.90625 0 -4.75 L 0 -16.4375 C 0 -17.3125 0.207031 -18.097656 0.625 -18.796875 C 1.039062 -19.503906 1.601562 -20.066406 2.3125 -20.484375 C 3.03125 -20.898438 3.828125 -21.109375 4.703125 -21.109375 C 5.609375 -21.109375 6.414062 -20.898438 7.125 -20.484375 C 7.84375 -20.066406 8.414062 -19.503906 8.84375 -18.796875 C 9.269531 -18.097656 9.484375 -17.3125 9.484375 -16.4375 L 9.484375 -4.75 C 9.484375 -3.90625 9.269531 -3.117188 8.84375 -2.390625 C 8.414062 -1.671875 7.84375 -1.09375 7.125 -0.65625 C 6.414062 -0.21875 5.609375 0 4.703125 0 Z M 4.703125 0 "/></g></g></g><g fill="#f472b6" fill-opacity="1"><g transform="translate(143.57519, 28.854051)"><g><path d="M 21.109375 -4.375 C 21.109375 -3.363281 20.890625 -2.507812 20.453125 -1.8125 C 20.015625 -1.113281 19.4375 -0.585938 18.71875 -0.234375 C 18.007812 0.117188 17.238281 0.296875 16.40625 0.296875 C 15.789062 0.296875 15.191406 0.179688 14.609375 -0.046875 C 14.023438 -0.273438 13.503906 -0.617188 13.046875 -1.078125 L 7.9375 -6.21875 C 7.894531 -6.3125 7.828125 -6.304688 7.734375 -6.203125 C 7.648438 -6.109375 7.628906 -6.015625 7.671875 -5.921875 L 9.359375 -3.296875 C 9.148438 -2.265625 8.609375 -1.40625 7.734375 -0.71875 C 6.859375 -0.0390625 5.863281 0.296875 4.75 0.296875 C 3.882812 0.296875 3.085938 0.0820312 2.359375 -0.34375 C 1.640625 -0.769531 1.066406 -1.335938 0.640625 -2.046875 C 0.210938 -2.765625 0 -3.566406 0 -4.453125 L 0 -16.359375 C 0 -17.222656 0.210938 -18.007812 0.640625 -18.71875 C 1.066406 -19.4375 1.640625 -20.015625 2.359375 -20.453125 C 3.085938 -20.890625 3.882812 -21.109375 4.75 -21.109375 C 5.46875 -21.109375 6.144531 -20.941406 6.78125 -20.609375 C 7.414062 -20.285156 7.953125 -19.898438 8.390625 -19.453125 L 13.234375 -14.6875 C 13.273438 -14.601562 13.335938 -14.59375 13.421875 -14.65625 C 13.515625 -14.71875 13.539062 -14.785156 13.5 -14.859375 L 11.75 -17.421875 C 11.90625 -18.097656 12.203125 -18.710938 12.640625 -19.265625 C 13.078125 -19.816406 13.613281 -20.257812 14.25 -20.59375 C 14.894531 -20.9375 15.585938 -21.109375 16.328125 -21.109375 C 17.378906 -21.109375 18.253906 -20.890625 18.953125 -20.453125 C 19.660156 -20.015625 20.195312 -19.4375 20.5625 -18.71875 C 20.925781 -18.007812 21.109375 -17.222656 21.109375 -16.359375 Z M 21.109375 -4.375 "/></g></g></g><g fill="#f472b6" fill-opacity="1"><g transform="translate(165.577209, 28.854051)"><g><path d="M 13.96875 -21.109375 C 14.863281 -21.109375 15.671875 -20.890625 16.390625 -20.453125 C 17.117188 -20.015625 17.695312 -19.429688 18.125 -18.703125 C 18.550781 -17.984375 18.765625 -17.191406 18.765625 -16.328125 C 18.765625 -15.472656 18.554688 -14.691406 18.140625 -13.984375 C 17.722656 -13.285156 17.160156 -12.71875 16.453125 -12.28125 C 15.753906 -11.84375 14.957031 -11.625 14.0625 -11.625 L 14.09375 -4.484375 C 14.09375 -3.617188 13.875 -2.816406 13.4375 -2.078125 C 13 -1.347656 12.414062 -0.765625 11.6875 -0.328125 C 10.96875 0.109375 10.175781 0.328125 9.3125 0.328125 C 8.457031 0.328125 7.671875 0.109375 6.953125 -0.328125 C 6.242188 -0.765625 5.675781 -1.347656 5.25 -2.078125 C 4.820312 -2.816406 4.609375 -3.617188 4.609375 -4.484375 L 4.609375 -11.625 C 3.734375 -11.625 2.9375 -11.84375 2.21875 -12.28125 C 1.507812 -12.71875 0.945312 -13.285156 0.53125 -13.984375 C 0.113281 -14.691406 -0.09375 -15.472656 -0.09375 -16.328125 C -0.09375 -17.191406 0.113281 -17.984375 0.53125 -18.703125 C 0.945312 -19.429688 1.507812 -20.015625 2.21875 -20.453125 C 2.9375 -20.890625 3.734375 -21.109375 4.609375 -21.109375 Z M 13.96875 -21.109375 "/></g></g></g><g fill="#f472b6" fill-opacity="1"><g transform="translate(184.788492, 28.854051)"><g/></g></g></svg>