<svg xmlns="http://www.w3.org/2000/svg" xmlns:xlink="http://www.w3.org/1999/xlink" width="250" zoomAndPan="magnify" viewBox="0 0 187.5 37.5" height="50" preserveAspectRatio="xMidYMid meet" version="1.0"><defs><g/><clipPath id="f1405e5319"><path d="M 0.988281 6 L 23 6 L 23 30 L 0.988281 30 Z M 0.988281 6 " clip-rule="nonzero"/></clipPath></defs><g clip-path="url(#f1405e5319)"><g fill="#ffffff" fill-opacity="1"><g transform="translate(2.195722, 28.854051)"><g><path d="M 20 -16.445312 C 20 -15.476562 19.773438 -14.589844 19.316406 -13.796875 C 18.851562 -12.980469 18.171875 -12.34375 17.28125 -11.886719 L 16.75 -11.609375 L 16.226562 -11.902344 C 15.808594 -12.136719 15.359375 -12.324219 14.878906 -12.457031 C 14.390625 -12.59375 13.886719 -12.679688 13.367188 -12.714844 L 13.441406 -13.828125 L 13.441406 -12.714844 C 13.625 -12.714844 13.796875 -12.769531 13.957031 -12.886719 C 14.128906 -13.015625 14.242188 -13.175781 14.292969 -13.371094 C 14.363281 -13.621094 14.328125 -13.867188 14.1875 -14.101562 C 14.066406 -14.300781 13.90625 -14.433594 13.707031 -14.5 L 13.351562 -13.441406 L 13.597656 -14.53125 C 15.117188 -14.1875 16.375 -13.566406 17.363281 -12.65625 C 18.34375 -11.757812 19.042969 -10.714844 19.460938 -9.53125 C 19.871094 -8.363281 20.015625 -7.160156 19.890625 -5.925781 C 19.761719 -4.671875 19.34375 -3.511719 18.640625 -2.445312 C 17.925781 -1.375 16.941406 -0.511719 15.679688 0.144531 C 14.429688 0.792969 12.929688 1.117188 11.183594 1.117188 L 4.667969 1.117188 C 3.582031 1.117188 2.589844 0.800781 1.683594 0.171875 C 0.835938 -0.414062 0.15625 -1.144531 -0.363281 -2.015625 C -0.90625 -2.925781 -1.175781 -3.832031 -1.175781 -4.726562 C -1.175781 -5.714844 -0.988281 -6.585938 -0.613281 -7.347656 C -0.234375 -8.117188 0.355469 -8.792969 1.15625 -9.378906 L 1.78125 -9.832031 L 2.425781 -9.410156 C 2.902344 -9.097656 3.449219 -8.855469 4.066406 -8.691406 C 4.707031 -8.515625 5.324219 -8.429688 5.917969 -8.429688 C 5.71875 -8.429688 5.539062 -8.363281 5.371094 -8.234375 C 5.183594 -8.085938 5.070312 -7.902344 5.027344 -7.679688 C 4.984375 -7.4375 5.035156 -7.210938 5.175781 -7 C 5.292969 -6.824219 5.441406 -6.703125 5.625 -6.644531 L 5.976562 -7.703125 L 5.871094 -6.59375 C 5.371094 -6.640625 4.871094 -6.746094 4.375 -6.910156 C 3.910156 -7.066406 3.453125 -7.257812 3.011719 -7.476562 L 3 -7.484375 L 2.988281 -7.488281 C 1.859375 -8.089844 0.957031 -8.867188 0.277344 -9.824219 C -0.390625 -10.773438 -0.828125 -11.804688 -1.023438 -12.921875 C -1.21875 -14.023438 -1.183594 -15.125 -0.921875 -16.21875 C -0.652344 -17.320312 -0.15625 -18.324219 0.574219 -19.226562 C 1.308594 -20.136719 2.269531 -20.863281 3.457031 -21.414062 C 4.636719 -21.957031 6.023438 -22.230469 7.613281 -22.230469 L 14.066406 -22.230469 C 15.15625 -22.230469 16.152344 -21.972656 17.046875 -21.457031 C 17.933594 -20.945312 18.644531 -20.261719 19.179688 -19.398438 C 19.726562 -18.511719 20 -17.53125 20 -16.445312 Z M 17.769531 -16.445312 C 17.769531 -17.105469 17.605469 -17.699219 17.28125 -18.222656 C 16.945312 -18.765625 16.496094 -19.199219 15.933594 -19.523438 C 15.382812 -19.839844 14.761719 -20 14.066406 -20 L 7.613281 -20 C 6.347656 -20 5.277344 -19.796875 4.394531 -19.386719 C 3.519531 -18.984375 2.824219 -18.464844 2.308594 -17.828125 C 1.789062 -17.183594 1.4375 -16.472656 1.246094 -15.691406 C 1.054688 -14.902344 1.03125 -14.109375 1.171875 -13.308594 C 1.3125 -12.519531 1.621094 -11.789062 2.101562 -11.113281 C 2.574219 -10.445312 3.21875 -9.894531 4.03125 -9.460938 L 3.507812 -8.476562 L 4.007812 -9.472656 C 4.355469 -9.296875 4.714844 -9.148438 5.082031 -9.027344 C 5.417969 -8.917969 5.75 -8.84375 6.082031 -8.8125 L 6.210938 -8.800781 L 6.332031 -8.761719 C 6.632812 -8.660156 6.867188 -8.484375 7.03125 -8.234375 C 7.222656 -7.949219 7.289062 -7.628906 7.222656 -7.28125 C 7.164062 -6.949219 7.003906 -6.679688 6.75 -6.480469 C 6.511719 -6.292969 6.234375 -6.199219 5.917969 -6.199219 C 5.125 -6.199219 4.316406 -6.3125 3.484375 -6.535156 C 2.636719 -6.765625 1.875 -7.101562 1.203125 -7.542969 L 1.8125 -8.476562 L 2.46875 -7.574219 C 1.964844 -7.207031 1.605469 -6.800781 1.386719 -6.363281 C 1.167969 -5.914062 1.054688 -5.367188 1.054688 -4.726562 C 1.054688 -4.238281 1.222656 -3.714844 1.554688 -3.15625 C 1.90625 -2.5625 2.375 -2.0625 2.957031 -1.660156 C 3.476562 -1.296875 4.050781 -1.117188 4.667969 -1.117188 L 11.183594 -1.117188 C 12.566406 -1.117188 13.722656 -1.355469 14.652344 -1.835938 C 15.574219 -2.3125 16.28125 -2.929688 16.78125 -3.679688 C 17.28125 -4.4375 17.578125 -5.261719 17.671875 -6.148438 C 17.761719 -7.054688 17.65625 -7.933594 17.355469 -8.789062 C 17.0625 -9.625 16.5625 -10.367188 15.855469 -11.015625 C 15.160156 -11.652344 14.242188 -12.097656 13.109375 -12.351562 L 13 -12.382812 C 12.679688 -12.492188 12.4375 -12.679688 12.273438 -12.953125 C 12.089844 -13.261719 12.042969 -13.597656 12.144531 -13.957031 C 12.226562 -14.261719 12.390625 -14.507812 12.636719 -14.6875 C 12.871094 -14.859375 13.140625 -14.945312 13.441406 -14.945312 L 13.480469 -14.945312 L 13.515625 -14.941406 C 14.1875 -14.894531 14.84375 -14.785156 15.484375 -14.605469 C 16.132812 -14.421875 16.746094 -14.171875 17.316406 -13.851562 L 16.773438 -12.875 L 16.261719 -13.867188 C 16.761719 -14.125 17.132812 -14.46875 17.378906 -14.902344 C 17.640625 -15.355469 17.769531 -15.871094 17.769531 -16.445312 Z M 17.769531 -16.445312 "/></g></g></g></g><g fill="#ffffff" fill-opacity="1"><g transform="translate(21.967814, 28.854051)"><g><path d="M 13.773438 -5.683594 L 8.542969 -0.570312 C 7.980469 -0.0117188 7.335938 0.414062 6.605469 0.695312 C 5.890625 0.976562 5.164062 1.117188 4.429688 1.117188 C 3.675781 1.117188 2.941406 0.976562 2.226562 0.695312 C 1.496094 0.414062 0.847656 -0.0117188 0.28125 -0.578125 C -0.847656 -1.757812 -1.414062 -3.109375 -1.414062 -4.640625 C -1.414062 -6.1875 -0.851562 -7.542969 0.265625 -8.710938 L 11.667969 -20.261719 L 12.460938 -19.480469 L 11.613281 -20.203125 C 12.175781 -20.867188 12.847656 -21.371094 13.628906 -21.71875 C 14.398438 -22.058594 15.195312 -22.230469 16.027344 -22.230469 C 16.523438 -22.230469 17.019531 -22.164062 17.523438 -22.027344 C 18.03125 -21.890625 18.511719 -21.6875 18.960938 -21.410156 L 18.378906 -20.460938 L 18.886719 -21.453125 C 19.8125 -20.976562 20.542969 -20.285156 21.078125 -19.375 C 21.609375 -18.476562 21.871094 -17.480469 21.871094 -16.386719 L 21.871094 -4.667969 C 21.871094 -3.597656 21.585938 -2.617188 21.011719 -1.71875 C 20.460938 -0.855469 19.75 -0.167969 18.882812 0.339844 C 17.992188 0.855469 17.054688 1.117188 16.058594 1.117188 C 14.578125 1.117188 13.339844 0.695312 12.339844 -0.140625 C 11.363281 -0.957031 10.71875 -1.976562 10.398438 -3.199219 L 10.273438 -3.675781 L 12.359375 -6.855469 L 13.292969 -6.246094 L 12.234375 -6.597656 C 12.191406 -6.464844 12.183594 -6.324219 12.214844 -6.175781 C 12.257812 -5.980469 12.351562 -5.816406 12.5 -5.6875 C 12.589844 -5.609375 12.691406 -5.550781 12.8125 -5.507812 C 12.976562 -5.453125 13.148438 -5.441406 13.320312 -5.472656 C 13.550781 -5.515625 13.734375 -5.621094 13.867188 -5.785156 L 13.824219 -5.734375 Z M 12.214844 -7.28125 L 12.996094 -6.484375 L 12.125 -7.179688 C 12.335938 -7.445312 12.597656 -7.605469 12.910156 -7.664062 C 13.304688 -7.738281 13.65625 -7.640625 13.96875 -7.367188 C 14.195312 -7.167969 14.339844 -6.925781 14.398438 -6.632812 C 14.449219 -6.390625 14.433594 -6.144531 14.351562 -5.890625 L 14.304688 -5.753906 L 12.410156 -2.867188 L 11.480469 -3.480469 L 12.558594 -3.761719 C 12.757812 -3 13.160156 -2.363281 13.769531 -1.851562 C 14.355469 -1.359375 15.121094 -1.117188 16.058594 -1.117188 C 16.652344 -1.117188 17.21875 -1.273438 17.757812 -1.589844 C 18.316406 -1.914062 18.773438 -2.359375 19.132812 -2.921875 C 19.472656 -3.449219 19.640625 -4.035156 19.640625 -4.667969 L 19.640625 -16.386719 C 19.640625 -17.074219 19.480469 -17.695312 19.15625 -18.242188 C 18.839844 -18.78125 18.410156 -19.191406 17.867188 -19.46875 L 17.796875 -19.507812 C 17.53125 -19.671875 17.246094 -19.792969 16.945312 -19.875 C 16.632812 -19.957031 16.328125 -20 16.027344 -20 C 15.511719 -20 15.015625 -19.890625 14.535156 -19.679688 C 14.0625 -19.46875 13.65625 -19.160156 13.308594 -18.753906 L 13.28125 -18.722656 L 1.875 -7.167969 C 1.171875 -6.433594 0.816406 -5.589844 0.816406 -4.640625 C 0.816406 -3.707031 1.164062 -2.882812 1.859375 -2.15625 C 2.203125 -1.8125 2.597656 -1.550781 3.035156 -1.382812 C 3.492188 -1.203125 3.957031 -1.117188 4.429688 -1.117188 C 4.886719 -1.117188 5.339844 -1.203125 5.796875 -1.382812 C 6.234375 -1.550781 6.628906 -1.8125 6.980469 -2.164062 Z M 12.214844 -7.28125 "/></g></g></g><g fill="#ffffff" fill-opacity="1"><g transform="translate(43.613048, 28.854051)"><g><path d="M 7.007812 -15.394531 L 12.183594 -20.511719 C 13.328125 -21.65625 14.691406 -22.230469 16.265625 -22.230469 C 17.34375 -22.230469 18.328125 -21.964844 19.226562 -21.4375 C 20.113281 -20.914062 20.816406 -20.222656 21.339844 -19.359375 C 21.875 -18.476562 22.140625 -17.496094 22.140625 -16.414062 C 22.140625 -15.65625 21.992188 -14.914062 21.703125 -14.195312 C 21.40625 -13.472656 20.976562 -12.828125 20.417969 -12.265625 L 9.058594 -0.878906 C 8.476562 -0.296875 7.832031 0.171875 7.121094 0.535156 C 6.359375 0.921875 5.539062 1.117188 4.667969 1.117188 C 3.683594 1.117188 2.757812 0.875 1.886719 0.398438 C 1.015625 -0.0820312 0.300781 -0.757812 -0.257812 -1.628906 C -0.828125 -2.527344 -1.117188 -3.570312 -1.117188 -4.757812 L -1.117188 -16.414062 C -1.117188 -17.503906 -0.828125 -18.5 -0.257812 -19.394531 C 0.296875 -20.261719 1.007812 -20.945312 1.875 -21.453125 C 2.765625 -21.972656 3.703125 -22.230469 4.699219 -22.230469 C 6.1875 -22.230469 7.425781 -21.835938 8.414062 -21.050781 C 9.386719 -20.273438 10.042969 -19.25 10.386719 -17.984375 L 10.511719 -17.511719 L 8.46875 -14.273438 L 7.523438 -14.871094 L 8.492188 -14.316406 C 8.558594 -14.433594 8.589844 -14.578125 8.582031 -14.746094 C 8.574219 -14.90625 8.527344 -15.054688 8.445312 -15.191406 C 8.371094 -15.320312 8.277344 -15.421875 8.15625 -15.5 C 7.972656 -15.621094 7.769531 -15.667969 7.539062 -15.640625 C 7.324219 -15.617188 7.144531 -15.53125 7.003906 -15.390625 Z M 8.582031 -13.8125 C 8.359375 -13.589844 8.097656 -13.460938 7.800781 -13.425781 C 7.484375 -13.390625 7.191406 -13.460938 6.921875 -13.644531 C 6.5625 -13.882812 6.375 -14.210938 6.355469 -14.636719 C 6.339844 -14.902344 6.40625 -15.164062 6.554688 -15.421875 L 6.566406 -15.445312 L 8.363281 -18.289062 L 9.308594 -17.695312 L 8.230469 -17.40625 C 8.015625 -18.199219 7.613281 -18.832031 7.023438 -19.304688 C 6.441406 -19.769531 5.667969 -20 4.699219 -20 C 4.105469 -20 3.539062 -19.839844 3 -19.527344 C 2.441406 -19.199219 1.984375 -18.757812 1.625 -18.195312 C 1.285156 -17.664062 1.117188 -17.070312 1.117188 -16.414062 L 1.117188 -4.757812 C 1.117188 -4.003906 1.285156 -3.363281 1.625 -2.832031 C 1.976562 -2.277344 2.421875 -1.851562 2.960938 -1.558594 C 3.496094 -1.261719 4.066406 -1.117188 4.667969 -1.117188 C 5.183594 -1.117188 5.664062 -1.230469 6.113281 -1.457031 C 6.609375 -1.710938 7.066406 -2.042969 7.476562 -2.453125 L 18.839844 -13.84375 C 19.1875 -14.195312 19.453125 -14.589844 19.636719 -15.035156 C 19.816406 -15.488281 19.910156 -15.945312 19.910156 -16.414062 C 19.910156 -17.082031 19.75 -17.675781 19.433594 -18.203125 C 19.101562 -18.746094 18.65625 -19.183594 18.09375 -19.515625 C 17.546875 -19.835938 16.9375 -20 16.265625 -20 C 15.304688 -20 14.46875 -19.640625 13.75 -18.921875 L 8.574219 -13.808594 Z M 8.582031 -13.8125 "/></g></g></g><g fill="#ffffff" fill-opacity="1"><g transform="translate(65.198809, 28.854051)"><g><path d="M -1.117188 -16.328125 C -1.117188 -17.414062 -0.863281 -18.402344 -0.363281 -19.296875 C 0.140625 -20.195312 0.84375 -20.90625 1.738281 -21.4375 C 2.636719 -21.964844 3.652344 -22.230469 4.789062 -22.230469 L 12.550781 -22.230469 C 13.703125 -22.230469 14.722656 -21.941406 15.601562 -21.363281 C 16.453125 -20.800781 17.117188 -20.078125 17.59375 -19.1875 C 18.066406 -18.296875 18.304688 -17.355469 18.304688 -16.355469 C 18.304688 -15.324219 18.058594 -14.378906 17.5625 -13.511719 C 17.066406 -12.644531 16.367188 -11.949219 15.46875 -11.433594 C 14.585938 -10.925781 13.550781 -10.648438 12.355469 -10.601562 L 12.3125 -10.601562 C 12.589844 -10.601562 12.828125 -10.710938 13.027344 -10.925781 C 13.195312 -11.109375 13.277344 -11.320312 13.277344 -11.554688 C 13.277344 -11.722656 13.226562 -11.882812 13.128906 -12.035156 C 13.023438 -12.191406 12.890625 -12.300781 12.726562 -12.367188 L 12.3125 -11.332031 L 12.445312 -12.4375 C 13.117188 -12.355469 13.765625 -12.398438 14.402344 -12.570312 C 14.976562 -12.726562 15.488281 -13.035156 15.941406 -13.503906 L 17.082031 -14.679688 L 17.757812 -13.191406 C 18.121094 -12.390625 18.304688 -11.539062 18.304688 -10.644531 C 18.304688 -8.941406 17.769531 -7.574219 16.699219 -6.542969 C 15.675781 -5.554688 14.355469 -4.96875 12.738281 -4.78125 L 12.671875 -4.773438 L 12.609375 -4.773438 C 12.90625 -4.773438 13.15625 -4.890625 13.355469 -5.128906 C 13.503906 -5.308594 13.574219 -5.5 13.574219 -5.710938 C 13.574219 -5.917969 13.503906 -6.113281 13.355469 -6.289062 C 13.15625 -6.527344 12.90625 -6.648438 12.609375 -6.648438 L 12.667969 -6.648438 L 12.722656 -6.640625 C 13.359375 -6.574219 13.976562 -6.625 14.578125 -6.785156 C 15.089844 -6.925781 15.546875 -7.230469 15.953125 -7.710938 L 16.945312 -8.882812 L 17.753906 -7.574219 C 17.976562 -7.207031 18.136719 -6.804688 18.234375 -6.363281 C 18.320312 -5.96875 18.363281 -5.414062 18.363281 -4.699219 C 18.363281 -4.125 18.257812 -3.507812 18.039062 -2.851562 C 17.820312 -2.175781 17.476562 -1.546875 17.003906 -0.957031 C 16.523438 -0.347656 15.917969 0.144531 15.195312 0.527344 C 14.449219 0.917969 13.566406 1.117188 12.550781 1.117188 L 4.726562 1.117188 C 3.652344 1.117188 2.667969 0.851562 1.769531 0.320312 C 0.878906 -0.203125 0.175781 -0.90625 -0.339844 -1.789062 C -0.855469 -2.675781 -1.117188 -3.644531 -1.117188 -4.699219 Z M 1.117188 -16.328125 L 1.117188 -4.699219 C 1.117188 -4.046875 1.273438 -3.453125 1.589844 -2.910156 C 1.90625 -2.363281 2.34375 -1.929688 2.902344 -1.601562 C 3.449219 -1.277344 4.058594 -1.117188 4.726562 -1.117188 L 12.550781 -1.117188 C 13.199219 -1.117188 13.734375 -1.226562 14.15625 -1.449219 C 14.605469 -1.683594 14.972656 -1.980469 15.261719 -2.34375 C 15.5625 -2.726562 15.785156 -3.125 15.921875 -3.542969 C 16.0625 -3.976562 16.132812 -4.359375 16.132812 -4.699219 C 16.132812 -5.253906 16.105469 -5.648438 16.054688 -5.886719 C 16.011719 -6.082031 15.945312 -6.253906 15.851562 -6.402344 L 16.800781 -6.988281 L 17.652344 -6.265625 C 16.949219 -5.4375 16.117188 -4.890625 15.160156 -4.632812 C 14.292969 -4.398438 13.40625 -4.328125 12.496094 -4.421875 L 12.609375 -5.53125 L 12.609375 -4.414062 C 12.210938 -4.414062 11.886719 -4.566406 11.640625 -4.863281 C 11.445312 -5.097656 11.34375 -5.382812 11.34375 -5.710938 C 11.34375 -6.039062 11.445312 -6.320312 11.640625 -6.558594 C 11.886719 -6.855469 12.210938 -7.003906 12.609375 -7.003906 L 12.609375 -5.886719 L 12.480469 -6.996094 C 13.597656 -7.125 14.488281 -7.511719 15.152344 -8.148438 C 15.765625 -8.742188 16.074219 -9.574219 16.074219 -10.644531 C 16.074219 -11.21875 15.957031 -11.757812 15.726562 -12.265625 L 16.742188 -12.726562 L 17.542969 -11.953125 C 16.808594 -11.191406 15.953125 -10.679688 14.980469 -10.417969 C 14.066406 -10.171875 13.132812 -10.105469 12.175781 -10.222656 L 12.03125 -10.242188 L 11.898438 -10.292969 C 11.632812 -10.398438 11.425781 -10.566406 11.273438 -10.796875 C 11.121094 -11.023438 11.046875 -11.273438 11.046875 -11.554688 C 11.046875 -11.894531 11.15625 -12.1875 11.375 -12.425781 C 11.621094 -12.695312 11.933594 -12.832031 12.3125 -12.832031 L 12.3125 -11.71875 L 12.269531 -12.832031 C 13.097656 -12.863281 13.792969 -13.042969 14.359375 -13.367188 C 14.90625 -13.683594 15.328125 -14.101562 15.625 -14.621094 C 15.925781 -15.140625 16.074219 -15.722656 16.074219 -16.355469 C 16.074219 -16.984375 15.925781 -17.574219 15.625 -18.136719 C 15.328125 -18.691406 14.910156 -19.144531 14.375 -19.5 C 13.867188 -19.832031 13.257812 -20 12.550781 -20 L 4.789062 -20 C 4.058594 -20 3.417969 -19.835938 2.871094 -19.515625 C 2.320312 -19.1875 1.890625 -18.753906 1.582031 -18.203125 C 1.269531 -17.648438 1.117188 -17.023438 1.117188 -16.328125 Z M 1.117188 -16.328125 "/></g></g></g><g fill="#ffffff" fill-opacity="1"><g transform="translate(83.216681, 28.854051)"><g/></g></g><g fill="#ffffff" fill-opacity="1"><g transform="translate(90.918991, 28.854051)"><g/></g></g><g fill="#ffffff" fill-opacity="1"><g transform="translate(90.918991, 28.854051)"><g><path d="M 4.9375 1.414062 C 3.824219 1.414062 2.804688 1.144531 1.878906 0.609375 C 0.957031 0.0742188 0.230469 -0.640625 -0.304688 -1.542969 C -0.84375 -2.449219 -1.117188 -3.453125 -1.117188 -4.550781 L -1.117188 -16.296875 C -1.117188 -17.394531 -0.84375 -18.394531 -0.300781 -19.296875 C 0.234375 -20.183594 0.960938 -20.894531 1.878906 -21.425781 C 2.804688 -21.960938 3.824219 -22.230469 4.9375 -22.230469 L 10.796875 -22.230469 C 12.136719 -22.230469 13.386719 -21.980469 14.550781 -21.484375 C 15.703125 -20.992188 16.714844 -20.308594 17.582031 -19.429688 C 18.445312 -18.554688 19.121094 -17.535156 19.613281 -16.375 C 20.109375 -15.203125 20.355469 -13.960938 20.355469 -12.640625 C 20.355469 -11.292969 20.097656 -10.03125 19.578125 -8.855469 C 19.0625 -7.695312 18.359375 -6.675781 17.46875 -5.792969 C 16.570312 -4.90625 15.523438 -4.222656 14.335938 -3.738281 C 13.140625 -3.253906 11.867188 -3.035156 10.519531 -3.078125 L 9.621094 -3.109375 L 8.925781 -6.90625 L 10.023438 -7.109375 L 8.964844 -6.753906 C 9.011719 -6.613281 9.101562 -6.488281 9.234375 -6.378906 C 9.359375 -6.273438 9.503906 -6.203125 9.664062 -6.167969 C 9.816406 -6.136719 9.964844 -6.136719 10.113281 -6.175781 C 10.382812 -6.242188 10.585938 -6.394531 10.722656 -6.636719 C 10.800781 -6.773438 10.839844 -6.910156 10.839844 -7.046875 L 10.839844 -4.550781 C 10.839844 -3.472656 10.570312 -2.480469 10.027344 -1.570312 C 9.5 -0.679688 8.796875 0.0351562 7.914062 0.578125 C 7.011719 1.132812 6.019531 1.414062 4.9375 1.414062 Z M 4.9375 -0.816406 C 5.597656 -0.816406 6.199219 -0.984375 6.746094 -1.320312 C 7.3125 -1.671875 7.769531 -2.132812 8.113281 -2.710938 C 8.441406 -3.269531 8.609375 -3.882812 8.609375 -4.550781 L 8.609375 -7.046875 C 8.609375 -7.304688 8.667969 -7.535156 8.785156 -7.742188 C 8.964844 -8.054688 9.226562 -8.25 9.574219 -8.339844 C 9.761719 -8.386719 9.945312 -8.386719 10.132812 -8.347656 C 10.328125 -8.304688 10.503906 -8.21875 10.660156 -8.089844 C 10.855469 -7.929688 10.992188 -7.71875 11.078125 -7.460938 L 11.105469 -7.386719 L 11.652344 -4.394531 L 10.558594 -4.191406 L 10.59375 -5.308594 C 11.625 -5.273438 12.59375 -5.441406 13.5 -5.804688 C 14.410156 -6.175781 15.210938 -6.703125 15.898438 -7.378906 C 16.59375 -8.066406 17.136719 -8.859375 17.535156 -9.757812 C 17.929688 -10.648438 18.125 -11.605469 18.125 -12.640625 C 18.125 -13.65625 17.9375 -14.613281 17.558594 -15.503906 C 17.179688 -16.40625 16.65625 -17.191406 15.992188 -17.863281 C 15.332031 -18.53125 14.558594 -19.054688 13.671875 -19.433594 C 12.792969 -19.8125 11.832031 -20 10.796875 -20 L 4.9375 -20 C 4.222656 -20 3.578125 -19.832031 2.996094 -19.496094 C 2.410156 -19.15625 1.945312 -18.703125 1.609375 -18.144531 C 1.28125 -17.597656 1.117188 -16.980469 1.117188 -16.296875 L 1.117188 -4.550781 C 1.117188 -3.863281 1.28125 -3.238281 1.613281 -2.679688 C 1.949219 -2.113281 2.410156 -1.660156 2.996094 -1.320312 C 3.578125 -0.984375 4.222656 -0.816406 4.9375 -0.816406 Z M 10.171875 -12.625 L 9.949219 -12.625 C 10.054688 -12.625 10.144531 -12.644531 10.222656 -12.683594 L 9.722656 -13.679688 L 10.839844 -13.679688 L 10.839844 -11.628906 L 9.722656 -11.628906 L 10.316406 -12.574219 C 10.320312 -12.570312 10.324219 -12.566406 10.328125 -12.566406 C 10.324219 -12.570312 10.316406 -12.570312 10.308594 -12.574219 C 10.265625 -12.585938 10.222656 -12.59375 10.171875 -12.59375 C 10.179688 -12.59375 10.191406 -12.597656 10.199219 -12.609375 C 10.210938 -12.621094 10.214844 -12.628906 10.214844 -12.640625 C 10.214844 -12.628906 10.222656 -12.617188 10.238281 -12.601562 C 10.222656 -12.617188 10.199219 -12.625 10.171875 -12.625 Z M 10.171875 -14.855469 C 10.777344 -14.855469 11.300781 -14.652344 11.742188 -14.25 C 12.210938 -13.820312 12.445312 -13.285156 12.445312 -12.640625 C 12.445312 -12.011719 12.222656 -11.476562 11.777344 -11.03125 C 11.332031 -10.585938 10.796875 -10.363281 10.171875 -10.363281 C 9.820312 -10.363281 9.472656 -10.46875 9.132812 -10.683594 L 8.609375 -11.007812 L 8.609375 -14.367188 L 9.226562 -14.675781 C 9.460938 -14.796875 9.703125 -14.855469 9.949219 -14.855469 Z M 10.171875 -14.855469 "/></g></g></g><g fill="#ffffff" fill-opacity="1"><g transform="translate(110.691083, 28.854051)"><g><path d="M 10.796875 -22.230469 C 12.433594 -22.230469 13.980469 -21.921875 15.4375 -21.308594 C 16.886719 -20.699219 18.160156 -19.851562 19.253906 -18.769531 C 20.34375 -17.6875 21.203125 -16.433594 21.824219 -15.003906 C 22.453125 -13.5625 22.765625 -12.019531 22.765625 -10.378906 C 22.765625 -8.738281 22.453125 -7.195312 21.824219 -5.753906 C 21.203125 -4.324219 20.34375 -3.070312 19.25 -2 C 18.152344 -0.925781 16.882812 -0.0898438 15.429688 0.511719 C 13.972656 1.113281 12.429688 1.414062 10.796875 1.414062 C 9.179688 1.414062 7.648438 1.113281 6.203125 0.507812 C 4.761719 -0.0898438 3.496094 -0.925781 2.402344 -2 C 1.304688 -3.070312 0.449219 -4.324219 -0.175781 -5.753906 C -0.800781 -7.195312 -1.117188 -8.738281 -1.117188 -10.378906 C -1.117188 -12.019531 -0.800781 -13.5625 -0.175781 -15.003906 C 0.445312 -16.433594 1.304688 -17.6875 2.398438 -18.769531 C 3.488281 -19.851562 4.757812 -20.699219 6.195312 -21.308594 C 7.644531 -21.921875 9.175781 -22.230469 10.796875 -22.230469 Z M 10.796875 -20 C 9.480469 -20 8.238281 -19.75 7.066406 -19.253906 C 5.890625 -18.753906 4.855469 -18.066406 3.964844 -17.183594 C 3.078125 -16.304688 2.378906 -15.28125 1.871094 -14.113281 C 1.367188 -12.957031 1.117188 -11.710938 1.117188 -10.378906 C 1.117188 -9.046875 1.367188 -7.800781 1.871094 -6.644531 C 2.378906 -5.480469 3.074219 -4.460938 3.960938 -3.59375 C 4.851562 -2.722656 5.882812 -2.039062 7.0625 -1.550781 C 8.230469 -1.0625 9.476562 -0.816406 10.796875 -0.816406 C 12.132812 -0.816406 13.394531 -1.0625 14.578125 -1.550781 C 15.761719 -2.042969 16.796875 -2.722656 17.6875 -3.59375 C 18.574219 -4.460938 19.273438 -5.480469 19.78125 -6.644531 C 20.28125 -7.800781 20.535156 -9.046875 20.535156 -10.378906 C 20.535156 -11.710938 20.28125 -12.957031 19.78125 -14.113281 C 19.269531 -15.28125 18.574219 -16.304688 17.683594 -17.183594 C 16.792969 -18.066406 15.757812 -18.753906 14.570312 -19.253906 C 13.390625 -19.75 12.132812 -20 10.796875 -20 Z M 10.796875 -10.570312 C 10.785156 -10.570312 10.769531 -10.5625 10.746094 -10.539062 C 10.75 -10.542969 10.757812 -10.550781 10.761719 -10.558594 C 10.753906 -10.542969 10.75 -10.511719 10.75 -10.46875 C 10.75 -10.429688 10.765625 -10.394531 10.796875 -10.363281 C 10.820312 -10.339844 10.832031 -10.328125 10.839844 -10.324219 C 10.824219 -10.332031 10.808594 -10.335938 10.796875 -10.335938 C 10.824219 -10.335938 10.855469 -10.347656 10.882812 -10.378906 C 10.914062 -10.410156 10.929688 -10.4375 10.929688 -10.46875 C 10.929688 -10.507812 10.925781 -10.53125 10.921875 -10.542969 C 10.925781 -10.535156 10.929688 -10.527344 10.933594 -10.523438 C 10.898438 -10.554688 10.851562 -10.570312 10.796875 -10.570312 Z M 10.796875 -12.800781 C 11.414062 -12.800781 11.949219 -12.601562 12.410156 -12.199219 C 12.910156 -11.757812 13.160156 -11.179688 13.160156 -10.46875 C 13.160156 -9.824219 12.925781 -9.269531 12.460938 -8.800781 C 11.996094 -8.335938 11.441406 -8.105469 10.796875 -8.105469 C 10.179688 -8.105469 9.644531 -8.34375 9.1875 -8.816406 C 8.742188 -9.28125 8.519531 -9.832031 8.519531 -10.46875 C 8.519531 -11.171875 8.757812 -11.742188 9.238281 -12.183594 C 9.691406 -12.597656 10.207031 -12.800781 10.796875 -12.800781 Z M 10.796875 -12.800781 "/></g></g></g><g fill="#ffffff" fill-opacity="1"><g transform="translate(133.139094, 28.854051)"><g><path d="M 4.699219 1.117188 C 3.617188 1.117188 2.628906 0.84375 1.738281 0.296875 C 0.863281 -0.238281 0.167969 -0.949219 -0.34375 -1.835938 C -0.859375 -2.734375 -1.117188 -3.707031 -1.117188 -4.757812 L -1.117188 -16.445312 C -1.117188 -17.519531 -0.855469 -18.5 -0.335938 -19.378906 C 0.179688 -20.246094 0.878906 -20.941406 1.757812 -21.453125 C 2.644531 -21.972656 3.625 -22.230469 4.699219 -22.230469 C 5.8125 -22.230469 6.8125 -21.972656 7.699219 -21.453125 C 8.578125 -20.941406 9.277344 -20.253906 9.800781 -19.386719 C 10.335938 -18.507812 10.601562 -17.523438 10.601562 -16.445312 L 10.601562 -4.757812 C 10.601562 -3.703125 10.335938 -2.726562 9.808594 -1.828125 C 9.289062 -0.945312 8.589844 -0.234375 7.71875 0.296875 C 6.828125 0.84375 5.820312 1.117188 4.699219 1.117188 Z M 4.699219 -1.117188 C 5.402344 -1.117188 6.019531 -1.277344 6.554688 -1.605469 C 7.109375 -1.945312 7.554688 -2.398438 7.886719 -2.960938 C 8.210938 -3.507812 8.371094 -4.109375 8.371094 -4.757812 L 8.371094 -16.445312 C 8.371094 -17.109375 8.210938 -17.707031 7.894531 -18.230469 C 7.566406 -18.773438 7.125 -19.207031 6.574219 -19.527344 C 6.035156 -19.839844 5.410156 -20 4.699219 -20 C 4.027344 -20 3.421875 -19.839844 2.882812 -19.527344 C 2.335938 -19.207031 1.902344 -18.777344 1.585938 -18.242188 C 1.273438 -17.714844 1.117188 -17.113281 1.117188 -16.445312 L 1.117188 -4.757812 C 1.117188 -4.105469 1.273438 -3.5 1.589844 -2.949219 C 1.914062 -2.390625 2.347656 -1.941406 2.902344 -1.605469 C 3.4375 -1.277344 4.035156 -1.117188 4.699219 -1.117188 Z M 4.699219 -1.117188 "/></g></g></g><g fill="#ffffff" fill-opacity="1"><g transform="translate(143.57519, 28.854051)"><g><path d="M 22.230469 -4.371094 C 22.230469 -3.144531 21.953125 -2.097656 21.40625 -1.21875 C 20.855469 -0.351562 20.132812 0.308594 19.234375 0.757812 C 18.363281 1.195312 17.425781 1.414062 16.414062 1.414062 C 15.660156 1.414062 14.925781 1.273438 14.210938 0.996094 C 13.480469 0.710938 12.832031 0.285156 12.265625 -0.28125 L 6.988281 -5.589844 L 6.90625 -5.800781 C 6.953125 -5.675781 7.03125 -5.5625 7.136719 -5.464844 C 7.339844 -5.269531 7.582031 -5.175781 7.863281 -5.175781 C 8.066406 -5.175781 8.25 -5.226562 8.414062 -5.332031 C 8.476562 -5.375 8.53125 -5.421875 8.574219 -5.46875 C 8.65625 -5.558594 8.710938 -5.667969 8.742188 -5.796875 C 8.789062 -5.980469 8.777344 -6.160156 8.707031 -6.332031 L 7.671875 -5.917969 L 8.609375 -6.523438 L 10.554688 -3.519531 L 10.457031 -3.070312 C 10.183594 -1.773438 9.503906 -0.703125 8.421875 0.148438 C 7.347656 0.992188 6.125 1.414062 4.757812 1.414062 C 3.683594 1.414062 2.695312 1.148438 1.796875 0.617188 C 0.910156 0.0976562 0.207031 -0.601562 -0.316406 -1.480469 C -0.851562 -2.371094 -1.117188 -3.363281 -1.117188 -4.460938 L -1.117188 -16.355469 C -1.117188 -17.433594 -0.851562 -18.417969 -0.316406 -19.308594 C 0.203125 -20.179688 0.90625 -20.882812 1.789062 -21.414062 C 2.6875 -21.957031 3.679688 -22.230469 4.757812 -22.230469 C 5.652344 -22.230469 6.496094 -22.023438 7.292969 -21.613281 C 8.035156 -21.230469 8.671875 -20.765625 9.191406 -20.21875 L 8.386719 -19.449219 L 9.167969 -20.246094 L 14.148438 -15.355469 L 14.230469 -15.191406 C 14.175781 -15.304688 14.09375 -15.40625 13.992188 -15.492188 C 13.847656 -15.617188 13.675781 -15.695312 13.480469 -15.726562 C 13.226562 -15.765625 13.003906 -15.71875 12.808594 -15.589844 C 12.648438 -15.480469 12.53125 -15.332031 12.460938 -15.132812 C 12.367188 -14.867188 12.382812 -14.613281 12.503906 -14.371094 L 13.5 -14.871094 L 12.582031 -14.238281 L 10.546875 -17.203125 L 10.660156 -17.683594 C 10.855469 -18.515625 11.222656 -19.273438 11.761719 -19.960938 C 12.296875 -20.640625 12.957031 -21.1875 13.742188 -21.597656 C 14.550781 -22.019531 15.410156 -22.230469 16.328125 -22.230469 C 17.589844 -22.230469 18.660156 -21.957031 19.546875 -21.40625 C 20.425781 -20.863281 21.09375 -20.140625 21.554688 -19.246094 C 22.003906 -18.371094 22.230469 -17.410156 22.230469 -16.355469 Z M 20 -4.371094 L 20 -16.355469 C 20 -17.046875 19.855469 -17.671875 19.570312 -18.226562 C 19.300781 -18.753906 18.898438 -19.183594 18.371094 -19.511719 C 17.847656 -19.835938 17.164062 -20 16.328125 -20 C 15.777344 -20 15.257812 -19.871094 14.777344 -19.621094 C 14.273438 -19.355469 13.851562 -19.011719 13.515625 -18.582031 C 13.179688 -18.15625 12.953125 -17.683594 12.832031 -17.171875 L 11.746094 -17.425781 L 12.667969 -18.058594 L 14.464844 -15.4375 L 14.5 -15.367188 C 14.660156 -15.042969 14.683594 -14.714844 14.5625 -14.382812 C 14.46875 -14.117188 14.296875 -13.898438 14.046875 -13.734375 C 13.761719 -13.542969 13.460938 -13.472656 13.140625 -13.523438 C 12.917969 -13.554688 12.714844 -13.648438 12.542969 -13.796875 C 12.414062 -13.90625 12.3125 -14.039062 12.234375 -14.191406 L 13.234375 -14.691406 L 12.453125 -13.894531 L 7.59375 -18.664062 L 7.582031 -18.679688 C 7.230469 -19.042969 6.792969 -19.363281 6.269531 -19.632812 C 5.796875 -19.875 5.292969 -20 4.757812 -20 C 4.09375 -20 3.488281 -19.835938 2.941406 -19.503906 C 2.375 -19.164062 1.929688 -18.71875 1.597656 -18.164062 C 1.277344 -17.625 1.117188 -17.023438 1.117188 -16.355469 L 1.117188 -4.460938 C 1.117188 -3.773438 1.277344 -3.160156 1.597656 -2.625 C 1.925781 -2.074219 2.371094 -1.632812 2.929688 -1.304688 C 3.480469 -0.980469 4.089844 -0.816406 4.757812 -0.816406 C 5.613281 -0.816406 6.375 -1.082031 7.042969 -1.605469 C 7.703125 -2.125 8.113281 -2.765625 8.277344 -3.53125 L 9.367188 -3.300781 L 8.429688 -2.695312 L 6.675781 -5.402344 L 6.636719 -5.503906 C 6.527344 -5.777344 6.507812 -6.054688 6.578125 -6.335938 C 6.636719 -6.566406 6.75 -6.773438 6.917969 -6.960938 C 7.183594 -7.257812 7.5 -7.40625 7.863281 -7.40625 C 8.175781 -7.40625 8.445312 -7.296875 8.675781 -7.078125 C 8.804688 -6.953125 8.90625 -6.804688 8.976562 -6.628906 L 7.941406 -6.214844 L 8.730469 -7 L 13.84375 -1.859375 C 14.191406 -1.511719 14.582031 -1.253906 15.023438 -1.082031 C 15.476562 -0.90625 15.941406 -0.816406 16.414062 -0.816406 C 17.074219 -0.816406 17.679688 -0.957031 18.238281 -1.234375 C 18.765625 -1.5 19.191406 -1.890625 19.515625 -2.40625 C 19.839844 -2.921875 20 -3.574219 20 -4.371094 Z M 20 -4.371094 "/></g></g></g><g fill="#ffffff" fill-opacity="1"><g transform="translate(165.577209, 28.854051)"><g><path d="M 13.976562 -22.230469 C 15.074219 -22.230469 16.074219 -21.957031 16.976562 -21.414062 C 17.863281 -20.882812 18.566406 -20.171875 19.085938 -19.285156 C 19.617188 -18.386719 19.878906 -17.402344 19.878906 -16.328125 C 19.878906 -15.269531 19.621094 -14.304688 19.101562 -13.425781 C 18.589844 -12.5625 17.90625 -11.867188 17.046875 -11.332031 C 16.164062 -10.785156 15.171875 -10.511719 14.066406 -10.511719 L 14.066406 -11.628906 L 15.179688 -11.632812 L 15.210938 -4.496094 C 15.210938 -3.414062 14.941406 -2.421875 14.402344 -1.511719 C 13.867188 -0.617188 13.160156 0.09375 12.277344 0.628906 C 11.378906 1.171875 10.386719 1.441406 9.308594 1.441406 C 8.246094 1.441406 7.269531 1.167969 6.378906 0.625 C 5.503906 0.0898438 4.804688 -0.625 4.285156 -1.519531 C 3.757812 -2.429688 3.492188 -3.417969 3.492188 -4.492188 L 3.492188 -11.628906 L 4.609375 -11.628906 L 4.609375 -10.511719 C 3.527344 -10.511719 2.542969 -10.785156 1.648438 -11.332031 C 0.777344 -11.863281 0.0859375 -12.5625 -0.425781 -13.425781 C -0.945312 -14.304688 -1.203125 -15.269531 -1.203125 -16.328125 C -1.203125 -17.398438 -0.945312 -18.378906 -0.429688 -19.277344 C 0.078125 -20.164062 0.773438 -20.875 1.648438 -21.410156 C 2.542969 -21.957031 3.527344 -22.230469 4.609375 -22.230469 Z M 13.976562 -20 L 4.609375 -20 C 3.945312 -20 3.347656 -19.835938 2.8125 -19.507812 C 2.261719 -19.171875 1.824219 -18.722656 1.503906 -18.164062 C 1.183594 -17.613281 1.027344 -17 1.027344 -16.328125 C 1.027344 -15.675781 1.183594 -15.089844 1.496094 -14.558594 C 1.816406 -14.015625 2.257812 -13.574219 2.8125 -13.234375 C 3.347656 -12.90625 3.945312 -12.742188 4.609375 -12.742188 L 5.726562 -12.742188 L 5.726562 -4.492188 C 5.726562 -3.820312 5.886719 -3.203125 6.214844 -2.640625 C 6.542969 -2.070312 6.988281 -1.617188 7.539062 -1.277344 C 8.074219 -0.953125 8.664062 -0.789062 9.308594 -0.789062 C 9.972656 -0.789062 10.578125 -0.953125 11.125 -1.28125 C 11.691406 -1.621094 12.140625 -2.078125 12.484375 -2.652344 C 12.816406 -3.210938 12.980469 -3.820312 12.980469 -4.484375 L 12.945312 -12.742188 L 14.066406 -12.742188 C 14.746094 -12.742188 15.347656 -12.90625 15.871094 -13.230469 C 16.421875 -13.570312 16.855469 -14.011719 17.179688 -14.558594 C 17.492188 -15.089844 17.648438 -15.675781 17.648438 -16.328125 C 17.648438 -16.996094 17.488281 -17.605469 17.164062 -18.15625 C 16.832031 -18.714844 16.386719 -19.164062 15.824219 -19.503906 C 15.277344 -19.835938 14.664062 -20 13.976562 -20 Z M 13.976562 -20 "/></g></g></g><g fill="#ffffff" fill-opacity="1"><g transform="translate(184.788492, 28.854051)"><g/></g></g><g fill="#24127b" fill-opacity="1"><g transform="translate(2.195722, 28.854051)"><g><path d="M 18.875 -16.4375 C 18.875 -15.664062 18.695312 -14.96875 18.34375 -14.34375 C 17.988281 -13.71875 17.460938 -13.226562 16.765625 -12.875 C 16.273438 -13.15625 15.742188 -13.375 15.171875 -13.53125 C 14.609375 -13.6875 14.03125 -13.785156 13.4375 -13.828125 C 13.320312 -13.828125 13.25 -13.769531 13.21875 -13.65625 C 13.1875 -13.550781 13.226562 -13.476562 13.34375 -13.4375 C 14.675781 -13.144531 15.765625 -12.609375 16.609375 -11.828125 C 17.453125 -11.054688 18.050781 -10.164062 18.40625 -9.15625 C 18.757812 -8.144531 18.878906 -7.101562 18.765625 -6.03125 C 18.660156 -4.96875 18.304688 -3.976562 17.703125 -3.0625 C 17.097656 -2.144531 16.25 -1.40625 15.15625 -0.84375 C 14.070312 -0.28125 12.75 0 11.1875 0 L 4.671875 0 C 3.816406 0 3.03125 -0.242188 2.3125 -0.734375 C 1.601562 -1.234375 1.03125 -1.847656 0.59375 -2.578125 C 0.15625 -3.316406 -0.0625 -4.035156 -0.0625 -4.734375 C -0.0625 -5.546875 0.0820312 -6.253906 0.375 -6.859375 C 0.675781 -7.460938 1.15625 -8 1.8125 -8.46875 C 2.382812 -8.09375 3.035156 -7.804688 3.765625 -7.609375 C 4.503906 -7.410156 5.222656 -7.3125 5.921875 -7.3125 C 6.035156 -7.3125 6.101562 -7.363281 6.125 -7.46875 C 6.144531 -7.582031 6.097656 -7.660156 5.984375 -7.703125 C 5.566406 -7.742188 5.148438 -7.832031 4.734375 -7.96875 C 4.316406 -8.101562 3.910156 -8.269531 3.515625 -8.46875 C 2.535156 -8.988281 1.757812 -9.65625 1.1875 -10.46875 C 0.613281 -11.28125 0.242188 -12.160156 0.078125 -13.109375 C -0.0859375 -14.066406 -0.0625 -15.015625 0.15625 -15.953125 C 0.382812 -16.890625 0.8125 -17.742188 1.4375 -18.515625 C 2.0625 -19.296875 2.890625 -19.921875 3.921875 -20.390625 C 4.953125 -20.867188 6.179688 -21.109375 7.609375 -21.109375 L 14.0625 -21.109375 C 14.957031 -21.109375 15.765625 -20.898438 16.484375 -20.484375 C 17.210938 -20.066406 17.789062 -19.503906 18.21875 -18.796875 C 18.65625 -18.097656 18.875 -17.3125 18.875 -16.4375 Z M 18.875 -16.4375 "/></g></g></g><g fill="#24127b" fill-opacity="1"><g transform="translate(21.967814, 28.854051)"><g><path d="M 13 -6.484375 L 7.765625 -1.375 C 7.304688 -0.914062 6.785156 -0.570312 6.203125 -0.34375 C 5.617188 -0.113281 5.03125 0 4.4375 0 C 3.820312 0 3.21875 -0.113281 2.625 -0.34375 C 2.039062 -0.570312 1.523438 -0.914062 1.078125 -1.375 C 0.160156 -2.320312 -0.296875 -3.410156 -0.296875 -4.640625 C -0.296875 -5.890625 0.160156 -6.988281 1.078125 -7.9375 L 12.453125 -19.46875 C 12.910156 -20.007812 13.453125 -20.414062 14.078125 -20.6875 C 14.703125 -20.96875 15.351562 -21.109375 16.03125 -21.109375 C 16.425781 -21.109375 16.828125 -21.050781 17.234375 -20.9375 C 17.640625 -20.832031 18.019531 -20.671875 18.375 -20.453125 C 19.101562 -20.078125 19.679688 -19.523438 20.109375 -18.796875 C 20.535156 -18.078125 20.75 -17.273438 20.75 -16.390625 L 20.75 -4.671875 C 20.75 -3.816406 20.519531 -3.03125 20.0625 -2.3125 C 19.613281 -1.601562 19.03125 -1.039062 18.3125 -0.625 C 17.601562 -0.207031 16.851562 0 16.0625 0 C 14.851562 0 13.847656 -0.332031 13.046875 -1 C 12.253906 -1.664062 11.734375 -2.492188 11.484375 -3.484375 L 13.296875 -6.25 C 13.328125 -6.363281 13.300781 -6.453125 13.21875 -6.515625 C 13.144531 -6.585938 13.070312 -6.578125 13 -6.484375 Z M 13 -6.484375 "/></g></g></g><g fill="#24127b" fill-opacity="1"><g transform="translate(43.613048, 28.854051)"><g><path d="M 7.796875 -14.59375 L 12.96875 -19.71875 C 13.894531 -20.644531 14.992188 -21.109375 16.265625 -21.109375 C 17.140625 -21.109375 17.9375 -20.894531 18.65625 -20.46875 C 19.382812 -20.039062 19.957031 -19.472656 20.375 -18.765625 C 20.800781 -18.066406 21.015625 -17.28125 21.015625 -16.40625 C 21.015625 -15.789062 20.894531 -15.191406 20.65625 -14.609375 C 20.425781 -14.023438 20.082031 -13.503906 19.625 -13.046875 L 8.265625 -1.671875 C 7.765625 -1.171875 7.210938 -0.765625 6.609375 -0.453125 C 6.003906 -0.148438 5.359375 0 4.671875 0 C 3.878906 0 3.128906 -0.191406 2.421875 -0.578125 C 1.722656 -0.960938 1.144531 -1.507812 0.6875 -2.21875 C 0.226562 -2.9375 0 -3.78125 0 -4.75 L 0 -16.40625 C 0 -17.28125 0.226562 -18.070312 0.6875 -18.78125 C 1.144531 -19.5 1.726562 -20.066406 2.4375 -20.484375 C 3.15625 -20.898438 3.910156 -21.109375 4.703125 -21.109375 C 5.929688 -21.109375 6.9375 -20.796875 7.71875 -20.171875 C 8.5 -19.546875 9.03125 -18.71875 9.3125 -17.6875 L 7.515625 -14.859375 C 7.441406 -14.722656 7.445312 -14.625 7.53125 -14.5625 C 7.625 -14.507812 7.710938 -14.519531 7.796875 -14.59375 Z M 7.796875 -14.59375 "/></g></g></g><g fill="#24127b" fill-opacity="1"><g transform="translate(65.198809, 28.854051)"><g><path d="M 0 -16.328125 C 0 -17.210938 0.203125 -18.015625 0.609375 -18.734375 C 1.015625 -19.460938 1.578125 -20.039062 2.296875 -20.46875 C 3.023438 -20.894531 3.851562 -21.109375 4.78125 -21.109375 L 12.546875 -21.109375 C 13.484375 -21.109375 14.296875 -20.878906 14.984375 -20.421875 C 15.679688 -19.972656 16.222656 -19.382812 16.609375 -18.65625 C 16.992188 -17.9375 17.1875 -17.171875 17.1875 -16.359375 C 17.1875 -15.523438 16.988281 -14.757812 16.59375 -14.0625 C 16.195312 -13.375 15.632812 -12.820312 14.90625 -12.40625 C 14.1875 -11.988281 13.320312 -11.757812 12.3125 -11.71875 C 12.207031 -11.71875 12.15625 -11.660156 12.15625 -11.546875 C 12.15625 -11.441406 12.207031 -11.367188 12.3125 -11.328125 C 13.125 -11.234375 13.914062 -11.285156 14.6875 -11.484375 C 15.457031 -11.691406 16.140625 -12.101562 16.734375 -12.71875 C 17.035156 -12.070312 17.1875 -11.378906 17.1875 -10.640625 C 17.1875 -9.253906 16.765625 -8.15625 15.921875 -7.34375 C 15.078125 -6.53125 13.972656 -6.046875 12.609375 -5.890625 C 12.503906 -5.890625 12.453125 -5.828125 12.453125 -5.703125 C 12.453125 -5.585938 12.503906 -5.53125 12.609375 -5.53125 C 13.378906 -5.445312 14.128906 -5.503906 14.859375 -5.703125 C 15.597656 -5.898438 16.242188 -6.328125 16.796875 -6.984375 C 16.953125 -6.722656 17.066406 -6.4375 17.140625 -6.125 C 17.210938 -5.8125 17.25 -5.335938 17.25 -4.703125 C 17.25 -4.242188 17.15625 -3.738281 16.96875 -3.1875 C 16.789062 -2.644531 16.507812 -2.128906 16.125 -1.640625 C 15.738281 -1.160156 15.253906 -0.765625 14.671875 -0.453125 C 14.085938 -0.148438 13.378906 0 12.546875 0 L 4.734375 0 C 3.859375 0 3.054688 -0.210938 2.328125 -0.640625 C 1.609375 -1.066406 1.039062 -1.632812 0.625 -2.34375 C 0.207031 -3.0625 0 -3.847656 0 -4.703125 Z M 0 -16.328125 "/></g></g></g><g fill="#24127b" fill-opacity="1"><g transform="translate(83.216681, 28.854051)"><g/></g></g><g fill="#24127b" fill-opacity="1"><g transform="translate(90.918991, 28.854051)"><g/></g></g><g fill="#d17dd5" fill-opacity="1"><g transform="translate(90.918991, 28.854051)"><g><path d="M 4.9375 0.296875 C 4.019531 0.296875 3.1875 0.078125 2.4375 -0.359375 C 1.6875 -0.796875 1.09375 -1.378906 0.65625 -2.109375 C 0.21875 -2.847656 0 -3.660156 0 -4.546875 L 0 -16.296875 C 0 -17.179688 0.21875 -17.984375 0.65625 -18.703125 C 1.09375 -19.429688 1.6875 -20.015625 2.4375 -20.453125 C 3.1875 -20.890625 4.019531 -21.109375 4.9375 -21.109375 L 10.796875 -21.109375 C 11.984375 -21.109375 13.085938 -20.890625 14.109375 -20.453125 C 15.128906 -20.015625 16.019531 -19.410156 16.78125 -18.640625 C 17.550781 -17.867188 18.148438 -16.96875 18.578125 -15.9375 C 19.015625 -14.90625 19.234375 -13.804688 19.234375 -12.640625 C 19.234375 -11.453125 19.003906 -10.34375 18.546875 -9.3125 C 18.097656 -8.28125 17.472656 -7.367188 16.671875 -6.578125 C 15.878906 -5.796875 14.957031 -5.191406 13.90625 -4.765625 C 12.863281 -4.347656 11.75 -4.15625 10.5625 -4.1875 L 10.015625 -7.109375 C 9.984375 -7.222656 9.925781 -7.269531 9.84375 -7.25 C 9.757812 -7.226562 9.71875 -7.160156 9.71875 -7.046875 L 9.71875 -4.546875 C 9.71875 -3.671875 9.5 -2.867188 9.0625 -2.140625 C 8.632812 -1.410156 8.054688 -0.820312 7.328125 -0.375 C 6.609375 0.0703125 5.8125 0.296875 4.9375 0.296875 Z M 10.171875 -13.734375 C 10.085938 -13.734375 10.007812 -13.734375 9.9375 -13.734375 C 9.875 -13.734375 9.800781 -13.710938 9.71875 -13.671875 L 9.71875 -11.625 C 9.882812 -11.53125 10.035156 -11.484375 10.171875 -11.484375 C 10.484375 -11.484375 10.753906 -11.59375 10.984375 -11.8125 C 11.210938 -12.039062 11.328125 -12.316406 11.328125 -12.640625 C 11.328125 -12.953125 11.210938 -13.210938 10.984375 -13.421875 C 10.753906 -13.628906 10.484375 -13.734375 10.171875 -13.734375 Z M 10.171875 -13.734375 "/></g></g></g><g fill="#d17dd5" fill-opacity="1"><g transform="translate(110.691083, 28.854051)"><g><path d="M 10.796875 -21.109375 C 12.285156 -21.109375 13.6875 -20.832031 15 -20.28125 C 16.320312 -19.726562 17.476562 -18.957031 18.46875 -17.96875 C 19.457031 -16.988281 20.234375 -15.847656 20.796875 -14.546875 C 21.359375 -13.253906 21.640625 -11.863281 21.640625 -10.375 C 21.640625 -8.882812 21.359375 -7.488281 20.796875 -6.1875 C 20.234375 -4.894531 19.457031 -3.765625 18.46875 -2.796875 C 17.476562 -1.828125 16.320312 -1.066406 15 -0.515625 C 13.6875 0.0234375 12.285156 0.296875 10.796875 0.296875 C 9.328125 0.296875 7.9375 0.0234375 6.625 -0.515625 C 5.320312 -1.066406 4.171875 -1.828125 3.171875 -2.796875 C 2.179688 -3.765625 1.40625 -4.894531 0.84375 -6.1875 C 0.28125 -7.488281 0 -8.882812 0 -10.375 C 0 -11.863281 0.28125 -13.253906 0.84375 -14.546875 C 1.40625 -15.847656 2.179688 -16.988281 3.171875 -17.96875 C 4.171875 -18.957031 5.320312 -19.726562 6.625 -20.28125 C 7.9375 -20.832031 9.328125 -21.109375 10.796875 -21.109375 Z M 10.796875 -11.6875 C 10.492188 -11.6875 10.222656 -11.578125 9.984375 -11.359375 C 9.753906 -11.140625 9.640625 -10.84375 9.640625 -10.46875 C 9.640625 -10.132812 9.753906 -9.84375 9.984375 -9.59375 C 10.222656 -9.34375 10.492188 -9.21875 10.796875 -9.21875 C 11.128906 -9.21875 11.421875 -9.34375 11.671875 -9.59375 C 11.921875 -9.84375 12.046875 -10.132812 12.046875 -10.46875 C 12.046875 -10.84375 11.921875 -11.140625 11.671875 -11.359375 C 11.421875 -11.578125 11.128906 -11.6875 10.796875 -11.6875 Z M 10.796875 -11.6875 "/></g></g></g><g fill="#d17dd5" fill-opacity="1"><g transform="translate(133.139094, 28.854051)"><g><path d="M 4.703125 0 C 3.828125 0 3.03125 -0.21875 2.3125 -0.65625 C 1.601562 -1.09375 1.039062 -1.671875 0.625 -2.390625 C 0.207031 -3.117188 0 -3.90625 0 -4.75 L 0 -16.4375 C 0 -17.3125 0.207031 -18.097656 0.625 -18.796875 C 1.039062 -19.503906 1.601562 -20.066406 2.3125 -20.484375 C 3.03125 -20.898438 3.828125 -21.109375 4.703125 -21.109375 C 5.609375 -21.109375 6.414062 -20.898438 7.125 -20.484375 C 7.84375 -20.066406 8.414062 -19.503906 8.84375 -18.796875 C 9.269531 -18.097656 9.484375 -17.3125 9.484375 -16.4375 L 9.484375 -4.75 C 9.484375 -3.90625 9.269531 -3.117188 8.84375 -2.390625 C 8.414062 -1.671875 7.84375 -1.09375 7.125 -0.65625 C 6.414062 -0.21875 5.609375 0 4.703125 0 Z M 4.703125 0 "/></g></g></g><g fill="#d17dd5" fill-opacity="1"><g transform="translate(143.57519, 28.854051)"><g><path d="M 21.109375 -4.375 C 21.109375 -3.363281 20.890625 -2.507812 20.453125 -1.8125 C 20.015625 -1.113281 19.4375 -0.585938 18.71875 -0.234375 C 18.007812 0.117188 17.238281 0.296875 16.40625 0.296875 C 15.789062 0.296875 15.191406 0.179688 14.609375 -0.046875 C 14.023438 -0.273438 13.503906 -0.617188 13.046875 -1.078125 L 7.9375 -6.21875 C 7.894531 -6.3125 7.828125 -6.304688 7.734375 -6.203125 C 7.648438 -6.109375 7.628906 -6.015625 7.671875 -5.921875 L 9.359375 -3.296875 C 9.148438 -2.265625 8.609375 -1.40625 7.734375 -0.71875 C 6.859375 -0.0390625 5.863281 0.296875 4.75 0.296875 C 3.882812 0.296875 3.085938 0.0820312 2.359375 -0.34375 C 1.640625 -0.769531 1.066406 -1.335938 0.640625 -2.046875 C 0.210938 -2.765625 0 -3.566406 0 -4.453125 L 0 -16.359375 C 0 -17.222656 0.210938 -18.007812 0.640625 -18.71875 C 1.066406 -19.4375 1.640625 -20.015625 2.359375 -20.453125 C 3.085938 -20.890625 3.882812 -21.109375 4.75 -21.109375 C 5.46875 -21.109375 6.144531 -20.941406 6.78125 -20.609375 C 7.414062 -20.285156 7.953125 -19.898438 8.390625 -19.453125 L 13.234375 -14.6875 C 13.273438 -14.601562 13.335938 -14.59375 13.421875 -14.65625 C 13.515625 -14.71875 13.539062 -14.785156 13.5 -14.859375 L 11.75 -17.421875 C 11.90625 -18.097656 12.203125 -18.710938 12.640625 -19.265625 C 13.078125 -19.816406 13.613281 -20.257812 14.25 -20.59375 C 14.894531 -20.9375 15.585938 -21.109375 16.328125 -21.109375 C 17.378906 -21.109375 18.253906 -20.890625 18.953125 -20.453125 C 19.660156 -20.015625 20.195312 -19.4375 20.5625 -18.71875 C 20.925781 -18.007812 21.109375 -17.222656 21.109375 -16.359375 Z M 21.109375 -4.375 "/></g></g></g><g fill="#d17dd5" fill-opacity="1"><g transform="translate(165.577209, 28.854051)"><g><path d="M 13.96875 -21.109375 C 14.863281 -21.109375 15.671875 -20.890625 16.390625 -20.453125 C 17.117188 -20.015625 17.695312 -19.429688 18.125 -18.703125 C 18.550781 -17.984375 18.765625 -17.191406 18.765625 -16.328125 C 18.765625 -15.472656 18.554688 -14.691406 18.140625 -13.984375 C 17.722656 -13.285156 17.160156 -12.71875 16.453125 -12.28125 C 15.753906 -11.84375 14.957031 -11.625 14.0625 -11.625 L 14.09375 -4.484375 C 14.09375 -3.617188 13.875 -2.816406 13.4375 -2.078125 C 13 -1.347656 12.414062 -0.765625 11.6875 -0.328125 C 10.96875 0.109375 10.175781 0.328125 9.3125 0.328125 C 8.457031 0.328125 7.671875 0.109375 6.953125 -0.328125 C 6.242188 -0.765625 5.675781 -1.347656 5.25 -2.078125 C 4.820312 -2.816406 4.609375 -3.617188 4.609375 -4.484375 L 4.609375 -11.625 C 3.734375 -11.625 2.9375 -11.84375 2.21875 -12.28125 C 1.507812 -12.71875 0.945312 -13.285156 0.53125 -13.984375 C 0.113281 -14.691406 -0.09375 -15.472656 -0.09375 -16.328125 C -0.09375 -17.191406 0.113281 -17.984375 0.53125 -18.703125 C 0.945312 -19.429688 1.507812 -20.015625 2.21875 -20.453125 C 2.9375 -20.890625 3.734375 -21.109375 4.609375 -21.109375 Z M 13.96875 -21.109375 "/></g></g></g><g fill="#d17dd5" fill-opacity="1"><g transform="translate(184.788492, 28.854051)"><g/></g></g></svg>