<svg xmlns="http://www.w3.org/2000/svg" xmlns:xlink="http://www.w3.org/1999/xlink" width="250" zoomAndPan="magnify" viewBox="0 0 187.5 37.5" height="50" preserveAspectRatio="xMidYMid meet" version="1.0"><defs><g/><clipPath id="8b8daf96b2"><path d="M 4 0 L 89 0 L 89 37.007812 L 4 37.007812 Z M 4 0 " clip-rule="nonzero"/></clipPath><clipPath id="cf2f8845b5"><rect x="0" width="85" y="0" height="38"/></clipPath><clipPath id="315e752f63"><path d="M 86 0 L 174 0 L 174 37.007812 L 86 37.007812 Z M 86 0 " clip-rule="nonzero"/></clipPath><clipPath id="3afb216db5"><rect x="0" width="88" y="0" height="38"/></clipPath></defs><g clip-path="url(#8b8daf96b2)"><g transform="matrix(1, 0, 0, 1, 4, -0.000000000000001478)"><g clip-path="url(#cf2f8845b5)"><g fill="#ed0694" fill-opacity="0.5804"><g transform="translate(3.081113, 32.137835)"><g><path d="M 12.1875 -0.625 C 8.15625 -0.625 5.195312 -1.253906 3.3125 -2.515625 C 1.4375 -3.785156 0.5 -5.546875 0.5 -7.796875 C 0.5 -8.941406 0.828125 -9.929688 1.484375 -10.765625 C 2.140625 -11.597656 2.785156 -12.113281 3.421875 -12.3125 C 5.484375 -10.945312 8.179688 -10.265625 11.515625 -10.265625 C 11.847656 -10.265625 12.015625 -10.429688 12.015625 -10.765625 C 12.015625 -11.097656 11.847656 -11.265625 11.515625 -11.265625 C 7.898438 -11.265625 5.160156 -12.039062 3.296875 -13.59375 C 1.429688 -15.15625 0.5 -17.328125 0.5 -20.109375 C 0.5 -21.671875 0.851562 -23.09375 1.5625 -24.375 C 2.269531 -25.65625 3.429688 -26.675781 5.046875 -27.4375 C 6.660156 -28.207031 8.816406 -28.59375 11.515625 -28.59375 C 13.347656 -28.59375 14.972656 -28.367188 16.390625 -27.921875 C 17.816406 -27.472656 18.929688 -26.796875 19.734375 -25.890625 C 20.546875 -24.992188 20.953125 -23.832031 20.953125 -22.40625 C 20.953125 -21.289062 20.773438 -20.375 20.421875 -19.65625 C 20.078125 -18.9375 19.722656 -18.410156 19.359375 -18.078125 C 17.160156 -19.765625 13.960938 -20.609375 9.765625 -20.609375 C 9.429688 -20.609375 9.265625 -20.441406 9.265625 -20.109375 C 9.265625 -19.773438 9.429688 -19.609375 9.765625 -19.609375 C 14.023438 -19.609375 17.132812 -18.765625 19.09375 -17.078125 C 21.050781 -15.398438 22.03125 -13.0625 22.03125 -10.0625 C 22.03125 -8.25 21.664062 -6.632812 20.9375 -5.21875 C 20.21875 -3.800781 19.132812 -2.679688 17.6875 -1.859375 C 16.25 -1.035156 14.414062 -0.625 12.1875 -0.625 Z M 12.1875 -0.625 "/></g></g></g><g fill="#ed0694" fill-opacity="0.5804"><g transform="translate(24.315229, 32.137835)"><g><path d="M 7.046875 -0.5 C 5.773438 -0.5 4.710938 -0.785156 3.859375 -1.359375 C 3.015625 -1.929688 2.347656 -2.703125 1.859375 -3.671875 C 1.367188 -4.648438 1.019531 -5.726562 0.8125 -6.90625 C 0.601562 -8.09375 0.5 -9.28125 0.5 -10.46875 C 0.5 -12.78125 0.847656 -14.660156 1.546875 -16.109375 C 2.242188 -17.554688 3.140625 -18.625 4.234375 -19.3125 C 5.335938 -20.007812 6.472656 -20.359375 7.640625 -20.359375 C 8.390625 -20.359375 9.164062 -20.226562 9.96875 -19.96875 C 10.78125 -19.707031 11.523438 -19.269531 12.203125 -18.65625 C 12.890625 -18.039062 13.382812 -17.207031 13.6875 -16.15625 C 13.800781 -15.90625 13.96875 -15.78125 14.1875 -15.78125 C 14.382812 -15.78125 14.523438 -15.851562 14.609375 -16 C 14.691406 -16.15625 14.71875 -16.289062 14.6875 -16.40625 C 14.488281 -17.039062 14.238281 -17.601562 13.9375 -18.09375 C 13.632812 -18.582031 13.285156 -19.003906 12.890625 -19.359375 C 13.554688 -20.023438 14.445312 -20.359375 15.5625 -20.359375 C 16.644531 -20.359375 17.515625 -20.085938 18.171875 -19.546875 C 18.828125 -19.003906 19.328125 -18.296875 19.671875 -17.421875 C 20.023438 -16.546875 20.265625 -15.59375 20.390625 -14.5625 C 20.515625 -13.53125 20.578125 -12.53125 20.578125 -11.5625 C 20.578125 -10.414062 20.535156 -9.203125 20.453125 -7.921875 C 20.367188 -6.648438 20.164062 -5.445312 19.84375 -4.3125 C 19.519531 -3.1875 19.023438 -2.269531 18.359375 -1.5625 C 17.691406 -0.851562 16.757812 -0.5 15.5625 -0.5 C 14.613281 -0.5 13.820312 -0.722656 13.1875 -1.171875 C 12.550781 -1.617188 12.050781 -2.226562 11.6875 -3 C 10.875 -2.082031 10.117188 -1.4375 9.421875 -1.0625 C 8.734375 -0.6875 7.941406 -0.5 7.046875 -0.5 Z M 9.515625 -7.890625 C 9.460938 -7.742188 9.476562 -7.585938 9.5625 -7.421875 C 9.644531 -7.253906 9.78125 -7.171875 9.96875 -7.171875 C 10.195312 -7.171875 10.351562 -7.269531 10.4375 -7.46875 C 10.707031 -8.082031 10.878906 -8.832031 10.953125 -9.71875 C 11.023438 -10.613281 11.007812 -11.484375 10.90625 -12.328125 C 10.8125 -13.179688 10.625 -13.84375 10.34375 -14.3125 C 10.257812 -14.476562 10.125 -14.5625 9.9375 -14.5625 C 9.738281 -14.5625 9.597656 -14.46875 9.515625 -14.28125 C 9.429688 -14.101562 9.429688 -13.945312 9.515625 -13.8125 C 9.734375 -13.425781 9.882812 -12.863281 9.96875 -12.125 C 10.050781 -11.382812 10.054688 -10.625 9.984375 -9.84375 C 9.921875 -9.070312 9.765625 -8.421875 9.515625 -7.890625 Z M 9.515625 -7.890625 "/></g></g></g><g fill="#ed0694" fill-opacity="0.5804"><g transform="translate(44.089188, 32.137835)"><g><path d="M 10.265625 -0.5 C 8.816406 -0.5 7.539062 -0.789062 6.4375 -1.375 C 5.34375 -1.957031 4.421875 -2.726562 3.671875 -3.6875 C 2.921875 -4.65625 2.304688 -5.707031 1.828125 -6.84375 C 1.359375 -7.988281 1.019531 -9.113281 0.8125 -10.21875 C 0.601562 -11.332031 0.5 -12.335938 0.5 -13.234375 C 0.5 -14.648438 0.632812 -15.894531 0.90625 -16.96875 C 1.1875 -18.039062 1.695312 -18.875 2.4375 -19.46875 C 3.175781 -20.0625 4.203125 -20.359375 5.515625 -20.359375 C 6.648438 -20.359375 7.566406 -20.082031 8.265625 -19.53125 C 8.960938 -18.976562 9.460938 -18.269531 9.765625 -17.40625 C 9.316406 -16.257812 9.03125 -15.007812 8.90625 -13.65625 C 8.78125 -12.3125 8.800781 -10.992188 8.96875 -9.703125 C 9.132812 -8.410156 9.398438 -7.273438 9.765625 -6.296875 C 9.847656 -6.078125 10 -5.96875 10.21875 -5.96875 C 10.414062 -5.96875 10.554688 -6.039062 10.640625 -6.1875 C 10.722656 -6.34375 10.738281 -6.492188 10.6875 -6.640625 C 10.320312 -7.554688 10.0625 -8.601562 9.90625 -9.78125 C 9.757812 -10.96875 9.734375 -12.179688 9.828125 -13.421875 C 9.921875 -14.660156 10.171875 -15.800781 10.578125 -16.84375 C 10.984375 -17.882812 11.550781 -18.726562 12.28125 -19.375 C 13.019531 -20.03125 13.945312 -20.359375 15.0625 -20.359375 C 16.375 -20.359375 17.382812 -20.0625 18.09375 -19.46875 C 18.800781 -18.875 19.285156 -18.039062 19.546875 -16.96875 C 19.816406 -15.894531 19.953125 -14.648438 19.953125 -13.234375 C 19.953125 -12.335938 19.832031 -11.328125 19.59375 -10.203125 C 19.351562 -9.078125 18.988281 -7.941406 18.5 -6.796875 C 18.019531 -5.660156 17.40625 -4.617188 16.65625 -3.671875 C 15.90625 -2.722656 15 -1.957031 13.9375 -1.375 C 12.882812 -0.789062 11.660156 -0.5 10.265625 -0.5 Z M 10.265625 -0.5 "/></g></g></g><g fill="#ed0694" fill-opacity="0.5804"><g transform="translate(63.237366, 32.137835)"><g><path d="M 11.015625 -0.5 C 8.535156 -0.5 6.523438 -0.953125 4.984375 -1.859375 C 3.441406 -2.765625 2.304688 -3.976562 1.578125 -5.5 C 0.859375 -7.03125 0.5 -8.703125 0.5 -10.515625 C 0.5 -13.492188 1.3125 -15.878906 2.9375 -17.671875 C 4.570312 -19.460938 6.957031 -20.359375 10.09375 -20.359375 C 12.289062 -20.359375 14.078125 -20.003906 15.453125 -19.296875 C 16.835938 -18.585938 17.863281 -17.679688 18.53125 -16.578125 C 19.195312 -15.484375 19.53125 -14.328125 19.53125 -13.109375 C 19.53125 -11.546875 19.222656 -10.289062 18.609375 -9.34375 C 18.003906 -8.394531 17.21875 -7.710938 16.25 -7.296875 C 15.289062 -6.878906 14.3125 -6.671875 13.3125 -6.671875 C 12.28125 -6.671875 11.347656 -6.796875 10.515625 -7.046875 C 9.679688 -7.296875 8.972656 -7.726562 8.390625 -8.34375 C 8.273438 -8.457031 8.148438 -8.515625 8.015625 -8.515625 C 7.679688 -8.515625 7.515625 -8.347656 7.515625 -8.015625 C 7.515625 -7.867188 7.554688 -7.753906 7.640625 -7.671875 C 8.359375 -6.953125 9.203125 -6.4375 10.171875 -6.125 C 11.148438 -5.820312 12.195312 -5.671875 13.3125 -5.671875 C 14.207031 -5.671875 15.101562 -5.820312 16 -6.125 C 16.90625 -6.4375 17.707031 -6.925781 18.40625 -7.59375 C 18.601562 -7.394531 18.769531 -7.085938 18.90625 -6.671875 C 19.039062 -6.253906 19.109375 -5.769531 19.109375 -5.21875 C 19.109375 -3.6875 18.421875 -2.515625 17.046875 -1.703125 C 15.671875 -0.898438 13.660156 -0.5 11.015625 -0.5 Z M 10.21875 -15.1875 C 10.382812 -14.9375 10.492188 -14.5625 10.546875 -14.0625 C 10.609375 -13.5625 10.617188 -13.050781 10.578125 -12.53125 C 10.535156 -12.019531 10.429688 -11.585938 10.265625 -11.234375 C 10.210938 -11.085938 10.226562 -10.929688 10.3125 -10.765625 C 10.394531 -10.597656 10.53125 -10.515625 10.71875 -10.515625 C 10.945312 -10.515625 11.101562 -10.613281 11.1875 -10.8125 C 11.382812 -11.257812 11.503906 -11.796875 11.546875 -12.421875 C 11.585938 -13.046875 11.578125 -13.65625 11.515625 -14.25 C 11.460938 -14.851562 11.335938 -15.332031 11.140625 -15.6875 C 11.023438 -15.851562 10.875 -15.9375 10.6875 -15.9375 C 10.488281 -15.9375 10.347656 -15.847656 10.265625 -15.671875 C 10.179688 -15.492188 10.164062 -15.332031 10.21875 -15.1875 Z M 10.21875 -15.1875 "/></g></g></g><g fill="#24127b" fill-opacity="1"><g transform="translate(1.236309, 30.293031)"><g><path d="M 12.1875 -0.625 C 8.15625 -0.625 5.195312 -1.253906 3.3125 -2.515625 C 1.4375 -3.785156 0.5 -5.546875 0.5 -7.796875 C 0.5 -8.941406 0.828125 -9.929688 1.484375 -10.765625 C 2.140625 -11.597656 2.785156 -12.113281 3.421875 -12.3125 C 5.484375 -10.945312 8.179688 -10.265625 11.515625 -10.265625 C 11.847656 -10.265625 12.015625 -10.429688 12.015625 -10.765625 C 12.015625 -11.097656 11.847656 -11.265625 11.515625 -11.265625 C 7.898438 -11.265625 5.160156 -12.039062 3.296875 -13.59375 C 1.429688 -15.15625 0.5 -17.328125 0.5 -20.109375 C 0.5 -21.671875 0.851562 -23.09375 1.5625 -24.375 C 2.269531 -25.65625 3.429688 -26.675781 5.046875 -27.4375 C 6.660156 -28.207031 8.816406 -28.59375 11.515625 -28.59375 C 13.347656 -28.59375 14.972656 -28.367188 16.390625 -27.921875 C 17.816406 -27.472656 18.929688 -26.796875 19.734375 -25.890625 C 20.546875 -24.992188 20.953125 -23.832031 20.953125 -22.40625 C 20.953125 -21.289062 20.773438 -20.375 20.421875 -19.65625 C 20.078125 -18.9375 19.722656 -18.410156 19.359375 -18.078125 C 17.160156 -19.765625 13.960938 -20.609375 9.765625 -20.609375 C 9.429688 -20.609375 9.265625 -20.441406 9.265625 -20.109375 C 9.265625 -19.773438 9.429688 -19.609375 9.765625 -19.609375 C 14.023438 -19.609375 17.132812 -18.765625 19.09375 -17.078125 C 21.050781 -15.398438 22.03125 -13.0625 22.03125 -10.0625 C 22.03125 -8.25 21.664062 -6.632812 20.9375 -5.21875 C 20.21875 -3.800781 19.132812 -2.679688 17.6875 -1.859375 C 16.25 -1.035156 14.414062 -0.625 12.1875 -0.625 Z M 12.1875 -0.625 "/></g></g></g><g fill="#24127b" fill-opacity="1"><g transform="translate(22.470425, 30.293031)"><g><path d="M 7.046875 -0.5 C 5.773438 -0.5 4.710938 -0.785156 3.859375 -1.359375 C 3.015625 -1.929688 2.347656 -2.703125 1.859375 -3.671875 C 1.367188 -4.648438 1.019531 -5.726562 0.8125 -6.90625 C 0.601562 -8.09375 0.5 -9.28125 0.5 -10.46875 C 0.5 -12.78125 0.847656 -14.660156 1.546875 -16.109375 C 2.242188 -17.554688 3.140625 -18.625 4.234375 -19.3125 C 5.335938 -20.007812 6.472656 -20.359375 7.640625 -20.359375 C 8.390625 -20.359375 9.164062 -20.226562 9.96875 -19.96875 C 10.78125 -19.707031 11.523438 -19.269531 12.203125 -18.65625 C 12.890625 -18.039062 13.382812 -17.207031 13.6875 -16.15625 C 13.800781 -15.90625 13.96875 -15.78125 14.1875 -15.78125 C 14.382812 -15.78125 14.523438 -15.851562 14.609375 -16 C 14.691406 -16.15625 14.71875 -16.289062 14.6875 -16.40625 C 14.488281 -17.039062 14.238281 -17.601562 13.9375 -18.09375 C 13.632812 -18.582031 13.285156 -19.003906 12.890625 -19.359375 C 13.554688 -20.023438 14.445312 -20.359375 15.5625 -20.359375 C 16.644531 -20.359375 17.515625 -20.085938 18.171875 -19.546875 C 18.828125 -19.003906 19.328125 -18.296875 19.671875 -17.421875 C 20.023438 -16.546875 20.265625 -15.59375 20.390625 -14.5625 C 20.515625 -13.53125 20.578125 -12.53125 20.578125 -11.5625 C 20.578125 -10.414062 20.535156 -9.203125 20.453125 -7.921875 C 20.367188 -6.648438 20.164062 -5.445312 19.84375 -4.3125 C 19.519531 -3.1875 19.023438 -2.269531 18.359375 -1.5625 C 17.691406 -0.851562 16.757812 -0.5 15.5625 -0.5 C 14.613281 -0.5 13.820312 -0.722656 13.1875 -1.171875 C 12.550781 -1.617188 12.050781 -2.226562 11.6875 -3 C 10.875 -2.082031 10.117188 -1.4375 9.421875 -1.0625 C 8.734375 -0.6875 7.941406 -0.5 7.046875 -0.5 Z M 9.515625 -7.890625 C 9.460938 -7.742188 9.476562 -7.585938 9.5625 -7.421875 C 9.644531 -7.253906 9.78125 -7.171875 9.96875 -7.171875 C 10.195312 -7.171875 10.351562 -7.269531 10.4375 -7.46875 C 10.707031 -8.082031 10.878906 -8.832031 10.953125 -9.71875 C 11.023438 -10.613281 11.007812 -11.484375 10.90625 -12.328125 C 10.8125 -13.179688 10.625 -13.84375 10.34375 -14.3125 C 10.257812 -14.476562 10.125 -14.5625 9.9375 -14.5625 C 9.738281 -14.5625 9.597656 -14.46875 9.515625 -14.28125 C 9.429688 -14.101562 9.429688 -13.945312 9.515625 -13.8125 C 9.734375 -13.425781 9.882812 -12.863281 9.96875 -12.125 C 10.050781 -11.382812 10.054688 -10.625 9.984375 -9.84375 C 9.921875 -9.070312 9.765625 -8.421875 9.515625 -7.890625 Z M 9.515625 -7.890625 "/></g></g></g><g fill="#24127b" fill-opacity="1"><g transform="translate(42.244384, 30.293031)"><g><path d="M 10.265625 -0.5 C 8.816406 -0.5 7.539062 -0.789062 6.4375 -1.375 C 5.34375 -1.957031 4.421875 -2.726562 3.671875 -3.6875 C 2.921875 -4.65625 2.304688 -5.707031 1.828125 -6.84375 C 1.359375 -7.988281 1.019531 -9.113281 0.8125 -10.21875 C 0.601562 -11.332031 0.5 -12.335938 0.5 -13.234375 C 0.5 -14.648438 0.632812 -15.894531 0.90625 -16.96875 C 1.1875 -18.039062 1.695312 -18.875 2.4375 -19.46875 C 3.175781 -20.0625 4.203125 -20.359375 5.515625 -20.359375 C 6.648438 -20.359375 7.566406 -20.082031 8.265625 -19.53125 C 8.960938 -18.976562 9.460938 -18.269531 9.765625 -17.40625 C 9.316406 -16.257812 9.03125 -15.007812 8.90625 -13.65625 C 8.78125 -12.3125 8.800781 -10.992188 8.96875 -9.703125 C 9.132812 -8.410156 9.398438 -7.273438 9.765625 -6.296875 C 9.847656 -6.078125 10 -5.96875 10.21875 -5.96875 C 10.414062 -5.96875 10.554688 -6.039062 10.640625 -6.1875 C 10.722656 -6.34375 10.738281 -6.492188 10.6875 -6.640625 C 10.320312 -7.554688 10.0625 -8.601562 9.90625 -9.78125 C 9.757812 -10.96875 9.734375 -12.179688 9.828125 -13.421875 C 9.921875 -14.660156 10.171875 -15.800781 10.578125 -16.84375 C 10.984375 -17.882812 11.550781 -18.726562 12.28125 -19.375 C 13.019531 -20.03125 13.945312 -20.359375 15.0625 -20.359375 C 16.375 -20.359375 17.382812 -20.0625 18.09375 -19.46875 C 18.800781 -18.875 19.285156 -18.039062 19.546875 -16.96875 C 19.816406 -15.894531 19.953125 -14.648438 19.953125 -13.234375 C 19.953125 -12.335938 19.832031 -11.328125 19.59375 -10.203125 C 19.351562 -9.078125 18.988281 -7.941406 18.5 -6.796875 C 18.019531 -5.660156 17.40625 -4.617188 16.65625 -3.671875 C 15.90625 -2.722656 15 -1.957031 13.9375 -1.375 C 12.882812 -0.789062 11.660156 -0.5 10.265625 -0.5 Z M 10.265625 -0.5 "/></g></g></g><g fill="#24127b" fill-opacity="1"><g transform="translate(61.392562, 30.293031)"><g><path d="M 11.015625 -0.5 C 8.535156 -0.5 6.523438 -0.953125 4.984375 -1.859375 C 3.441406 -2.765625 2.304688 -3.976562 1.578125 -5.5 C 0.859375 -7.03125 0.5 -8.703125 0.5 -10.515625 C 0.5 -13.492188 1.3125 -15.878906 2.9375 -17.671875 C 4.570312 -19.460938 6.957031 -20.359375 10.09375 -20.359375 C 12.289062 -20.359375 14.078125 -20.003906 15.453125 -19.296875 C 16.835938 -18.585938 17.863281 -17.679688 18.53125 -16.578125 C 19.195312 -15.484375 19.53125 -14.328125 19.53125 -13.109375 C 19.53125 -11.546875 19.222656 -10.289062 18.609375 -9.34375 C 18.003906 -8.394531 17.21875 -7.710938 16.25 -7.296875 C 15.289062 -6.878906 14.3125 -6.671875 13.3125 -6.671875 C 12.28125 -6.671875 11.347656 -6.796875 10.515625 -7.046875 C 9.679688 -7.296875 8.972656 -7.726562 8.390625 -8.34375 C 8.273438 -8.457031 8.148438 -8.515625 8.015625 -8.515625 C 7.679688 -8.515625 7.515625 -8.347656 7.515625 -8.015625 C 7.515625 -7.867188 7.554688 -7.753906 7.640625 -7.671875 C 8.359375 -6.953125 9.203125 -6.4375 10.171875 -6.125 C 11.148438 -5.820312 12.195312 -5.671875 13.3125 -5.671875 C 14.207031 -5.671875 15.101562 -5.820312 16 -6.125 C 16.90625 -6.4375 17.707031 -6.925781 18.40625 -7.59375 C 18.601562 -7.394531 18.769531 -7.085938 18.90625 -6.671875 C 19.039062 -6.253906 19.109375 -5.769531 19.109375 -5.21875 C 19.109375 -3.6875 18.421875 -2.515625 17.046875 -1.703125 C 15.671875 -0.898438 13.660156 -0.5 11.015625 -0.5 Z M 10.21875 -15.1875 C 10.382812 -14.9375 10.492188 -14.5625 10.546875 -14.0625 C 10.609375 -13.5625 10.617188 -13.050781 10.578125 -12.53125 C 10.535156 -12.019531 10.429688 -11.585938 10.265625 -11.234375 C 10.210938 -11.085938 10.226562 -10.929688 10.3125 -10.765625 C 10.394531 -10.597656 10.53125 -10.515625 10.71875 -10.515625 C 10.945312 -10.515625 11.101562 -10.613281 11.1875 -10.8125 C 11.382812 -11.257812 11.503906 -11.796875 11.546875 -12.421875 C 11.585938 -13.046875 11.578125 -13.65625 11.515625 -14.25 C 11.460938 -14.851562 11.335938 -15.332031 11.140625 -15.6875 C 11.023438 -15.851562 10.875 -15.9375 10.6875 -15.9375 C 10.488281 -15.9375 10.347656 -15.847656 10.265625 -15.671875 C 10.179688 -15.492188 10.164062 -15.332031 10.21875 -15.1875 Z M 10.21875 -15.1875 "/></g></g></g></g></g></g><g clip-path="url(#315e752f63)"><g transform="matrix(1, 0, 0, 1, 86, -0.000000000000001478)"><g clip-path="url(#3afb216db5)"><g fill="#9869f6" fill-opacity="0.4"><g transform="translate(3.172322, 33.964778)"><g><path d="M 5.71875 -0.484375 C 4.445312 -0.484375 3.453125 -0.875 2.734375 -1.65625 C 2.023438 -2.445312 1.515625 -3.535156 1.203125 -4.921875 C 0.890625 -6.316406 0.691406 -7.9375 0.609375 -9.78125 C 0.523438 -11.625 0.484375 -13.597656 0.484375 -15.703125 C 0.484375 -18.660156 0.660156 -21.03125 1.015625 -22.8125 C 1.367188 -24.601562 2.09375 -25.898438 3.1875 -26.703125 C 4.28125 -27.515625 5.910156 -27.921875 8.078125 -27.921875 C 9.398438 -27.921875 10.78125 -27.765625 12.21875 -27.453125 C 13.65625 -27.148438 14.992188 -26.617188 16.234375 -25.859375 C 17.484375 -25.097656 18.492188 -24.046875 19.265625 -22.703125 C 20.035156 -21.367188 20.421875 -19.660156 20.421875 -17.578125 C 20.421875 -14.953125 19.742188 -12.921875 18.390625 -11.484375 C 17.035156 -10.054688 15.15625 -9.34375 12.75 -9.34375 C 11.820312 -9.34375 10.878906 -9.488281 9.921875 -9.78125 C 8.960938 -10.082031 8.101562 -10.570312 7.34375 -11.25 C 7.257812 -11.320312 7.148438 -11.359375 7.015625 -11.359375 C 6.691406 -11.359375 6.53125 -11.195312 6.53125 -10.875 C 6.53125 -10.71875 6.585938 -10.597656 6.703125 -10.515625 C 7.316406 -9.921875 8.03125 -9.457031 8.84375 -9.125 C 9.65625 -8.800781 10.46875 -8.585938 11.28125 -8.484375 C 11.257812 -6.023438 10.773438 -4.078125 9.828125 -2.640625 C 8.878906 -1.203125 7.507812 -0.484375 5.71875 -0.484375 Z M 10.671875 -20.625 C 10.671875 -20.539062 10.695312 -20.445312 10.75 -20.34375 C 11 -20.039062 11.160156 -19.625 11.234375 -19.09375 C 11.316406 -18.570312 11.320312 -18.03125 11.25 -17.46875 C 11.1875 -16.914062 11.035156 -16.4375 10.796875 -16.03125 C 10.691406 -15.875 10.6875 -15.710938 10.78125 -15.546875 C 10.875 -15.378906 11.015625 -15.296875 11.203125 -15.296875 C 11.390625 -15.296875 11.523438 -15.378906 11.609375 -15.546875 C 11.910156 -16.035156 12.109375 -16.625 12.203125 -17.3125 C 12.296875 -18 12.285156 -18.675781 12.171875 -19.34375 C 12.066406 -20.007812 11.863281 -20.53125 11.5625 -20.90625 C 11.425781 -21.039062 11.289062 -21.109375 11.15625 -21.109375 C 10.832031 -21.109375 10.671875 -20.945312 10.671875 -20.625 Z M 10.671875 -20.625 "/></g></g></g><g fill="#9869f6" fill-opacity="0.4"><g transform="translate(22.816343, 33.964778)"><g><path d="M 9.828125 -0.484375 C 7.878906 -0.484375 6.296875 -0.8125 5.078125 -1.46875 C 3.859375 -2.132812 2.910156 -2.992188 2.234375 -4.046875 C 1.554688 -5.109375 1.09375 -6.234375 0.84375 -7.421875 C 0.601562 -8.617188 0.484375 -9.757812 0.484375 -10.84375 C 0.484375 -12.351562 0.785156 -13.789062 1.390625 -15.15625 C 2.003906 -16.53125 3 -17.648438 4.375 -18.515625 C 5.757812 -19.378906 7.578125 -19.8125 9.828125 -19.8125 C 12.066406 -19.8125 13.859375 -19.378906 15.203125 -18.515625 C 16.546875 -17.648438 17.515625 -16.53125 18.109375 -15.15625 C 18.703125 -13.789062 19 -12.351562 19 -10.84375 C 19 -9.757812 18.875 -8.613281 18.625 -7.40625 C 18.382812 -6.207031 17.929688 -5.078125 17.265625 -4.015625 C 16.609375 -2.960938 15.679688 -2.109375 14.484375 -1.453125 C 13.296875 -0.804688 11.742188 -0.484375 9.828125 -0.484375 Z M 9.625 -5.203125 C 9.570312 -5.066406 9.582031 -4.921875 9.65625 -4.765625 C 9.738281 -4.617188 9.875 -4.546875 10.0625 -4.546875 C 10.3125 -4.546875 10.460938 -4.65625 10.515625 -4.875 C 10.921875 -5.976562 11.191406 -7.191406 11.328125 -8.515625 C 11.460938 -9.847656 11.472656 -11.179688 11.359375 -12.515625 C 11.253906 -13.859375 11.023438 -15.070312 10.671875 -16.15625 C 10.617188 -16.375 10.472656 -16.484375 10.234375 -16.484375 C 10.046875 -16.484375 9.910156 -16.40625 9.828125 -16.25 C 9.742188 -16.101562 9.726562 -15.960938 9.78125 -15.828125 C 10.101562 -14.796875 10.316406 -13.648438 10.421875 -12.390625 C 10.535156 -11.140625 10.523438 -9.890625 10.390625 -8.640625 C 10.253906 -7.398438 10 -6.253906 9.625 -5.203125 Z M 9.625 -5.203125 "/></g></g></g><g fill="#9869f6" fill-opacity="0.4"><g transform="translate(41.03979, 33.964778)"><g><path d="M 5.3125 -19.8125 C 4.257812 -19.8125 3.414062 -19.566406 2.78125 -19.078125 C 2.144531 -18.585938 1.664062 -17.941406 1.34375 -17.140625 C 1.019531 -16.347656 0.796875 -15.472656 0.671875 -14.515625 C 0.546875 -13.554688 0.484375 -12.601562 0.484375 -11.65625 C 0.484375 -10.570312 0.515625 -9.382812 0.578125 -8.09375 C 0.648438 -6.8125 0.832031 -5.585938 1.125 -4.421875 C 1.425781 -3.253906 1.910156 -2.304688 2.578125 -1.578125 C 3.242188 -0.847656 4.15625 -0.484375 5.3125 -0.484375 C 6.476562 -0.484375 7.382812 -0.847656 8.03125 -1.578125 C 8.6875 -2.304688 9.15625 -3.242188 9.4375 -4.390625 C 9.71875 -5.546875 9.890625 -6.765625 9.953125 -8.046875 C 10.023438 -9.335938 10.0625 -10.539062 10.0625 -11.65625 C 10.0625 -12.601562 10.007812 -13.554688 9.90625 -14.515625 C 9.800781 -15.472656 9.582031 -16.347656 9.25 -17.140625 C 8.925781 -17.941406 8.453125 -18.585938 7.828125 -19.078125 C 7.210938 -19.566406 6.375 -19.8125 5.3125 -19.8125 Z M 0.53125 -24.3125 C 0.53125 -23.207031 0.984375 -22.34375 1.890625 -21.71875 C 2.796875 -21.09375 3.9375 -20.78125 5.3125 -20.78125 C 6.664062 -20.78125 7.796875 -21.09375 8.703125 -21.71875 C 9.609375 -22.34375 10.0625 -23.207031 10.0625 -24.3125 C 10.0625 -25.34375 9.65625 -26.203125 8.84375 -26.890625 C 8.03125 -27.578125 6.851562 -27.921875 5.3125 -27.921875 C 3.75 -27.921875 2.5625 -27.578125 1.75 -26.890625 C 0.9375 -26.203125 0.53125 -25.34375 0.53125 -24.3125 Z M 0.53125 -24.3125 "/></g></g></g><g fill="#9869f6" fill-opacity="0.4"><g transform="translate(50.33396, 33.964778)"><g><path d="M 5.40625 -0.484375 C 4.238281 -0.484375 3.316406 -0.847656 2.640625 -1.578125 C 1.960938 -2.304688 1.472656 -3.253906 1.171875 -4.421875 C 0.878906 -5.585938 0.691406 -6.8125 0.609375 -8.09375 C 0.523438 -9.382812 0.484375 -10.570312 0.484375 -11.65625 C 0.484375 -12.601562 0.546875 -13.554688 0.671875 -14.515625 C 0.796875 -15.472656 1.023438 -16.347656 1.359375 -17.140625 C 1.703125 -17.941406 2.191406 -18.585938 2.828125 -19.078125 C 3.460938 -19.566406 4.304688 -19.8125 5.359375 -19.8125 C 6.253906 -19.8125 6.988281 -19.640625 7.5625 -19.296875 C 8.144531 -18.960938 8.613281 -18.484375 8.96875 -17.859375 C 8.613281 -17.316406 8.316406 -16.628906 8.078125 -15.796875 C 8.046875 -15.679688 8.070312 -15.550781 8.15625 -15.40625 C 8.238281 -15.257812 8.375 -15.1875 8.5625 -15.1875 C 8.78125 -15.1875 8.941406 -15.304688 9.046875 -15.546875 C 9.515625 -17.171875 10.210938 -18.285156 11.140625 -18.890625 C 12.078125 -19.503906 13.046875 -19.8125 14.046875 -19.8125 C 15.128906 -19.8125 16.007812 -19.503906 16.6875 -18.890625 C 17.363281 -18.285156 17.882812 -17.515625 18.25 -16.578125 C 18.613281 -15.648438 18.863281 -14.691406 19 -13.703125 C 19.132812 -12.710938 19.203125 -11.851562 19.203125 -11.125 C 19.203125 -9.195312 19.078125 -7.421875 18.828125 -5.796875 C 18.585938 -4.179688 18.128906 -2.890625 17.453125 -1.921875 C 16.773438 -0.960938 15.800781 -0.484375 14.53125 -0.484375 C 13.175781 -0.484375 12.226562 -0.847656 11.6875 -1.578125 C 11.144531 -2.304688 10.78125 -3.132812 10.59375 -4.0625 C 10.832031 -4.976562 10.957031 -5.929688 10.96875 -6.921875 C 10.988281 -7.910156 10.957031 -8.835938 10.875 -9.703125 C 10.789062 -10.566406 10.695312 -11.285156 10.59375 -11.859375 C 10.539062 -12.128906 10.378906 -12.265625 10.109375 -12.265625 C 9.972656 -12.265625 9.847656 -12.203125 9.734375 -12.078125 C 9.628906 -11.953125 9.59375 -11.820312 9.625 -11.6875 C 9.757812 -11.0625 9.863281 -10.273438 9.9375 -9.328125 C 10.019531 -8.390625 10.035156 -7.410156 9.984375 -6.390625 C 9.929688 -5.378906 9.75 -4.421875 9.4375 -3.515625 C 9.125 -2.609375 8.640625 -1.875 7.984375 -1.3125 C 7.335938 -0.757812 6.476562 -0.484375 5.40625 -0.484375 Z M 5.40625 -0.484375 "/></g></g></g><g fill="#9869f6" fill-opacity="0.4"><g transform="translate(68.760343, 33.964778)"><g><path d="M 10.03125 -0.484375 C 7.59375 -0.484375 5.675781 -1.050781 4.28125 -2.1875 C 2.882812 -3.320312 1.898438 -4.867188 1.328125 -6.828125 C 0.765625 -8.796875 0.484375 -11.023438 0.484375 -13.515625 C 0.484375 -16.710938 0.625 -19.378906 0.90625 -21.515625 C 1.195312 -23.648438 1.75 -25.25 2.5625 -26.3125 C 3.375 -27.382812 4.578125 -27.921875 6.171875 -27.921875 C 7.679688 -27.921875 8.863281 -27.375 9.71875 -26.28125 C 10.570312 -25.1875 11.023438 -23.351562 11.078125 -20.78125 L 10.796875 -20.78125 C 9.984375 -20.78125 9.078125 -20.695312 8.078125 -20.53125 C 7.078125 -20.375 6.265625 -20.132812 5.640625 -19.8125 C 5.484375 -19.695312 5.40625 -19.546875 5.40625 -19.359375 C 5.40625 -19.171875 5.484375 -19.035156 5.640625 -18.953125 C 5.804688 -18.867188 5.96875 -18.859375 6.125 -18.921875 C 6.664062 -19.210938 7.390625 -19.429688 8.296875 -19.578125 C 9.203125 -19.734375 10.035156 -19.8125 10.796875 -19.8125 C 12.253906 -19.8125 13.453125 -19.546875 14.390625 -19.015625 C 15.328125 -18.492188 16.023438 -17.804688 16.484375 -16.953125 C 16.941406 -16.097656 17.171875 -15.179688 17.171875 -14.203125 C 17.171875 -12.796875 16.878906 -11.703125 16.296875 -10.921875 C 15.710938 -10.140625 14.8125 -9.75 13.59375 -9.75 C 13.1875 -9.75 12.710938 -9.832031 12.171875 -10 C 11.628906 -10.175781 11.15625 -10.472656 10.75 -10.890625 C 10.351562 -11.316406 10.15625 -11.910156 10.15625 -12.671875 C 10.15625 -12.992188 9.988281 -13.15625 9.65625 -13.15625 C 9.332031 -13.15625 9.171875 -12.992188 9.171875 -12.671875 C 9.171875 -11.660156 9.441406 -10.867188 9.984375 -10.296875 C 10.523438 -9.734375 11.140625 -9.335938 11.828125 -9.109375 C 12.523438 -8.878906 13.113281 -8.765625 13.59375 -8.765625 C 13.894531 -8.765625 14.164062 -8.785156 14.40625 -8.828125 C 14.65625 -8.867188 14.882812 -8.914062 15.09375 -8.96875 C 15.5625 -8.75 16.023438 -8.363281 16.484375 -7.8125 C 16.941406 -7.257812 17.171875 -6.46875 17.171875 -5.4375 C 17.171875 -3.789062 16.554688 -2.550781 15.328125 -1.71875 C 14.097656 -0.894531 12.332031 -0.484375 10.03125 -0.484375 Z M 10.03125 -0.484375 "/></g></g></g><g fill="#9869f6" fill-opacity="1"><g transform="translate(1.377982, 32.170438)"><g><path d="M 5.71875 -0.484375 C 4.445312 -0.484375 3.453125 -0.875 2.734375 -1.65625 C 2.023438 -2.445312 1.515625 -3.535156 1.203125 -4.921875 C 0.890625 -6.316406 0.691406 -7.9375 0.609375 -9.78125 C 0.523438 -11.625 0.484375 -13.597656 0.484375 -15.703125 C 0.484375 -18.660156 0.660156 -21.03125 1.015625 -22.8125 C 1.367188 -24.601562 2.09375 -25.898438 3.1875 -26.703125 C 4.28125 -27.515625 5.910156 -27.921875 8.078125 -27.921875 C 9.398438 -27.921875 10.78125 -27.765625 12.21875 -27.453125 C 13.65625 -27.148438 14.992188 -26.617188 16.234375 -25.859375 C 17.484375 -25.097656 18.492188 -24.046875 19.265625 -22.703125 C 20.035156 -21.367188 20.421875 -19.660156 20.421875 -17.578125 C 20.421875 -14.953125 19.742188 -12.921875 18.390625 -11.484375 C 17.035156 -10.054688 15.15625 -9.34375 12.75 -9.34375 C 11.820312 -9.34375 10.878906 -9.488281 9.921875 -9.78125 C 8.960938 -10.082031 8.101562 -10.570312 7.34375 -11.25 C 7.257812 -11.320312 7.148438 -11.359375 7.015625 -11.359375 C 6.691406 -11.359375 6.53125 -11.195312 6.53125 -10.875 C 6.53125 -10.71875 6.585938 -10.597656 6.703125 -10.515625 C 7.316406 -9.921875 8.03125 -9.457031 8.84375 -9.125 C 9.65625 -8.800781 10.46875 -8.585938 11.28125 -8.484375 C 11.257812 -6.023438 10.773438 -4.078125 9.828125 -2.640625 C 8.878906 -1.203125 7.507812 -0.484375 5.71875 -0.484375 Z M 10.671875 -20.625 C 10.671875 -20.539062 10.695312 -20.445312 10.75 -20.34375 C 11 -20.039062 11.160156 -19.625 11.234375 -19.09375 C 11.316406 -18.570312 11.320312 -18.03125 11.25 -17.46875 C 11.1875 -16.914062 11.035156 -16.4375 10.796875 -16.03125 C 10.691406 -15.875 10.6875 -15.710938 10.78125 -15.546875 C 10.875 -15.378906 11.015625 -15.296875 11.203125 -15.296875 C 11.390625 -15.296875 11.523438 -15.378906 11.609375 -15.546875 C 11.910156 -16.035156 12.109375 -16.625 12.203125 -17.3125 C 12.296875 -18 12.285156 -18.675781 12.171875 -19.34375 C 12.066406 -20.007812 11.863281 -20.53125 11.5625 -20.90625 C 11.425781 -21.039062 11.289062 -21.109375 11.15625 -21.109375 C 10.832031 -21.109375 10.671875 -20.945312 10.671875 -20.625 Z M 10.671875 -20.625 "/></g></g></g><g fill="#9869f6" fill-opacity="1"><g transform="translate(21.022004, 32.170438)"><g><path d="M 9.828125 -0.484375 C 7.878906 -0.484375 6.296875 -0.8125 5.078125 -1.46875 C 3.859375 -2.132812 2.910156 -2.992188 2.234375 -4.046875 C 1.554688 -5.109375 1.09375 -6.234375 0.84375 -7.421875 C 0.601562 -8.617188 0.484375 -9.757812 0.484375 -10.84375 C 0.484375 -12.351562 0.785156 -13.789062 1.390625 -15.15625 C 2.003906 -16.53125 3 -17.648438 4.375 -18.515625 C 5.757812 -19.378906 7.578125 -19.8125 9.828125 -19.8125 C 12.066406 -19.8125 13.859375 -19.378906 15.203125 -18.515625 C 16.546875 -17.648438 17.515625 -16.53125 18.109375 -15.15625 C 18.703125 -13.789062 19 -12.351562 19 -10.84375 C 19 -9.757812 18.875 -8.613281 18.625 -7.40625 C 18.382812 -6.207031 17.929688 -5.078125 17.265625 -4.015625 C 16.609375 -2.960938 15.679688 -2.109375 14.484375 -1.453125 C 13.296875 -0.804688 11.742188 -0.484375 9.828125 -0.484375 Z M 9.625 -5.203125 C 9.570312 -5.066406 9.582031 -4.921875 9.65625 -4.765625 C 9.738281 -4.617188 9.875 -4.546875 10.0625 -4.546875 C 10.3125 -4.546875 10.460938 -4.65625 10.515625 -4.875 C 10.921875 -5.976562 11.191406 -7.191406 11.328125 -8.515625 C 11.460938 -9.847656 11.472656 -11.179688 11.359375 -12.515625 C 11.253906 -13.859375 11.023438 -15.070312 10.671875 -16.15625 C 10.617188 -16.375 10.472656 -16.484375 10.234375 -16.484375 C 10.046875 -16.484375 9.910156 -16.40625 9.828125 -16.25 C 9.742188 -16.101562 9.726562 -15.960938 9.78125 -15.828125 C 10.101562 -14.796875 10.316406 -13.648438 10.421875 -12.390625 C 10.535156 -11.140625 10.523438 -9.890625 10.390625 -8.640625 C 10.253906 -7.398438 10 -6.253906 9.625 -5.203125 Z M 9.625 -5.203125 "/></g></g></g><g fill="#9869f6" fill-opacity="1"><g transform="translate(39.245451, 32.170438)"><g><path d="M 5.3125 -19.8125 C 4.257812 -19.8125 3.414062 -19.566406 2.78125 -19.078125 C 2.144531 -18.585938 1.664062 -17.941406 1.34375 -17.140625 C 1.019531 -16.347656 0.796875 -15.472656 0.671875 -14.515625 C 0.546875 -13.554688 0.484375 -12.601562 0.484375 -11.65625 C 0.484375 -10.570312 0.515625 -9.382812 0.578125 -8.09375 C 0.648438 -6.8125 0.832031 -5.585938 1.125 -4.421875 C 1.425781 -3.253906 1.910156 -2.304688 2.578125 -1.578125 C 3.242188 -0.847656 4.15625 -0.484375 5.3125 -0.484375 C 6.476562 -0.484375 7.382812 -0.847656 8.03125 -1.578125 C 8.6875 -2.304688 9.15625 -3.242188 9.4375 -4.390625 C 9.71875 -5.546875 9.890625 -6.765625 9.953125 -8.046875 C 10.023438 -9.335938 10.0625 -10.539062 10.0625 -11.65625 C 10.0625 -12.601562 10.007812 -13.554688 9.90625 -14.515625 C 9.800781 -15.472656 9.582031 -16.347656 9.25 -17.140625 C 8.925781 -17.941406 8.453125 -18.585938 7.828125 -19.078125 C 7.210938 -19.566406 6.375 -19.8125 5.3125 -19.8125 Z M 0.53125 -24.3125 C 0.53125 -23.207031 0.984375 -22.34375 1.890625 -21.71875 C 2.796875 -21.09375 3.9375 -20.78125 5.3125 -20.78125 C 6.664062 -20.78125 7.796875 -21.09375 8.703125 -21.71875 C 9.609375 -22.34375 10.0625 -23.207031 10.0625 -24.3125 C 10.0625 -25.34375 9.65625 -26.203125 8.84375 -26.890625 C 8.03125 -27.578125 6.851562 -27.921875 5.3125 -27.921875 C 3.75 -27.921875 2.5625 -27.578125 1.75 -26.890625 C 0.9375 -26.203125 0.53125 -25.34375 0.53125 -24.3125 Z M 0.53125 -24.3125 "/></g></g></g><g fill="#9869f6" fill-opacity="1"><g transform="translate(48.539621, 32.170438)"><g><path d="M 5.40625 -0.484375 C 4.238281 -0.484375 3.316406 -0.847656 2.640625 -1.578125 C 1.960938 -2.304688 1.472656 -3.253906 1.171875 -4.421875 C 0.878906 -5.585938 0.691406 -6.8125 0.609375 -8.09375 C 0.523438 -9.382812 0.484375 -10.570312 0.484375 -11.65625 C 0.484375 -12.601562 0.546875 -13.554688 0.671875 -14.515625 C 0.796875 -15.472656 1.023438 -16.347656 1.359375 -17.140625 C 1.703125 -17.941406 2.191406 -18.585938 2.828125 -19.078125 C 3.460938 -19.566406 4.304688 -19.8125 5.359375 -19.8125 C 6.253906 -19.8125 6.988281 -19.640625 7.5625 -19.296875 C 8.144531 -18.960938 8.613281 -18.484375 8.96875 -17.859375 C 8.613281 -17.316406 8.316406 -16.628906 8.078125 -15.796875 C 8.046875 -15.679688 8.070312 -15.550781 8.15625 -15.40625 C 8.238281 -15.257812 8.375 -15.1875 8.5625 -15.1875 C 8.78125 -15.1875 8.941406 -15.304688 9.046875 -15.546875 C 9.515625 -17.171875 10.210938 -18.285156 11.140625 -18.890625 C 12.078125 -19.503906 13.046875 -19.8125 14.046875 -19.8125 C 15.128906 -19.8125 16.007812 -19.503906 16.6875 -18.890625 C 17.363281 -18.285156 17.882812 -17.515625 18.25 -16.578125 C 18.613281 -15.648438 18.863281 -14.691406 19 -13.703125 C 19.132812 -12.710938 19.203125 -11.851562 19.203125 -11.125 C 19.203125 -9.195312 19.078125 -7.421875 18.828125 -5.796875 C 18.585938 -4.179688 18.128906 -2.890625 17.453125 -1.921875 C 16.773438 -0.960938 15.800781 -0.484375 14.53125 -0.484375 C 13.175781 -0.484375 12.226562 -0.847656 11.6875 -1.578125 C 11.144531 -2.304688 10.78125 -3.132812 10.59375 -4.0625 C 10.832031 -4.976562 10.957031 -5.929688 10.96875 -6.921875 C 10.988281 -7.910156 10.957031 -8.835938 10.875 -9.703125 C 10.789062 -10.566406 10.695312 -11.285156 10.59375 -11.859375 C 10.539062 -12.128906 10.378906 -12.265625 10.109375 -12.265625 C 9.972656 -12.265625 9.847656 -12.203125 9.734375 -12.078125 C 9.628906 -11.953125 9.59375 -11.820312 9.625 -11.6875 C 9.757812 -11.0625 9.863281 -10.273438 9.9375 -9.328125 C 10.019531 -8.390625 10.035156 -7.410156 9.984375 -6.390625 C 9.929688 -5.378906 9.75 -4.421875 9.4375 -3.515625 C 9.125 -2.609375 8.640625 -1.875 7.984375 -1.3125 C 7.335938 -0.757812 6.476562 -0.484375 5.40625 -0.484375 Z M 5.40625 -0.484375 "/></g></g></g><g fill="#9869f6" fill-opacity="1"><g transform="translate(66.966004, 32.170438)"><g><path d="M 10.03125 -0.484375 C 7.59375 -0.484375 5.675781 -1.050781 4.28125 -2.1875 C 2.882812 -3.320312 1.898438 -4.867188 1.328125 -6.828125 C 0.765625 -8.796875 0.484375 -11.023438 0.484375 -13.515625 C 0.484375 -16.710938 0.625 -19.378906 0.90625 -21.515625 C 1.195312 -23.648438 1.75 -25.25 2.5625 -26.3125 C 3.375 -27.382812 4.578125 -27.921875 6.171875 -27.921875 C 7.679688 -27.921875 8.863281 -27.375 9.71875 -26.28125 C 10.570312 -25.1875 11.023438 -23.351562 11.078125 -20.78125 L 10.796875 -20.78125 C 9.984375 -20.78125 9.078125 -20.695312 8.078125 -20.53125 C 7.078125 -20.375 6.265625 -20.132812 5.640625 -19.8125 C 5.484375 -19.695312 5.40625 -19.546875 5.40625 -19.359375 C 5.40625 -19.171875 5.484375 -19.035156 5.640625 -18.953125 C 5.804688 -18.867188 5.96875 -18.859375 6.125 -18.921875 C 6.664062 -19.210938 7.390625 -19.429688 8.296875 -19.578125 C 9.203125 -19.734375 10.035156 -19.8125 10.796875 -19.8125 C 12.253906 -19.8125 13.453125 -19.546875 14.390625 -19.015625 C 15.328125 -18.492188 16.023438 -17.804688 16.484375 -16.953125 C 16.941406 -16.097656 17.171875 -15.179688 17.171875 -14.203125 C 17.171875 -12.796875 16.878906 -11.703125 16.296875 -10.921875 C 15.710938 -10.140625 14.8125 -9.75 13.59375 -9.75 C 13.1875 -9.75 12.710938 -9.832031 12.171875 -10 C 11.628906 -10.175781 11.15625 -10.472656 10.75 -10.890625 C 10.351562 -11.316406 10.15625 -11.910156 10.15625 -12.671875 C 10.15625 -12.992188 9.988281 -13.15625 9.65625 -13.15625 C 9.332031 -13.15625 9.171875 -12.992188 9.171875 -12.671875 C 9.171875 -11.660156 9.441406 -10.867188 9.984375 -10.296875 C 10.523438 -9.734375 11.140625 -9.335938 11.828125 -9.109375 C 12.523438 -8.878906 13.113281 -8.765625 13.59375 -8.765625 C 13.894531 -8.765625 14.164062 -8.785156 14.40625 -8.828125 C 14.65625 -8.867188 14.882812 -8.914062 15.09375 -8.96875 C 15.5625 -8.75 16.023438 -8.363281 16.484375 -7.8125 C 16.941406 -7.257812 17.171875 -6.46875 17.171875 -5.4375 C 17.171875 -3.789062 16.554688 -2.550781 15.328125 -1.71875 C 14.097656 -0.894531 12.332031 -0.484375 10.03125 -0.484375 Z M 10.03125 -0.484375 "/></g></g></g></g></g></g></svg>