<svg xmlns="http://www.w3.org/2000/svg" xmlns:xlink="http://www.w3.org/1999/xlink" width="250" zoomAndPan="magnify" viewBox="0 0 187.5 37.5" height="50" preserveAspectRatio="xMidYMid meet" version="1.0"><defs><g/><clipPath id="84a5e96cf8"><path d="M 0.988281 0 L 92 0 L 92 37.007812 L 0.988281 37.007812 Z M 0.988281 0 " clip-rule="nonzero"/></clipPath><clipPath id="07951d5004"><path d="M 0.988281 7 L 21 7 L 21 29 L 0.988281 29 Z M 0.988281 7 " clip-rule="nonzero"/></clipPath><clipPath id="76dd3a6992"><path d="M 91 28 L 91.699219 28 L 91.699219 29 L 91 29 Z M 91 28 " clip-rule="nonzero"/></clipPath><clipPath id="4a6e8571b4"><rect x="0" width="92" y="0" height="38"/></clipPath></defs><g clip-path="url(#84a5e96cf8)"><g transform="matrix(1, 0, 0, 1, 0.000000000000000111, -0.000000000000001443)"><g clip-path="url(#4a6e8571b4)"><g clip-path="url(#07951d5004)"><g fill="#24127b" fill-opacity="1"><g transform="translate(0.986842, 28.674066)"><g><path d="M 19.265625 -16.765625 C 19.265625 -15.984375 19.082031 -15.269531 18.71875 -14.625 C 18.351562 -13.988281 17.816406 -13.488281 17.109375 -13.125 C 16.597656 -13.414062 16.054688 -13.640625 15.484375 -13.796875 C 14.910156 -13.960938 14.316406 -14.066406 13.703125 -14.109375 C 13.585938 -14.109375 13.515625 -14.050781 13.484375 -13.9375 C 13.453125 -13.820312 13.5 -13.742188 13.625 -13.703125 C 14.976562 -13.398438 16.082031 -12.851562 16.9375 -12.0625 C 17.800781 -11.28125 18.410156 -10.375 18.765625 -9.34375 C 19.128906 -8.3125 19.253906 -7.25 19.140625 -6.15625 C 19.035156 -5.0625 18.675781 -4.050781 18.0625 -3.125 C 17.445312 -2.195312 16.582031 -1.441406 15.46875 -0.859375 C 14.351562 -0.285156 13 0 11.40625 0 L 4.765625 0 C 3.890625 0 3.085938 -0.25 2.359375 -0.75 C 1.640625 -1.257812 1.054688 -1.890625 0.609375 -2.640625 C 0.160156 -3.390625 -0.0625 -4.117188 -0.0625 -4.828125 C -0.0625 -5.648438 0.0859375 -6.367188 0.390625 -6.984375 C 0.691406 -7.609375 1.175781 -8.160156 1.84375 -8.640625 C 2.4375 -8.253906 3.101562 -7.957031 3.84375 -7.75 C 4.59375 -7.550781 5.320312 -7.453125 6.03125 -7.453125 C 6.15625 -7.453125 6.226562 -7.507812 6.25 -7.625 C 6.269531 -7.738281 6.21875 -7.816406 6.09375 -7.859375 C 5.664062 -7.898438 5.238281 -7.988281 4.8125 -8.125 C 4.394531 -8.269531 3.984375 -8.441406 3.578125 -8.640625 C 2.585938 -9.171875 1.796875 -9.847656 1.203125 -10.671875 C 0.617188 -11.503906 0.238281 -12.40625 0.0625 -13.375 C -0.101562 -14.34375 -0.0703125 -15.304688 0.15625 -16.265625 C 0.394531 -17.234375 0.832031 -18.109375 1.46875 -18.890625 C 2.101562 -19.679688 2.945312 -20.316406 4 -20.796875 C 5.050781 -21.285156 6.304688 -21.53125 7.765625 -21.53125 L 14.34375 -21.53125 C 15.25 -21.53125 16.070312 -21.316406 16.8125 -20.890625 C 17.550781 -20.472656 18.144531 -19.90625 18.59375 -19.1875 C 19.039062 -18.46875 19.265625 -17.660156 19.265625 -16.765625 Z M 19.265625 -16.765625 "/></g></g></g></g><g fill="#24127b" fill-opacity="1"><g transform="translate(21.154967, 28.674066)"><g><path d="M 13.25 -6.609375 L 7.921875 -1.390625 C 7.453125 -0.929688 6.914062 -0.582031 6.3125 -0.34375 C 5.71875 -0.113281 5.117188 0 4.515625 0 C 3.890625 0 3.28125 -0.113281 2.6875 -0.34375 C 2.09375 -0.582031 1.5625 -0.929688 1.09375 -1.390625 C 0.164062 -2.359375 -0.296875 -3.472656 -0.296875 -4.734375 C -0.296875 -6.003906 0.164062 -7.125 1.09375 -8.09375 L 12.703125 -19.859375 C 13.171875 -20.410156 13.722656 -20.828125 14.359375 -21.109375 C 14.992188 -21.390625 15.65625 -21.53125 16.34375 -21.53125 C 16.75 -21.53125 17.160156 -21.472656 17.578125 -21.359375 C 17.992188 -21.253906 18.382812 -21.085938 18.75 -20.859375 C 19.488281 -20.484375 20.078125 -19.925781 20.515625 -19.1875 C 20.953125 -18.445312 21.171875 -17.617188 21.171875 -16.703125 L 21.171875 -4.765625 C 21.171875 -3.890625 20.9375 -3.085938 20.46875 -2.359375 C 20.007812 -1.640625 19.414062 -1.066406 18.6875 -0.640625 C 17.957031 -0.210938 17.1875 0 16.375 0 C 15.144531 0 14.125 -0.335938 13.3125 -1.015625 C 12.5 -1.691406 11.960938 -2.535156 11.703125 -3.546875 L 13.5625 -6.375 C 13.601562 -6.488281 13.582031 -6.582031 13.5 -6.65625 C 13.414062 -6.726562 13.332031 -6.710938 13.25 -6.609375 Z M 13.25 -6.609375 "/></g></g></g><g fill="#24127b" fill-opacity="1"><g transform="translate(43.233753, 28.674066)"><g><path d="M 7.953125 -14.890625 L 13.21875 -20.109375 C 14.175781 -21.054688 15.300781 -21.53125 16.59375 -21.53125 C 17.476562 -21.53125 18.289062 -21.3125 19.03125 -20.875 C 19.769531 -20.445312 20.351562 -19.875 20.78125 -19.15625 C 21.21875 -18.4375 21.4375 -17.628906 21.4375 -16.734375 C 21.4375 -16.109375 21.316406 -15.5 21.078125 -14.90625 C 20.835938 -14.3125 20.484375 -13.78125 20.015625 -13.3125 L 8.4375 -1.703125 C 7.925781 -1.191406 7.363281 -0.78125 6.75 -0.46875 C 6.132812 -0.15625 5.472656 0 4.765625 0 C 3.953125 0 3.1875 -0.195312 2.46875 -0.59375 C 1.75 -0.988281 1.15625 -1.546875 0.6875 -2.265625 C 0.226562 -2.992188 0 -3.859375 0 -4.859375 L 0 -16.734375 C 0 -17.628906 0.226562 -18.441406 0.6875 -19.171875 C 1.15625 -19.898438 1.753906 -20.472656 2.484375 -20.890625 C 3.210938 -21.316406 3.984375 -21.53125 4.796875 -21.53125 C 6.046875 -21.53125 7.066406 -21.210938 7.859375 -20.578125 C 8.660156 -19.941406 9.207031 -19.097656 9.5 -18.046875 L 7.671875 -15.15625 C 7.585938 -15.019531 7.59375 -14.921875 7.6875 -14.859375 C 7.78125 -14.796875 7.867188 -14.804688 7.953125 -14.890625 Z M 7.953125 -14.890625 "/></g></g></g><g fill="#24127b" fill-opacity="1"><g transform="translate(65.251876, 28.674066)"><g><path d="M 0 -16.65625 C 0 -17.5625 0.207031 -18.382812 0.625 -19.125 C 1.039062 -19.863281 1.613281 -20.445312 2.34375 -20.875 C 3.082031 -21.3125 3.929688 -21.53125 4.890625 -21.53125 L 12.796875 -21.53125 C 13.742188 -21.53125 14.570312 -21.296875 15.28125 -20.828125 C 15.988281 -20.367188 16.539062 -19.769531 16.9375 -19.03125 C 17.332031 -18.289062 17.53125 -17.507812 17.53125 -16.6875 C 17.53125 -15.832031 17.328125 -15.050781 16.921875 -14.34375 C 16.515625 -13.632812 15.941406 -13.066406 15.203125 -12.640625 C 14.472656 -12.222656 13.59375 -11.992188 12.5625 -11.953125 C 12.457031 -11.953125 12.40625 -11.894531 12.40625 -11.78125 C 12.40625 -11.664062 12.457031 -11.59375 12.5625 -11.5625 C 13.382812 -11.457031 14.191406 -11.507812 14.984375 -11.71875 C 15.773438 -11.9375 16.472656 -12.359375 17.078125 -12.984375 C 17.378906 -12.316406 17.53125 -11.609375 17.53125 -10.859375 C 17.53125 -9.441406 17.097656 -8.316406 16.234375 -7.484375 C 15.378906 -6.660156 14.253906 -6.164062 12.859375 -6 C 12.753906 -6 12.703125 -5.9375 12.703125 -5.8125 C 12.703125 -5.695312 12.753906 -5.640625 12.859375 -5.640625 C 13.648438 -5.554688 14.414062 -5.613281 15.15625 -5.8125 C 15.90625 -6.019531 16.566406 -6.457031 17.140625 -7.125 C 17.296875 -6.863281 17.410156 -6.570312 17.484375 -6.25 C 17.554688 -5.925781 17.59375 -5.441406 17.59375 -4.796875 C 17.59375 -4.328125 17.5 -3.8125 17.3125 -3.25 C 17.132812 -2.695312 16.847656 -2.171875 16.453125 -1.671875 C 16.054688 -1.179688 15.5625 -0.78125 14.96875 -0.46875 C 14.375 -0.15625 13.648438 0 12.796875 0 L 4.828125 0 C 3.929688 0 3.113281 -0.210938 2.375 -0.640625 C 1.644531 -1.078125 1.066406 -1.660156 0.640625 -2.390625 C 0.210938 -3.117188 0 -3.921875 0 -4.796875 Z M 0 -16.65625 "/></g></g></g><g fill="#24127b" fill-opacity="1"><g transform="translate(83.630967, 28.674066)"><g/></g></g><g fill="#24127b" fill-opacity="1"><g transform="translate(83.630967, 28.674066)"><g/></g></g><g clip-path="url(#76dd3a6992)"><g fill="#24127b" fill-opacity="1"><g transform="translate(91.487231, 28.674066)"><g/></g></g></g></g></g></g><g fill="#24127b" fill-opacity="1"><g transform="translate(86.022493, 29.439444)"><g><path d="M 4.9375 0.296875 C 4.019531 0.296875 3.1875 0.078125 2.4375 -0.359375 C 1.6875 -0.796875 1.09375 -1.378906 0.65625 -2.109375 C 0.21875 -2.847656 0 -3.660156 0 -4.546875 L 0 -16.296875 C 0 -17.179688 0.21875 -17.984375 0.65625 -18.703125 C 1.09375 -19.429688 1.6875 -20.015625 2.4375 -20.453125 C 3.1875 -20.890625 4.019531 -21.109375 4.9375 -21.109375 L 10.796875 -21.109375 C 11.984375 -21.109375 13.085938 -20.890625 14.109375 -20.453125 C 15.128906 -20.015625 16.019531 -19.410156 16.78125 -18.640625 C 17.550781 -17.867188 18.148438 -16.96875 18.578125 -15.9375 C 19.015625 -14.90625 19.234375 -13.804688 19.234375 -12.640625 C 19.234375 -11.453125 19.003906 -10.34375 18.546875 -9.3125 C 18.097656 -8.28125 17.472656 -7.367188 16.671875 -6.578125 C 15.878906 -5.796875 14.957031 -5.191406 13.90625 -4.765625 C 12.863281 -4.347656 11.75 -4.15625 10.5625 -4.1875 L 10.015625 -7.109375 C 9.984375 -7.222656 9.925781 -7.269531 9.84375 -7.25 C 9.757812 -7.226562 9.71875 -7.160156 9.71875 -7.046875 L 9.71875 -4.546875 C 9.71875 -3.671875 9.5 -2.867188 9.0625 -2.140625 C 8.632812 -1.410156 8.054688 -0.820312 7.328125 -0.375 C 6.609375 0.0703125 5.8125 0.296875 4.9375 0.296875 Z M 10.171875 -13.734375 C 10.085938 -13.734375 10.007812 -13.734375 9.9375 -13.734375 C 9.875 -13.734375 9.800781 -13.710938 9.71875 -13.671875 L 9.71875 -11.625 C 9.882812 -11.53125 10.035156 -11.484375 10.171875 -11.484375 C 10.484375 -11.484375 10.753906 -11.59375 10.984375 -11.8125 C 11.210938 -12.039062 11.328125 -12.316406 11.328125 -12.640625 C 11.328125 -12.953125 11.210938 -13.210938 10.984375 -13.421875 C 10.753906 -13.628906 10.484375 -13.734375 10.171875 -13.734375 Z M 10.171875 -13.734375 "/></g></g></g><g fill="#24127b" fill-opacity="1"><g transform="translate(105.794585, 29.439444)"><g><path d="M 10.796875 -21.109375 C 12.285156 -21.109375 13.6875 -20.832031 15 -20.28125 C 16.320312 -19.726562 17.476562 -18.957031 18.46875 -17.96875 C 19.457031 -16.988281 20.234375 -15.847656 20.796875 -14.546875 C 21.359375 -13.253906 21.640625 -11.863281 21.640625 -10.375 C 21.640625 -8.882812 21.359375 -7.488281 20.796875 -6.1875 C 20.234375 -4.894531 19.457031 -3.765625 18.46875 -2.796875 C 17.476562 -1.828125 16.320312 -1.066406 15 -0.515625 C 13.6875 0.0234375 12.285156 0.296875 10.796875 0.296875 C 9.328125 0.296875 7.9375 0.0234375 6.625 -0.515625 C 5.320312 -1.066406 4.171875 -1.828125 3.171875 -2.796875 C 2.179688 -3.765625 1.40625 -4.894531 0.84375 -6.1875 C 0.28125 -7.488281 0 -8.882812 0 -10.375 C 0 -11.863281 0.28125 -13.253906 0.84375 -14.546875 C 1.40625 -15.847656 2.179688 -16.988281 3.171875 -17.96875 C 4.171875 -18.957031 5.320312 -19.726562 6.625 -20.28125 C 7.9375 -20.832031 9.328125 -21.109375 10.796875 -21.109375 Z M 10.796875 -11.6875 C 10.492188 -11.6875 10.222656 -11.578125 9.984375 -11.359375 C 9.753906 -11.140625 9.640625 -10.84375 9.640625 -10.46875 C 9.640625 -10.132812 9.753906 -9.84375 9.984375 -9.59375 C 10.222656 -9.34375 10.492188 -9.21875 10.796875 -9.21875 C 11.128906 -9.21875 11.421875 -9.34375 11.671875 -9.59375 C 11.921875 -9.84375 12.046875 -10.132812 12.046875 -10.46875 C 12.046875 -10.84375 11.921875 -11.140625 11.671875 -11.359375 C 11.421875 -11.578125 11.128906 -11.6875 10.796875 -11.6875 Z M 10.796875 -11.6875 "/></g></g></g><g fill="#24127b" fill-opacity="1"><g transform="translate(128.242596, 29.439444)"><g><path d="M 4.703125 0 C 3.828125 0 3.03125 -0.21875 2.3125 -0.65625 C 1.601562 -1.09375 1.039062 -1.671875 0.625 -2.390625 C 0.207031 -3.117188 0 -3.90625 0 -4.75 L 0 -16.4375 C 0 -17.3125 0.207031 -18.097656 0.625 -18.796875 C 1.039062 -19.503906 1.601562 -20.066406 2.3125 -20.484375 C 3.03125 -20.898438 3.828125 -21.109375 4.703125 -21.109375 C 5.609375 -21.109375 6.414062 -20.898438 7.125 -20.484375 C 7.84375 -20.066406 8.414062 -19.503906 8.84375 -18.796875 C 9.269531 -18.097656 9.484375 -17.3125 9.484375 -16.4375 L 9.484375 -4.75 C 9.484375 -3.90625 9.269531 -3.117188 8.84375 -2.390625 C 8.414062 -1.671875 7.84375 -1.09375 7.125 -0.65625 C 6.414062 -0.21875 5.609375 0 4.703125 0 Z M 4.703125 0 "/></g></g></g><g fill="#24127b" fill-opacity="1"><g transform="translate(138.678692, 29.439444)"><g><path d="M 21.109375 -4.375 C 21.109375 -3.363281 20.890625 -2.507812 20.453125 -1.8125 C 20.015625 -1.113281 19.4375 -0.585938 18.71875 -0.234375 C 18.007812 0.117188 17.238281 0.296875 16.40625 0.296875 C 15.789062 0.296875 15.191406 0.179688 14.609375 -0.046875 C 14.023438 -0.273438 13.503906 -0.617188 13.046875 -1.078125 L 7.9375 -6.21875 C 7.894531 -6.3125 7.828125 -6.304688 7.734375 -6.203125 C 7.648438 -6.109375 7.628906 -6.015625 7.671875 -5.921875 L 9.359375 -3.296875 C 9.148438 -2.265625 8.609375 -1.40625 7.734375 -0.71875 C 6.859375 -0.0390625 5.863281 0.296875 4.75 0.296875 C 3.882812 0.296875 3.085938 0.0820312 2.359375 -0.34375 C 1.640625 -0.769531 1.066406 -1.335938 0.640625 -2.046875 C 0.210938 -2.765625 0 -3.566406 0 -4.453125 L 0 -16.359375 C 0 -17.222656 0.210938 -18.007812 0.640625 -18.71875 C 1.066406 -19.4375 1.640625 -20.015625 2.359375 -20.453125 C 3.085938 -20.890625 3.882812 -21.109375 4.75 -21.109375 C 5.46875 -21.109375 6.144531 -20.941406 6.78125 -20.609375 C 7.414062 -20.285156 7.953125 -19.898438 8.390625 -19.453125 L 13.234375 -14.6875 C 13.273438 -14.601562 13.335938 -14.59375 13.421875 -14.65625 C 13.515625 -14.71875 13.539062 -14.785156 13.5 -14.859375 L 11.75 -17.421875 C 11.90625 -18.097656 12.203125 -18.710938 12.640625 -19.265625 C 13.078125 -19.816406 13.613281 -20.257812 14.25 -20.59375 C 14.894531 -20.9375 15.585938 -21.109375 16.328125 -21.109375 C 17.378906 -21.109375 18.253906 -20.890625 18.953125 -20.453125 C 19.660156 -20.015625 20.195312 -19.4375 20.5625 -18.71875 C 20.925781 -18.007812 21.109375 -17.222656 21.109375 -16.359375 Z M 21.109375 -4.375 "/></g></g></g><g fill="#24127b" fill-opacity="1"><g transform="translate(160.680711, 29.439444)"><g><path d="M 13.96875 -21.109375 C 14.863281 -21.109375 15.671875 -20.890625 16.390625 -20.453125 C 17.117188 -20.015625 17.695312 -19.429688 18.125 -18.703125 C 18.550781 -17.984375 18.765625 -17.191406 18.765625 -16.328125 C 18.765625 -15.472656 18.554688 -14.691406 18.140625 -13.984375 C 17.722656 -13.285156 17.160156 -12.71875 16.453125 -12.28125 C 15.753906 -11.84375 14.957031 -11.625 14.0625 -11.625 L 14.09375 -4.484375 C 14.09375 -3.617188 13.875 -2.816406 13.4375 -2.078125 C 13 -1.347656 12.414062 -0.765625 11.6875 -0.328125 C 10.96875 0.109375 10.175781 0.328125 9.3125 0.328125 C 8.457031 0.328125 7.671875 0.109375 6.953125 -0.328125 C 6.242188 -0.765625 5.675781 -1.347656 5.25 -2.078125 C 4.820312 -2.816406 4.609375 -3.617188 4.609375 -4.484375 L 4.609375 -11.625 C 3.734375 -11.625 2.9375 -11.84375 2.21875 -12.28125 C 1.507812 -12.71875 0.945312 -13.285156 0.53125 -13.984375 C 0.113281 -14.691406 -0.09375 -15.472656 -0.09375 -16.328125 C -0.09375 -17.191406 0.113281 -17.984375 0.53125 -18.703125 C 0.945312 -19.429688 1.507812 -20.015625 2.21875 -20.453125 C 2.9375 -20.890625 3.734375 -21.109375 4.609375 -21.109375 Z M 13.96875 -21.109375 "/></g></g></g><g fill="#f472b6" fill-opacity="1"><g transform="translate(84.70805, 28.125)"><g><path d="M 4.9375 0.296875 C 4.019531 0.296875 3.1875 0.078125 2.4375 -0.359375 C 1.6875 -0.796875 1.09375 -1.378906 0.65625 -2.109375 C 0.21875 -2.847656 0 -3.660156 0 -4.546875 L 0 -16.296875 C 0 -17.179688 0.21875 -17.984375 0.65625 -18.703125 C 1.09375 -19.429688 1.6875 -20.015625 2.4375 -20.453125 C 3.1875 -20.890625 4.019531 -21.109375 4.9375 -21.109375 L 10.796875 -21.109375 C 11.984375 -21.109375 13.085938 -20.890625 14.109375 -20.453125 C 15.128906 -20.015625 16.019531 -19.410156 16.78125 -18.640625 C 17.550781 -17.867188 18.148438 -16.96875 18.578125 -15.9375 C 19.015625 -14.90625 19.234375 -13.804688 19.234375 -12.640625 C 19.234375 -11.453125 19.003906 -10.34375 18.546875 -9.3125 C 18.097656 -8.28125 17.472656 -7.367188 16.671875 -6.578125 C 15.878906 -5.796875 14.957031 -5.191406 13.90625 -4.765625 C 12.863281 -4.347656 11.75 -4.15625 10.5625 -4.1875 L 10.015625 -7.109375 C 9.984375 -7.222656 9.925781 -7.269531 9.84375 -7.25 C 9.757812 -7.226562 9.71875 -7.160156 9.71875 -7.046875 L 9.71875 -4.546875 C 9.71875 -3.671875 9.5 -2.867188 9.0625 -2.140625 C 8.632812 -1.410156 8.054688 -0.820312 7.328125 -0.375 C 6.609375 0.0703125 5.8125 0.296875 4.9375 0.296875 Z M 10.171875 -13.734375 C 10.085938 -13.734375 10.007812 -13.734375 9.9375 -13.734375 C 9.875 -13.734375 9.800781 -13.710938 9.71875 -13.671875 L 9.71875 -11.625 C 9.882812 -11.53125 10.035156 -11.484375 10.171875 -11.484375 C 10.484375 -11.484375 10.753906 -11.59375 10.984375 -11.8125 C 11.210938 -12.039062 11.328125 -12.316406 11.328125 -12.640625 C 11.328125 -12.953125 11.210938 -13.210938 10.984375 -13.421875 C 10.753906 -13.628906 10.484375 -13.734375 10.171875 -13.734375 Z M 10.171875 -13.734375 "/></g></g></g><g fill="#f472b6" fill-opacity="1"><g transform="translate(104.480142, 28.125)"><g><path d="M 10.796875 -21.109375 C 12.285156 -21.109375 13.6875 -20.832031 15 -20.28125 C 16.320312 -19.726562 17.476562 -18.957031 18.46875 -17.96875 C 19.457031 -16.988281 20.234375 -15.847656 20.796875 -14.546875 C 21.359375 -13.253906 21.640625 -11.863281 21.640625 -10.375 C 21.640625 -8.882812 21.359375 -7.488281 20.796875 -6.1875 C 20.234375 -4.894531 19.457031 -3.765625 18.46875 -2.796875 C 17.476562 -1.828125 16.320312 -1.066406 15 -0.515625 C 13.6875 0.0234375 12.285156 0.296875 10.796875 0.296875 C 9.328125 0.296875 7.9375 0.0234375 6.625 -0.515625 C 5.320312 -1.066406 4.171875 -1.828125 3.171875 -2.796875 C 2.179688 -3.765625 1.40625 -4.894531 0.84375 -6.1875 C 0.28125 -7.488281 0 -8.882812 0 -10.375 C 0 -11.863281 0.28125 -13.253906 0.84375 -14.546875 C 1.40625 -15.847656 2.179688 -16.988281 3.171875 -17.96875 C 4.171875 -18.957031 5.320312 -19.726562 6.625 -20.28125 C 7.9375 -20.832031 9.328125 -21.109375 10.796875 -21.109375 Z M 10.796875 -11.6875 C 10.492188 -11.6875 10.222656 -11.578125 9.984375 -11.359375 C 9.753906 -11.140625 9.640625 -10.84375 9.640625 -10.46875 C 9.640625 -10.132812 9.753906 -9.84375 9.984375 -9.59375 C 10.222656 -9.34375 10.492188 -9.21875 10.796875 -9.21875 C 11.128906 -9.21875 11.421875 -9.34375 11.671875 -9.59375 C 11.921875 -9.84375 12.046875 -10.132812 12.046875 -10.46875 C 12.046875 -10.84375 11.921875 -11.140625 11.671875 -11.359375 C 11.421875 -11.578125 11.128906 -11.6875 10.796875 -11.6875 Z M 10.796875 -11.6875 "/></g></g></g><g fill="#f472b6" fill-opacity="1"><g transform="translate(126.928153, 28.125)"><g><path d="M 4.703125 0 C 3.828125 0 3.03125 -0.21875 2.3125 -0.65625 C 1.601562 -1.09375 1.039062 -1.671875 0.625 -2.390625 C 0.207031 -3.117188 0 -3.90625 0 -4.75 L 0 -16.4375 C 0 -17.3125 0.207031 -18.097656 0.625 -18.796875 C 1.039062 -19.503906 1.601562 -20.066406 2.3125 -20.484375 C 3.03125 -20.898438 3.828125 -21.109375 4.703125 -21.109375 C 5.609375 -21.109375 6.414062 -20.898438 7.125 -20.484375 C 7.84375 -20.066406 8.414062 -19.503906 8.84375 -18.796875 C 9.269531 -18.097656 9.484375 -17.3125 9.484375 -16.4375 L 9.484375 -4.75 C 9.484375 -3.90625 9.269531 -3.117188 8.84375 -2.390625 C 8.414062 -1.671875 7.84375 -1.09375 7.125 -0.65625 C 6.414062 -0.21875 5.609375 0 4.703125 0 Z M 4.703125 0 "/></g></g></g><g fill="#f472b6" fill-opacity="1"><g transform="translate(137.364249, 28.125)"><g><path d="M 21.109375 -4.375 C 21.109375 -3.363281 20.890625 -2.507812 20.453125 -1.8125 C 20.015625 -1.113281 19.4375 -0.585938 18.71875 -0.234375 C 18.007812 0.117188 17.238281 0.296875 16.40625 0.296875 C 15.789062 0.296875 15.191406 0.179688 14.609375 -0.046875 C 14.023438 -0.273438 13.503906 -0.617188 13.046875 -1.078125 L 7.9375 -6.21875 C 7.894531 -6.3125 7.828125 -6.304688 7.734375 -6.203125 C 7.648438 -6.109375 7.628906 -6.015625 7.671875 -5.921875 L 9.359375 -3.296875 C 9.148438 -2.265625 8.609375 -1.40625 7.734375 -0.71875 C 6.859375 -0.0390625 5.863281 0.296875 4.75 0.296875 C 3.882812 0.296875 3.085938 0.0820312 2.359375 -0.34375 C 1.640625 -0.769531 1.066406 -1.335938 0.640625 -2.046875 C 0.210938 -2.765625 0 -3.566406 0 -4.453125 L 0 -16.359375 C 0 -17.222656 0.210938 -18.007812 0.640625 -18.71875 C 1.066406 -19.4375 1.640625 -20.015625 2.359375 -20.453125 C 3.085938 -20.890625 3.882812 -21.109375 4.75 -21.109375 C 5.46875 -21.109375 6.144531 -20.941406 6.78125 -20.609375 C 7.414062 -20.285156 7.953125 -19.898438 8.390625 -19.453125 L 13.234375 -14.6875 C 13.273438 -14.601562 13.335938 -14.59375 13.421875 -14.65625 C 13.515625 -14.71875 13.539062 -14.785156 13.5 -14.859375 L 11.75 -17.421875 C 11.90625 -18.097656 12.203125 -18.710938 12.640625 -19.265625 C 13.078125 -19.816406 13.613281 -20.257812 14.25 -20.59375 C 14.894531 -20.9375 15.585938 -21.109375 16.328125 -21.109375 C 17.378906 -21.109375 18.253906 -20.890625 18.953125 -20.453125 C 19.660156 -20.015625 20.195312 -19.4375 20.5625 -18.71875 C 20.925781 -18.007812 21.109375 -17.222656 21.109375 -16.359375 Z M 21.109375 -4.375 "/></g></g></g><g fill="#f472b6" fill-opacity="1"><g transform="translate(159.366268, 28.125)"><g><path d="M 13.96875 -21.109375 C 14.863281 -21.109375 15.671875 -20.890625 16.390625 -20.453125 C 17.117188 -20.015625 17.695312 -19.429688 18.125 -18.703125 C 18.550781 -17.984375 18.765625 -17.191406 18.765625 -16.328125 C 18.765625 -15.472656 18.554688 -14.691406 18.140625 -13.984375 C 17.722656 -13.285156 17.160156 -12.71875 16.453125 -12.28125 C 15.753906 -11.84375 14.957031 -11.625 14.0625 -11.625 L 14.09375 -4.484375 C 14.09375 -3.617188 13.875 -2.816406 13.4375 -2.078125 C 13 -1.347656 12.414062 -0.765625 11.6875 -0.328125 C 10.96875 0.109375 10.175781 0.328125 9.3125 0.328125 C 8.457031 0.328125 7.671875 0.109375 6.953125 -0.328125 C 6.242188 -0.765625 5.675781 -1.347656 5.25 -2.078125 C 4.820312 -2.816406 4.609375 -3.617188 4.609375 -4.484375 L 4.609375 -11.625 C 3.734375 -11.625 2.9375 -11.84375 2.21875 -12.28125 C 1.507812 -12.71875 0.945312 -13.285156 0.53125 -13.984375 C 0.113281 -14.691406 -0.09375 -15.472656 -0.09375 -16.328125 C -0.09375 -17.191406 0.113281 -17.984375 0.53125 -18.703125 C 0.945312 -19.429688 1.507812 -20.015625 2.21875 -20.453125 C 2.9375 -20.890625 3.734375 -21.109375 4.609375 -21.109375 Z M 13.96875 -21.109375 "/></g></g></g></svg>