<svg xmlns="http://www.w3.org/2000/svg" xmlns:xlink="http://www.w3.org/1999/xlink" width="250" zoomAndPan="magnify" viewBox="0 0 187.5 37.5" height="50" preserveAspectRatio="xMidYMid meet" version="1.0"><defs><g/></defs><g fill="#24127b" fill-opacity="1"><g transform="translate(3.068462, 28.837687)"><g><path d="M 18.796875 -16.375 C 18.796875 -15.601562 18.617188 -14.90625 18.265625 -14.28125 C 17.910156 -13.664062 17.390625 -13.179688 16.703125 -12.828125 C 16.203125 -13.097656 15.671875 -13.3125 15.109375 -13.46875 C 14.546875 -13.625 13.972656 -13.722656 13.390625 -13.765625 C 13.265625 -13.765625 13.1875 -13.707031 13.15625 -13.59375 C 13.125 -13.488281 13.171875 -13.421875 13.296875 -13.390625 C 14.617188 -13.085938 15.695312 -12.550781 16.53125 -11.78125 C 17.375 -11.007812 17.972656 -10.117188 18.328125 -9.109375 C 18.679688 -8.109375 18.800781 -7.070312 18.6875 -6 C 18.582031 -4.9375 18.226562 -3.953125 17.625 -3.046875 C 17.03125 -2.140625 16.1875 -1.40625 15.09375 -0.84375 C 14.007812 -0.28125 12.691406 0 11.140625 0 L 4.65625 0 C 3.800781 0 3.019531 -0.242188 2.3125 -0.734375 C 1.601562 -1.234375 1.03125 -1.847656 0.59375 -2.578125 C 0.15625 -3.304688 -0.0625 -4.015625 -0.0625 -4.703125 C -0.0625 -5.515625 0.0820312 -6.222656 0.375 -6.828125 C 0.675781 -7.429688 1.15625 -7.96875 1.8125 -8.4375 C 2.382812 -8.0625 3.035156 -7.773438 3.765625 -7.578125 C 4.492188 -7.378906 5.203125 -7.28125 5.890625 -7.28125 C 6.003906 -7.28125 6.070312 -7.332031 6.09375 -7.4375 C 6.113281 -7.550781 6.066406 -7.628906 5.953125 -7.671875 C 5.535156 -7.710938 5.117188 -7.800781 4.703125 -7.9375 C 4.296875 -8.070312 3.894531 -8.238281 3.5 -8.4375 C 2.53125 -8.945312 1.757812 -9.609375 1.1875 -10.421875 C 0.613281 -11.234375 0.242188 -12.113281 0.078125 -13.0625 C -0.0859375 -14.007812 -0.0625 -14.953125 0.15625 -15.890625 C 0.382812 -16.828125 0.8125 -17.675781 1.4375 -18.4375 C 2.0625 -19.207031 2.882812 -19.828125 3.90625 -20.296875 C 4.9375 -20.773438 6.160156 -21.015625 7.578125 -21.015625 L 14 -21.015625 C 14.894531 -21.015625 15.703125 -20.804688 16.421875 -20.390625 C 17.140625 -19.984375 17.710938 -19.425781 18.140625 -18.71875 C 18.578125 -18.019531 18.796875 -17.238281 18.796875 -16.375 Z M 18.796875 -16.375 "/></g></g></g><g fill="#24127b" fill-opacity="1"><g transform="translate(22.755944, 28.837687)"><g><path d="M 12.9375 -6.453125 L 7.734375 -1.359375 C 7.273438 -0.910156 6.753906 -0.570312 6.171875 -0.34375 C 5.585938 -0.113281 5 0 4.40625 0 C 3.800781 0 3.207031 -0.113281 2.625 -0.34375 C 2.039062 -0.570312 1.519531 -0.910156 1.0625 -1.359375 C 0.15625 -2.304688 -0.296875 -3.394531 -0.296875 -4.625 C -0.296875 -5.863281 0.15625 -6.957031 1.0625 -7.90625 L 12.40625 -19.390625 C 12.863281 -19.921875 13.398438 -20.320312 14.015625 -20.59375 C 14.640625 -20.875 15.285156 -21.015625 15.953125 -21.015625 C 16.347656 -21.015625 16.75 -20.960938 17.15625 -20.859375 C 17.5625 -20.753906 17.941406 -20.59375 18.296875 -20.375 C 19.023438 -20 19.601562 -19.445312 20.03125 -18.71875 C 20.457031 -18 20.671875 -17.195312 20.671875 -16.3125 L 20.671875 -4.65625 C 20.671875 -3.800781 20.441406 -3.019531 19.984375 -2.3125 C 19.535156 -1.601562 18.953125 -1.039062 18.234375 -0.625 C 17.523438 -0.207031 16.773438 0 15.984375 0 C 14.785156 0 13.789062 -0.328125 13 -0.984375 C 12.207031 -1.648438 11.679688 -2.476562 11.421875 -3.46875 L 13.234375 -6.21875 C 13.273438 -6.332031 13.253906 -6.425781 13.171875 -6.5 C 13.097656 -6.570312 13.019531 -6.554688 12.9375 -6.453125 Z M 12.9375 -6.453125 "/></g></g></g><g fill="#24127b" fill-opacity="1"><g transform="translate(44.308559, 28.837687)"><g><path d="M 7.75 -14.53125 L 12.90625 -19.625 C 13.832031 -20.550781 14.929688 -21.015625 16.203125 -21.015625 C 17.066406 -21.015625 17.859375 -20.800781 18.578125 -20.375 C 19.296875 -19.957031 19.867188 -19.394531 20.296875 -18.6875 C 20.722656 -17.988281 20.9375 -17.207031 20.9375 -16.34375 C 20.9375 -15.726562 20.816406 -15.128906 20.578125 -14.546875 C 20.335938 -13.960938 19.992188 -13.445312 19.546875 -13 L 8.234375 -1.65625 C 7.734375 -1.164062 7.179688 -0.765625 6.578125 -0.453125 C 5.984375 -0.148438 5.34375 0 4.65625 0 C 3.863281 0 3.113281 -0.191406 2.40625 -0.578125 C 1.707031 -0.960938 1.128906 -1.507812 0.671875 -2.21875 C 0.222656 -2.925781 0 -3.765625 0 -4.734375 L 0 -16.34375 C 0 -17.207031 0.222656 -17.992188 0.671875 -18.703125 C 1.128906 -19.421875 1.710938 -19.984375 2.421875 -20.390625 C 3.140625 -20.804688 3.890625 -21.015625 4.671875 -21.015625 C 5.898438 -21.015625 6.90625 -20.703125 7.6875 -20.078125 C 8.46875 -19.460938 8.992188 -18.644531 9.265625 -17.625 L 7.484375 -14.8125 C 7.410156 -14.664062 7.414062 -14.5625 7.5 -14.5 C 7.59375 -14.445312 7.675781 -14.457031 7.75 -14.53125 Z M 7.75 -14.53125 "/></g></g></g><g fill="#24127b" fill-opacity="1"><g transform="translate(65.801963, 28.837687)"><g><path d="M 0 -16.25 C 0 -17.144531 0.203125 -17.953125 0.609375 -18.671875 C 1.015625 -19.390625 1.578125 -19.957031 2.296875 -20.375 C 3.015625 -20.800781 3.835938 -21.015625 4.765625 -21.015625 L 12.5 -21.015625 C 13.425781 -21.015625 14.234375 -20.785156 14.921875 -20.328125 C 15.609375 -19.878906 16.144531 -19.296875 16.53125 -18.578125 C 16.914062 -17.859375 17.109375 -17.09375 17.109375 -16.28125 C 17.109375 -15.457031 16.910156 -14.695312 16.515625 -14 C 16.128906 -13.3125 15.570312 -12.757812 14.84375 -12.34375 C 14.125 -11.925781 13.265625 -11.703125 12.265625 -11.671875 C 12.160156 -11.671875 12.109375 -11.613281 12.109375 -11.5 C 12.109375 -11.394531 12.160156 -11.320312 12.265625 -11.28125 C 13.066406 -11.1875 13.851562 -11.238281 14.625 -11.4375 C 15.394531 -11.644531 16.078125 -12.054688 16.671875 -12.671875 C 16.960938 -12.023438 17.109375 -11.332031 17.109375 -10.59375 C 17.109375 -9.21875 16.6875 -8.125 15.84375 -7.3125 C 15.007812 -6.5 13.910156 -6.015625 12.546875 -5.859375 C 12.453125 -5.859375 12.40625 -5.796875 12.40625 -5.671875 C 12.40625 -5.554688 12.453125 -5.5 12.546875 -5.5 C 13.316406 -5.425781 14.066406 -5.488281 14.796875 -5.6875 C 15.535156 -5.882812 16.179688 -6.304688 16.734375 -6.953125 C 16.890625 -6.703125 17 -6.414062 17.0625 -6.09375 C 17.132812 -5.78125 17.171875 -5.304688 17.171875 -4.671875 C 17.171875 -4.222656 17.082031 -3.726562 16.90625 -3.1875 C 16.726562 -2.644531 16.445312 -2.128906 16.0625 -1.640625 C 15.675781 -1.160156 15.191406 -0.765625 14.609375 -0.453125 C 14.023438 -0.148438 13.320312 0 12.5 0 L 4.703125 0 C 3.835938 0 3.046875 -0.207031 2.328125 -0.625 C 1.609375 -1.050781 1.039062 -1.617188 0.625 -2.328125 C 0.207031 -3.046875 0 -3.828125 0 -4.671875 Z M 0 -16.25 "/></g></g></g><g fill="#24127b" fill-opacity="1"><g transform="translate(83.742801, 28.837687)"><g/></g></g><g fill="#24127b" fill-opacity="1"><g transform="translate(83.742801, 28.837687)"><g/></g></g><g fill="#24127b" fill-opacity="1"><g transform="translate(91.421666, 28.837687)"><g/></g></g><g fill="#24127b" fill-opacity="1"><g transform="translate(89.885127, 28.837687)"><g><path d="M 4.921875 0.296875 C 4.003906 0.296875 3.171875 0.0820312 2.421875 -0.34375 C 1.671875 -0.78125 1.078125 -1.363281 0.640625 -2.09375 C 0.210938 -2.832031 0 -3.644531 0 -4.53125 L 0 -16.21875 C 0 -17.113281 0.210938 -17.921875 0.640625 -18.640625 C 1.078125 -19.359375 1.671875 -19.929688 2.421875 -20.359375 C 3.171875 -20.796875 4.003906 -21.015625 4.921875 -21.015625 L 10.75 -21.015625 C 11.9375 -21.015625 13.035156 -20.796875 14.046875 -20.359375 C 15.066406 -19.929688 15.957031 -19.332031 16.71875 -18.5625 C 17.476562 -17.789062 18.070312 -16.890625 18.5 -15.859375 C 18.9375 -14.835938 19.15625 -13.742188 19.15625 -12.578125 C 19.15625 -11.398438 18.925781 -10.296875 18.46875 -9.265625 C 18.019531 -8.242188 17.398438 -7.34375 16.609375 -6.5625 C 15.816406 -5.78125 14.894531 -5.175781 13.84375 -4.75 C 12.800781 -4.320312 11.691406 -4.128906 10.515625 -4.171875 L 9.984375 -7.078125 C 9.941406 -7.191406 9.878906 -7.238281 9.796875 -7.21875 C 9.722656 -7.195312 9.6875 -7.128906 9.6875 -7.015625 L 9.6875 -4.53125 C 9.6875 -3.664062 9.46875 -2.863281 9.03125 -2.125 C 8.59375 -1.394531 8.015625 -0.804688 7.296875 -0.359375 C 6.578125 0.078125 5.785156 0.296875 4.921875 0.296875 Z M 10.125 -13.671875 C 10.050781 -13.671875 9.976562 -13.671875 9.90625 -13.671875 C 9.832031 -13.671875 9.757812 -13.65625 9.6875 -13.625 L 9.6875 -11.578125 C 9.84375 -11.472656 9.988281 -11.421875 10.125 -11.421875 C 10.4375 -11.421875 10.707031 -11.535156 10.9375 -11.765625 C 11.164062 -11.992188 11.28125 -12.265625 11.28125 -12.578125 C 11.28125 -12.898438 11.164062 -13.160156 10.9375 -13.359375 C 10.707031 -13.566406 10.4375 -13.671875 10.125 -13.671875 Z M 10.125 -13.671875 "/></g></g></g><g fill="#24127b" fill-opacity="1"><g transform="translate(109.572609, 28.837687)"><g><path d="M 10.75 -21.015625 C 12.226562 -21.015625 13.625 -20.738281 14.9375 -20.1875 C 16.25 -19.632812 17.398438 -18.867188 18.390625 -17.890625 C 19.378906 -16.921875 20.15625 -15.785156 20.71875 -14.484375 C 21.28125 -13.191406 21.5625 -11.804688 21.5625 -10.328125 C 21.5625 -8.847656 21.28125 -7.460938 20.71875 -6.171875 C 20.15625 -4.878906 19.378906 -3.75 18.390625 -2.78125 C 17.398438 -1.8125 16.25 -1.054688 14.9375 -0.515625 C 13.625 0.0234375 12.226562 0.296875 10.75 0.296875 C 9.289062 0.296875 7.910156 0.0234375 6.609375 -0.515625 C 5.304688 -1.054688 4.160156 -1.8125 3.171875 -2.78125 C 2.179688 -3.75 1.40625 -4.878906 0.84375 -6.171875 C 0.28125 -7.460938 0 -8.847656 0 -10.328125 C 0 -11.804688 0.28125 -13.191406 0.84375 -14.484375 C 1.40625 -15.785156 2.179688 -16.921875 3.171875 -17.890625 C 4.160156 -18.867188 5.304688 -19.632812 6.609375 -20.1875 C 7.910156 -20.738281 9.289062 -21.015625 10.75 -21.015625 Z M 10.75 -11.640625 C 10.445312 -11.640625 10.175781 -11.53125 9.9375 -11.3125 C 9.707031 -11.09375 9.59375 -10.796875 9.59375 -10.421875 C 9.59375 -10.085938 9.707031 -9.796875 9.9375 -9.546875 C 10.175781 -9.296875 10.445312 -9.171875 10.75 -9.171875 C 11.082031 -9.171875 11.367188 -9.296875 11.609375 -9.546875 C 11.859375 -9.796875 11.984375 -10.085938 11.984375 -10.421875 C 11.984375 -10.796875 11.859375 -11.09375 11.609375 -11.3125 C 11.367188 -11.53125 11.082031 -11.640625 10.75 -11.640625 Z M 10.75 -11.640625 "/></g></g></g><g fill="#24127b" fill-opacity="1"><g transform="translate(131.924556, 28.837687)"><g><path d="M 4.671875 0 C 3.804688 0 3.019531 -0.210938 2.3125 -0.640625 C 1.601562 -1.078125 1.039062 -1.65625 0.625 -2.375 C 0.207031 -3.101562 0 -3.890625 0 -4.734375 L 0 -16.375 C 0 -17.238281 0.207031 -18.019531 0.625 -18.71875 C 1.039062 -19.425781 1.601562 -19.984375 2.3125 -20.390625 C 3.019531 -20.804688 3.804688 -21.015625 4.671875 -21.015625 C 5.585938 -21.015625 6.398438 -20.804688 7.109375 -20.390625 C 7.816406 -19.984375 8.382812 -19.425781 8.8125 -18.71875 C 9.238281 -18.019531 9.453125 -17.238281 9.453125 -16.375 L 9.453125 -4.734375 C 9.453125 -3.890625 9.238281 -3.101562 8.8125 -2.375 C 8.382812 -1.65625 7.816406 -1.078125 7.109375 -0.640625 C 6.398438 -0.210938 5.585938 0 4.671875 0 Z M 4.671875 0 "/></g></g></g><g fill="#24127b" fill-opacity="1"><g transform="translate(142.315998, 28.837687)"><g><path d="M 21.015625 -4.359375 C 21.015625 -3.347656 20.796875 -2.492188 20.359375 -1.796875 C 19.929688 -1.109375 19.363281 -0.585938 18.65625 -0.234375 C 17.945312 0.117188 17.175781 0.296875 16.34375 0.296875 C 15.726562 0.296875 15.128906 0.179688 14.546875 -0.046875 C 13.960938 -0.273438 13.445312 -0.613281 13 -1.0625 L 7.90625 -6.1875 C 7.863281 -6.289062 7.796875 -6.289062 7.703125 -6.1875 C 7.617188 -6.09375 7.597656 -5.992188 7.640625 -5.890625 L 9.328125 -3.28125 C 9.109375 -2.257812 8.5625 -1.40625 7.6875 -0.71875 C 6.820312 -0.0390625 5.835938 0.296875 4.734375 0.296875 C 3.867188 0.296875 3.070312 0.0820312 2.34375 -0.34375 C 1.625 -0.769531 1.050781 -1.335938 0.625 -2.046875 C 0.207031 -2.753906 0 -3.550781 0 -4.4375 L 0 -16.28125 C 0 -17.15625 0.207031 -17.945312 0.625 -18.65625 C 1.050781 -19.363281 1.625 -19.929688 2.34375 -20.359375 C 3.070312 -20.796875 3.867188 -21.015625 4.734375 -21.015625 C 5.441406 -21.015625 6.113281 -20.851562 6.75 -20.53125 C 7.382812 -20.207031 7.914062 -19.816406 8.34375 -19.359375 L 13.171875 -14.625 C 13.210938 -14.550781 13.273438 -14.539062 13.359375 -14.59375 C 13.453125 -14.65625 13.476562 -14.726562 13.4375 -14.8125 L 11.703125 -17.34375 C 11.859375 -18.019531 12.148438 -18.632812 12.578125 -19.1875 C 13.015625 -19.738281 13.550781 -20.179688 14.1875 -20.515625 C 14.832031 -20.847656 15.519531 -21.015625 16.25 -21.015625 C 17.300781 -21.015625 18.175781 -20.796875 18.875 -20.359375 C 19.570312 -19.929688 20.101562 -19.363281 20.46875 -18.65625 C 20.832031 -17.945312 21.015625 -17.15625 21.015625 -16.28125 Z M 21.015625 -4.359375 "/></g></g></g><g fill="#24127b" fill-opacity="1"><g transform="translate(164.223874, 28.837687)"><g><path d="M 13.921875 -21.015625 C 14.804688 -21.015625 15.609375 -20.796875 16.328125 -20.359375 C 17.046875 -19.929688 17.617188 -19.359375 18.046875 -18.640625 C 18.472656 -17.921875 18.6875 -17.125 18.6875 -16.25 C 18.6875 -15.40625 18.476562 -14.628906 18.0625 -13.921875 C 17.644531 -13.222656 17.085938 -12.65625 16.390625 -12.21875 C 15.691406 -11.789062 14.894531 -11.578125 14 -11.578125 L 14.03125 -4.46875 C 14.03125 -3.601562 13.8125 -2.804688 13.375 -2.078125 C 12.945312 -1.347656 12.375 -0.765625 11.65625 -0.328125 C 10.9375 0.109375 10.140625 0.328125 9.265625 0.328125 C 8.421875 0.328125 7.640625 0.109375 6.921875 -0.328125 C 6.210938 -0.765625 5.644531 -1.347656 5.21875 -2.078125 C 4.800781 -2.804688 4.59375 -3.601562 4.59375 -4.46875 L 4.59375 -11.578125 C 3.71875 -11.578125 2.925781 -11.789062 2.21875 -12.21875 C 1.507812 -12.65625 0.945312 -13.222656 0.53125 -13.921875 C 0.113281 -14.628906 -0.09375 -15.40625 -0.09375 -16.25 C -0.09375 -17.125 0.113281 -17.921875 0.53125 -18.640625 C 0.945312 -19.359375 1.507812 -19.929688 2.21875 -20.359375 C 2.925781 -20.796875 3.71875 -21.015625 4.59375 -21.015625 Z M 13.921875 -21.015625 "/></g></g></g></svg>