<svg xmlns="http://www.w3.org/2000/svg" xmlns:xlink="http://www.w3.org/1999/xlink" width="250" zoomAndPan="magnify" viewBox="0 0 187.5 37.5" height="50" preserveAspectRatio="xMidYMid meet" version="1.0"><defs><g/></defs><g fill="#24127b" fill-opacity="1"><g transform="translate(3.077097, 26.447373)"><g><path d="M 18.171875 -15.828125 C 18.171875 -15.078125 18 -14.398438 17.65625 -13.796875 C 17.3125 -13.203125 16.804688 -12.734375 16.140625 -12.390625 C 15.660156 -12.648438 15.148438 -12.859375 14.609375 -13.015625 C 14.066406 -13.171875 13.507812 -13.265625 12.9375 -13.296875 C 12.820312 -13.296875 12.75 -13.242188 12.71875 -13.140625 C 12.6875 -13.035156 12.726562 -12.96875 12.84375 -12.9375 C 14.125 -12.644531 15.164062 -12.125 15.96875 -11.375 C 16.78125 -10.632812 17.359375 -9.78125 17.703125 -8.8125 C 18.046875 -7.84375 18.164062 -6.84375 18.0625 -5.8125 C 17.957031 -4.78125 17.613281 -3.820312 17.03125 -2.9375 C 16.457031 -2.0625 15.644531 -1.351562 14.59375 -0.8125 C 13.539062 -0.269531 12.257812 0 10.75 0 L 4.484375 0 C 3.671875 0 2.921875 -0.238281 2.234375 -0.71875 C 1.546875 -1.195312 0.988281 -1.785156 0.5625 -2.484375 C 0.144531 -3.191406 -0.0625 -3.878906 -0.0625 -4.546875 C -0.0625 -5.328125 0.078125 -6.007812 0.359375 -6.59375 C 0.648438 -7.175781 1.113281 -7.695312 1.75 -8.15625 C 2.300781 -7.789062 2.925781 -7.507812 3.625 -7.3125 C 4.332031 -7.125 5.019531 -7.03125 5.6875 -7.03125 C 5.800781 -7.03125 5.867188 -7.082031 5.890625 -7.1875 C 5.910156 -7.300781 5.863281 -7.375 5.75 -7.40625 C 5.351562 -7.445312 4.953125 -7.535156 4.546875 -7.671875 C 4.148438 -7.804688 3.757812 -7.96875 3.375 -8.15625 C 2.4375 -8.644531 1.691406 -9.28125 1.140625 -10.0625 C 0.585938 -10.851562 0.226562 -11.703125 0.0625 -12.609375 C -0.09375 -13.523438 -0.0625 -14.4375 0.15625 -15.34375 C 0.375 -16.25 0.78125 -17.070312 1.375 -17.8125 C 1.976562 -18.5625 2.773438 -19.164062 3.765625 -19.625 C 4.765625 -20.082031 5.953125 -20.3125 7.328125 -20.3125 L 13.53125 -20.3125 C 14.382812 -20.3125 15.160156 -20.109375 15.859375 -19.703125 C 16.554688 -19.304688 17.113281 -18.769531 17.53125 -18.09375 C 17.957031 -17.414062 18.171875 -16.660156 18.171875 -15.828125 Z M 18.171875 -15.828125 "/></g></g></g><g fill="#24127b" fill-opacity="1"><g transform="translate(22.675574, 26.447373)"><g><path d="M 12.5 -6.234375 L 7.46875 -1.3125 C 7.03125 -0.875 6.53125 -0.546875 5.96875 -0.328125 C 5.40625 -0.109375 4.835938 0 4.265625 0 C 3.671875 0 3.09375 -0.109375 2.53125 -0.328125 C 1.96875 -0.546875 1.46875 -0.875 1.03125 -1.3125 C 0.15625 -2.226562 -0.28125 -3.28125 -0.28125 -4.46875 C -0.28125 -5.664062 0.15625 -6.722656 1.03125 -7.640625 L 11.984375 -18.734375 C 12.421875 -19.253906 12.941406 -19.644531 13.546875 -19.90625 C 14.148438 -20.175781 14.773438 -20.3125 15.421875 -20.3125 C 15.804688 -20.3125 16.191406 -20.257812 16.578125 -20.15625 C 16.972656 -20.050781 17.34375 -19.894531 17.6875 -19.6875 C 18.382812 -19.320312 18.9375 -18.789062 19.34375 -18.09375 C 19.757812 -17.394531 19.96875 -16.617188 19.96875 -15.765625 L 19.96875 -4.484375 C 19.96875 -3.671875 19.75 -2.921875 19.3125 -2.234375 C 18.875 -1.546875 18.3125 -1 17.625 -0.59375 C 16.9375 -0.195312 16.210938 0 15.453125 0 C 14.285156 0 13.320312 -0.316406 12.5625 -0.953125 C 11.800781 -1.597656 11.296875 -2.394531 11.046875 -3.34375 L 12.78125 -6.015625 C 12.820312 -6.117188 12.800781 -6.203125 12.71875 -6.265625 C 12.644531 -6.335938 12.570312 -6.328125 12.5 -6.234375 Z M 12.5 -6.234375 "/></g></g></g><g fill="#24127b" fill-opacity="1"><g transform="translate(44.07653, 26.447373)"><g><path d="M 7.5 -14.046875 L 12.46875 -18.96875 C 13.363281 -19.863281 14.425781 -20.3125 15.65625 -20.3125 C 16.488281 -20.3125 17.253906 -20.101562 17.953125 -19.6875 C 18.648438 -19.28125 19.203125 -18.738281 19.609375 -18.0625 C 20.023438 -17.382812 20.234375 -16.628906 20.234375 -15.796875 C 20.234375 -15.203125 20.117188 -14.625 19.890625 -14.0625 C 19.660156 -13.5 19.320312 -13 18.875 -12.5625 L 7.953125 -1.609375 C 7.472656 -1.128906 6.941406 -0.738281 6.359375 -0.4375 C 5.785156 -0.144531 5.160156 0 4.484375 0 C 3.722656 0 3.003906 -0.179688 2.328125 -0.546875 C 1.648438 -0.921875 1.09375 -1.453125 0.65625 -2.140625 C 0.21875 -2.828125 0 -3.640625 0 -4.578125 L 0 -15.796875 C 0 -16.628906 0.21875 -17.390625 0.65625 -18.078125 C 1.09375 -18.765625 1.65625 -19.304688 2.34375 -19.703125 C 3.03125 -20.109375 3.753906 -20.3125 4.515625 -20.3125 C 5.703125 -20.3125 6.671875 -20.007812 7.421875 -19.40625 C 8.171875 -18.8125 8.679688 -18.015625 8.953125 -17.015625 L 7.234375 -14.296875 C 7.160156 -14.171875 7.164062 -14.078125 7.25 -14.015625 C 7.332031 -13.960938 7.414062 -13.972656 7.5 -14.046875 Z M 7.5 -14.046875 "/></g></g></g><g fill="#24127b" fill-opacity="1"><g transform="translate(65.42026, 26.447373)"><g><path d="M 0 -15.703125 C 0 -16.566406 0.191406 -17.34375 0.578125 -18.03125 C 0.972656 -18.726562 1.519531 -19.28125 2.21875 -19.6875 C 2.914062 -20.101562 3.710938 -20.3125 4.609375 -20.3125 L 12.078125 -20.3125 C 12.972656 -20.3125 13.753906 -20.09375 14.421875 -19.65625 C 15.085938 -19.21875 15.601562 -18.648438 15.96875 -17.953125 C 16.34375 -17.253906 16.53125 -16.515625 16.53125 -15.734375 C 16.53125 -14.929688 16.335938 -14.195312 15.953125 -13.53125 C 15.578125 -12.863281 15.039062 -12.328125 14.34375 -11.921875 C 13.644531 -11.523438 12.8125 -11.304688 11.84375 -11.265625 C 11.75 -11.265625 11.703125 -11.210938 11.703125 -11.109375 C 11.703125 -11.003906 11.75 -10.9375 11.84375 -10.90625 C 12.625 -10.800781 13.382812 -10.847656 14.125 -11.046875 C 14.875 -11.253906 15.535156 -11.65625 16.109375 -12.25 C 16.390625 -11.613281 16.53125 -10.941406 16.53125 -10.234375 C 16.53125 -8.898438 16.125 -7.84375 15.3125 -7.0625 C 14.507812 -6.28125 13.445312 -5.816406 12.125 -5.671875 C 12.03125 -5.671875 11.984375 -5.613281 11.984375 -5.5 C 11.984375 -5.382812 12.03125 -5.328125 12.125 -5.328125 C 12.875 -5.242188 13.597656 -5.296875 14.296875 -5.484375 C 15.003906 -5.679688 15.628906 -6.09375 16.171875 -6.71875 C 16.316406 -6.46875 16.421875 -6.191406 16.484375 -5.890625 C 16.554688 -5.585938 16.59375 -5.128906 16.59375 -4.515625 C 16.59375 -4.078125 16.503906 -3.59375 16.328125 -3.0625 C 16.160156 -2.539062 15.890625 -2.046875 15.515625 -1.578125 C 15.148438 -1.117188 14.6875 -0.738281 14.125 -0.4375 C 13.5625 -0.144531 12.878906 0 12.078125 0 L 4.546875 0 C 3.710938 0 2.945312 -0.203125 2.25 -0.609375 C 1.550781 -1.023438 1 -1.578125 0.59375 -2.265625 C 0.195312 -2.953125 0 -3.703125 0 -4.515625 Z M 0 -15.703125 "/></g></g></g><g fill="#24127b" fill-opacity="1"><g transform="translate(83.330707, 26.447373)"><g/></g></g><g fill="#24127b" fill-opacity="1"><g transform="translate(91.313243, 26.447373)"><g><path d="M 4.75 0.28125 C 3.875 0.28125 3.070312 0.0703125 2.34375 -0.34375 C 1.625 -0.757812 1.050781 -1.320312 0.625 -2.03125 C 0.207031 -2.738281 0 -3.519531 0 -4.375 L 0 -15.671875 C 0 -16.535156 0.207031 -17.3125 0.625 -18 C 1.050781 -18.695312 1.625 -19.253906 2.34375 -19.671875 C 3.070312 -20.097656 3.875 -20.3125 4.75 -20.3125 L 10.390625 -20.3125 C 11.535156 -20.3125 12.597656 -20.097656 13.578125 -19.671875 C 14.554688 -19.253906 15.410156 -18.675781 16.140625 -17.9375 C 16.878906 -17.195312 17.457031 -16.328125 17.875 -15.328125 C 18.300781 -14.335938 18.515625 -13.28125 18.515625 -12.15625 C 18.515625 -11.007812 18.289062 -9.941406 17.84375 -8.953125 C 17.40625 -7.960938 16.804688 -7.085938 16.046875 -6.328125 C 15.285156 -5.578125 14.398438 -5 13.390625 -4.59375 C 12.378906 -4.1875 11.300781 -4 10.15625 -4.03125 L 9.640625 -6.84375 C 9.597656 -6.957031 9.539062 -7.003906 9.46875 -6.984375 C 9.394531 -6.960938 9.359375 -6.894531 9.359375 -6.78125 L 9.359375 -4.375 C 9.359375 -3.539062 9.144531 -2.769531 8.71875 -2.0625 C 8.300781 -1.351562 7.742188 -0.785156 7.046875 -0.359375 C 6.359375 0.0664062 5.59375 0.28125 4.75 0.28125 Z M 9.78125 -13.21875 C 9.707031 -13.21875 9.632812 -13.21875 9.5625 -13.21875 C 9.5 -13.21875 9.429688 -13.195312 9.359375 -13.15625 L 9.359375 -11.1875 C 9.503906 -11.09375 9.644531 -11.046875 9.78125 -11.046875 C 10.082031 -11.046875 10.34375 -11.15625 10.5625 -11.375 C 10.789062 -11.59375 10.90625 -11.851562 10.90625 -12.15625 C 10.90625 -12.457031 10.789062 -12.707031 10.5625 -12.90625 C 10.34375 -13.113281 10.082031 -13.21875 9.78125 -13.21875 Z M 9.78125 -13.21875 "/></g></g></g><g fill="#24127b" fill-opacity="1"><g transform="translate(110.91172, 26.447373)"><g><path d="M 10.390625 -20.3125 C 11.816406 -20.3125 13.160156 -20.039062 14.421875 -19.5 C 15.691406 -18.96875 16.804688 -18.226562 17.765625 -17.28125 C 18.722656 -16.34375 19.472656 -15.25 20.015625 -14 C 20.554688 -12.75 20.828125 -11.410156 20.828125 -9.984375 C 20.828125 -8.554688 20.554688 -7.21875 20.015625 -5.96875 C 19.472656 -4.71875 18.722656 -3.625 17.765625 -2.6875 C 16.804688 -1.75 15.691406 -1.019531 14.421875 -0.5 C 13.160156 0.0195312 11.816406 0.28125 10.390625 0.28125 C 8.972656 0.28125 7.632812 0.0195312 6.375 -0.5 C 5.113281 -1.019531 4.003906 -1.75 3.046875 -2.6875 C 2.097656 -3.625 1.351562 -4.71875 0.8125 -5.96875 C 0.269531 -7.21875 0 -8.554688 0 -9.984375 C 0 -11.410156 0.269531 -12.75 0.8125 -14 C 1.351562 -15.25 2.097656 -16.34375 3.046875 -17.28125 C 4.003906 -18.226562 5.113281 -18.96875 6.375 -19.5 C 7.632812 -20.039062 8.972656 -20.3125 10.390625 -20.3125 Z M 10.390625 -11.25 C 10.097656 -11.25 9.835938 -11.140625 9.609375 -10.921875 C 9.378906 -10.710938 9.265625 -10.429688 9.265625 -10.078125 C 9.265625 -9.742188 9.378906 -9.457031 9.609375 -9.21875 C 9.835938 -8.988281 10.097656 -8.875 10.390625 -8.875 C 10.710938 -8.875 10.992188 -8.988281 11.234375 -9.21875 C 11.472656 -9.457031 11.59375 -9.742188 11.59375 -10.078125 C 11.59375 -10.429688 11.472656 -10.710938 11.234375 -10.921875 C 10.992188 -11.140625 10.710938 -11.25 10.390625 -11.25 Z M 10.390625 -11.25 "/></g></g></g><g fill="#24127b" fill-opacity="1"><g transform="translate(133.085163, 26.447373)"><g><path d="M 4.515625 0 C 3.679688 0 2.921875 -0.207031 2.234375 -0.625 C 1.546875 -1.050781 1 -1.609375 0.59375 -2.296875 C 0.195312 -2.992188 0 -3.753906 0 -4.578125 L 0 -15.828125 C 0 -16.660156 0.195312 -17.414062 0.59375 -18.09375 C 1 -18.769531 1.546875 -19.304688 2.234375 -19.703125 C 2.921875 -20.109375 3.679688 -20.3125 4.515625 -20.3125 C 5.398438 -20.3125 6.179688 -20.109375 6.859375 -19.703125 C 7.546875 -19.304688 8.09375 -18.769531 8.5 -18.09375 C 8.914062 -17.414062 9.125 -16.660156 9.125 -15.828125 L 9.125 -4.578125 C 9.125 -3.753906 8.914062 -2.992188 8.5 -2.296875 C 8.09375 -1.609375 7.546875 -1.050781 6.859375 -0.625 C 6.179688 -0.207031 5.398438 0 4.515625 0 Z M 4.515625 0 "/></g></g></g><g fill="#24127b" fill-opacity="1"><g transform="translate(143.699889, 26.447373)"><g><path d="M 20.3125 -4.203125 C 20.3125 -3.234375 20.097656 -2.414062 19.671875 -1.75 C 19.253906 -1.082031 18.703125 -0.578125 18.015625 -0.234375 C 17.335938 0.109375 16.597656 0.28125 15.796875 0.28125 C 15.203125 0.28125 14.625 0.171875 14.0625 -0.046875 C 13.5 -0.265625 13 -0.59375 12.5625 -1.03125 L 7.640625 -5.984375 C 7.597656 -6.078125 7.535156 -6.078125 7.453125 -5.984375 C 7.367188 -5.890625 7.34375 -5.789062 7.375 -5.6875 L 9.015625 -3.171875 C 8.804688 -2.179688 8.28125 -1.359375 7.4375 -0.703125 C 6.59375 -0.046875 5.640625 0.28125 4.578125 0.28125 C 3.734375 0.28125 2.960938 0.078125 2.265625 -0.328125 C 1.578125 -0.734375 1.023438 -1.28125 0.609375 -1.96875 C 0.203125 -2.65625 0 -3.429688 0 -4.296875 L 0 -15.734375 C 0 -16.578125 0.203125 -17.335938 0.609375 -18.015625 C 1.023438 -18.703125 1.578125 -19.253906 2.265625 -19.671875 C 2.960938 -20.097656 3.734375 -20.3125 4.578125 -20.3125 C 5.265625 -20.3125 5.910156 -20.15625 6.515625 -19.84375 C 7.128906 -19.53125 7.644531 -19.148438 8.0625 -18.703125 L 12.734375 -14.140625 C 12.765625 -14.054688 12.820312 -14.039062 12.90625 -14.09375 C 13 -14.15625 13.023438 -14.222656 12.984375 -14.296875 L 11.296875 -16.765625 C 11.453125 -17.410156 11.738281 -18 12.15625 -18.53125 C 12.570312 -19.070312 13.085938 -19.503906 13.703125 -19.828125 C 14.328125 -20.148438 14.992188 -20.3125 15.703125 -20.3125 C 16.710938 -20.3125 17.554688 -20.097656 18.234375 -19.671875 C 18.910156 -19.253906 19.425781 -18.703125 19.78125 -18.015625 C 20.132812 -17.335938 20.3125 -16.578125 20.3125 -15.734375 Z M 20.3125 -4.203125 "/></g></g></g><g fill="#24127b" fill-opacity="1"><g transform="translate(165.444178, 26.447373)"><g><path d="M 13.453125 -20.3125 C 14.304688 -20.3125 15.082031 -20.097656 15.78125 -19.671875 C 16.476562 -19.253906 17.03125 -18.695312 17.4375 -18 C 17.84375 -17.3125 18.046875 -16.546875 18.046875 -15.703125 C 18.046875 -14.878906 17.84375 -14.128906 17.4375 -13.453125 C 17.039062 -12.773438 16.503906 -12.226562 15.828125 -11.8125 C 15.148438 -11.394531 14.382812 -11.1875 13.53125 -11.1875 L 13.5625 -4.3125 C 13.5625 -3.476562 13.347656 -2.707031 12.921875 -2 C 12.503906 -1.289062 11.945312 -0.726562 11.25 -0.3125 C 10.5625 0.101562 9.796875 0.3125 8.953125 0.3125 C 8.128906 0.3125 7.375 0.101562 6.6875 -0.3125 C 6.007812 -0.726562 5.460938 -1.289062 5.046875 -2 C 4.640625 -2.707031 4.4375 -3.476562 4.4375 -4.3125 L 4.4375 -11.1875 C 3.59375 -11.1875 2.828125 -11.394531 2.140625 -11.8125 C 1.453125 -12.226562 0.910156 -12.773438 0.515625 -13.453125 C 0.117188 -14.128906 -0.078125 -14.878906 -0.078125 -15.703125 C -0.078125 -16.546875 0.117188 -17.3125 0.515625 -18 C 0.910156 -18.695312 1.453125 -19.253906 2.140625 -19.671875 C 2.828125 -20.097656 3.59375 -20.3125 4.4375 -20.3125 Z M 13.453125 -20.3125 "/></g></g></g><g fill="#24127b" fill-opacity="1"><g transform="translate(184.501843, 26.447373)"><g/></g></g></svg>