<svg xmlns="http://www.w3.org/2000/svg" xmlns:xlink="http://www.w3.org/1999/xlink" width="250" zoomAndPan="magnify" viewBox="0 0 187.5 37.5" height="50" preserveAspectRatio="xMidYMid meet" version="1.0"><defs><filter x="0%" y="0%" width="100%" height="100%" id="c6536cedff"><feColorMatrix values="0 0 0 0 1 0 0 0 0 1 0 0 0 0 1 0 0 0 1 0" color-interpolation-filters="sRGB"/></filter><g/><clipPath id="f46f3d4e49"><path d="M 0.988281 2 L 186.019531 2 L 186.019531 37.007812 L 0.988281 37.007812 Z M 0.988281 2 " clip-rule="nonzero"/></clipPath><mask id="06f57eb94d"><g filter="url(#c6536cedff)"><rect x="-18.75" width="225" fill="#000000" y="-3.75" height="45" fill-opacity="0.85"/></g></mask><clipPath id="40f998dcb9"><path d="M 0.988281 0.132812 L 186.019531 0.132812 L 186.019531 35.007812 L 0.988281 35.007812 Z M 0.988281 0.132812 " clip-rule="nonzero"/></clipPath><clipPath id="9df5b4f423"><rect x="0" width="187" y="0" height="36"/></clipPath><clipPath id="239b4ff3b3"><rect x="0" width="187" y="0" height="36"/></clipPath></defs><g clip-path="url(#f46f3d4e49)"><g mask="url(#06f57eb94d)"><g transform="matrix(1, 0, 0, 1, 0.000000000000000111, 2)"><g clip-path="url(#239b4ff3b3)"><g clip-path="url(#40f998dcb9)"><g transform="matrix(1, 0, 0, 1, 0.000000000000000111, -0.000000000000001332)"><g clip-path="url(#9df5b4f423)"><g fill="#ff00ff" fill-opacity="1"><g transform="translate(1.728941, 27.977312)"><g><path d="M 11.90625 -14 C 13.644531 -13.144531 14.953125 -12.210938 15.828125 -11.203125 C 16.703125 -10.203125 17.140625 -8.921875 17.140625 -7.359375 C 17.140625 -6.066406 16.789062 -4.859375 16.09375 -3.734375 C 15.40625 -2.609375 14.390625 -1.703125 13.046875 -1.015625 C 11.703125 -0.335938 10.03125 0 8.03125 0 C 6.78125 0 5.59375 -0.15625 4.46875 -0.46875 C 3.34375 -0.789062 2.425781 -1.222656 1.71875 -1.765625 L 2.421875 -4.21875 C 3.128906 -3.851562 3.988281 -3.519531 5 -3.21875 C 6.007812 -2.925781 7.140625 -2.78125 8.390625 -2.78125 C 9.972656 -2.78125 11.25 -3.175781 12.21875 -3.96875 C 13.1875 -4.769531 13.671875 -5.789062 13.671875 -7.03125 C 13.671875 -8.25 13.285156 -9.191406 12.515625 -9.859375 C 11.742188 -10.535156 10.488281 -11.226562 8.75 -11.9375 C 6.800781 -12.625 5.195312 -13.515625 3.9375 -14.609375 C 2.675781 -15.710938 2.046875 -17.144531 2.046875 -18.90625 C 2.046875 -20.226562 2.40625 -21.390625 3.125 -22.390625 C 3.851562 -23.390625 4.851562 -24.175781 6.125 -24.75 C 7.394531 -25.320312 8.847656 -25.609375 10.484375 -25.609375 L 12.9375 -25.609375 C 13.644531 -25.410156 14.257812 -25.234375 14.78125 -25.078125 C 15.3125 -24.921875 15.757812 -24.742188 16.125 -24.546875 L 13.296875 -17.1875 Z M 11.90625 -22.796875 C 11.707031 -22.960938 11.445312 -23.054688 11.125 -23.078125 C 10.8125 -23.109375 10.472656 -23.125 10.109375 -23.125 C 9.085938 -23.125 8.238281 -22.925781 7.5625 -22.53125 C 6.894531 -22.144531 6.394531 -21.648438 6.0625 -21.046875 C 5.726562 -20.453125 5.5625 -19.859375 5.5625 -19.265625 C 5.5625 -18.410156 5.835938 -17.628906 6.390625 -16.921875 C 6.941406 -16.210938 7.84375 -15.601562 9.09375 -15.09375 Z M 11.90625 -22.796875 "/></g></g></g><g fill="#ff00ff" fill-opacity="1"><g transform="translate(17.80823, 27.977312)"><g><path d="M 14.625 -25.65625 L 24.03125 -0.03125 L 0.703125 -0.03125 L 10.765625 -25.65625 Z M 4.90625 -2.640625 L 11.0625 -2.640625 L 15.9375 -13.671875 L 12.671875 -23.046875 Z M 14.625 -2.640625 L 20.15625 -2.640625 L 17.59375 -9.453125 Z M 14.625 -2.640625 "/></g></g></g><g fill="#ff00ff" fill-opacity="1"><g transform="translate(40.004537, 27.977312)"><g><path d="M 23.921875 -25.6875 L 14.109375 0 L 10.21875 0 L 0.734375 -25.6875 Z M 12.34375 -2.828125 L 20.078125 -22.859375 L 4.578125 -22.859375 L 6.265625 -18.65625 L 9.53125 -9.8125 Z M 12.34375 -2.828125 "/></g></g></g><g fill="#ff00ff" fill-opacity="1"><g transform="translate(61.981078, 27.977312)"><g><path d="M 9.234375 -2.859375 L 20.953125 -2.859375 L 20.953125 0.078125 L 2.71875 0.078125 L 2.71875 -16.8125 L 7.25 -16.8125 L 2.71875 -20.078125 L 2.71875 -25.65625 L 20.625 -25.65625 L 20.625 -22.71875 L 5.640625 -22.71875 L 5.640625 -21.765625 L 12.125 -16.8125 L 20.625 -16.8125 L 20.625 -13.921875 L 13.15625 -13.921875 Z M 9.890625 -13.921875 L 5.640625 -13.921875 L 5.640625 -2.859375 Z M 9.890625 -13.921875 "/></g></g></g><g fill="#ff00ff" fill-opacity="1"><g transform="translate(81.430223, 27.977312)"><g/></g></g><g fill="#ff00ff" fill-opacity="1"><g transform="translate(89.927337, 27.977312)"><g><path d="M 2.71875 0.078125 L 2.71875 -25.53125 L 9.125 -25.53125 C 10.957031 -25.53125 12.625 -25.285156 14.125 -24.796875 C 15.625 -24.316406 16.828125 -23.523438 17.734375 -22.421875 C 18.640625 -21.328125 19.09375 -19.875 19.09375 -18.0625 C 19.09375 -16.8125 18.90625 -15.726562 18.53125 -14.8125 C 18.164062 -13.90625 17.628906 -13.097656 16.921875 -12.390625 C 16.210938 -11.679688 15.332031 -11.132812 14.28125 -10.75 C 13.238281 -10.375 11.992188 -10.085938 10.546875 -9.890625 L 6.96875 0.078125 Z M 6.265625 -12.390625 L 8.03125 -12.390625 L 11.984375 -22.71875 L 6.265625 -22.71875 Z M 16.234375 -17.703125 C 16.234375 -18.410156 16.085938 -19.097656 15.796875 -19.765625 C 15.503906 -20.441406 15.171875 -20.945312 14.796875 -21.28125 L 11.609375 -12.75 C 13.054688 -13.09375 14.1875 -13.691406 15 -14.546875 C 15.820312 -15.398438 16.234375 -16.453125 16.234375 -17.703125 Z M 6.265625 -7.078125 L 6.96875 -9.5625 L 6.265625 -9.5625 Z M 6.265625 -7.078125 "/></g></g></g><g fill="#ff00ff" fill-opacity="1"><g transform="translate(106.62932, 27.977312)"><g><path d="M 14.515625 -25.71875 C 16.242188 -25.71875 17.863281 -25.375 19.375 -24.6875 C 20.894531 -24.007812 22.234375 -23.070312 23.390625 -21.875 C 24.554688 -20.675781 25.460938 -19.300781 26.109375 -17.75 C 26.753906 -16.195312 27.078125 -14.554688 27.078125 -12.828125 C 27.078125 -11.085938 26.753906 -9.441406 26.109375 -7.890625 C 25.460938 -6.335938 24.554688 -4.960938 23.390625 -3.765625 C 22.234375 -2.578125 20.894531 -1.640625 19.375 -0.953125 C 17.863281 -0.265625 16.242188 0.078125 14.515625 0.078125 C 12.679688 0.078125 10.984375 -0.265625 9.421875 -0.953125 C 7.859375 -1.640625 6.488281 -2.578125 5.3125 -3.765625 C 4.132812 -4.960938 3.222656 -6.335938 2.578125 -7.890625 C 1.929688 -9.441406 1.609375 -11.085938 1.609375 -12.828125 C 1.609375 -14.554688 1.929688 -16.195312 2.578125 -17.75 C 3.222656 -19.300781 4.132812 -20.675781 5.3125 -21.875 C 6.488281 -23.070312 7.859375 -24.007812 9.421875 -24.6875 C 10.984375 -25.375 12.679688 -25.71875 14.515625 -25.71875 Z M 14.515625 -3.078125 C 15.828125 -3.078125 17.050781 -3.332031 18.1875 -3.84375 C 19.320312 -4.351562 20.316406 -5.0625 21.171875 -5.96875 C 22.023438 -6.875 22.695312 -7.910156 23.1875 -9.078125 C 23.675781 -10.253906 23.921875 -11.503906 23.921875 -12.828125 C 23.921875 -14.140625 23.675781 -15.382812 23.1875 -16.5625 C 22.695312 -17.738281 22.023438 -18.773438 21.171875 -19.671875 C 20.316406 -20.578125 19.320312 -21.285156 18.1875 -21.796875 C 17.050781 -22.316406 15.828125 -22.578125 14.515625 -22.578125 C 13.117188 -22.578125 11.828125 -22.316406 10.640625 -21.796875 C 9.453125 -21.285156 8.421875 -20.578125 7.546875 -19.671875 C 6.671875 -18.773438 5.988281 -17.738281 5.5 -16.5625 C 5.007812 -15.382812 4.765625 -14.140625 4.765625 -12.828125 C 4.765625 -11.503906 5.007812 -10.253906 5.5 -9.078125 C 5.988281 -7.910156 6.671875 -6.875 7.546875 -5.96875 C 8.421875 -5.0625 9.453125 -4.351562 10.640625 -3.84375 C 11.828125 -3.332031 13.117188 -3.078125 14.515625 -3.078125 Z M 14.515625 -15.640625 C 14.972656 -15.640625 15.414062 -15.5 15.84375 -15.21875 C 16.269531 -14.9375 16.625 -14.582031 16.90625 -14.15625 C 17.1875 -13.726562 17.328125 -13.285156 17.328125 -12.828125 C 17.328125 -12.359375 17.1875 -11.910156 16.90625 -11.484375 C 16.625 -11.054688 16.269531 -10.703125 15.84375 -10.421875 C 15.414062 -10.140625 14.972656 -10 14.515625 -10 C 13.628906 -10 12.9375 -10.289062 12.4375 -10.875 C 11.9375 -11.46875 11.6875 -12.117188 11.6875 -12.828125 C 11.6875 -13.535156 11.9375 -14.179688 12.4375 -14.765625 C 12.9375 -15.347656 13.628906 -15.640625 14.515625 -15.640625 Z M 14.515625 -15.640625 "/></g></g></g><g fill="#ff00ff" fill-opacity="1"><g transform="translate(132.671659, 27.977312)"><g><path d="M 2.71875 0.078125 L 2.71875 -25.796875 L 6.40625 -25.796875 L 6.40625 0.078125 Z M 2.71875 0.078125 "/></g></g></g><g fill="#ff00ff" fill-opacity="1"><g transform="translate(139.410591, 27.977312)"><g><path d="M 19.71875 -25.53125 L 22.90625 -25.53125 L 22.90625 -0.03125 L 19.71875 -0.03125 L 19.71875 -12.78125 L 12.640625 -17.765625 L 5.90625 -0.03125 L 2.71875 -0.03125 L 2.71875 -25.53125 L 5.90625 -25.53125 L 19.71875 -16.34375 Z M 5.90625 -8.90625 L 9.78125 -19.53125 L 5.90625 -22.015625 Z M 5.90625 -8.90625 "/></g></g></g><g fill="#ff00ff" fill-opacity="1"><g transform="translate(162.41273, 27.977312)"><g><path d="M 22.34375 -22.5 L 16.3125 -20.703125 L 22.34375 -18.90625 L 21.28125 -16.046875 L 13.078125 -18.546875 L 13.078125 0 L 10.21875 0 L 10.21875 -18.90625 L 1.65625 -16.046875 L 0.59375 -18.90625 L 6.625 -20.703125 L 0.59375 -22.5 L 1.65625 -25.359375 L 10.21875 -22.859375 L 10.21875 -25.6875 L 13.078125 -25.6875 L 13.078125 -22.859375 L 21.28125 -25.359375 Z M 22.34375 -22.5 "/></g></g></g><g fill="#00ffff" fill-opacity="1"><g transform="translate(-0.606845, 27.977312)"><g><path d="M 11.90625 -14 C 13.644531 -13.144531 14.953125 -12.210938 15.828125 -11.203125 C 16.703125 -10.203125 17.140625 -8.921875 17.140625 -7.359375 C 17.140625 -6.066406 16.789062 -4.859375 16.09375 -3.734375 C 15.40625 -2.609375 14.390625 -1.703125 13.046875 -1.015625 C 11.703125 -0.335938 10.03125 0 8.03125 0 C 6.78125 0 5.59375 -0.15625 4.46875 -0.46875 C 3.34375 -0.789062 2.425781 -1.222656 1.71875 -1.765625 L 2.421875 -4.21875 C 3.128906 -3.851562 3.988281 -3.519531 5 -3.21875 C 6.007812 -2.925781 7.140625 -2.78125 8.390625 -2.78125 C 9.972656 -2.78125 11.25 -3.175781 12.21875 -3.96875 C 13.1875 -4.769531 13.671875 -5.789062 13.671875 -7.03125 C 13.671875 -8.25 13.285156 -9.191406 12.515625 -9.859375 C 11.742188 -10.535156 10.488281 -11.226562 8.75 -11.9375 C 6.800781 -12.625 5.195312 -13.515625 3.9375 -14.609375 C 2.675781 -15.710938 2.046875 -17.144531 2.046875 -18.90625 C 2.046875 -20.226562 2.40625 -21.390625 3.125 -22.390625 C 3.851562 -23.390625 4.851562 -24.175781 6.125 -24.75 C 7.394531 -25.320312 8.847656 -25.609375 10.484375 -25.609375 L 12.9375 -25.609375 C 13.644531 -25.410156 14.257812 -25.234375 14.78125 -25.078125 C 15.3125 -24.921875 15.757812 -24.742188 16.125 -24.546875 L 13.296875 -17.1875 Z M 11.90625 -22.796875 C 11.707031 -22.960938 11.445312 -23.054688 11.125 -23.078125 C 10.8125 -23.109375 10.472656 -23.125 10.109375 -23.125 C 9.085938 -23.125 8.238281 -22.925781 7.5625 -22.53125 C 6.894531 -22.144531 6.394531 -21.648438 6.0625 -21.046875 C 5.726562 -20.453125 5.5625 -19.859375 5.5625 -19.265625 C 5.5625 -18.410156 5.835938 -17.628906 6.390625 -16.921875 C 6.941406 -16.210938 7.84375 -15.601562 9.09375 -15.09375 Z M 11.90625 -22.796875 "/></g></g></g><g fill="#00ffff" fill-opacity="1"><g transform="translate(15.472444, 27.977312)"><g><path d="M 14.625 -25.65625 L 24.03125 -0.03125 L 0.703125 -0.03125 L 10.765625 -25.65625 Z M 4.90625 -2.640625 L 11.0625 -2.640625 L 15.9375 -13.671875 L 12.671875 -23.046875 Z M 14.625 -2.640625 L 20.15625 -2.640625 L 17.59375 -9.453125 Z M 14.625 -2.640625 "/></g></g></g><g fill="#00ffff" fill-opacity="1"><g transform="translate(37.668751, 27.977312)"><g><path d="M 23.921875 -25.6875 L 14.109375 0 L 10.21875 0 L 0.734375 -25.6875 Z M 12.34375 -2.828125 L 20.078125 -22.859375 L 4.578125 -22.859375 L 6.265625 -18.65625 L 9.53125 -9.8125 Z M 12.34375 -2.828125 "/></g></g></g><g fill="#00ffff" fill-opacity="1"><g transform="translate(59.645291, 27.977312)"><g><path d="M 9.234375 -2.859375 L 20.953125 -2.859375 L 20.953125 0.078125 L 2.71875 0.078125 L 2.71875 -16.8125 L 7.25 -16.8125 L 2.71875 -20.078125 L 2.71875 -25.65625 L 20.625 -25.65625 L 20.625 -22.71875 L 5.640625 -22.71875 L 5.640625 -21.765625 L 12.125 -16.8125 L 20.625 -16.8125 L 20.625 -13.921875 L 13.15625 -13.921875 Z M 9.890625 -13.921875 L 5.640625 -13.921875 L 5.640625 -2.859375 Z M 9.890625 -13.921875 "/></g></g></g><g fill="#00ffff" fill-opacity="1"><g transform="translate(79.094437, 27.977312)"><g/></g></g><g fill="#00ffff" fill-opacity="1"><g transform="translate(87.591551, 27.977312)"><g><path d="M 2.71875 0.078125 L 2.71875 -25.53125 L 9.125 -25.53125 C 10.957031 -25.53125 12.625 -25.285156 14.125 -24.796875 C 15.625 -24.316406 16.828125 -23.523438 17.734375 -22.421875 C 18.640625 -21.328125 19.09375 -19.875 19.09375 -18.0625 C 19.09375 -16.8125 18.90625 -15.726562 18.53125 -14.8125 C 18.164062 -13.90625 17.628906 -13.097656 16.921875 -12.390625 C 16.210938 -11.679688 15.332031 -11.132812 14.28125 -10.75 C 13.238281 -10.375 11.992188 -10.085938 10.546875 -9.890625 L 6.96875 0.078125 Z M 6.265625 -12.390625 L 8.03125 -12.390625 L 11.984375 -22.71875 L 6.265625 -22.71875 Z M 16.234375 -17.703125 C 16.234375 -18.410156 16.085938 -19.097656 15.796875 -19.765625 C 15.503906 -20.441406 15.171875 -20.945312 14.796875 -21.28125 L 11.609375 -12.75 C 13.054688 -13.09375 14.1875 -13.691406 15 -14.546875 C 15.820312 -15.398438 16.234375 -16.453125 16.234375 -17.703125 Z M 6.265625 -7.078125 L 6.96875 -9.5625 L 6.265625 -9.5625 Z M 6.265625 -7.078125 "/></g></g></g><g fill="#00ffff" fill-opacity="1"><g transform="translate(104.293533, 27.977312)"><g><path d="M 14.515625 -25.71875 C 16.242188 -25.71875 17.863281 -25.375 19.375 -24.6875 C 20.894531 -24.007812 22.234375 -23.070312 23.390625 -21.875 C 24.554688 -20.675781 25.460938 -19.300781 26.109375 -17.75 C 26.753906 -16.195312 27.078125 -14.554688 27.078125 -12.828125 C 27.078125 -11.085938 26.753906 -9.441406 26.109375 -7.890625 C 25.460938 -6.335938 24.554688 -4.960938 23.390625 -3.765625 C 22.234375 -2.578125 20.894531 -1.640625 19.375 -0.953125 C 17.863281 -0.265625 16.242188 0.078125 14.515625 0.078125 C 12.679688 0.078125 10.984375 -0.265625 9.421875 -0.953125 C 7.859375 -1.640625 6.488281 -2.578125 5.3125 -3.765625 C 4.132812 -4.960938 3.222656 -6.335938 2.578125 -7.890625 C 1.929688 -9.441406 1.609375 -11.085938 1.609375 -12.828125 C 1.609375 -14.554688 1.929688 -16.195312 2.578125 -17.75 C 3.222656 -19.300781 4.132812 -20.675781 5.3125 -21.875 C 6.488281 -23.070312 7.859375 -24.007812 9.421875 -24.6875 C 10.984375 -25.375 12.679688 -25.71875 14.515625 -25.71875 Z M 14.515625 -3.078125 C 15.828125 -3.078125 17.050781 -3.332031 18.1875 -3.84375 C 19.320312 -4.351562 20.316406 -5.0625 21.171875 -5.96875 C 22.023438 -6.875 22.695312 -7.910156 23.1875 -9.078125 C 23.675781 -10.253906 23.921875 -11.503906 23.921875 -12.828125 C 23.921875 -14.140625 23.675781 -15.382812 23.1875 -16.5625 C 22.695312 -17.738281 22.023438 -18.773438 21.171875 -19.671875 C 20.316406 -20.578125 19.320312 -21.285156 18.1875 -21.796875 C 17.050781 -22.316406 15.828125 -22.578125 14.515625 -22.578125 C 13.117188 -22.578125 11.828125 -22.316406 10.640625 -21.796875 C 9.453125 -21.285156 8.421875 -20.578125 7.546875 -19.671875 C 6.671875 -18.773438 5.988281 -17.738281 5.5 -16.5625 C 5.007812 -15.382812 4.765625 -14.140625 4.765625 -12.828125 C 4.765625 -11.503906 5.007812 -10.253906 5.5 -9.078125 C 5.988281 -7.910156 6.671875 -6.875 7.546875 -5.96875 C 8.421875 -5.0625 9.453125 -4.351562 10.640625 -3.84375 C 11.828125 -3.332031 13.117188 -3.078125 14.515625 -3.078125 Z M 14.515625 -15.640625 C 14.972656 -15.640625 15.414062 -15.5 15.84375 -15.21875 C 16.269531 -14.9375 16.625 -14.582031 16.90625 -14.15625 C 17.1875 -13.726562 17.328125 -13.285156 17.328125 -12.828125 C 17.328125 -12.359375 17.1875 -11.910156 16.90625 -11.484375 C 16.625 -11.054688 16.269531 -10.703125 15.84375 -10.421875 C 15.414062 -10.140625 14.972656 -10 14.515625 -10 C 13.628906 -10 12.9375 -10.289062 12.4375 -10.875 C 11.9375 -11.46875 11.6875 -12.117188 11.6875 -12.828125 C 11.6875 -13.535156 11.9375 -14.179688 12.4375 -14.765625 C 12.9375 -15.347656 13.628906 -15.640625 14.515625 -15.640625 Z M 14.515625 -15.640625 "/></g></g></g><g fill="#00ffff" fill-opacity="1"><g transform="translate(130.335873, 27.977312)"><g><path d="M 2.71875 0.078125 L 2.71875 -25.796875 L 6.40625 -25.796875 L 6.40625 0.078125 Z M 2.71875 0.078125 "/></g></g></g><g fill="#00ffff" fill-opacity="1"><g transform="translate(137.074804, 27.977312)"><g><path d="M 19.71875 -25.53125 L 22.90625 -25.53125 L 22.90625 -0.03125 L 19.71875 -0.03125 L 19.71875 -12.78125 L 12.640625 -17.765625 L 5.90625 -0.03125 L 2.71875 -0.03125 L 2.71875 -25.53125 L 5.90625 -25.53125 L 19.71875 -16.34375 Z M 5.90625 -8.90625 L 9.78125 -19.53125 L 5.90625 -22.015625 Z M 5.90625 -8.90625 "/></g></g></g><g fill="#00ffff" fill-opacity="1"><g transform="translate(160.076944, 27.977312)"><g><path d="M 22.34375 -22.5 L 16.3125 -20.703125 L 22.34375 -18.90625 L 21.28125 -16.046875 L 13.078125 -18.546875 L 13.078125 0 L 10.21875 0 L 10.21875 -18.90625 L 1.65625 -16.046875 L 0.59375 -18.90625 L 6.625 -20.703125 L 0.59375 -22.5 L 1.65625 -25.359375 L 10.21875 -22.859375 L 10.21875 -25.6875 L 13.078125 -25.6875 L 13.078125 -22.859375 L 21.28125 -25.359375 Z M 22.34375 -22.5 "/></g></g></g><g fill="#24127b" fill-opacity="1"><g transform="translate(0.561048, 27.977312)"><g><path d="M 11.90625 -14 C 13.644531 -13.144531 14.953125 -12.210938 15.828125 -11.203125 C 16.703125 -10.203125 17.140625 -8.921875 17.140625 -7.359375 C 17.140625 -6.066406 16.789062 -4.859375 16.09375 -3.734375 C 15.40625 -2.609375 14.390625 -1.703125 13.046875 -1.015625 C 11.703125 -0.335938 10.03125 0 8.03125 0 C 6.78125 0 5.59375 -0.15625 4.46875 -0.46875 C 3.34375 -0.789062 2.425781 -1.222656 1.71875 -1.765625 L 2.421875 -4.21875 C 3.128906 -3.851562 3.988281 -3.519531 5 -3.21875 C 6.007812 -2.925781 7.140625 -2.78125 8.390625 -2.78125 C 9.972656 -2.78125 11.25 -3.175781 12.21875 -3.96875 C 13.1875 -4.769531 13.671875 -5.789062 13.671875 -7.03125 C 13.671875 -8.25 13.285156 -9.191406 12.515625 -9.859375 C 11.742188 -10.535156 10.488281 -11.226562 8.75 -11.9375 C 6.800781 -12.625 5.195312 -13.515625 3.9375 -14.609375 C 2.675781 -15.710938 2.046875 -17.144531 2.046875 -18.90625 C 2.046875 -20.226562 2.40625 -21.390625 3.125 -22.390625 C 3.851562 -23.390625 4.851562 -24.175781 6.125 -24.75 C 7.394531 -25.320312 8.847656 -25.609375 10.484375 -25.609375 L 12.9375 -25.609375 C 13.644531 -25.410156 14.257812 -25.234375 14.78125 -25.078125 C 15.3125 -24.921875 15.757812 -24.742188 16.125 -24.546875 L 13.296875 -17.1875 Z M 11.90625 -22.796875 C 11.707031 -22.960938 11.445312 -23.054688 11.125 -23.078125 C 10.8125 -23.109375 10.472656 -23.125 10.109375 -23.125 C 9.085938 -23.125 8.238281 -22.925781 7.5625 -22.53125 C 6.894531 -22.144531 6.394531 -21.648438 6.0625 -21.046875 C 5.726562 -20.453125 5.5625 -19.859375 5.5625 -19.265625 C 5.5625 -18.410156 5.835938 -17.628906 6.390625 -16.921875 C 6.941406 -16.210938 7.84375 -15.601562 9.09375 -15.09375 Z M 11.90625 -22.796875 "/></g></g></g><g fill="#24127b" fill-opacity="1"><g transform="translate(16.640337, 27.977312)"><g><path d="M 14.625 -25.65625 L 24.03125 -0.03125 L 0.703125 -0.03125 L 10.765625 -25.65625 Z M 4.90625 -2.640625 L 11.0625 -2.640625 L 15.9375 -13.671875 L 12.671875 -23.046875 Z M 14.625 -2.640625 L 20.15625 -2.640625 L 17.59375 -9.453125 Z M 14.625 -2.640625 "/></g></g></g><g fill="#24127b" fill-opacity="1"><g transform="translate(38.836644, 27.977312)"><g><path d="M 23.921875 -25.6875 L 14.109375 0 L 10.21875 0 L 0.734375 -25.6875 Z M 12.34375 -2.828125 L 20.078125 -22.859375 L 4.578125 -22.859375 L 6.265625 -18.65625 L 9.53125 -9.8125 Z M 12.34375 -2.828125 "/></g></g></g><g fill="#24127b" fill-opacity="1"><g transform="translate(60.813184, 27.977312)"><g><path d="M 9.234375 -2.859375 L 20.953125 -2.859375 L 20.953125 0.078125 L 2.71875 0.078125 L 2.71875 -16.8125 L 7.25 -16.8125 L 2.71875 -20.078125 L 2.71875 -25.65625 L 20.625 -25.65625 L 20.625 -22.71875 L 5.640625 -22.71875 L 5.640625 -21.765625 L 12.125 -16.8125 L 20.625 -16.8125 L 20.625 -13.921875 L 13.15625 -13.921875 Z M 9.890625 -13.921875 L 5.640625 -13.921875 L 5.640625 -2.859375 Z M 9.890625 -13.921875 "/></g></g></g><g fill="#24127b" fill-opacity="1"><g transform="translate(80.26233, 27.977312)"><g/></g></g><g fill="#24127b" fill-opacity="1"><g transform="translate(88.759444, 27.977312)"><g><path d="M 2.71875 0.078125 L 2.71875 -25.53125 L 9.125 -25.53125 C 10.957031 -25.53125 12.625 -25.285156 14.125 -24.796875 C 15.625 -24.316406 16.828125 -23.523438 17.734375 -22.421875 C 18.640625 -21.328125 19.09375 -19.875 19.09375 -18.0625 C 19.09375 -16.8125 18.90625 -15.726562 18.53125 -14.8125 C 18.164062 -13.90625 17.628906 -13.097656 16.921875 -12.390625 C 16.210938 -11.679688 15.332031 -11.132812 14.28125 -10.75 C 13.238281 -10.375 11.992188 -10.085938 10.546875 -9.890625 L 6.96875 0.078125 Z M 6.265625 -12.390625 L 8.03125 -12.390625 L 11.984375 -22.71875 L 6.265625 -22.71875 Z M 16.234375 -17.703125 C 16.234375 -18.410156 16.085938 -19.097656 15.796875 -19.765625 C 15.503906 -20.441406 15.171875 -20.945312 14.796875 -21.28125 L 11.609375 -12.75 C 13.054688 -13.09375 14.1875 -13.691406 15 -14.546875 C 15.820312 -15.398438 16.234375 -16.453125 16.234375 -17.703125 Z M 6.265625 -7.078125 L 6.96875 -9.5625 L 6.265625 -9.5625 Z M 6.265625 -7.078125 "/></g></g></g><g fill="#24127b" fill-opacity="1"><g transform="translate(105.461426, 27.977312)"><g><path d="M 14.515625 -25.71875 C 16.242188 -25.71875 17.863281 -25.375 19.375 -24.6875 C 20.894531 -24.007812 22.234375 -23.070312 23.390625 -21.875 C 24.554688 -20.675781 25.460938 -19.300781 26.109375 -17.75 C 26.753906 -16.195312 27.078125 -14.554688 27.078125 -12.828125 C 27.078125 -11.085938 26.753906 -9.441406 26.109375 -7.890625 C 25.460938 -6.335938 24.554688 -4.960938 23.390625 -3.765625 C 22.234375 -2.578125 20.894531 -1.640625 19.375 -0.953125 C 17.863281 -0.265625 16.242188 0.078125 14.515625 0.078125 C 12.679688 0.078125 10.984375 -0.265625 9.421875 -0.953125 C 7.859375 -1.640625 6.488281 -2.578125 5.3125 -3.765625 C 4.132812 -4.960938 3.222656 -6.335938 2.578125 -7.890625 C 1.929688 -9.441406 1.609375 -11.085938 1.609375 -12.828125 C 1.609375 -14.554688 1.929688 -16.195312 2.578125 -17.75 C 3.222656 -19.300781 4.132812 -20.675781 5.3125 -21.875 C 6.488281 -23.070312 7.859375 -24.007812 9.421875 -24.6875 C 10.984375 -25.375 12.679688 -25.71875 14.515625 -25.71875 Z M 14.515625 -3.078125 C 15.828125 -3.078125 17.050781 -3.332031 18.1875 -3.84375 C 19.320312 -4.351562 20.316406 -5.0625 21.171875 -5.96875 C 22.023438 -6.875 22.695312 -7.910156 23.1875 -9.078125 C 23.675781 -10.253906 23.921875 -11.503906 23.921875 -12.828125 C 23.921875 -14.140625 23.675781 -15.382812 23.1875 -16.5625 C 22.695312 -17.738281 22.023438 -18.773438 21.171875 -19.671875 C 20.316406 -20.578125 19.320312 -21.285156 18.1875 -21.796875 C 17.050781 -22.316406 15.828125 -22.578125 14.515625 -22.578125 C 13.117188 -22.578125 11.828125 -22.316406 10.640625 -21.796875 C 9.453125 -21.285156 8.421875 -20.578125 7.546875 -19.671875 C 6.671875 -18.773438 5.988281 -17.738281 5.5 -16.5625 C 5.007812 -15.382812 4.765625 -14.140625 4.765625 -12.828125 C 4.765625 -11.503906 5.007812 -10.253906 5.5 -9.078125 C 5.988281 -7.910156 6.671875 -6.875 7.546875 -5.96875 C 8.421875 -5.0625 9.453125 -4.351562 10.640625 -3.84375 C 11.828125 -3.332031 13.117188 -3.078125 14.515625 -3.078125 Z M 14.515625 -15.640625 C 14.972656 -15.640625 15.414062 -15.5 15.84375 -15.21875 C 16.269531 -14.9375 16.625 -14.582031 16.90625 -14.15625 C 17.1875 -13.726562 17.328125 -13.285156 17.328125 -12.828125 C 17.328125 -12.359375 17.1875 -11.910156 16.90625 -11.484375 C 16.625 -11.054688 16.269531 -10.703125 15.84375 -10.421875 C 15.414062 -10.140625 14.972656 -10 14.515625 -10 C 13.628906 -10 12.9375 -10.289062 12.4375 -10.875 C 11.9375 -11.46875 11.6875 -12.117188 11.6875 -12.828125 C 11.6875 -13.535156 11.9375 -14.179688 12.4375 -14.765625 C 12.9375 -15.347656 13.628906 -15.640625 14.515625 -15.640625 Z M 14.515625 -15.640625 "/></g></g></g><g fill="#24127b" fill-opacity="1"><g transform="translate(131.503766, 27.977312)"><g><path d="M 2.71875 0.078125 L 2.71875 -25.796875 L 6.40625 -25.796875 L 6.40625 0.078125 Z M 2.71875 0.078125 "/></g></g></g><g fill="#24127b" fill-opacity="1"><g transform="translate(138.242698, 27.977312)"><g><path d="M 19.71875 -25.53125 L 22.90625 -25.53125 L 22.90625 -0.03125 L 19.71875 -0.03125 L 19.71875 -12.78125 L 12.640625 -17.765625 L 5.90625 -0.03125 L 2.71875 -0.03125 L 2.71875 -25.53125 L 5.90625 -25.53125 L 19.71875 -16.34375 Z M 5.90625 -8.90625 L 9.78125 -19.53125 L 5.90625 -22.015625 Z M 5.90625 -8.90625 "/></g></g></g><g fill="#24127b" fill-opacity="1"><g transform="translate(161.244837, 27.977312)"><g><path d="M 22.34375 -22.5 L 16.3125 -20.703125 L 22.34375 -18.90625 L 21.28125 -16.046875 L 13.078125 -18.546875 L 13.078125 0 L 10.21875 0 L 10.21875 -18.90625 L 1.65625 -16.046875 L 0.59375 -18.90625 L 6.625 -20.703125 L 0.59375 -22.5 L 1.65625 -25.359375 L 10.21875 -22.859375 L 10.21875 -25.6875 L 13.078125 -25.6875 L 13.078125 -22.859375 L 21.28125 -25.359375 Z M 22.34375 -22.5 "/></g></g></g></g></g></g></g></g></g></g></svg>