<svg xmlns="http://www.w3.org/2000/svg" xmlns:xlink="http://www.w3.org/1999/xlink" width="250" zoomAndPan="magnify" viewBox="0 0 187.5 37.5" height="50" preserveAspectRatio="xMidYMid meet" version="1.0"><defs><g/><clipPath id="2f22e891d4"><path d="M 58 0 L 129 0 L 129 37.007812 L 58 37.007812 Z M 58 0 " clip-rule="nonzero"/></clipPath><clipPath id="1981465c5f"><path d="M 0.777344 18 L 15 18 L 15 35 L 0.777344 35 Z M 0.777344 18 " clip-rule="nonzero"/></clipPath><clipPath id="cd7f60237a"><path d="M 0.777344 17 L 15 17 L 15 33 L 0.777344 33 Z M 0.777344 17 " clip-rule="nonzero"/></clipPath><clipPath id="0b654e99c6"><rect x="0" width="71" y="0" height="38"/></clipPath></defs><g clip-path="url(#2f22e891d4)"><g transform="matrix(1, 0, 0, 1, 58, -0.000000000000001478)"><g clip-path="url(#0b654e99c6)"><g fill="#9869f6" fill-opacity="1"><g transform="translate(5.700634, 16.943193)"><g><path d="M 13.65625 -11.890625 C 13.65625 -11.328125 13.523438 -10.820312 13.265625 -10.375 C 13.003906 -9.925781 12.625 -9.570312 12.125 -9.3125 C 11.769531 -9.507812 11.382812 -9.664062 10.96875 -9.78125 C 10.5625 -9.894531 10.144531 -9.96875 9.71875 -10 C 9.632812 -10 9.582031 -9.957031 9.5625 -9.875 C 9.539062 -9.800781 9.570312 -9.75 9.65625 -9.71875 C 10.613281 -9.5 11.394531 -9.109375 12 -8.546875 C 12.613281 -7.992188 13.050781 -7.351562 13.3125 -6.625 C 13.570312 -5.894531 13.660156 -5.140625 13.578125 -4.359375 C 13.492188 -3.585938 13.234375 -2.867188 12.796875 -2.203125 C 12.359375 -1.546875 11.742188 -1.015625 10.953125 -0.609375 C 10.171875 -0.203125 9.210938 0 8.078125 0 L 3.375 0 C 2.757812 0 2.191406 -0.175781 1.671875 -0.53125 C 1.160156 -0.894531 0.742188 -1.34375 0.421875 -1.875 C 0.109375 -2.40625 -0.046875 -2.921875 -0.046875 -3.421875 C -0.046875 -4.003906 0.0625 -4.515625 0.28125 -4.953125 C 0.5 -5.390625 0.84375 -5.78125 1.3125 -6.125 C 1.726562 -5.851562 2.203125 -5.644531 2.734375 -5.5 C 3.265625 -5.351562 3.78125 -5.28125 4.28125 -5.28125 C 4.363281 -5.28125 4.410156 -5.320312 4.421875 -5.40625 C 4.441406 -5.488281 4.410156 -5.539062 4.328125 -5.5625 C 4.023438 -5.59375 3.722656 -5.65625 3.421875 -5.75 C 3.117188 -5.851562 2.820312 -5.976562 2.53125 -6.125 C 1.832031 -6.5 1.273438 -6.976562 0.859375 -7.5625 C 0.441406 -8.15625 0.171875 -8.796875 0.046875 -9.484375 C -0.0664062 -10.171875 -0.046875 -10.851562 0.109375 -11.53125 C 0.273438 -12.21875 0.582031 -12.835938 1.03125 -13.390625 C 1.488281 -13.953125 2.085938 -14.40625 2.828125 -14.75 C 3.578125 -15.09375 4.46875 -15.265625 5.5 -15.265625 L 10.171875 -15.265625 C 10.816406 -15.265625 11.398438 -15.113281 11.921875 -14.8125 C 12.441406 -14.507812 12.859375 -14.101562 13.171875 -13.59375 C 13.492188 -13.082031 13.65625 -12.515625 13.65625 -11.890625 Z M 13.65625 -11.890625 "/></g></g></g><g fill="#9869f6" fill-opacity="1"><g transform="translate(20.328809, 16.943193)"><g><path d="M 9.390625 -4.6875 L 5.609375 -0.984375 C 5.273438 -0.660156 4.894531 -0.414062 4.46875 -0.25 C 4.050781 -0.0820312 3.628906 0 3.203125 0 C 2.753906 0 2.316406 -0.0820312 1.890625 -0.25 C 1.472656 -0.414062 1.101562 -0.660156 0.78125 -0.984375 C 0.113281 -1.671875 -0.21875 -2.460938 -0.21875 -3.359375 C -0.21875 -4.253906 0.113281 -5.046875 0.78125 -5.734375 L 9.015625 -14.078125 C 9.335938 -14.460938 9.722656 -14.753906 10.171875 -14.953125 C 10.628906 -15.160156 11.101562 -15.265625 11.59375 -15.265625 C 11.875 -15.265625 12.160156 -15.222656 12.453125 -15.140625 C 12.753906 -15.066406 13.03125 -14.953125 13.28125 -14.796875 C 13.8125 -14.523438 14.226562 -14.125 14.53125 -13.59375 C 14.84375 -13.070312 15 -12.488281 15 -11.84375 L 15 -3.375 C 15 -2.757812 14.832031 -2.191406 14.5 -1.671875 C 14.175781 -1.160156 13.753906 -0.753906 13.234375 -0.453125 C 12.722656 -0.148438 12.179688 0 11.609375 0 C 10.734375 0 10.007812 -0.238281 9.4375 -0.71875 C 8.863281 -1.195312 8.484375 -1.796875 8.296875 -2.515625 L 9.609375 -4.515625 C 9.640625 -4.597656 9.625 -4.664062 9.5625 -4.71875 C 9.507812 -4.769531 9.453125 -4.757812 9.390625 -4.6875 Z M 9.390625 -4.6875 "/></g></g></g><g fill="#9869f6" fill-opacity="1"><g transform="translate(36.310216, 16.943193)"><g><path d="M 5.640625 -10.5625 L 9.375 -14.25 C 10.050781 -14.925781 10.847656 -15.265625 11.765625 -15.265625 C 12.390625 -15.265625 12.960938 -15.109375 13.484375 -14.796875 C 14.015625 -14.492188 14.429688 -14.085938 14.734375 -13.578125 C 15.046875 -13.066406 15.203125 -12.5 15.203125 -11.875 C 15.203125 -11.425781 15.113281 -10.988281 14.9375 -10.5625 C 14.769531 -10.144531 14.519531 -9.769531 14.1875 -9.4375 L 5.984375 -1.203125 C 5.617188 -0.847656 5.21875 -0.554688 4.78125 -0.328125 C 4.34375 -0.109375 3.875 0 3.375 0 C 2.800781 0 2.257812 -0.140625 1.75 -0.421875 C 1.238281 -0.703125 0.816406 -1.097656 0.484375 -1.609375 C 0.160156 -2.128906 0 -2.738281 0 -3.4375 L 0 -11.875 C 0 -12.5 0.160156 -13.066406 0.484375 -13.578125 C 0.816406 -14.097656 1.238281 -14.507812 1.75 -14.8125 C 2.269531 -15.113281 2.816406 -15.265625 3.390625 -15.265625 C 4.285156 -15.265625 5.015625 -15.035156 5.578125 -14.578125 C 6.140625 -14.128906 6.523438 -13.535156 6.734375 -12.796875 L 5.4375 -10.75 C 5.382812 -10.644531 5.390625 -10.570312 5.453125 -10.53125 C 5.515625 -10.488281 5.578125 -10.5 5.640625 -10.5625 Z M 5.640625 -10.5625 "/></g></g></g><g fill="#9869f6" fill-opacity="1"><g transform="translate(52.248672, 16.943193)"><g><path d="M 0 -11.796875 C 0 -12.441406 0.144531 -13.023438 0.4375 -13.546875 C 0.726562 -14.078125 1.132812 -14.492188 1.65625 -14.796875 C 2.1875 -15.109375 2.789062 -15.265625 3.46875 -15.265625 L 9.078125 -15.265625 C 9.742188 -15.265625 10.328125 -15.097656 10.828125 -14.765625 C 11.335938 -14.441406 11.726562 -14.015625 12 -13.484375 C 12.28125 -12.960938 12.421875 -12.410156 12.421875 -11.828125 C 12.421875 -11.222656 12.273438 -10.671875 11.984375 -10.171875 C 11.703125 -9.671875 11.300781 -9.269531 10.78125 -8.96875 C 10.257812 -8.664062 9.632812 -8.5 8.90625 -8.46875 C 8.832031 -8.46875 8.796875 -8.425781 8.796875 -8.34375 C 8.796875 -8.269531 8.832031 -8.21875 8.90625 -8.1875 C 9.488281 -8.113281 10.054688 -8.148438 10.609375 -8.296875 C 11.171875 -8.453125 11.671875 -8.753906 12.109375 -9.203125 C 12.316406 -8.734375 12.421875 -8.234375 12.421875 -7.703125 C 12.421875 -6.691406 12.113281 -5.890625 11.5 -5.296875 C 10.894531 -4.710938 10.097656 -4.363281 9.109375 -4.25 C 9.046875 -4.25 9.015625 -4.207031 9.015625 -4.125 C 9.015625 -4.039062 9.046875 -4 9.109375 -4 C 9.671875 -3.9375 10.21875 -3.976562 10.75 -4.125 C 11.28125 -4.269531 11.742188 -4.578125 12.140625 -5.046875 C 12.253906 -4.859375 12.335938 -4.648438 12.390625 -4.421875 C 12.441406 -4.191406 12.46875 -3.847656 12.46875 -3.390625 C 12.46875 -3.066406 12.398438 -2.707031 12.265625 -2.3125 C 12.140625 -1.914062 11.9375 -1.539062 11.65625 -1.1875 C 11.382812 -0.84375 11.035156 -0.554688 10.609375 -0.328125 C 10.179688 -0.109375 9.671875 0 9.078125 0 L 3.421875 0 C 2.785156 0 2.207031 -0.148438 1.6875 -0.453125 C 1.164062 -0.765625 0.753906 -1.175781 0.453125 -1.6875 C 0.148438 -2.207031 0 -2.773438 0 -3.390625 Z M 0 -11.796875 "/></g></g></g><g clip-path="url(#1981465c5f)"><g fill="#9869f6" fill-opacity="1"><g transform="translate(0.895712, 34.086886)"><g><path d="M 3.5625 0.21875 C 2.90625 0.21875 2.304688 0.0625 1.765625 -0.25 C 1.222656 -0.570312 0.789062 -1 0.46875 -1.53125 C 0.15625 -2.0625 0 -2.648438 0 -3.296875 L 0 -11.78125 C 0 -12.425781 0.15625 -13.007812 0.46875 -13.53125 C 0.789062 -14.050781 1.222656 -14.46875 1.765625 -14.78125 C 2.304688 -15.101562 2.90625 -15.265625 3.5625 -15.265625 L 7.796875 -15.265625 C 8.660156 -15.265625 9.460938 -15.101562 10.203125 -14.78125 C 10.941406 -14.46875 11.585938 -14.03125 12.140625 -13.46875 C 12.691406 -12.914062 13.125 -12.265625 13.4375 -11.515625 C 13.75 -10.773438 13.90625 -9.984375 13.90625 -9.140625 C 13.90625 -8.273438 13.738281 -7.46875 13.40625 -6.71875 C 13.082031 -5.976562 12.632812 -5.320312 12.0625 -4.75 C 11.488281 -4.1875 10.820312 -3.75 10.0625 -3.4375 C 9.300781 -3.132812 8.488281 -3 7.625 -3.03125 L 7.25 -5.140625 C 7.21875 -5.222656 7.171875 -5.253906 7.109375 -5.234375 C 7.054688 -5.222656 7.03125 -5.175781 7.03125 -5.09375 L 7.03125 -3.296875 C 7.03125 -2.660156 6.867188 -2.078125 6.546875 -1.546875 C 6.234375 -1.015625 5.816406 -0.585938 5.296875 -0.265625 C 4.773438 0.0546875 4.195312 0.21875 3.5625 0.21875 Z M 7.359375 -9.9375 C 7.296875 -9.9375 7.238281 -9.9375 7.1875 -9.9375 C 7.132812 -9.9375 7.082031 -9.921875 7.03125 -9.890625 L 7.03125 -8.40625 C 7.144531 -8.332031 7.253906 -8.296875 7.359375 -8.296875 C 7.585938 -8.296875 7.78125 -8.378906 7.9375 -8.546875 C 8.101562 -8.710938 8.1875 -8.910156 8.1875 -9.140625 C 8.1875 -9.367188 8.101562 -9.554688 7.9375 -9.703125 C 7.78125 -9.859375 7.585938 -9.9375 7.359375 -9.9375 Z M 7.359375 -9.9375 "/></g></g></g></g><g fill="#9869f6" fill-opacity="1"><g transform="translate(15.523887, 34.086886)"><g><path d="M 7.796875 -15.265625 C 8.878906 -15.265625 9.894531 -15.0625 10.84375 -14.65625 C 11.800781 -14.257812 12.632812 -13.707031 13.34375 -13 C 14.0625 -12.289062 14.625 -11.460938 15.03125 -10.515625 C 15.445312 -9.578125 15.65625 -8.570312 15.65625 -7.5 C 15.65625 -6.425781 15.445312 -5.421875 15.03125 -4.484375 C 14.625 -3.546875 14.0625 -2.722656 13.34375 -2.015625 C 12.632812 -1.316406 11.800781 -0.769531 10.84375 -0.375 C 9.894531 0.0195312 8.878906 0.21875 7.796875 0.21875 C 6.742188 0.21875 5.742188 0.0195312 4.796875 -0.375 C 3.847656 -0.769531 3.015625 -1.316406 2.296875 -2.015625 C 1.578125 -2.722656 1.015625 -3.546875 0.609375 -4.484375 C 0.203125 -5.421875 0 -6.425781 0 -7.5 C 0 -8.570312 0.203125 -9.578125 0.609375 -10.515625 C 1.015625 -11.460938 1.578125 -12.289062 2.296875 -13 C 3.015625 -13.707031 3.847656 -14.257812 4.796875 -14.65625 C 5.742188 -15.0625 6.742188 -15.265625 7.796875 -15.265625 Z M 7.796875 -8.453125 C 7.585938 -8.453125 7.394531 -8.367188 7.21875 -8.203125 C 7.050781 -8.046875 6.96875 -7.832031 6.96875 -7.5625 C 6.96875 -7.320312 7.050781 -7.113281 7.21875 -6.9375 C 7.394531 -6.757812 7.585938 -6.671875 7.796875 -6.671875 C 8.046875 -6.671875 8.257812 -6.757812 8.4375 -6.9375 C 8.613281 -7.113281 8.703125 -7.320312 8.703125 -7.5625 C 8.703125 -7.832031 8.613281 -8.046875 8.4375 -8.203125 C 8.257812 -8.367188 8.046875 -8.453125 7.796875 -8.453125 Z M 7.796875 -8.453125 "/></g></g></g><g fill="#9869f6" fill-opacity="1"><g transform="translate(32.08526, 34.086886)"><g><path d="M 3.390625 0 C 2.765625 0 2.191406 -0.15625 1.671875 -0.46875 C 1.160156 -0.789062 0.753906 -1.210938 0.453125 -1.734375 C 0.148438 -2.253906 0 -2.820312 0 -3.4375 L 0 -11.890625 C 0 -12.515625 0.148438 -13.082031 0.453125 -13.59375 C 0.753906 -14.101562 1.160156 -14.507812 1.671875 -14.8125 C 2.191406 -15.113281 2.765625 -15.265625 3.390625 -15.265625 C 4.054688 -15.265625 4.644531 -15.113281 5.15625 -14.8125 C 5.675781 -14.507812 6.085938 -14.101562 6.390625 -13.59375 C 6.703125 -13.082031 6.859375 -12.515625 6.859375 -11.890625 L 6.859375 -3.4375 C 6.859375 -2.820312 6.703125 -2.253906 6.390625 -1.734375 C 6.085938 -1.210938 5.675781 -0.789062 5.15625 -0.46875 C 4.644531 -0.15625 4.054688 0 3.390625 0 Z M 3.390625 0 "/></g></g></g><g fill="#9869f6" fill-opacity="1"><g transform="translate(39.968743, 34.086886)"><g><path d="M 15.265625 -3.15625 C 15.265625 -2.425781 15.101562 -1.8125 14.78125 -1.3125 C 14.46875 -0.8125 14.050781 -0.429688 13.53125 -0.171875 C 13.019531 0.0859375 12.46875 0.21875 11.875 0.21875 C 11.425781 0.21875 10.988281 0.132812 10.5625 -0.03125 C 10.144531 -0.195312 9.769531 -0.445312 9.4375 -0.78125 L 5.734375 -4.5 C 5.710938 -4.5625 5.664062 -4.554688 5.59375 -4.484375 C 5.53125 -4.421875 5.515625 -4.351562 5.546875 -4.28125 L 6.765625 -2.390625 C 6.609375 -1.640625 6.210938 -1.015625 5.578125 -0.515625 C 4.953125 -0.0234375 4.238281 0.21875 3.4375 0.21875 C 2.8125 0.21875 2.234375 0.0664062 1.703125 -0.234375 C 1.179688 -0.546875 0.765625 -0.957031 0.453125 -1.46875 C 0.148438 -1.988281 0 -2.570312 0 -3.21875 L 0 -11.828125 C 0 -12.453125 0.148438 -13.019531 0.453125 -13.53125 C 0.765625 -14.050781 1.179688 -14.46875 1.703125 -14.78125 C 2.234375 -15.101562 2.8125 -15.265625 3.4375 -15.265625 C 3.957031 -15.265625 4.445312 -15.144531 4.90625 -14.90625 C 5.363281 -14.675781 5.75 -14.394531 6.0625 -14.0625 L 9.5625 -10.625 C 9.59375 -10.5625 9.640625 -10.550781 9.703125 -10.59375 C 9.765625 -10.632812 9.785156 -10.6875 9.765625 -10.75 L 8.5 -12.59375 C 8.613281 -13.082031 8.828125 -13.523438 9.140625 -13.921875 C 9.453125 -14.328125 9.84375 -14.648438 10.3125 -14.890625 C 10.78125 -15.140625 11.273438 -15.265625 11.796875 -15.265625 C 12.554688 -15.265625 13.191406 -15.101562 13.703125 -14.78125 C 14.210938 -14.46875 14.597656 -14.050781 14.859375 -13.53125 C 15.128906 -13.019531 15.265625 -12.453125 15.265625 -11.828125 Z M 15.265625 -3.15625 "/></g></g></g><g fill="#9869f6" fill-opacity="1"><g transform="translate(56.207916, 34.086886)"><g><path d="M 10.109375 -15.265625 C 10.753906 -15.265625 11.335938 -15.101562 11.859375 -14.78125 C 12.378906 -14.46875 12.789062 -14.050781 13.09375 -13.53125 C 13.40625 -13.007812 13.5625 -12.429688 13.5625 -11.796875 C 13.5625 -11.179688 13.410156 -10.617188 13.109375 -10.109375 C 12.804688 -9.609375 12.398438 -9.195312 11.890625 -8.875 C 11.390625 -8.5625 10.816406 -8.40625 10.171875 -8.40625 L 10.1875 -3.25 C 10.1875 -2.613281 10.03125 -2.03125 9.71875 -1.5 C 9.40625 -0.96875 8.984375 -0.546875 8.453125 -0.234375 C 7.929688 0.078125 7.359375 0.234375 6.734375 0.234375 C 6.117188 0.234375 5.550781 0.078125 5.03125 -0.234375 C 4.507812 -0.546875 4.09375 -0.96875 3.78125 -1.5 C 3.476562 -2.03125 3.328125 -2.613281 3.328125 -3.25 L 3.328125 -8.40625 C 2.703125 -8.40625 2.128906 -8.5625 1.609375 -8.875 C 1.097656 -9.195312 0.691406 -9.609375 0.390625 -10.109375 C 0.0859375 -10.617188 -0.0625 -11.179688 -0.0625 -11.796875 C -0.0625 -12.429688 0.0859375 -13.007812 0.390625 -13.53125 C 0.691406 -14.050781 1.097656 -14.46875 1.609375 -14.78125 C 2.128906 -15.101562 2.703125 -15.265625 3.328125 -15.265625 Z M 10.109375 -15.265625 "/></g></g></g><g fill="#24127b" fill-opacity="1"><g transform="translate(5.700634, 15.357401)"><g><path d="M 13.65625 -11.890625 C 13.65625 -11.328125 13.523438 -10.820312 13.265625 -10.375 C 13.003906 -9.925781 12.625 -9.570312 12.125 -9.3125 C 11.769531 -9.507812 11.382812 -9.664062 10.96875 -9.78125 C 10.5625 -9.894531 10.144531 -9.96875 9.71875 -10 C 9.632812 -10 9.582031 -9.957031 9.5625 -9.875 C 9.539062 -9.800781 9.570312 -9.75 9.65625 -9.71875 C 10.613281 -9.5 11.394531 -9.109375 12 -8.546875 C 12.613281 -7.992188 13.050781 -7.351562 13.3125 -6.625 C 13.570312 -5.894531 13.660156 -5.140625 13.578125 -4.359375 C 13.492188 -3.585938 13.234375 -2.867188 12.796875 -2.203125 C 12.359375 -1.546875 11.742188 -1.015625 10.953125 -0.609375 C 10.171875 -0.203125 9.210938 0 8.078125 0 L 3.375 0 C 2.757812 0 2.191406 -0.175781 1.671875 -0.53125 C 1.160156 -0.894531 0.742188 -1.34375 0.421875 -1.875 C 0.109375 -2.40625 -0.046875 -2.921875 -0.046875 -3.421875 C -0.046875 -4.003906 0.0625 -4.515625 0.28125 -4.953125 C 0.5 -5.390625 0.84375 -5.78125 1.3125 -6.125 C 1.726562 -5.851562 2.203125 -5.644531 2.734375 -5.5 C 3.265625 -5.351562 3.78125 -5.28125 4.28125 -5.28125 C 4.363281 -5.28125 4.410156 -5.320312 4.421875 -5.40625 C 4.441406 -5.488281 4.410156 -5.539062 4.328125 -5.5625 C 4.023438 -5.59375 3.722656 -5.65625 3.421875 -5.75 C 3.117188 -5.851562 2.820312 -5.976562 2.53125 -6.125 C 1.832031 -6.5 1.273438 -6.976562 0.859375 -7.5625 C 0.441406 -8.15625 0.171875 -8.796875 0.046875 -9.484375 C -0.0664062 -10.171875 -0.046875 -10.851562 0.109375 -11.53125 C 0.273438 -12.21875 0.582031 -12.835938 1.03125 -13.390625 C 1.488281 -13.953125 2.085938 -14.40625 2.828125 -14.75 C 3.578125 -15.09375 4.46875 -15.265625 5.5 -15.265625 L 10.171875 -15.265625 C 10.816406 -15.265625 11.398438 -15.113281 11.921875 -14.8125 C 12.441406 -14.507812 12.859375 -14.101562 13.171875 -13.59375 C 13.492188 -13.082031 13.65625 -12.515625 13.65625 -11.890625 Z M 13.65625 -11.890625 "/></g></g></g><g fill="#24127b" fill-opacity="1"><g transform="translate(20.328809, 15.357401)"><g><path d="M 9.390625 -4.6875 L 5.609375 -0.984375 C 5.273438 -0.660156 4.894531 -0.414062 4.46875 -0.25 C 4.050781 -0.0820312 3.628906 0 3.203125 0 C 2.753906 0 2.316406 -0.0820312 1.890625 -0.25 C 1.472656 -0.414062 1.101562 -0.660156 0.78125 -0.984375 C 0.113281 -1.671875 -0.21875 -2.460938 -0.21875 -3.359375 C -0.21875 -4.253906 0.113281 -5.046875 0.78125 -5.734375 L 9.015625 -14.078125 C 9.335938 -14.460938 9.722656 -14.753906 10.171875 -14.953125 C 10.628906 -15.160156 11.101562 -15.265625 11.59375 -15.265625 C 11.875 -15.265625 12.160156 -15.222656 12.453125 -15.140625 C 12.753906 -15.066406 13.03125 -14.953125 13.28125 -14.796875 C 13.8125 -14.523438 14.226562 -14.125 14.53125 -13.59375 C 14.84375 -13.070312 15 -12.488281 15 -11.84375 L 15 -3.375 C 15 -2.757812 14.832031 -2.191406 14.5 -1.671875 C 14.175781 -1.160156 13.753906 -0.753906 13.234375 -0.453125 C 12.722656 -0.148438 12.179688 0 11.609375 0 C 10.734375 0 10.007812 -0.238281 9.4375 -0.71875 C 8.863281 -1.195312 8.484375 -1.796875 8.296875 -2.515625 L 9.609375 -4.515625 C 9.640625 -4.597656 9.625 -4.664062 9.5625 -4.71875 C 9.507812 -4.769531 9.453125 -4.757812 9.390625 -4.6875 Z M 9.390625 -4.6875 "/></g></g></g><g fill="#24127b" fill-opacity="1"><g transform="translate(36.310216, 15.357401)"><g><path d="M 5.640625 -10.5625 L 9.375 -14.25 C 10.050781 -14.925781 10.847656 -15.265625 11.765625 -15.265625 C 12.390625 -15.265625 12.960938 -15.109375 13.484375 -14.796875 C 14.015625 -14.492188 14.429688 -14.085938 14.734375 -13.578125 C 15.046875 -13.066406 15.203125 -12.5 15.203125 -11.875 C 15.203125 -11.425781 15.113281 -10.988281 14.9375 -10.5625 C 14.769531 -10.144531 14.519531 -9.769531 14.1875 -9.4375 L 5.984375 -1.203125 C 5.617188 -0.847656 5.21875 -0.554688 4.78125 -0.328125 C 4.34375 -0.109375 3.875 0 3.375 0 C 2.800781 0 2.257812 -0.140625 1.75 -0.421875 C 1.238281 -0.703125 0.816406 -1.097656 0.484375 -1.609375 C 0.160156 -2.128906 0 -2.738281 0 -3.4375 L 0 -11.875 C 0 -12.5 0.160156 -13.066406 0.484375 -13.578125 C 0.816406 -14.097656 1.238281 -14.507812 1.75 -14.8125 C 2.269531 -15.113281 2.816406 -15.265625 3.390625 -15.265625 C 4.285156 -15.265625 5.015625 -15.035156 5.578125 -14.578125 C 6.140625 -14.128906 6.523438 -13.535156 6.734375 -12.796875 L 5.4375 -10.75 C 5.382812 -10.644531 5.390625 -10.570312 5.453125 -10.53125 C 5.515625 -10.488281 5.578125 -10.5 5.640625 -10.5625 Z M 5.640625 -10.5625 "/></g></g></g><g fill="#24127b" fill-opacity="1"><g transform="translate(52.248672, 15.357401)"><g><path d="M 0 -11.796875 C 0 -12.441406 0.144531 -13.023438 0.4375 -13.546875 C 0.726562 -14.078125 1.132812 -14.492188 1.65625 -14.796875 C 2.1875 -15.109375 2.789062 -15.265625 3.46875 -15.265625 L 9.078125 -15.265625 C 9.742188 -15.265625 10.328125 -15.097656 10.828125 -14.765625 C 11.335938 -14.441406 11.726562 -14.015625 12 -13.484375 C 12.28125 -12.960938 12.421875 -12.410156 12.421875 -11.828125 C 12.421875 -11.222656 12.273438 -10.671875 11.984375 -10.171875 C 11.703125 -9.671875 11.300781 -9.269531 10.78125 -8.96875 C 10.257812 -8.664062 9.632812 -8.5 8.90625 -8.46875 C 8.832031 -8.46875 8.796875 -8.425781 8.796875 -8.34375 C 8.796875 -8.269531 8.832031 -8.21875 8.90625 -8.1875 C 9.488281 -8.113281 10.054688 -8.148438 10.609375 -8.296875 C 11.171875 -8.453125 11.671875 -8.753906 12.109375 -9.203125 C 12.316406 -8.734375 12.421875 -8.234375 12.421875 -7.703125 C 12.421875 -6.691406 12.113281 -5.890625 11.5 -5.296875 C 10.894531 -4.710938 10.097656 -4.363281 9.109375 -4.25 C 9.046875 -4.25 9.015625 -4.207031 9.015625 -4.125 C 9.015625 -4.039062 9.046875 -4 9.109375 -4 C 9.671875 -3.9375 10.21875 -3.976562 10.75 -4.125 C 11.28125 -4.269531 11.742188 -4.578125 12.140625 -5.046875 C 12.253906 -4.859375 12.335938 -4.648438 12.390625 -4.421875 C 12.441406 -4.191406 12.46875 -3.847656 12.46875 -3.390625 C 12.46875 -3.066406 12.398438 -2.707031 12.265625 -2.3125 C 12.140625 -1.914062 11.9375 -1.539062 11.65625 -1.1875 C 11.382812 -0.84375 11.035156 -0.554688 10.609375 -0.328125 C 10.179688 -0.109375 9.671875 0 9.078125 0 L 3.421875 0 C 2.785156 0 2.207031 -0.148438 1.6875 -0.453125 C 1.164062 -0.765625 0.753906 -1.175781 0.453125 -1.6875 C 0.148438 -2.207031 0 -2.773438 0 -3.390625 Z M 0 -11.796875 "/></g></g></g><g clip-path="url(#cd7f60237a)"><g fill="#24127b" fill-opacity="1"><g transform="translate(0.895712, 32.501094)"><g><path d="M 3.5625 0.21875 C 2.90625 0.21875 2.304688 0.0625 1.765625 -0.25 C 1.222656 -0.570312 0.789062 -1 0.46875 -1.53125 C 0.15625 -2.0625 0 -2.648438 0 -3.296875 L 0 -11.78125 C 0 -12.425781 0.15625 -13.007812 0.46875 -13.53125 C 0.789062 -14.050781 1.222656 -14.46875 1.765625 -14.78125 C 2.304688 -15.101562 2.90625 -15.265625 3.5625 -15.265625 L 7.796875 -15.265625 C 8.660156 -15.265625 9.460938 -15.101562 10.203125 -14.78125 C 10.941406 -14.46875 11.585938 -14.03125 12.140625 -13.46875 C 12.691406 -12.914062 13.125 -12.265625 13.4375 -11.515625 C 13.75 -10.773438 13.90625 -9.984375 13.90625 -9.140625 C 13.90625 -8.273438 13.738281 -7.46875 13.40625 -6.71875 C 13.082031 -5.976562 12.632812 -5.320312 12.0625 -4.75 C 11.488281 -4.1875 10.820312 -3.75 10.0625 -3.4375 C 9.300781 -3.132812 8.488281 -3 7.625 -3.03125 L 7.25 -5.140625 C 7.21875 -5.222656 7.171875 -5.253906 7.109375 -5.234375 C 7.054688 -5.222656 7.03125 -5.175781 7.03125 -5.09375 L 7.03125 -3.296875 C 7.03125 -2.660156 6.867188 -2.078125 6.546875 -1.546875 C 6.234375 -1.015625 5.816406 -0.585938 5.296875 -0.265625 C 4.773438 0.0546875 4.195312 0.21875 3.5625 0.21875 Z M 7.359375 -9.9375 C 7.296875 -9.9375 7.238281 -9.9375 7.1875 -9.9375 C 7.132812 -9.9375 7.082031 -9.921875 7.03125 -9.890625 L 7.03125 -8.40625 C 7.144531 -8.332031 7.253906 -8.296875 7.359375 -8.296875 C 7.585938 -8.296875 7.78125 -8.378906 7.9375 -8.546875 C 8.101562 -8.710938 8.1875 -8.910156 8.1875 -9.140625 C 8.1875 -9.367188 8.101562 -9.554688 7.9375 -9.703125 C 7.78125 -9.859375 7.585938 -9.9375 7.359375 -9.9375 Z M 7.359375 -9.9375 "/></g></g></g></g><g fill="#24127b" fill-opacity="1"><g transform="translate(15.523887, 32.501094)"><g><path d="M 7.796875 -15.265625 C 8.878906 -15.265625 9.894531 -15.0625 10.84375 -14.65625 C 11.800781 -14.257812 12.632812 -13.707031 13.34375 -13 C 14.0625 -12.289062 14.625 -11.460938 15.03125 -10.515625 C 15.445312 -9.578125 15.65625 -8.570312 15.65625 -7.5 C 15.65625 -6.425781 15.445312 -5.421875 15.03125 -4.484375 C 14.625 -3.546875 14.0625 -2.722656 13.34375 -2.015625 C 12.632812 -1.316406 11.800781 -0.769531 10.84375 -0.375 C 9.894531 0.0195312 8.878906 0.21875 7.796875 0.21875 C 6.742188 0.21875 5.742188 0.0195312 4.796875 -0.375 C 3.847656 -0.769531 3.015625 -1.316406 2.296875 -2.015625 C 1.578125 -2.722656 1.015625 -3.546875 0.609375 -4.484375 C 0.203125 -5.421875 0 -6.425781 0 -7.5 C 0 -8.570312 0.203125 -9.578125 0.609375 -10.515625 C 1.015625 -11.460938 1.578125 -12.289062 2.296875 -13 C 3.015625 -13.707031 3.847656 -14.257812 4.796875 -14.65625 C 5.742188 -15.0625 6.742188 -15.265625 7.796875 -15.265625 Z M 7.796875 -8.453125 C 7.585938 -8.453125 7.394531 -8.367188 7.21875 -8.203125 C 7.050781 -8.046875 6.96875 -7.832031 6.96875 -7.5625 C 6.96875 -7.320312 7.050781 -7.113281 7.21875 -6.9375 C 7.394531 -6.757812 7.585938 -6.671875 7.796875 -6.671875 C 8.046875 -6.671875 8.257812 -6.757812 8.4375 -6.9375 C 8.613281 -7.113281 8.703125 -7.320312 8.703125 -7.5625 C 8.703125 -7.832031 8.613281 -8.046875 8.4375 -8.203125 C 8.257812 -8.367188 8.046875 -8.453125 7.796875 -8.453125 Z M 7.796875 -8.453125 "/></g></g></g><g fill="#24127b" fill-opacity="1"><g transform="translate(32.08526, 32.501094)"><g><path d="M 3.390625 0 C 2.765625 0 2.191406 -0.15625 1.671875 -0.46875 C 1.160156 -0.789062 0.753906 -1.210938 0.453125 -1.734375 C 0.148438 -2.253906 0 -2.820312 0 -3.4375 L 0 -11.890625 C 0 -12.515625 0.148438 -13.082031 0.453125 -13.59375 C 0.753906 -14.101562 1.160156 -14.507812 1.671875 -14.8125 C 2.191406 -15.113281 2.765625 -15.265625 3.390625 -15.265625 C 4.054688 -15.265625 4.644531 -15.113281 5.15625 -14.8125 C 5.675781 -14.507812 6.085938 -14.101562 6.390625 -13.59375 C 6.703125 -13.082031 6.859375 -12.515625 6.859375 -11.890625 L 6.859375 -3.4375 C 6.859375 -2.820312 6.703125 -2.253906 6.390625 -1.734375 C 6.085938 -1.210938 5.675781 -0.789062 5.15625 -0.46875 C 4.644531 -0.15625 4.054688 0 3.390625 0 Z M 3.390625 0 "/></g></g></g><g fill="#24127b" fill-opacity="1"><g transform="translate(39.968743, 32.501094)"><g><path d="M 15.265625 -3.15625 C 15.265625 -2.425781 15.101562 -1.8125 14.78125 -1.3125 C 14.46875 -0.8125 14.050781 -0.429688 13.53125 -0.171875 C 13.019531 0.0859375 12.46875 0.21875 11.875 0.21875 C 11.425781 0.21875 10.988281 0.132812 10.5625 -0.03125 C 10.144531 -0.195312 9.769531 -0.445312 9.4375 -0.78125 L 5.734375 -4.5 C 5.710938 -4.5625 5.664062 -4.554688 5.59375 -4.484375 C 5.53125 -4.421875 5.515625 -4.351562 5.546875 -4.28125 L 6.765625 -2.390625 C 6.609375 -1.640625 6.210938 -1.015625 5.578125 -0.515625 C 4.953125 -0.0234375 4.238281 0.21875 3.4375 0.21875 C 2.8125 0.21875 2.234375 0.0664062 1.703125 -0.234375 C 1.179688 -0.546875 0.765625 -0.957031 0.453125 -1.46875 C 0.148438 -1.988281 0 -2.570312 0 -3.21875 L 0 -11.828125 C 0 -12.453125 0.148438 -13.019531 0.453125 -13.53125 C 0.765625 -14.050781 1.179688 -14.46875 1.703125 -14.78125 C 2.234375 -15.101562 2.8125 -15.265625 3.4375 -15.265625 C 3.957031 -15.265625 4.445312 -15.144531 4.90625 -14.90625 C 5.363281 -14.675781 5.75 -14.394531 6.0625 -14.0625 L 9.5625 -10.625 C 9.59375 -10.5625 9.640625 -10.550781 9.703125 -10.59375 C 9.765625 -10.632812 9.785156 -10.6875 9.765625 -10.75 L 8.5 -12.59375 C 8.613281 -13.082031 8.828125 -13.523438 9.140625 -13.921875 C 9.453125 -14.328125 9.84375 -14.648438 10.3125 -14.890625 C 10.78125 -15.140625 11.273438 -15.265625 11.796875 -15.265625 C 12.554688 -15.265625 13.191406 -15.101562 13.703125 -14.78125 C 14.210938 -14.46875 14.597656 -14.050781 14.859375 -13.53125 C 15.128906 -13.019531 15.265625 -12.453125 15.265625 -11.828125 Z M 15.265625 -3.15625 "/></g></g></g><g fill="#24127b" fill-opacity="1"><g transform="translate(56.207916, 32.501094)"><g><path d="M 10.109375 -15.265625 C 10.753906 -15.265625 11.335938 -15.101562 11.859375 -14.78125 C 12.378906 -14.46875 12.789062 -14.050781 13.09375 -13.53125 C 13.40625 -13.007812 13.5625 -12.429688 13.5625 -11.796875 C 13.5625 -11.179688 13.410156 -10.617188 13.109375 -10.109375 C 12.804688 -9.609375 12.398438 -9.195312 11.890625 -8.875 C 11.390625 -8.5625 10.816406 -8.40625 10.171875 -8.40625 L 10.1875 -3.25 C 10.1875 -2.613281 10.03125 -2.03125 9.71875 -1.5 C 9.40625 -0.96875 8.984375 -0.546875 8.453125 -0.234375 C 7.929688 0.078125 7.359375 0.234375 6.734375 0.234375 C 6.117188 0.234375 5.550781 0.078125 5.03125 -0.234375 C 4.507812 -0.546875 4.09375 -0.96875 3.78125 -1.5 C 3.476562 -2.03125 3.328125 -2.613281 3.328125 -3.25 L 3.328125 -8.40625 C 2.703125 -8.40625 2.128906 -8.5625 1.609375 -8.875 C 1.097656 -9.195312 0.691406 -9.609375 0.390625 -10.109375 C 0.0859375 -10.617188 -0.0625 -11.179688 -0.0625 -11.796875 C -0.0625 -12.429688 0.0859375 -13.007812 0.390625 -13.53125 C 0.691406 -14.050781 1.097656 -14.46875 1.609375 -14.78125 C 2.128906 -15.101562 2.703125 -15.265625 3.328125 -15.265625 Z M 10.109375 -15.265625 "/></g></g></g></g></g></g></svg>