<svg xmlns="http://www.w3.org/2000/svg" xmlns:xlink="http://www.w3.org/1999/xlink" width="250" zoomAndPan="magnify" viewBox="0 0 187.5 37.5" height="50" preserveAspectRatio="xMidYMid meet" version="1.0"><defs><filter x="0%" y="0%" width="100%" height="100%" id="0628d5e642"><feColorMatrix values="0 0 0 0 1 0 0 0 0 1 0 0 0 0 1 0 0 0 1 0" color-interpolation-filters="sRGB"/></filter><g/><clipPath id="5cf83f8730"><path d="M 12 0 L 171 0 L 171 37.007812 L 12 37.007812 Z M 12 0 " clip-rule="nonzero"/></clipPath><mask id="b890424520"><g filter="url(#0628d5e642)"><rect x="-18.75" width="225" fill="#000000" y="-3.75" height="45" fill-opacity="0.85"/></g></mask><clipPath id="4cb5f5553b"><rect x="0" width="159" y="0" height="38"/></clipPath></defs><g clip-path="url(#5cf83f8730)"><g mask="url(#b890424520)"><g transform="matrix(1, 0, 0, 1, 12, -0.000000000000001478)"><g clip-path="url(#4cb5f5553b)"><g fill="#ff00ff" fill-opacity="1"><g transform="translate(2.455736, 32.195724)"><g><path d="M 6.34375 -13.015625 C 6.863281 -12.671875 7.445312 -12.289062 8.09375 -11.875 C 8.75 -11.46875 9.695312 -10.910156 10.9375 -10.203125 L 10.9375 -4.9375 L 1.78125 -10.203125 L 1.78125 -20.734375 L 10.9375 -25.984375 L 20.015625 -20.734375 L 16.171875 -18.609375 L 10.5625 -21.765625 L 10.5625 -20.734375 L 6.34375 -18.28125 Z M 10.9375 -15.46875 L 10.9375 -20.734375 C 12.320312 -19.859375 13.785156 -18.984375 15.328125 -18.109375 C 16.878906 -17.234375 18.441406 -16.351562 20.015625 -15.46875 L 20.015625 -4.9375 L 10.9375 0.328125 L 1.78125 -4.9375 L 5.296875 -7.046875 L 10.9375 -3.890625 L 10.9375 -4.9375 L 15.46875 -7.75 L 15.46875 -13.015625 Z M 10.9375 -15.46875 "/></g></g></g><g fill="#ff00ff" fill-opacity="1"><g transform="translate(21.580191, 32.195724)"><g><path d="M 10.078125 -14.640625 L 10.078125 -9.484375 L 6.046875 -7.296875 L 10.453125 -4.75 L 14.875 -7.296875 L 14.875 -12.421875 L 6.046875 -17.578125 L 10.453125 -20.140625 L 19.28125 -15.015625 L 19.28125 -4.75 L 10.453125 0.40625 L 1.625 -4.75 L 1.625 -9.859375 Z M 10.078125 -14.640625 "/></g></g></g><g fill="#ff00ff" fill-opacity="1"><g transform="translate(39.258963, 32.195724)"><g><path d="M 10.640625 0.078125 L 1.8125 -5.046875 L 1.8125 -17.953125 L 6.234375 -20.5 L 6.234375 -7.671875 L 10.640625 -5.046875 L 15.015625 -7.671875 L 15.015625 -20.5 L 19.421875 -17.953125 L 19.421875 -5.046875 Z M 10.640625 0.078125 "/></g></g></g><g fill="#ff00ff" fill-opacity="1"><g transform="translate(56.715252, 32.195724)"><g><path d="M 11.3125 -4.8125 L 11.3125 -9.9375 L 14.984375 -12.5 L 10.5625 -15.09375 L 6.1875 -12.5 L 6.1875 -7.375 L 14.984375 -2.21875 L 10.5625 0.328125 L 1.78125 -4.8125 L 1.78125 -15.09375 L 10.5625 -20.203125 L 19.765625 -15.09375 L 19.765625 -9.9375 Z M 11.3125 -4.8125 "/></g></g></g><g fill="#ff00ff" fill-opacity="1"><g transform="translate(75.65438, 32.195724)"><g/></g></g><g fill="#ff00ff" fill-opacity="1"><g transform="translate(84.104287, 32.195724)"><g><path d="M 20.0625 -20.796875 L 20.0625 -10.265625 L 10.9375 -5 L 6.375 -7.828125 L 6.375 0.265625 L 1.8125 -2.5625 L 1.8125 -20.796875 L 10.9375 -26.0625 Z M 6.375 -13.09375 L 10.9375 -10.265625 L 15.46875 -13.09375 L 15.46875 -18.359375 L 10.9375 -20.796875 L 6.375 -18.359375 Z M 6.375 -13.09375 "/></g></g></g><g fill="#ff00ff" fill-opacity="1"><g transform="translate(103.117511, 32.195724)"><g><path d="M 19.546875 -15.234375 L 19.546875 -4.9375 L 10.71875 0.1875 L 1.890625 -4.9375 L 1.890625 -15.234375 L 10.71875 -20.390625 Z M 6.296875 -12.6875 L 6.296875 -7.5625 L 10.71875 -4.9375 L 15.125 -7.5625 L 15.125 -12.6875 L 10.71875 -15.234375 Z M 6.296875 -12.6875 "/></g></g></g><g fill="#ff00ff" fill-opacity="1"><g transform="translate(121.834259, 32.195724)"><g><path d="M 6.484375 -17.53125 L 6.484375 0.4375 L 2.078125 -2.109375 L 2.078125 -20.09375 Z M 6.484375 -17.53125 "/></g></g></g><g fill="#ff00ff" fill-opacity="1"><g transform="translate(127.68965, 32.195724)"><g><path d="M 1.859375 -20.3125 L 6.265625 -17.765625 L 10.671875 -20.3125 L 19.5 -15.203125 L 19.5 -2.328125 L 15.09375 0.21875 L 15.09375 -12.609375 L 10.671875 -15.203125 L 6.265625 -12.609375 L 6.265625 0.21875 L 1.859375 -2.328125 Z M 1.859375 -20.3125 "/></g></g></g><g fill="#ff00ff" fill-opacity="1"><g transform="translate(146.332267, 32.195724)"><g><path d="M 6.1875 0.40625 L 1.78125 -2.15625 L 1.78125 -22.734375 L 6.1875 -25.65625 L 6.1875 -15.015625 L 10.609375 -12.453125 L 6.1875 -9.90625 L 6.1875 -4.703125 L 10.609375 -7.34375 L 10.609375 -2.15625 Z M 6.1875 0.40625 "/></g></g></g><g fill="#00ffff" fill-opacity="1"><g transform="translate(0.0921762, 32.195724)"><g><path d="M 6.34375 -13.015625 C 6.863281 -12.671875 7.445312 -12.289062 8.09375 -11.875 C 8.75 -11.46875 9.695312 -10.910156 10.9375 -10.203125 L 10.9375 -4.9375 L 1.78125 -10.203125 L 1.78125 -20.734375 L 10.9375 -25.984375 L 20.015625 -20.734375 L 16.171875 -18.609375 L 10.5625 -21.765625 L 10.5625 -20.734375 L 6.34375 -18.28125 Z M 10.9375 -15.46875 L 10.9375 -20.734375 C 12.320312 -19.859375 13.785156 -18.984375 15.328125 -18.109375 C 16.878906 -17.234375 18.441406 -16.351562 20.015625 -15.46875 L 20.015625 -4.9375 L 10.9375 0.328125 L 1.78125 -4.9375 L 5.296875 -7.046875 L 10.9375 -3.890625 L 10.9375 -4.9375 L 15.46875 -7.75 L 15.46875 -13.015625 Z M 10.9375 -15.46875 "/></g></g></g><g fill="#00ffff" fill-opacity="1"><g transform="translate(19.216631, 32.195724)"><g><path d="M 10.078125 -14.640625 L 10.078125 -9.484375 L 6.046875 -7.296875 L 10.453125 -4.75 L 14.875 -7.296875 L 14.875 -12.421875 L 6.046875 -17.578125 L 10.453125 -20.140625 L 19.28125 -15.015625 L 19.28125 -4.75 L 10.453125 0.40625 L 1.625 -4.75 L 1.625 -9.859375 Z M 10.078125 -14.640625 "/></g></g></g><g fill="#00ffff" fill-opacity="1"><g transform="translate(36.895402, 32.195724)"><g><path d="M 10.640625 0.078125 L 1.8125 -5.046875 L 1.8125 -17.953125 L 6.234375 -20.5 L 6.234375 -7.671875 L 10.640625 -5.046875 L 15.015625 -7.671875 L 15.015625 -20.5 L 19.421875 -17.953125 L 19.421875 -5.046875 Z M 10.640625 0.078125 "/></g></g></g><g fill="#00ffff" fill-opacity="1"><g transform="translate(54.351692, 32.195724)"><g><path d="M 11.3125 -4.8125 L 11.3125 -9.9375 L 14.984375 -12.5 L 10.5625 -15.09375 L 6.1875 -12.5 L 6.1875 -7.375 L 14.984375 -2.21875 L 10.5625 0.328125 L 1.78125 -4.8125 L 1.78125 -15.09375 L 10.5625 -20.203125 L 19.765625 -15.09375 L 19.765625 -9.9375 Z M 11.3125 -4.8125 "/></g></g></g><g fill="#00ffff" fill-opacity="1"><g transform="translate(73.29082, 32.195724)"><g/></g></g><g fill="#00ffff" fill-opacity="1"><g transform="translate(81.740727, 32.195724)"><g><path d="M 20.0625 -20.796875 L 20.0625 -10.265625 L 10.9375 -5 L 6.375 -7.828125 L 6.375 0.265625 L 1.8125 -2.5625 L 1.8125 -20.796875 L 10.9375 -26.0625 Z M 6.375 -13.09375 L 10.9375 -10.265625 L 15.46875 -13.09375 L 15.46875 -18.359375 L 10.9375 -20.796875 L 6.375 -18.359375 Z M 6.375 -13.09375 "/></g></g></g><g fill="#00ffff" fill-opacity="1"><g transform="translate(100.753951, 32.195724)"><g><path d="M 19.546875 -15.234375 L 19.546875 -4.9375 L 10.71875 0.1875 L 1.890625 -4.9375 L 1.890625 -15.234375 L 10.71875 -20.390625 Z M 6.296875 -12.6875 L 6.296875 -7.5625 L 10.71875 -4.9375 L 15.125 -7.5625 L 15.125 -12.6875 L 10.71875 -15.234375 Z M 6.296875 -12.6875 "/></g></g></g><g fill="#00ffff" fill-opacity="1"><g transform="translate(119.470698, 32.195724)"><g><path d="M 6.484375 -17.53125 L 6.484375 0.4375 L 2.078125 -2.109375 L 2.078125 -20.09375 Z M 6.484375 -17.53125 "/></g></g></g><g fill="#00ffff" fill-opacity="1"><g transform="translate(125.32609, 32.195724)"><g><path d="M 1.859375 -20.3125 L 6.265625 -17.765625 L 10.671875 -20.3125 L 19.5 -15.203125 L 19.5 -2.328125 L 15.09375 0.21875 L 15.09375 -12.609375 L 10.671875 -15.203125 L 6.265625 -12.609375 L 6.265625 0.21875 L 1.859375 -2.328125 Z M 1.859375 -20.3125 "/></g></g></g><g fill="#00ffff" fill-opacity="1"><g transform="translate(143.968707, 32.195724)"><g><path d="M 6.1875 0.40625 L 1.78125 -2.15625 L 1.78125 -22.734375 L 6.1875 -25.65625 L 6.1875 -15.015625 L 10.609375 -12.453125 L 6.1875 -9.90625 L 6.1875 -4.703125 L 10.609375 -7.34375 L 10.609375 -2.15625 Z M 6.1875 0.40625 "/></g></g></g><g fill="#24127b" fill-opacity="1"><g transform="translate(1.273956, 32.195724)"><g><path d="M 6.34375 -13.015625 C 6.863281 -12.671875 7.445312 -12.289062 8.09375 -11.875 C 8.75 -11.46875 9.695312 -10.910156 10.9375 -10.203125 L 10.9375 -4.9375 L 1.78125 -10.203125 L 1.78125 -20.734375 L 10.9375 -25.984375 L 20.015625 -20.734375 L 16.171875 -18.609375 L 10.5625 -21.765625 L 10.5625 -20.734375 L 6.34375 -18.28125 Z M 10.9375 -15.46875 L 10.9375 -20.734375 C 12.320312 -19.859375 13.785156 -18.984375 15.328125 -18.109375 C 16.878906 -17.234375 18.441406 -16.351562 20.015625 -15.46875 L 20.015625 -4.9375 L 10.9375 0.328125 L 1.78125 -4.9375 L 5.296875 -7.046875 L 10.9375 -3.890625 L 10.9375 -4.9375 L 15.46875 -7.75 L 15.46875 -13.015625 Z M 10.9375 -15.46875 "/></g></g></g><g fill="#24127b" fill-opacity="1"><g transform="translate(20.398411, 32.195724)"><g><path d="M 10.078125 -14.640625 L 10.078125 -9.484375 L 6.046875 -7.296875 L 10.453125 -4.75 L 14.875 -7.296875 L 14.875 -12.421875 L 6.046875 -17.578125 L 10.453125 -20.140625 L 19.28125 -15.015625 L 19.28125 -4.75 L 10.453125 0.40625 L 1.625 -4.75 L 1.625 -9.859375 Z M 10.078125 -14.640625 "/></g></g></g><g fill="#24127b" fill-opacity="1"><g transform="translate(38.077183, 32.195724)"><g><path d="M 10.640625 0.078125 L 1.8125 -5.046875 L 1.8125 -17.953125 L 6.234375 -20.5 L 6.234375 -7.671875 L 10.640625 -5.046875 L 15.015625 -7.671875 L 15.015625 -20.5 L 19.421875 -17.953125 L 19.421875 -5.046875 Z M 10.640625 0.078125 "/></g></g></g><g fill="#24127b" fill-opacity="1"><g transform="translate(55.533472, 32.195724)"><g><path d="M 11.3125 -4.8125 L 11.3125 -9.9375 L 14.984375 -12.5 L 10.5625 -15.09375 L 6.1875 -12.5 L 6.1875 -7.375 L 14.984375 -2.21875 L 10.5625 0.328125 L 1.78125 -4.8125 L 1.78125 -15.09375 L 10.5625 -20.203125 L 19.765625 -15.09375 L 19.765625 -9.9375 Z M 11.3125 -4.8125 "/></g></g></g><g fill="#24127b" fill-opacity="1"><g transform="translate(74.4726, 32.195724)"><g/></g></g><g fill="#24127b" fill-opacity="1"><g transform="translate(82.922507, 32.195724)"><g><path d="M 20.0625 -20.796875 L 20.0625 -10.265625 L 10.9375 -5 L 6.375 -7.828125 L 6.375 0.265625 L 1.8125 -2.5625 L 1.8125 -20.796875 L 10.9375 -26.0625 Z M 6.375 -13.09375 L 10.9375 -10.265625 L 15.46875 -13.09375 L 15.46875 -18.359375 L 10.9375 -20.796875 L 6.375 -18.359375 Z M 6.375 -13.09375 "/></g></g></g><g fill="#24127b" fill-opacity="1"><g transform="translate(101.935731, 32.195724)"><g><path d="M 19.546875 -15.234375 L 19.546875 -4.9375 L 10.71875 0.1875 L 1.890625 -4.9375 L 1.890625 -15.234375 L 10.71875 -20.390625 Z M 6.296875 -12.6875 L 6.296875 -7.5625 L 10.71875 -4.9375 L 15.125 -7.5625 L 15.125 -12.6875 L 10.71875 -15.234375 Z M 6.296875 -12.6875 "/></g></g></g><g fill="#24127b" fill-opacity="1"><g transform="translate(120.652479, 32.195724)"><g><path d="M 6.484375 -17.53125 L 6.484375 0.4375 L 2.078125 -2.109375 L 2.078125 -20.09375 Z M 6.484375 -17.53125 "/></g></g></g><g fill="#24127b" fill-opacity="1"><g transform="translate(126.50787, 32.195724)"><g><path d="M 1.859375 -20.3125 L 6.265625 -17.765625 L 10.671875 -20.3125 L 19.5 -15.203125 L 19.5 -2.328125 L 15.09375 0.21875 L 15.09375 -12.609375 L 10.671875 -15.203125 L 6.265625 -12.609375 L 6.265625 0.21875 L 1.859375 -2.328125 Z M 1.859375 -20.3125 "/></g></g></g><g fill="#24127b" fill-opacity="1"><g transform="translate(145.150487, 32.195724)"><g><path d="M 6.1875 0.40625 L 1.78125 -2.15625 L 1.78125 -22.734375 L 6.1875 -25.65625 L 6.1875 -15.015625 L 10.609375 -12.453125 L 6.1875 -9.90625 L 6.1875 -4.703125 L 10.609375 -7.34375 L 10.609375 -2.15625 Z M 6.1875 0.40625 "/></g></g></g></g></g></g></g></svg>