<svg xmlns="http://www.w3.org/2000/svg" xmlns:xlink="http://www.w3.org/1999/xlink" width="250" zoomAndPan="magnify" viewBox="0 0 187.5 37.5" height="50" preserveAspectRatio="xMidYMid meet" version="1.0"><defs><g/><clipPath id="2888f17de1"><path d="M 9 0 L 24 0 L 24 11 L 9 11 Z M 9 0 " clip-rule="nonzero"/></clipPath><clipPath id="00ef4cb8ea"><path d="M 23 0 L 38 0 L 38 12 L 23 12 Z M 23 0 " clip-rule="nonzero"/></clipPath><clipPath id="75ccef7da8"><path d="M 37 0 L 51 0 L 51 12 L 37 12 Z M 37 0 " clip-rule="nonzero"/></clipPath><clipPath id="84ec5b3ba7"><path d="M 51 0 L 66 0 L 66 12 L 51 12 Z M 51 0 " clip-rule="nonzero"/></clipPath><clipPath id="82a401ba39"><path d="M 8 0 L 23 0 L 23 11 L 8 11 Z M 8 0 " clip-rule="nonzero"/></clipPath><clipPath id="15eed96e5d"><path d="M 22 0 L 37 0 L 37 12 L 22 12 Z M 22 0 " clip-rule="nonzero"/></clipPath><clipPath id="c7e7246f86"><path d="M 36 0 L 50 0 L 50 12 L 36 12 Z M 36 0 " clip-rule="nonzero"/></clipPath><clipPath id="db51f829c8"><path d="M 50 0 L 65 0 L 65 12 L 50 12 Z M 50 0 " clip-rule="nonzero"/></clipPath><clipPath id="d7e08c1723"><path d="M 8 0 L 23 0 L 23 11 L 8 11 Z M 8 0 " clip-rule="nonzero"/></clipPath><clipPath id="088ad680ab"><path d="M 22 0 L 37 0 L 37 12 L 22 12 Z M 22 0 " clip-rule="nonzero"/></clipPath><clipPath id="bc7dd8db5e"><path d="M 37 0 L 51 0 L 51 12 L 37 12 Z M 37 0 " clip-rule="nonzero"/></clipPath><clipPath id="4fdfeb96c8"><path d="M 50 0 L 65 0 L 65 12 L 50 12 Z M 50 0 " clip-rule="nonzero"/></clipPath><clipPath id="961f9bbb54"><rect x="0" width="70" y="0" height="36"/></clipPath></defs><g transform="matrix(1, 0, 0, 1, 57, -0.000000000000001478)"><g clip-path="url(#961f9bbb54)"><g clip-path="url(#2888f17de1)"><g fill="#ff00ff" fill-opacity="1"><g transform="translate(9.13396, 11.002839)"><g><path d="M 1.21875 -8.84375 C 1.375 -9.90625 1.5 -10.613281 1.59375 -10.96875 C 1.707031 -11.425781 1.898438 -11.765625 2.171875 -11.984375 C 2.390625 -12.148438 2.722656 -12.257812 3.171875 -12.3125 C 3.347656 -12.34375 3.585938 -12.359375 3.890625 -12.359375 C 4.203125 -12.359375 4.582031 -12.359375 5.03125 -12.359375 L 14.28125 -12.359375 C 14.132812 -11.234375 13.992188 -10.476562 13.859375 -10.09375 C 13.703125 -9.625 13.453125 -9.300781 13.109375 -9.125 C 13.003906 -9.070312 12.890625 -9.03125 12.765625 -9 C 12.640625 -8.976562 12.488281 -8.953125 12.3125 -8.921875 C 12.007812 -8.867188 11.453125 -8.84375 10.640625 -8.84375 L 5.75 -8.84375 C 5.582031 -8.84375 5.4375 -8.84375 5.3125 -8.84375 C 5.195312 -8.84375 5.113281 -8.835938 5.0625 -8.828125 C 4.945312 -8.828125 4.863281 -8.785156 4.8125 -8.703125 C 4.78125 -8.660156 4.742188 -8.582031 4.703125 -8.46875 C 4.703125 -8.40625 4.679688 -8.234375 4.640625 -7.953125 L 10.125 -7.953125 C 10.613281 -7.953125 11.019531 -7.953125 11.34375 -7.953125 C 11.675781 -7.953125 11.914062 -7.9375 12.0625 -7.90625 C 12.59375 -7.851562 12.953125 -7.71875 13.140625 -7.5 C 13.304688 -7.320312 13.390625 -7 13.390625 -6.53125 L 13.390625 -6.375 C 13.390625 -6.226562 13.367188 -5.992188 13.328125 -5.671875 C 13.296875 -5.347656 13.25 -4.9375 13.1875 -4.4375 L 13.0625 -3.515625 C 12.988281 -2.960938 12.914062 -2.507812 12.84375 -2.15625 C 12.769531 -1.800781 12.707031 -1.53125 12.65625 -1.34375 C 12.5625 -1 12.445312 -0.742188 12.3125 -0.578125 C 12.113281 -0.378906 11.832031 -0.226562 11.46875 -0.125 C 11.300781 -0.101562 11.007812 -0.0820312 10.59375 -0.0625 C 10.175781 -0.0390625 9.648438 -0.03125 9.015625 -0.03125 L 3.53125 -0.03125 C 2.882812 -0.03125 2.363281 -0.0390625 1.96875 -0.0625 C 1.570312 -0.0820312 1.28125 -0.101562 1.09375 -0.125 C 0.78125 -0.226562 0.554688 -0.359375 0.421875 -0.515625 C 0.304688 -0.703125 0.25 -0.988281 0.25 -1.375 C 0.25 -1.707031 0.320312 -2.421875 0.46875 -3.515625 L 8.671875 -3.515625 C 8.816406 -3.515625 8.941406 -3.515625 9.046875 -3.515625 C 9.148438 -3.523438 9.21875 -3.53125 9.25 -3.53125 C 9.332031 -3.550781 9.40625 -3.59375 9.46875 -3.65625 C 9.53125 -3.757812 9.5625 -3.863281 9.5625 -3.96875 C 9.601562 -4.0625 9.628906 -4.21875 9.640625 -4.4375 L 3.53125 -4.4375 C 3.207031 -4.4375 2.921875 -4.441406 2.671875 -4.453125 C 2.421875 -4.460938 2.21875 -4.472656 2.0625 -4.484375 C 1.601562 -4.535156 1.265625 -4.648438 1.046875 -4.828125 C 0.878906 -5.035156 0.796875 -5.320312 0.796875 -5.6875 L 0.796875 -5.984375 C 0.828125 -6.148438 0.867188 -6.394531 0.921875 -6.71875 C 0.972656 -7.039062 1.03125 -7.453125 1.09375 -7.953125 Z M 1.21875 -8.84375 "/></g></g></g></g><g clip-path="url(#00ef4cb8ea)"><g fill="#ff00ff" fill-opacity="1"><g transform="translate(23.286515, 11.002839)"><g><path d="M 11.359375 -12.359375 C 12.097656 -12.359375 12.613281 -12.332031 12.90625 -12.28125 C 13.269531 -12.238281 13.519531 -12.15625 13.65625 -12.03125 C 13.90625 -11.863281 14.03125 -11.515625 14.03125 -10.984375 C 14.03125 -10.941406 14.03125 -10.894531 14.03125 -10.84375 C 14.03125 -10.789062 14.019531 -10.722656 14 -10.640625 C 14 -10.492188 13.984375 -10.269531 13.953125 -9.96875 C 13.921875 -9.664062 13.875 -9.289062 13.8125 -8.84375 L 13.40625 -6.0625 L 13.0625 -3.515625 C 12.988281 -2.910156 12.914062 -2.421875 12.84375 -2.046875 C 12.769531 -1.679688 12.703125 -1.40625 12.640625 -1.21875 C 12.535156 -0.875 12.367188 -0.609375 12.140625 -0.421875 C 11.953125 -0.285156 11.675781 -0.175781 11.3125 -0.09375 C 11.144531 -0.0820312 10.863281 -0.0625 10.46875 -0.03125 C 10.070312 -0.0078125 9.554688 0 8.921875 0 L 3.515625 0 C 2.910156 0 2.414062 -0.0078125 2.03125 -0.03125 C 1.65625 -0.0625 1.378906 -0.0820312 1.203125 -0.09375 C 0.847656 -0.175781 0.597656 -0.300781 0.453125 -0.46875 C 0.316406 -0.65625 0.25 -0.945312 0.25 -1.34375 L 0.25 -1.5 C 0.28125 -1.84375 0.351562 -2.515625 0.46875 -3.515625 L 0.625 -4.4375 C 0.6875 -4.882812 0.742188 -5.253906 0.796875 -5.546875 C 0.847656 -5.847656 0.878906 -6.078125 0.890625 -6.234375 C 1.015625 -6.816406 1.179688 -7.210938 1.390625 -7.421875 C 1.628906 -7.660156 1.957031 -7.800781 2.375 -7.84375 C 2.71875 -7.894531 3.351562 -7.921875 4.28125 -7.921875 L 9.5 -7.921875 C 9.59375 -7.921875 9.675781 -7.925781 9.75 -7.9375 C 9.832031 -7.945312 9.878906 -7.953125 9.890625 -7.953125 C 9.972656 -7.960938 10.050781 -8.003906 10.125 -8.078125 C 10.164062 -8.128906 10.1875 -8.203125 10.1875 -8.296875 C 10.226562 -8.398438 10.253906 -8.582031 10.265625 -8.84375 L 4.78125 -8.84375 C 4.332031 -8.84375 3.953125 -8.847656 3.640625 -8.859375 C 3.335938 -8.867188 3.113281 -8.878906 2.96875 -8.890625 C 2.53125 -8.960938 2.222656 -9.113281 2.046875 -9.34375 C 1.890625 -9.570312 1.789062 -9.953125 1.75 -10.484375 C 1.75 -10.640625 1.742188 -10.84375 1.734375 -11.09375 C 1.722656 -11.34375 1.71875 -11.625 1.71875 -11.9375 L 1.71875 -12.359375 Z M 4.734375 -4.4375 C 4.515625 -4.4375 4.390625 -4.425781 4.359375 -4.40625 C 4.304688 -4.40625 4.25 -4.375 4.1875 -4.3125 C 4.15625 -4.28125 4.125 -4.15625 4.09375 -3.9375 C 4.09375 -3.851562 4.066406 -3.710938 4.015625 -3.515625 L 8.890625 -3.515625 C 8.992188 -3.515625 9.082031 -3.515625 9.15625 -3.515625 C 9.226562 -3.523438 9.273438 -3.53125 9.296875 -3.53125 C 9.398438 -3.550781 9.457031 -3.585938 9.46875 -3.640625 C 9.5 -3.671875 9.53125 -3.753906 9.5625 -3.890625 C 9.601562 -3.984375 9.628906 -4.164062 9.640625 -4.4375 Z M 4.734375 -4.4375 "/></g></g></g></g><g clip-path="url(#75ccef7da8)"><g fill="#ff00ff" fill-opacity="1"><g transform="translate(37.53875, 11.002839)"><g><path d="M 0.25 -12.359375 L 1.296875 -12.359375 C 1.597656 -12.359375 1.851562 -12.359375 2.0625 -12.359375 C 2.28125 -12.359375 2.457031 -12.351562 2.59375 -12.34375 C 2.738281 -12.34375 2.878906 -12.335938 3.015625 -12.328125 C 3.160156 -12.316406 3.316406 -12.300781 3.484375 -12.28125 C 3.804688 -12.28125 4.023438 -12.195312 4.140625 -12.03125 C 4.234375 -11.914062 4.363281 -11.800781 4.53125 -11.6875 C 4.6875 -11.582031 4.785156 -11.367188 4.828125 -11.046875 C 4.867188 -10.878906 4.898438 -10.722656 4.921875 -10.578125 C 4.941406 -10.441406 4.960938 -10.304688 4.984375 -10.171875 C 5.015625 -10.054688 5.046875 -9.890625 5.078125 -9.671875 C 5.117188 -9.453125 5.15625 -9.1875 5.1875 -8.875 L 5.9375 -3.515625 L 8.578125 -3.515625 C 8.703125 -3.546875 8.785156 -3.578125 8.828125 -3.609375 C 8.890625 -3.679688 8.929688 -3.757812 8.953125 -3.84375 C 8.960938 -3.882812 8.972656 -3.953125 8.984375 -4.046875 C 9.003906 -4.140625 9.023438 -4.257812 9.046875 -4.40625 L 9.6875 -9.140625 L 10.171875 -12.359375 L 10.671875 -12.359375 C 11.035156 -12.359375 11.34375 -12.359375 11.59375 -12.359375 C 11.84375 -12.359375 12.039062 -12.34375 12.1875 -12.3125 C 12.664062 -12.257812 12.988281 -12.144531 13.15625 -11.96875 C 13.34375 -11.800781 13.4375 -11.484375 13.4375 -11.015625 L 13.4375 -10.5625 C 13.40625 -10.226562 13.328125 -9.648438 13.203125 -8.828125 L 12.859375 -6.375 L 12.46875 -3.515625 C 12.332031 -2.546875 12.226562 -1.90625 12.15625 -1.59375 C 12.039062 -1.082031 11.867188 -0.707031 11.640625 -0.46875 C 11.367188 -0.238281 10.9375 -0.0976562 10.34375 -0.046875 C 10.195312 -0.0351562 9.992188 -0.0234375 9.734375 -0.015625 C 9.472656 -0.00390625 9.148438 0 8.765625 0 L 6.4375 0 C 5.9375 0 5.519531 -0.00390625 5.1875 -0.015625 C 4.863281 -0.0234375 4.613281 -0.0351562 4.4375 -0.046875 C 3.851562 -0.117188 3.429688 -0.285156 3.171875 -0.546875 C 2.929688 -0.796875 2.738281 -1.3125 2.59375 -2.09375 C 2.570312 -2.226562 2.546875 -2.414062 2.515625 -2.65625 C 2.484375 -2.894531 2.441406 -3.171875 2.390625 -3.484375 L 1.875 -7.171875 L 1.390625 -10.546875 C 1.378906 -10.773438 1.347656 -10.96875 1.296875 -11.125 C 1.242188 -11.28125 1.191406 -11.394531 1.140625 -11.46875 C 1.097656 -11.550781 1.003906 -11.664062 0.859375 -11.8125 C 0.710938 -11.957031 0.507812 -12.140625 0.25 -12.359375 Z M 0.25 -12.359375 "/></g></g></g></g><g clip-path="url(#84ec5b3ba7)"><g fill="#ff00ff" fill-opacity="1"><g transform="translate(51.217892, 11.002839)"><g><path d="M 5.328125 -12.34375 L 10.765625 -12.34375 C 11.210938 -12.34375 11.585938 -12.34375 11.890625 -12.34375 C 12.191406 -12.34375 12.414062 -12.332031 12.5625 -12.3125 C 13.113281 -12.289062 13.488281 -12.191406 13.6875 -12.015625 C 13.914062 -11.847656 14.03125 -11.503906 14.03125 -10.984375 C 14.03125 -10.921875 14.03125 -10.84375 14.03125 -10.75 C 14.03125 -10.65625 14.019531 -10.5625 14 -10.46875 C 13.988281 -10.320312 13.960938 -10.113281 13.921875 -9.84375 C 13.890625 -9.582031 13.851562 -9.25 13.8125 -8.84375 L 13.65625 -7.921875 C 13.519531 -6.910156 13.410156 -6.25 13.328125 -5.9375 C 13.234375 -5.46875 13.078125 -5.125 12.859375 -4.90625 C 12.628906 -4.6875 12.269531 -4.546875 11.78125 -4.484375 C 11.46875 -4.429688 10.875 -4.40625 10 -4.40625 L 4.390625 -4.40625 C 4.316406 -4.40625 4.25 -4.375 4.1875 -4.3125 C 4.15625 -4.28125 4.125 -4.179688 4.09375 -4.015625 C 4.09375 -3.929688 4.066406 -3.765625 4.015625 -3.515625 L 9.5 -3.515625 C 10.476562 -3.515625 11.097656 -3.488281 11.359375 -3.4375 C 11.765625 -3.382812 12.039062 -3.257812 12.1875 -3.0625 C 12.375 -2.882812 12.484375 -2.519531 12.515625 -1.96875 C 12.546875 -1.820312 12.5625 -1.617188 12.5625 -1.359375 C 12.5625 -1.097656 12.5625 -0.785156 12.5625 -0.421875 L 12.5625 0 L 3.140625 0 C 2.640625 0 2.226562 -0.0078125 1.90625 -0.03125 C 1.582031 -0.0625 1.328125 -0.0820312 1.140625 -0.09375 C 0.796875 -0.195312 0.550781 -0.359375 0.40625 -0.578125 C 0.300781 -0.773438 0.25 -1.03125 0.25 -1.34375 L 0.25 -1.546875 C 0.269531 -1.847656 0.34375 -2.503906 0.46875 -3.515625 L 1.21875 -8.84375 L 1.515625 -10.640625 C 1.628906 -11.222656 1.804688 -11.628906 2.046875 -11.859375 C 2.304688 -12.097656 2.65625 -12.238281 3.09375 -12.28125 C 3.269531 -12.320312 3.546875 -12.34375 3.921875 -12.34375 C 4.296875 -12.34375 4.765625 -12.34375 5.328125 -12.34375 Z M 5.390625 -8.84375 C 5.140625 -8.84375 4.992188 -8.835938 4.953125 -8.828125 C 4.921875 -8.804688 4.875 -8.765625 4.8125 -8.703125 C 4.78125 -8.628906 4.742188 -8.550781 4.703125 -8.46875 C 4.703125 -8.40625 4.679688 -8.222656 4.640625 -7.921875 L 9.796875 -7.921875 C 9.929688 -7.941406 10.03125 -7.984375 10.09375 -8.046875 C 10.144531 -8.097656 10.171875 -8.175781 10.171875 -8.28125 C 10.203125 -8.394531 10.226562 -8.582031 10.25 -8.84375 Z M 5.390625 -8.84375 "/></g></g></g></g><g clip-path="url(#82a401ba39)"><g fill="#00ffff" fill-opacity="1"><g transform="translate(7.887474, 11.002839)"><g><path d="M 1.21875 -8.84375 C 1.375 -9.90625 1.5 -10.613281 1.59375 -10.96875 C 1.707031 -11.425781 1.898438 -11.765625 2.171875 -11.984375 C 2.390625 -12.148438 2.722656 -12.257812 3.171875 -12.3125 C 3.347656 -12.34375 3.585938 -12.359375 3.890625 -12.359375 C 4.203125 -12.359375 4.582031 -12.359375 5.03125 -12.359375 L 14.28125 -12.359375 C 14.132812 -11.234375 13.992188 -10.476562 13.859375 -10.09375 C 13.703125 -9.625 13.453125 -9.300781 13.109375 -9.125 C 13.003906 -9.070312 12.890625 -9.03125 12.765625 -9 C 12.640625 -8.976562 12.488281 -8.953125 12.3125 -8.921875 C 12.007812 -8.867188 11.453125 -8.84375 10.640625 -8.84375 L 5.75 -8.84375 C 5.582031 -8.84375 5.4375 -8.84375 5.3125 -8.84375 C 5.195312 -8.84375 5.113281 -8.835938 5.0625 -8.828125 C 4.945312 -8.828125 4.863281 -8.785156 4.8125 -8.703125 C 4.78125 -8.660156 4.742188 -8.582031 4.703125 -8.46875 C 4.703125 -8.40625 4.679688 -8.234375 4.640625 -7.953125 L 10.125 -7.953125 C 10.613281 -7.953125 11.019531 -7.953125 11.34375 -7.953125 C 11.675781 -7.953125 11.914062 -7.9375 12.0625 -7.90625 C 12.59375 -7.851562 12.953125 -7.71875 13.140625 -7.5 C 13.304688 -7.320312 13.390625 -7 13.390625 -6.53125 L 13.390625 -6.375 C 13.390625 -6.226562 13.367188 -5.992188 13.328125 -5.671875 C 13.296875 -5.347656 13.25 -4.9375 13.1875 -4.4375 L 13.0625 -3.515625 C 12.988281 -2.960938 12.914062 -2.507812 12.84375 -2.15625 C 12.769531 -1.800781 12.707031 -1.53125 12.65625 -1.34375 C 12.5625 -1 12.445312 -0.742188 12.3125 -0.578125 C 12.113281 -0.378906 11.832031 -0.226562 11.46875 -0.125 C 11.300781 -0.101562 11.007812 -0.0820312 10.59375 -0.0625 C 10.175781 -0.0390625 9.648438 -0.03125 9.015625 -0.03125 L 3.53125 -0.03125 C 2.882812 -0.03125 2.363281 -0.0390625 1.96875 -0.0625 C 1.570312 -0.0820312 1.28125 -0.101562 1.09375 -0.125 C 0.78125 -0.226562 0.554688 -0.359375 0.421875 -0.515625 C 0.304688 -0.703125 0.25 -0.988281 0.25 -1.375 C 0.25 -1.707031 0.320312 -2.421875 0.46875 -3.515625 L 8.671875 -3.515625 C 8.816406 -3.515625 8.941406 -3.515625 9.046875 -3.515625 C 9.148438 -3.523438 9.21875 -3.53125 9.25 -3.53125 C 9.332031 -3.550781 9.40625 -3.59375 9.46875 -3.65625 C 9.53125 -3.757812 9.5625 -3.863281 9.5625 -3.96875 C 9.601562 -4.0625 9.628906 -4.21875 9.640625 -4.4375 L 3.53125 -4.4375 C 3.207031 -4.4375 2.921875 -4.441406 2.671875 -4.453125 C 2.421875 -4.460938 2.21875 -4.472656 2.0625 -4.484375 C 1.601562 -4.535156 1.265625 -4.648438 1.046875 -4.828125 C 0.878906 -5.035156 0.796875 -5.320312 0.796875 -5.6875 L 0.796875 -5.984375 C 0.828125 -6.148438 0.867188 -6.394531 0.921875 -6.71875 C 0.972656 -7.039062 1.03125 -7.453125 1.09375 -7.953125 Z M 1.21875 -8.84375 "/></g></g></g></g><g clip-path="url(#15eed96e5d)"><g fill="#00ffff" fill-opacity="1"><g transform="translate(22.04003, 11.002839)"><g><path d="M 11.359375 -12.359375 C 12.097656 -12.359375 12.613281 -12.332031 12.90625 -12.28125 C 13.269531 -12.238281 13.519531 -12.15625 13.65625 -12.03125 C 13.90625 -11.863281 14.03125 -11.515625 14.03125 -10.984375 C 14.03125 -10.941406 14.03125 -10.894531 14.03125 -10.84375 C 14.03125 -10.789062 14.019531 -10.722656 14 -10.640625 C 14 -10.492188 13.984375 -10.269531 13.953125 -9.96875 C 13.921875 -9.664062 13.875 -9.289062 13.8125 -8.84375 L 13.40625 -6.0625 L 13.0625 -3.515625 C 12.988281 -2.910156 12.914062 -2.421875 12.84375 -2.046875 C 12.769531 -1.679688 12.703125 -1.40625 12.640625 -1.21875 C 12.535156 -0.875 12.367188 -0.609375 12.140625 -0.421875 C 11.953125 -0.285156 11.675781 -0.175781 11.3125 -0.09375 C 11.144531 -0.0820312 10.863281 -0.0625 10.46875 -0.03125 C 10.070312 -0.0078125 9.554688 0 8.921875 0 L 3.515625 0 C 2.910156 0 2.414062 -0.0078125 2.03125 -0.03125 C 1.65625 -0.0625 1.378906 -0.0820312 1.203125 -0.09375 C 0.847656 -0.175781 0.597656 -0.300781 0.453125 -0.46875 C 0.316406 -0.65625 0.25 -0.945312 0.25 -1.34375 L 0.25 -1.5 C 0.28125 -1.84375 0.351562 -2.515625 0.46875 -3.515625 L 0.625 -4.4375 C 0.6875 -4.882812 0.742188 -5.253906 0.796875 -5.546875 C 0.847656 -5.847656 0.878906 -6.078125 0.890625 -6.234375 C 1.015625 -6.816406 1.179688 -7.210938 1.390625 -7.421875 C 1.628906 -7.660156 1.957031 -7.800781 2.375 -7.84375 C 2.71875 -7.894531 3.351562 -7.921875 4.28125 -7.921875 L 9.5 -7.921875 C 9.59375 -7.921875 9.675781 -7.925781 9.75 -7.9375 C 9.832031 -7.945312 9.878906 -7.953125 9.890625 -7.953125 C 9.972656 -7.960938 10.050781 -8.003906 10.125 -8.078125 C 10.164062 -8.128906 10.1875 -8.203125 10.1875 -8.296875 C 10.226562 -8.398438 10.253906 -8.582031 10.265625 -8.84375 L 4.78125 -8.84375 C 4.332031 -8.84375 3.953125 -8.847656 3.640625 -8.859375 C 3.335938 -8.867188 3.113281 -8.878906 2.96875 -8.890625 C 2.53125 -8.960938 2.222656 -9.113281 2.046875 -9.34375 C 1.890625 -9.570312 1.789062 -9.953125 1.75 -10.484375 C 1.75 -10.640625 1.742188 -10.84375 1.734375 -11.09375 C 1.722656 -11.34375 1.71875 -11.625 1.71875 -11.9375 L 1.71875 -12.359375 Z M 4.734375 -4.4375 C 4.515625 -4.4375 4.390625 -4.425781 4.359375 -4.40625 C 4.304688 -4.40625 4.25 -4.375 4.1875 -4.3125 C 4.15625 -4.28125 4.125 -4.15625 4.09375 -3.9375 C 4.09375 -3.851562 4.066406 -3.710938 4.015625 -3.515625 L 8.890625 -3.515625 C 8.992188 -3.515625 9.082031 -3.515625 9.15625 -3.515625 C 9.226562 -3.523438 9.273438 -3.53125 9.296875 -3.53125 C 9.398438 -3.550781 9.457031 -3.585938 9.46875 -3.640625 C 9.5 -3.671875 9.53125 -3.753906 9.5625 -3.890625 C 9.601562 -3.984375 9.628906 -4.164062 9.640625 -4.4375 Z M 4.734375 -4.4375 "/></g></g></g></g><g clip-path="url(#c7e7246f86)"><g fill="#00ffff" fill-opacity="1"><g transform="translate(36.292264, 11.002839)"><g><path d="M 0.25 -12.359375 L 1.296875 -12.359375 C 1.597656 -12.359375 1.851562 -12.359375 2.0625 -12.359375 C 2.28125 -12.359375 2.457031 -12.351562 2.59375 -12.34375 C 2.738281 -12.34375 2.878906 -12.335938 3.015625 -12.328125 C 3.160156 -12.316406 3.316406 -12.300781 3.484375 -12.28125 C 3.804688 -12.28125 4.023438 -12.195312 4.140625 -12.03125 C 4.234375 -11.914062 4.363281 -11.800781 4.53125 -11.6875 C 4.6875 -11.582031 4.785156 -11.367188 4.828125 -11.046875 C 4.867188 -10.878906 4.898438 -10.722656 4.921875 -10.578125 C 4.941406 -10.441406 4.960938 -10.304688 4.984375 -10.171875 C 5.015625 -10.054688 5.046875 -9.890625 5.078125 -9.671875 C 5.117188 -9.453125 5.15625 -9.1875 5.1875 -8.875 L 5.9375 -3.515625 L 8.578125 -3.515625 C 8.703125 -3.546875 8.785156 -3.578125 8.828125 -3.609375 C 8.890625 -3.679688 8.929688 -3.757812 8.953125 -3.84375 C 8.960938 -3.882812 8.972656 -3.953125 8.984375 -4.046875 C 9.003906 -4.140625 9.023438 -4.257812 9.046875 -4.40625 L 9.6875 -9.140625 L 10.171875 -12.359375 L 10.671875 -12.359375 C 11.035156 -12.359375 11.34375 -12.359375 11.59375 -12.359375 C 11.84375 -12.359375 12.039062 -12.34375 12.1875 -12.3125 C 12.664062 -12.257812 12.988281 -12.144531 13.15625 -11.96875 C 13.34375 -11.800781 13.4375 -11.484375 13.4375 -11.015625 L 13.4375 -10.5625 C 13.40625 -10.226562 13.328125 -9.648438 13.203125 -8.828125 L 12.859375 -6.375 L 12.46875 -3.515625 C 12.332031 -2.546875 12.226562 -1.90625 12.15625 -1.59375 C 12.039062 -1.082031 11.867188 -0.707031 11.640625 -0.46875 C 11.367188 -0.238281 10.9375 -0.0976562 10.34375 -0.046875 C 10.195312 -0.0351562 9.992188 -0.0234375 9.734375 -0.015625 C 9.472656 -0.00390625 9.148438 0 8.765625 0 L 6.4375 0 C 5.9375 0 5.519531 -0.00390625 5.1875 -0.015625 C 4.863281 -0.0234375 4.613281 -0.0351562 4.4375 -0.046875 C 3.851562 -0.117188 3.429688 -0.285156 3.171875 -0.546875 C 2.929688 -0.796875 2.738281 -1.3125 2.59375 -2.09375 C 2.570312 -2.226562 2.546875 -2.414062 2.515625 -2.65625 C 2.484375 -2.894531 2.441406 -3.171875 2.390625 -3.484375 L 1.875 -7.171875 L 1.390625 -10.546875 C 1.378906 -10.773438 1.347656 -10.96875 1.296875 -11.125 C 1.242188 -11.28125 1.191406 -11.394531 1.140625 -11.46875 C 1.097656 -11.550781 1.003906 -11.664062 0.859375 -11.8125 C 0.710938 -11.957031 0.507812 -12.140625 0.25 -12.359375 Z M 0.25 -12.359375 "/></g></g></g></g><g clip-path="url(#db51f829c8)"><g fill="#00ffff" fill-opacity="1"><g transform="translate(49.971406, 11.002839)"><g><path d="M 5.328125 -12.34375 L 10.765625 -12.34375 C 11.210938 -12.34375 11.585938 -12.34375 11.890625 -12.34375 C 12.191406 -12.34375 12.414062 -12.332031 12.5625 -12.3125 C 13.113281 -12.289062 13.488281 -12.191406 13.6875 -12.015625 C 13.914062 -11.847656 14.03125 -11.503906 14.03125 -10.984375 C 14.03125 -10.921875 14.03125 -10.84375 14.03125 -10.75 C 14.03125 -10.65625 14.019531 -10.5625 14 -10.46875 C 13.988281 -10.320312 13.960938 -10.113281 13.921875 -9.84375 C 13.890625 -9.582031 13.851562 -9.25 13.8125 -8.84375 L 13.65625 -7.921875 C 13.519531 -6.910156 13.410156 -6.25 13.328125 -5.9375 C 13.234375 -5.46875 13.078125 -5.125 12.859375 -4.90625 C 12.628906 -4.6875 12.269531 -4.546875 11.78125 -4.484375 C 11.46875 -4.429688 10.875 -4.40625 10 -4.40625 L 4.390625 -4.40625 C 4.316406 -4.40625 4.25 -4.375 4.1875 -4.3125 C 4.15625 -4.28125 4.125 -4.179688 4.09375 -4.015625 C 4.09375 -3.929688 4.066406 -3.765625 4.015625 -3.515625 L 9.5 -3.515625 C 10.476562 -3.515625 11.097656 -3.488281 11.359375 -3.4375 C 11.765625 -3.382812 12.039062 -3.257812 12.1875 -3.0625 C 12.375 -2.882812 12.484375 -2.519531 12.515625 -1.96875 C 12.546875 -1.820312 12.5625 -1.617188 12.5625 -1.359375 C 12.5625 -1.097656 12.5625 -0.785156 12.5625 -0.421875 L 12.5625 0 L 3.140625 0 C 2.640625 0 2.226562 -0.0078125 1.90625 -0.03125 C 1.582031 -0.0625 1.328125 -0.0820312 1.140625 -0.09375 C 0.796875 -0.195312 0.550781 -0.359375 0.40625 -0.578125 C 0.300781 -0.773438 0.25 -1.03125 0.25 -1.34375 L 0.25 -1.546875 C 0.269531 -1.847656 0.34375 -2.503906 0.46875 -3.515625 L 1.21875 -8.84375 L 1.515625 -10.640625 C 1.628906 -11.222656 1.804688 -11.628906 2.046875 -11.859375 C 2.304688 -12.097656 2.65625 -12.238281 3.09375 -12.28125 C 3.269531 -12.320312 3.546875 -12.34375 3.921875 -12.34375 C 4.296875 -12.34375 4.765625 -12.34375 5.328125 -12.34375 Z M 5.390625 -8.84375 C 5.140625 -8.84375 4.992188 -8.835938 4.953125 -8.828125 C 4.921875 -8.804688 4.875 -8.765625 4.8125 -8.703125 C 4.78125 -8.628906 4.742188 -8.550781 4.703125 -8.46875 C 4.703125 -8.40625 4.679688 -8.222656 4.640625 -7.921875 L 9.796875 -7.921875 C 9.929688 -7.941406 10.03125 -7.984375 10.09375 -8.046875 C 10.144531 -8.097656 10.171875 -8.175781 10.171875 -8.28125 C 10.203125 -8.394531 10.226562 -8.582031 10.25 -8.84375 Z M 5.390625 -8.84375 "/></g></g></g></g><g fill="#ff00ff" fill-opacity="1"><g transform="translate(65.101624, 11.002839)"><g/></g></g><g fill="#00ffff" fill-opacity="1"><g transform="translate(63.855138, 11.002839)"><g/></g></g><g fill="#ff00ff" fill-opacity="1"><g transform="translate(5.725915, 29.179076)"><g><path d="M 3.140625 2.96875 C 3.085938 3.25 3.015625 3.503906 2.921875 3.734375 C 2.847656 3.890625 2.757812 4.03125 2.65625 4.15625 C 2.550781 4.289062 2.429688 4.410156 2.296875 4.515625 C 2.210938 4.578125 2.109375 4.632812 1.984375 4.6875 C 1.867188 4.75 1.738281 4.804688 1.59375 4.859375 C 1.457031 4.910156 1.304688 4.941406 1.140625 4.953125 C 0.972656 4.972656 0.789062 5 0.59375 5.03125 C 0.476562 5.050781 0.34375 5.0625 0.1875 5.0625 C 0.0390625 5.070312 -0.117188 5.078125 -0.296875 5.078125 L -1.5 5.078125 C -1.34375 4.953125 -1.210938 4.847656 -1.109375 4.765625 C -1.015625 4.691406 -0.941406 4.628906 -0.890625 4.578125 C -0.722656 4.421875 -0.625 4.304688 -0.59375 4.234375 C -0.507812 4.148438 -0.453125 4.039062 -0.421875 3.90625 C -0.390625 3.820312 -0.363281 3.691406 -0.34375 3.515625 L 0.09375 0 L 1.203125 -7.921875 L 1.328125 -8.84375 C 1.390625 -9.289062 1.441406 -9.660156 1.484375 -9.953125 C 1.523438 -10.242188 1.550781 -10.460938 1.5625 -10.609375 C 1.6875 -11.148438 1.835938 -11.535156 2.015625 -11.765625 C 2.265625 -12.066406 2.691406 -12.238281 3.296875 -12.28125 C 3.640625 -12.332031 4.300781 -12.359375 5.28125 -12.359375 L 10.890625 -12.359375 C 11.316406 -12.359375 11.671875 -12.359375 11.953125 -12.359375 C 12.242188 -12.359375 12.460938 -12.34375 12.609375 -12.3125 C 13.390625 -12.257812 13.851562 -12.066406 14 -11.734375 C 14.050781 -11.648438 14.082031 -11.546875 14.09375 -11.421875 C 14.113281 -11.296875 14.125 -11.160156 14.125 -11.015625 C 14.125 -10.953125 14.125 -10.878906 14.125 -10.796875 C 14.125 -10.722656 14.117188 -10.640625 14.109375 -10.546875 C 14.109375 -10.265625 14.03125 -9.695312 13.875 -8.84375 C 13.84375 -8.550781 13.765625 -7.957031 13.640625 -7.0625 C 13.515625 -6.175781 13.347656 -4.992188 13.140625 -3.515625 C 13.066406 -3.046875 13.003906 -2.65625 12.953125 -2.34375 C 12.910156 -2.03125 12.867188 -1.78125 12.828125 -1.59375 C 12.734375 -1.082031 12.5625 -0.707031 12.3125 -0.46875 C 12.125 -0.289062 11.800781 -0.160156 11.34375 -0.078125 C 10.988281 -0.0234375 10.359375 0 9.453125 0 L 3.640625 0 Z M 4.109375 -3.515625 L 9.09375 -3.515625 C 9.144531 -3.523438 9.191406 -3.53125 9.234375 -3.53125 C 9.273438 -3.53125 9.304688 -3.53125 9.328125 -3.53125 C 9.367188 -3.570312 9.425781 -3.609375 9.5 -3.640625 C 9.582031 -3.722656 9.628906 -3.820312 9.640625 -3.9375 C 9.671875 -4.039062 9.695312 -4.195312 9.71875 -4.40625 L 10.34375 -8.84375 L 5.875 -8.84375 C 5.582031 -8.84375 5.398438 -8.835938 5.328125 -8.828125 C 5.179688 -8.828125 5.066406 -8.785156 4.984375 -8.703125 C 4.953125 -8.660156 4.910156 -8.566406 4.859375 -8.421875 C 4.835938 -8.390625 4.816406 -8.332031 4.796875 -8.25 C 4.785156 -8.164062 4.765625 -8.054688 4.734375 -7.921875 Z M 4.109375 -3.515625 "/></g></g></g><g fill="#ff00ff" fill-opacity="1"><g transform="translate(20.07781, 29.179076)"><g><path d="M 1.21875 -8.84375 C 1.320312 -9.59375 1.398438 -10.082031 1.453125 -10.3125 C 1.597656 -11.082031 1.796875 -11.59375 2.046875 -11.84375 C 2.273438 -12.09375 2.628906 -12.238281 3.109375 -12.28125 C 3.296875 -12.320312 3.554688 -12.34375 3.890625 -12.34375 C 4.222656 -12.34375 4.640625 -12.34375 5.140625 -12.34375 L 10.859375 -12.34375 C 11.472656 -12.34375 11.972656 -12.332031 12.359375 -12.3125 C 12.753906 -12.289062 13.035156 -12.257812 13.203125 -12.21875 C 13.503906 -12.164062 13.722656 -12.03125 13.859375 -11.8125 C 13.972656 -11.644531 14.03125 -11.367188 14.03125 -10.984375 L 14.03125 -10.734375 C 14.03125 -10.421875 13.957031 -9.789062 13.8125 -8.84375 L 13.0625 -3.515625 C 12.945312 -2.628906 12.847656 -2.019531 12.765625 -1.6875 C 12.660156 -1.226562 12.535156 -0.890625 12.390625 -0.671875 C 12.203125 -0.390625 11.867188 -0.195312 11.390625 -0.09375 C 11.222656 -0.0820312 10.957031 -0.0625 10.59375 -0.03125 C 10.226562 -0.0078125 9.765625 0 9.203125 0 L 3.34375 0 C 2.8125 0 2.367188 -0.0078125 2.015625 -0.03125 C 1.671875 -0.0625 1.40625 -0.0820312 1.21875 -0.09375 C 0.851562 -0.164062 0.585938 -0.304688 0.421875 -0.515625 C 0.367188 -0.617188 0.328125 -0.738281 0.296875 -0.875 C 0.265625 -1.019531 0.25 -1.175781 0.25 -1.34375 L 0.25 -1.640625 C 0.28125 -1.972656 0.351562 -2.597656 0.46875 -3.515625 C 0.519531 -3.847656 0.582031 -4.25 0.65625 -4.71875 C 0.726562 -5.195312 0.804688 -5.742188 0.890625 -6.359375 C 0.992188 -6.984375 1.070312 -7.5 1.125 -7.90625 C 1.175781 -8.3125 1.207031 -8.625 1.21875 -8.84375 Z M 5.984375 -8.84375 C 5.785156 -8.84375 5.617188 -8.84375 5.484375 -8.84375 C 5.347656 -8.84375 5.25 -8.835938 5.1875 -8.828125 C 5.019531 -8.785156 4.898438 -8.734375 4.828125 -8.671875 C 4.785156 -8.617188 4.738281 -8.476562 4.6875 -8.25 C 4.6875 -8.226562 4.679688 -8.1875 4.671875 -8.125 C 4.660156 -8.070312 4.648438 -8.003906 4.640625 -7.921875 L 4.015625 -3.515625 L 9.203125 -3.515625 C 9.316406 -3.546875 9.390625 -3.578125 9.421875 -3.609375 C 9.484375 -3.679688 9.515625 -3.757812 9.515625 -3.84375 C 9.546875 -3.882812 9.570312 -3.953125 9.59375 -4.046875 C 9.613281 -4.140625 9.628906 -4.257812 9.640625 -4.40625 L 10.265625 -8.84375 Z M 5.984375 -8.84375 "/></g></g></g><g fill="#ff00ff" fill-opacity="1"><g transform="translate(34.330044, 29.179076)"><g><path d="M 6.234375 -17.453125 L 5.65625 -13.265625 L 2.125 -13.265625 L 2.1875 -13.9375 C 2.269531 -14.414062 2.335938 -14.804688 2.390625 -15.109375 C 2.441406 -15.421875 2.484375 -15.648438 2.515625 -15.796875 C 2.617188 -16.316406 2.757812 -16.675781 2.9375 -16.875 C 3.175781 -17.132812 3.507812 -17.300781 3.9375 -17.375 C 4.320312 -17.425781 5.085938 -17.453125 6.234375 -17.453125 Z M 2 -12.359375 L 5.53125 -12.359375 L 4.28125 -3.484375 C 4.21875 -3.023438 4.160156 -2.632812 4.109375 -2.3125 C 4.054688 -2 4.007812 -1.757812 3.96875 -1.59375 C 3.863281 -1.082031 3.695312 -0.707031 3.46875 -0.46875 C 3.195312 -0.238281 2.796875 -0.0976562 2.265625 -0.046875 C 2.097656 -0.0351562 1.859375 -0.0234375 1.546875 -0.015625 C 1.242188 -0.00390625 0.867188 0 0.421875 0 L -0.75 0 C -0.59375 -0.132812 -0.46875 -0.242188 -0.375 -0.328125 C -0.289062 -0.410156 -0.222656 -0.472656 -0.171875 -0.515625 C 0.046875 -0.734375 0.175781 -0.878906 0.21875 -0.953125 C 0.300781 -1.066406 0.363281 -1.191406 0.40625 -1.328125 C 0.445312 -1.410156 0.476562 -1.570312 0.5 -1.8125 Z M 2 -12.359375 "/></g></g></g><g fill="#ff00ff" fill-opacity="1"><g transform="translate(40.060836, 29.179076)"><g><path d="M 1.5 -8.828125 C 1.5625 -9.304688 1.617188 -9.695312 1.671875 -10 C 1.722656 -10.3125 1.753906 -10.539062 1.765625 -10.6875 C 1.867188 -11.207031 2.007812 -11.566406 2.1875 -11.765625 C 2.394531 -12.046875 2.726562 -12.210938 3.1875 -12.265625 C 3.519531 -12.316406 4.046875 -12.34375 4.765625 -12.34375 L 11.765625 -12.34375 C 11.992188 -12.34375 12.195312 -12.34375 12.375 -12.34375 C 12.550781 -12.34375 12.695312 -12.332031 12.8125 -12.3125 C 13.320312 -12.289062 13.6875 -12.195312 13.90625 -12.03125 C 14.15625 -11.863281 14.28125 -11.507812 14.28125 -10.96875 C 14.28125 -10.632812 14.207031 -9.921875 14.0625 -8.828125 L 13.9375 -7.921875 L 13.4375 -4.40625 L 13.3125 -3.484375 C 13.238281 -2.972656 13.171875 -2.546875 13.109375 -2.203125 C 13.054688 -1.859375 13.003906 -1.609375 12.953125 -1.453125 C 12.859375 -1.078125 12.734375 -0.785156 12.578125 -0.578125 C 12.378906 -0.359375 12.070312 -0.195312 11.65625 -0.09375 C 11.5 -0.0820312 11.21875 -0.0625 10.8125 -0.03125 C 10.414062 -0.0078125 9.898438 0 9.265625 0 L 9.765625 -3.484375 L 9.890625 -4.40625 L 10.390625 -7.921875 L 10.515625 -8.828125 L 5.953125 -8.828125 C 5.890625 -8.835938 5.832031 -8.84375 5.78125 -8.84375 C 5.726562 -8.84375 5.675781 -8.84375 5.625 -8.84375 C 5.507812 -8.84375 5.4375 -8.835938 5.40625 -8.828125 C 5.289062 -8.828125 5.207031 -8.800781 5.15625 -8.75 C 5.09375 -8.675781 5.035156 -8.578125 4.984375 -8.453125 C 4.984375 -8.378906 4.957031 -8.203125 4.90625 -7.921875 L 4.40625 -4.40625 L 4.28125 -3.484375 C 4.164062 -2.609375 4.066406 -2.003906 3.984375 -1.671875 C 3.929688 -1.398438 3.863281 -1.171875 3.78125 -0.984375 C 3.695312 -0.804688 3.609375 -0.648438 3.515625 -0.515625 C 3.296875 -0.273438 2.914062 -0.117188 2.375 -0.046875 C 2.207031 -0.0351562 1.957031 -0.0234375 1.625 -0.015625 C 1.289062 -0.00390625 0.882812 0 0.40625 0 L -0.75 0 C -0.414062 -0.28125 -0.207031 -0.460938 -0.125 -0.546875 C 0.0703125 -0.710938 0.207031 -0.847656 0.28125 -0.953125 C 0.3125 -0.992188 0.332031 -1.035156 0.34375 -1.078125 C 0.363281 -1.117188 0.382812 -1.164062 0.40625 -1.21875 C 0.4375 -1.300781 0.46875 -1.476562 0.5 -1.75 L 0.75 -3.484375 L 0.875 -4.40625 L 1.375 -7.921875 Z M 1.5 -8.828125 "/></g></g></g><g fill="#ff00ff" fill-opacity="1"><g transform="translate(54.56222, 29.179076)"><g><path d="M 4.734375 -17.46875 L 7.03125 -17.46875 C 7.425781 -17.46875 7.722656 -17.441406 7.921875 -17.390625 C 8.335938 -17.347656 8.617188 -17.234375 8.765625 -17.046875 C 8.921875 -16.847656 9 -16.53125 9 -16.09375 C 9 -15.925781 8.984375 -15.664062 8.953125 -15.3125 C 8.929688 -14.96875 8.878906 -14.523438 8.796875 -13.984375 L 8.578125 -12.359375 L 14.0625 -12.359375 C 13.90625 -11.296875 13.78125 -10.582031 13.6875 -10.21875 C 13.5625 -9.75 13.34375 -9.410156 13.03125 -9.203125 C 12.8125 -9.066406 12.519531 -8.972656 12.15625 -8.921875 C 11.988281 -8.898438 11.726562 -8.882812 11.375 -8.875 C 11.019531 -8.875 10.566406 -8.875 10.015625 -8.875 L 8.078125 -8.875 L 7.953125 -7.953125 L 7.453125 -4.4375 L 7.328125 -3.53125 L 12.8125 -3.53125 C 12.738281 -3.019531 12.671875 -2.585938 12.609375 -2.234375 C 12.554688 -1.890625 12.507812 -1.628906 12.46875 -1.453125 C 12.363281 -1.035156 12.203125 -0.71875 11.984375 -0.5 C 11.804688 -0.3125 11.484375 -0.175781 11.015625 -0.09375 C 10.660156 -0.0507812 9.960938 -0.03125 8.921875 -0.03125 L 6.671875 -0.03125 C 5.597656 -0.03125 4.882812 -0.0507812 4.53125 -0.09375 C 4.082031 -0.175781 3.785156 -0.328125 3.640625 -0.546875 C 3.535156 -0.734375 3.484375 -0.972656 3.484375 -1.265625 L 3.484375 -1.671875 C 3.535156 -2.003906 3.632812 -2.625 3.78125 -3.53125 L 3.90625 -4.4375 L 4.40625 -7.953125 L 4.53125 -8.875 L 1 -8.875 C 1.082031 -9.351562 1.144531 -9.753906 1.1875 -10.078125 C 1.238281 -10.398438 1.273438 -10.640625 1.296875 -10.796875 C 1.441406 -11.390625 1.65625 -11.796875 1.9375 -12.015625 C 2.1875 -12.160156 2.519531 -12.257812 2.9375 -12.3125 C 3.101562 -12.34375 3.316406 -12.359375 3.578125 -12.359375 C 3.835938 -12.359375 4.148438 -12.359375 4.515625 -12.359375 L 5.03125 -12.359375 L 5.53125 -15.953125 C 5.550781 -16.085938 5.5625 -16.191406 5.5625 -16.265625 C 5.5625 -16.335938 5.5625 -16.390625 5.5625 -16.421875 C 5.5625 -16.566406 5.539062 -16.664062 5.5 -16.71875 C 5.488281 -16.769531 5.460938 -16.820312 5.421875 -16.875 C 5.378906 -16.9375 5.316406 -16.992188 5.234375 -17.046875 C 5.203125 -17.097656 5.144531 -17.15625 5.0625 -17.21875 C 4.976562 -17.289062 4.867188 -17.375 4.734375 -17.46875 Z M 4.734375 -17.46875 "/></g></g></g><g fill="#00ffff" fill-opacity="1"><g transform="translate(4.47943, 29.179076)"><g><path d="M 3.140625 2.96875 C 3.085938 3.25 3.015625 3.503906 2.921875 3.734375 C 2.847656 3.890625 2.757812 4.03125 2.65625 4.15625 C 2.550781 4.289062 2.429688 4.410156 2.296875 4.515625 C 2.210938 4.578125 2.109375 4.632812 1.984375 4.6875 C 1.867188 4.75 1.738281 4.804688 1.59375 4.859375 C 1.457031 4.910156 1.304688 4.941406 1.140625 4.953125 C 0.972656 4.972656 0.789062 5 0.59375 5.03125 C 0.476562 5.050781 0.34375 5.0625 0.1875 5.0625 C 0.0390625 5.070312 -0.117188 5.078125 -0.296875 5.078125 L -1.5 5.078125 C -1.34375 4.953125 -1.210938 4.847656 -1.109375 4.765625 C -1.015625 4.691406 -0.941406 4.628906 -0.890625 4.578125 C -0.722656 4.421875 -0.625 4.304688 -0.59375 4.234375 C -0.507812 4.148438 -0.453125 4.039062 -0.421875 3.90625 C -0.390625 3.820312 -0.363281 3.691406 -0.34375 3.515625 L 0.09375 0 L 1.203125 -7.921875 L 1.328125 -8.84375 C 1.390625 -9.289062 1.441406 -9.660156 1.484375 -9.953125 C 1.523438 -10.242188 1.550781 -10.460938 1.5625 -10.609375 C 1.6875 -11.148438 1.835938 -11.535156 2.015625 -11.765625 C 2.265625 -12.066406 2.691406 -12.238281 3.296875 -12.28125 C 3.640625 -12.332031 4.300781 -12.359375 5.28125 -12.359375 L 10.890625 -12.359375 C 11.316406 -12.359375 11.671875 -12.359375 11.953125 -12.359375 C 12.242188 -12.359375 12.460938 -12.34375 12.609375 -12.3125 C 13.390625 -12.257812 13.851562 -12.066406 14 -11.734375 C 14.050781 -11.648438 14.082031 -11.546875 14.09375 -11.421875 C 14.113281 -11.296875 14.125 -11.160156 14.125 -11.015625 C 14.125 -10.953125 14.125 -10.878906 14.125 -10.796875 C 14.125 -10.722656 14.117188 -10.640625 14.109375 -10.546875 C 14.109375 -10.265625 14.03125 -9.695312 13.875 -8.84375 C 13.84375 -8.550781 13.765625 -7.957031 13.640625 -7.0625 C 13.515625 -6.175781 13.347656 -4.992188 13.140625 -3.515625 C 13.066406 -3.046875 13.003906 -2.65625 12.953125 -2.34375 C 12.910156 -2.03125 12.867188 -1.78125 12.828125 -1.59375 C 12.734375 -1.082031 12.5625 -0.707031 12.3125 -0.46875 C 12.125 -0.289062 11.800781 -0.160156 11.34375 -0.078125 C 10.988281 -0.0234375 10.359375 0 9.453125 0 L 3.640625 0 Z M 4.109375 -3.515625 L 9.09375 -3.515625 C 9.144531 -3.523438 9.191406 -3.53125 9.234375 -3.53125 C 9.273438 -3.53125 9.304688 -3.53125 9.328125 -3.53125 C 9.367188 -3.570312 9.425781 -3.609375 9.5 -3.640625 C 9.582031 -3.722656 9.628906 -3.820312 9.640625 -3.9375 C 9.671875 -4.039062 9.695312 -4.195312 9.71875 -4.40625 L 10.34375 -8.84375 L 5.875 -8.84375 C 5.582031 -8.84375 5.398438 -8.835938 5.328125 -8.828125 C 5.179688 -8.828125 5.066406 -8.785156 4.984375 -8.703125 C 4.953125 -8.660156 4.910156 -8.566406 4.859375 -8.421875 C 4.835938 -8.390625 4.816406 -8.332031 4.796875 -8.25 C 4.785156 -8.164062 4.765625 -8.054688 4.734375 -7.921875 Z M 4.109375 -3.515625 "/></g></g></g><g fill="#00ffff" fill-opacity="1"><g transform="translate(18.831324, 29.179076)"><g><path d="M 1.21875 -8.84375 C 1.320312 -9.59375 1.398438 -10.082031 1.453125 -10.3125 C 1.597656 -11.082031 1.796875 -11.59375 2.046875 -11.84375 C 2.273438 -12.09375 2.628906 -12.238281 3.109375 -12.28125 C 3.296875 -12.320312 3.554688 -12.34375 3.890625 -12.34375 C 4.222656 -12.34375 4.640625 -12.34375 5.140625 -12.34375 L 10.859375 -12.34375 C 11.472656 -12.34375 11.972656 -12.332031 12.359375 -12.3125 C 12.753906 -12.289062 13.035156 -12.257812 13.203125 -12.21875 C 13.503906 -12.164062 13.722656 -12.03125 13.859375 -11.8125 C 13.972656 -11.644531 14.03125 -11.367188 14.03125 -10.984375 L 14.03125 -10.734375 C 14.03125 -10.421875 13.957031 -9.789062 13.8125 -8.84375 L 13.0625 -3.515625 C 12.945312 -2.628906 12.847656 -2.019531 12.765625 -1.6875 C 12.660156 -1.226562 12.535156 -0.890625 12.390625 -0.671875 C 12.203125 -0.390625 11.867188 -0.195312 11.390625 -0.09375 C 11.222656 -0.0820312 10.957031 -0.0625 10.59375 -0.03125 C 10.226562 -0.0078125 9.765625 0 9.203125 0 L 3.34375 0 C 2.8125 0 2.367188 -0.0078125 2.015625 -0.03125 C 1.671875 -0.0625 1.40625 -0.0820312 1.21875 -0.09375 C 0.851562 -0.164062 0.585938 -0.304688 0.421875 -0.515625 C 0.367188 -0.617188 0.328125 -0.738281 0.296875 -0.875 C 0.265625 -1.019531 0.25 -1.175781 0.25 -1.34375 L 0.25 -1.640625 C 0.28125 -1.972656 0.351562 -2.597656 0.46875 -3.515625 C 0.519531 -3.847656 0.582031 -4.25 0.65625 -4.71875 C 0.726562 -5.195312 0.804688 -5.742188 0.890625 -6.359375 C 0.992188 -6.984375 1.070312 -7.5 1.125 -7.90625 C 1.175781 -8.3125 1.207031 -8.625 1.21875 -8.84375 Z M 5.984375 -8.84375 C 5.785156 -8.84375 5.617188 -8.84375 5.484375 -8.84375 C 5.347656 -8.84375 5.25 -8.835938 5.1875 -8.828125 C 5.019531 -8.785156 4.898438 -8.734375 4.828125 -8.671875 C 4.785156 -8.617188 4.738281 -8.476562 4.6875 -8.25 C 4.6875 -8.226562 4.679688 -8.1875 4.671875 -8.125 C 4.660156 -8.070312 4.648438 -8.003906 4.640625 -7.921875 L 4.015625 -3.515625 L 9.203125 -3.515625 C 9.316406 -3.546875 9.390625 -3.578125 9.421875 -3.609375 C 9.484375 -3.679688 9.515625 -3.757812 9.515625 -3.84375 C 9.546875 -3.882812 9.570312 -3.953125 9.59375 -4.046875 C 9.613281 -4.140625 9.628906 -4.257812 9.640625 -4.40625 L 10.265625 -8.84375 Z M 5.984375 -8.84375 "/></g></g></g><g fill="#00ffff" fill-opacity="1"><g transform="translate(33.083558, 29.179076)"><g><path d="M 6.234375 -17.453125 L 5.65625 -13.265625 L 2.125 -13.265625 L 2.1875 -13.9375 C 2.269531 -14.414062 2.335938 -14.804688 2.390625 -15.109375 C 2.441406 -15.421875 2.484375 -15.648438 2.515625 -15.796875 C 2.617188 -16.316406 2.757812 -16.675781 2.9375 -16.875 C 3.175781 -17.132812 3.507812 -17.300781 3.9375 -17.375 C 4.320312 -17.425781 5.085938 -17.453125 6.234375 -17.453125 Z M 2 -12.359375 L 5.53125 -12.359375 L 4.28125 -3.484375 C 4.21875 -3.023438 4.160156 -2.632812 4.109375 -2.3125 C 4.054688 -2 4.007812 -1.757812 3.96875 -1.59375 C 3.863281 -1.082031 3.695312 -0.707031 3.46875 -0.46875 C 3.195312 -0.238281 2.796875 -0.0976562 2.265625 -0.046875 C 2.097656 -0.0351562 1.859375 -0.0234375 1.546875 -0.015625 C 1.242188 -0.00390625 0.867188 0 0.421875 0 L -0.75 0 C -0.59375 -0.132812 -0.46875 -0.242188 -0.375 -0.328125 C -0.289062 -0.410156 -0.222656 -0.472656 -0.171875 -0.515625 C 0.046875 -0.734375 0.175781 -0.878906 0.21875 -0.953125 C 0.300781 -1.066406 0.363281 -1.191406 0.40625 -1.328125 C 0.445312 -1.410156 0.476562 -1.570312 0.5 -1.8125 Z M 2 -12.359375 "/></g></g></g><g fill="#00ffff" fill-opacity="1"><g transform="translate(38.81435, 29.179076)"><g><path d="M 1.5 -8.828125 C 1.5625 -9.304688 1.617188 -9.695312 1.671875 -10 C 1.722656 -10.3125 1.753906 -10.539062 1.765625 -10.6875 C 1.867188 -11.207031 2.007812 -11.566406 2.1875 -11.765625 C 2.394531 -12.046875 2.726562 -12.210938 3.1875 -12.265625 C 3.519531 -12.316406 4.046875 -12.34375 4.765625 -12.34375 L 11.765625 -12.34375 C 11.992188 -12.34375 12.195312 -12.34375 12.375 -12.34375 C 12.550781 -12.34375 12.695312 -12.332031 12.8125 -12.3125 C 13.320312 -12.289062 13.6875 -12.195312 13.90625 -12.03125 C 14.15625 -11.863281 14.28125 -11.507812 14.28125 -10.96875 C 14.28125 -10.632812 14.207031 -9.921875 14.0625 -8.828125 L 13.9375 -7.921875 L 13.4375 -4.40625 L 13.3125 -3.484375 C 13.238281 -2.972656 13.171875 -2.546875 13.109375 -2.203125 C 13.054688 -1.859375 13.003906 -1.609375 12.953125 -1.453125 C 12.859375 -1.078125 12.734375 -0.785156 12.578125 -0.578125 C 12.378906 -0.359375 12.070312 -0.195312 11.65625 -0.09375 C 11.5 -0.0820312 11.21875 -0.0625 10.8125 -0.03125 C 10.414062 -0.0078125 9.898438 0 9.265625 0 L 9.765625 -3.484375 L 9.890625 -4.40625 L 10.390625 -7.921875 L 10.515625 -8.828125 L 5.953125 -8.828125 C 5.890625 -8.835938 5.832031 -8.84375 5.78125 -8.84375 C 5.726562 -8.84375 5.675781 -8.84375 5.625 -8.84375 C 5.507812 -8.84375 5.4375 -8.835938 5.40625 -8.828125 C 5.289062 -8.828125 5.207031 -8.800781 5.15625 -8.75 C 5.09375 -8.675781 5.035156 -8.578125 4.984375 -8.453125 C 4.984375 -8.378906 4.957031 -8.203125 4.90625 -7.921875 L 4.40625 -4.40625 L 4.28125 -3.484375 C 4.164062 -2.609375 4.066406 -2.003906 3.984375 -1.671875 C 3.929688 -1.398438 3.863281 -1.171875 3.78125 -0.984375 C 3.695312 -0.804688 3.609375 -0.648438 3.515625 -0.515625 C 3.296875 -0.273438 2.914062 -0.117188 2.375 -0.046875 C 2.207031 -0.0351562 1.957031 -0.0234375 1.625 -0.015625 C 1.289062 -0.00390625 0.882812 0 0.40625 0 L -0.75 0 C -0.414062 -0.28125 -0.207031 -0.460938 -0.125 -0.546875 C 0.0703125 -0.710938 0.207031 -0.847656 0.28125 -0.953125 C 0.3125 -0.992188 0.332031 -1.035156 0.34375 -1.078125 C 0.363281 -1.117188 0.382812 -1.164062 0.40625 -1.21875 C 0.4375 -1.300781 0.46875 -1.476562 0.5 -1.75 L 0.75 -3.484375 L 0.875 -4.40625 L 1.375 -7.921875 Z M 1.5 -8.828125 "/></g></g></g><g fill="#00ffff" fill-opacity="1"><g transform="translate(53.315735, 29.179076)"><g><path d="M 4.734375 -17.46875 L 7.03125 -17.46875 C 7.425781 -17.46875 7.722656 -17.441406 7.921875 -17.390625 C 8.335938 -17.347656 8.617188 -17.234375 8.765625 -17.046875 C 8.921875 -16.847656 9 -16.53125 9 -16.09375 C 9 -15.925781 8.984375 -15.664062 8.953125 -15.3125 C 8.929688 -14.96875 8.878906 -14.523438 8.796875 -13.984375 L 8.578125 -12.359375 L 14.0625 -12.359375 C 13.90625 -11.296875 13.78125 -10.582031 13.6875 -10.21875 C 13.5625 -9.75 13.34375 -9.410156 13.03125 -9.203125 C 12.8125 -9.066406 12.519531 -8.972656 12.15625 -8.921875 C 11.988281 -8.898438 11.726562 -8.882812 11.375 -8.875 C 11.019531 -8.875 10.566406 -8.875 10.015625 -8.875 L 8.078125 -8.875 L 7.953125 -7.953125 L 7.453125 -4.4375 L 7.328125 -3.53125 L 12.8125 -3.53125 C 12.738281 -3.019531 12.671875 -2.585938 12.609375 -2.234375 C 12.554688 -1.890625 12.507812 -1.628906 12.46875 -1.453125 C 12.363281 -1.035156 12.203125 -0.71875 11.984375 -0.5 C 11.804688 -0.3125 11.484375 -0.175781 11.015625 -0.09375 C 10.660156 -0.0507812 9.960938 -0.03125 8.921875 -0.03125 L 6.671875 -0.03125 C 5.597656 -0.03125 4.882812 -0.0507812 4.53125 -0.09375 C 4.082031 -0.175781 3.785156 -0.328125 3.640625 -0.546875 C 3.535156 -0.734375 3.484375 -0.972656 3.484375 -1.265625 L 3.484375 -1.671875 C 3.535156 -2.003906 3.632812 -2.625 3.78125 -3.53125 L 3.90625 -4.4375 L 4.40625 -7.953125 L 4.53125 -8.875 L 1 -8.875 C 1.082031 -9.351562 1.144531 -9.753906 1.1875 -10.078125 C 1.238281 -10.398438 1.273438 -10.640625 1.296875 -10.796875 C 1.441406 -11.390625 1.65625 -11.796875 1.9375 -12.015625 C 2.1875 -12.160156 2.519531 -12.257812 2.9375 -12.3125 C 3.101562 -12.34375 3.316406 -12.359375 3.578125 -12.359375 C 3.835938 -12.359375 4.148438 -12.359375 4.515625 -12.359375 L 5.03125 -12.359375 L 5.53125 -15.953125 C 5.550781 -16.085938 5.5625 -16.191406 5.5625 -16.265625 C 5.5625 -16.335938 5.5625 -16.390625 5.5625 -16.421875 C 5.5625 -16.566406 5.539062 -16.664062 5.5 -16.71875 C 5.488281 -16.769531 5.460938 -16.820312 5.421875 -16.875 C 5.378906 -16.9375 5.316406 -16.992188 5.234375 -17.046875 C 5.203125 -17.097656 5.144531 -17.15625 5.0625 -17.21875 C 4.976562 -17.289062 4.867188 -17.375 4.734375 -17.46875 Z M 4.734375 -17.46875 "/></g></g></g><g fill="#ff00ff" fill-opacity="1"><g transform="translate(68.490735, 29.179076)"><g/></g></g><g fill="#00ffff" fill-opacity="1"><g transform="translate(67.244249, 29.179076)"><g/></g></g><g clip-path="url(#d7e08c1723)"><g fill="#9869f6" fill-opacity="1"><g transform="translate(8.510717, 11.002839)"><g><path d="M 1.21875 -8.84375 C 1.375 -9.90625 1.5 -10.613281 1.59375 -10.96875 C 1.707031 -11.425781 1.898438 -11.765625 2.171875 -11.984375 C 2.390625 -12.148438 2.722656 -12.257812 3.171875 -12.3125 C 3.347656 -12.34375 3.585938 -12.359375 3.890625 -12.359375 C 4.203125 -12.359375 4.582031 -12.359375 5.03125 -12.359375 L 14.28125 -12.359375 C 14.132812 -11.234375 13.992188 -10.476562 13.859375 -10.09375 C 13.703125 -9.625 13.453125 -9.300781 13.109375 -9.125 C 13.003906 -9.070312 12.890625 -9.03125 12.765625 -9 C 12.640625 -8.976562 12.488281 -8.953125 12.3125 -8.921875 C 12.007812 -8.867188 11.453125 -8.84375 10.640625 -8.84375 L 5.75 -8.84375 C 5.582031 -8.84375 5.4375 -8.84375 5.3125 -8.84375 C 5.195312 -8.84375 5.113281 -8.835938 5.0625 -8.828125 C 4.945312 -8.828125 4.863281 -8.785156 4.8125 -8.703125 C 4.78125 -8.660156 4.742188 -8.582031 4.703125 -8.46875 C 4.703125 -8.40625 4.679688 -8.234375 4.640625 -7.953125 L 10.125 -7.953125 C 10.613281 -7.953125 11.019531 -7.953125 11.34375 -7.953125 C 11.675781 -7.953125 11.914062 -7.9375 12.0625 -7.90625 C 12.59375 -7.851562 12.953125 -7.71875 13.140625 -7.5 C 13.304688 -7.320312 13.390625 -7 13.390625 -6.53125 L 13.390625 -6.375 C 13.390625 -6.226562 13.367188 -5.992188 13.328125 -5.671875 C 13.296875 -5.347656 13.25 -4.9375 13.1875 -4.4375 L 13.0625 -3.515625 C 12.988281 -2.960938 12.914062 -2.507812 12.84375 -2.15625 C 12.769531 -1.800781 12.707031 -1.53125 12.65625 -1.34375 C 12.5625 -1 12.445312 -0.742188 12.3125 -0.578125 C 12.113281 -0.378906 11.832031 -0.226562 11.46875 -0.125 C 11.300781 -0.101562 11.007812 -0.0820312 10.59375 -0.0625 C 10.175781 -0.0390625 9.648438 -0.03125 9.015625 -0.03125 L 3.53125 -0.03125 C 2.882812 -0.03125 2.363281 -0.0390625 1.96875 -0.0625 C 1.570312 -0.0820312 1.28125 -0.101562 1.09375 -0.125 C 0.78125 -0.226562 0.554688 -0.359375 0.421875 -0.515625 C 0.304688 -0.703125 0.25 -0.988281 0.25 -1.375 C 0.25 -1.707031 0.320312 -2.421875 0.46875 -3.515625 L 8.671875 -3.515625 C 8.816406 -3.515625 8.941406 -3.515625 9.046875 -3.515625 C 9.148438 -3.523438 9.21875 -3.53125 9.25 -3.53125 C 9.332031 -3.550781 9.40625 -3.59375 9.46875 -3.65625 C 9.53125 -3.757812 9.5625 -3.863281 9.5625 -3.96875 C 9.601562 -4.0625 9.628906 -4.21875 9.640625 -4.4375 L 3.53125 -4.4375 C 3.207031 -4.4375 2.921875 -4.441406 2.671875 -4.453125 C 2.421875 -4.460938 2.21875 -4.472656 2.0625 -4.484375 C 1.601562 -4.535156 1.265625 -4.648438 1.046875 -4.828125 C 0.878906 -5.035156 0.796875 -5.320312 0.796875 -5.6875 L 0.796875 -5.984375 C 0.828125 -6.148438 0.867188 -6.394531 0.921875 -6.71875 C 0.972656 -7.039062 1.03125 -7.453125 1.09375 -7.953125 Z M 1.21875 -8.84375 "/></g></g></g></g><g clip-path="url(#088ad680ab)"><g fill="#9869f6" fill-opacity="1"><g transform="translate(22.663273, 11.002839)"><g><path d="M 11.359375 -12.359375 C 12.097656 -12.359375 12.613281 -12.332031 12.90625 -12.28125 C 13.269531 -12.238281 13.519531 -12.15625 13.65625 -12.03125 C 13.90625 -11.863281 14.03125 -11.515625 14.03125 -10.984375 C 14.03125 -10.941406 14.03125 -10.894531 14.03125 -10.84375 C 14.03125 -10.789062 14.019531 -10.722656 14 -10.640625 C 14 -10.492188 13.984375 -10.269531 13.953125 -9.96875 C 13.921875 -9.664062 13.875 -9.289062 13.8125 -8.84375 L 13.40625 -6.0625 L 13.0625 -3.515625 C 12.988281 -2.910156 12.914062 -2.421875 12.84375 -2.046875 C 12.769531 -1.679688 12.703125 -1.40625 12.640625 -1.21875 C 12.535156 -0.875 12.367188 -0.609375 12.140625 -0.421875 C 11.953125 -0.285156 11.675781 -0.175781 11.3125 -0.09375 C 11.144531 -0.0820312 10.863281 -0.0625 10.46875 -0.03125 C 10.070312 -0.0078125 9.554688 0 8.921875 0 L 3.515625 0 C 2.910156 0 2.414062 -0.0078125 2.03125 -0.03125 C 1.65625 -0.0625 1.378906 -0.0820312 1.203125 -0.09375 C 0.847656 -0.175781 0.597656 -0.300781 0.453125 -0.46875 C 0.316406 -0.65625 0.25 -0.945312 0.25 -1.34375 L 0.25 -1.5 C 0.28125 -1.84375 0.351562 -2.515625 0.46875 -3.515625 L 0.625 -4.4375 C 0.6875 -4.882812 0.742188 -5.253906 0.796875 -5.546875 C 0.847656 -5.847656 0.878906 -6.078125 0.890625 -6.234375 C 1.015625 -6.816406 1.179688 -7.210938 1.390625 -7.421875 C 1.628906 -7.660156 1.957031 -7.800781 2.375 -7.84375 C 2.71875 -7.894531 3.351562 -7.921875 4.28125 -7.921875 L 9.5 -7.921875 C 9.59375 -7.921875 9.675781 -7.925781 9.75 -7.9375 C 9.832031 -7.945312 9.878906 -7.953125 9.890625 -7.953125 C 9.972656 -7.960938 10.050781 -8.003906 10.125 -8.078125 C 10.164062 -8.128906 10.1875 -8.203125 10.1875 -8.296875 C 10.226562 -8.398438 10.253906 -8.582031 10.265625 -8.84375 L 4.78125 -8.84375 C 4.332031 -8.84375 3.953125 -8.847656 3.640625 -8.859375 C 3.335938 -8.867188 3.113281 -8.878906 2.96875 -8.890625 C 2.53125 -8.960938 2.222656 -9.113281 2.046875 -9.34375 C 1.890625 -9.570312 1.789062 -9.953125 1.75 -10.484375 C 1.75 -10.640625 1.742188 -10.84375 1.734375 -11.09375 C 1.722656 -11.34375 1.71875 -11.625 1.71875 -11.9375 L 1.71875 -12.359375 Z M 4.734375 -4.4375 C 4.515625 -4.4375 4.390625 -4.425781 4.359375 -4.40625 C 4.304688 -4.40625 4.25 -4.375 4.1875 -4.3125 C 4.15625 -4.28125 4.125 -4.15625 4.09375 -3.9375 C 4.09375 -3.851562 4.066406 -3.710938 4.015625 -3.515625 L 8.890625 -3.515625 C 8.992188 -3.515625 9.082031 -3.515625 9.15625 -3.515625 C 9.226562 -3.523438 9.273438 -3.53125 9.296875 -3.53125 C 9.398438 -3.550781 9.457031 -3.585938 9.46875 -3.640625 C 9.5 -3.671875 9.53125 -3.753906 9.5625 -3.890625 C 9.601562 -3.984375 9.628906 -4.164062 9.640625 -4.4375 Z M 4.734375 -4.4375 "/></g></g></g></g><g clip-path="url(#bc7dd8db5e)"><g fill="#9869f6" fill-opacity="1"><g transform="translate(36.915507, 11.002839)"><g><path d="M 0.25 -12.359375 L 1.296875 -12.359375 C 1.597656 -12.359375 1.851562 -12.359375 2.0625 -12.359375 C 2.28125 -12.359375 2.457031 -12.351562 2.59375 -12.34375 C 2.738281 -12.34375 2.878906 -12.335938 3.015625 -12.328125 C 3.160156 -12.316406 3.316406 -12.300781 3.484375 -12.28125 C 3.804688 -12.28125 4.023438 -12.195312 4.140625 -12.03125 C 4.234375 -11.914062 4.363281 -11.800781 4.53125 -11.6875 C 4.6875 -11.582031 4.785156 -11.367188 4.828125 -11.046875 C 4.867188 -10.878906 4.898438 -10.722656 4.921875 -10.578125 C 4.941406 -10.441406 4.960938 -10.304688 4.984375 -10.171875 C 5.015625 -10.054688 5.046875 -9.890625 5.078125 -9.671875 C 5.117188 -9.453125 5.15625 -9.1875 5.1875 -8.875 L 5.9375 -3.515625 L 8.578125 -3.515625 C 8.703125 -3.546875 8.785156 -3.578125 8.828125 -3.609375 C 8.890625 -3.679688 8.929688 -3.757812 8.953125 -3.84375 C 8.960938 -3.882812 8.972656 -3.953125 8.984375 -4.046875 C 9.003906 -4.140625 9.023438 -4.257812 9.046875 -4.40625 L 9.6875 -9.140625 L 10.171875 -12.359375 L 10.671875 -12.359375 C 11.035156 -12.359375 11.34375 -12.359375 11.59375 -12.359375 C 11.84375 -12.359375 12.039062 -12.34375 12.1875 -12.3125 C 12.664062 -12.257812 12.988281 -12.144531 13.15625 -11.96875 C 13.34375 -11.800781 13.4375 -11.484375 13.4375 -11.015625 L 13.4375 -10.5625 C 13.40625 -10.226562 13.328125 -9.648438 13.203125 -8.828125 L 12.859375 -6.375 L 12.46875 -3.515625 C 12.332031 -2.546875 12.226562 -1.90625 12.15625 -1.59375 C 12.039062 -1.082031 11.867188 -0.707031 11.640625 -0.46875 C 11.367188 -0.238281 10.9375 -0.0976562 10.34375 -0.046875 C 10.195312 -0.0351562 9.992188 -0.0234375 9.734375 -0.015625 C 9.472656 -0.00390625 9.148438 0 8.765625 0 L 6.4375 0 C 5.9375 0 5.519531 -0.00390625 5.1875 -0.015625 C 4.863281 -0.0234375 4.613281 -0.0351562 4.4375 -0.046875 C 3.851562 -0.117188 3.429688 -0.285156 3.171875 -0.546875 C 2.929688 -0.796875 2.738281 -1.3125 2.59375 -2.09375 C 2.570312 -2.226562 2.546875 -2.414062 2.515625 -2.65625 C 2.484375 -2.894531 2.441406 -3.171875 2.390625 -3.484375 L 1.875 -7.171875 L 1.390625 -10.546875 C 1.378906 -10.773438 1.347656 -10.96875 1.296875 -11.125 C 1.242188 -11.28125 1.191406 -11.394531 1.140625 -11.46875 C 1.097656 -11.550781 1.003906 -11.664062 0.859375 -11.8125 C 0.710938 -11.957031 0.507812 -12.140625 0.25 -12.359375 Z M 0.25 -12.359375 "/></g></g></g></g><g clip-path="url(#4fdfeb96c8)"><g fill="#9869f6" fill-opacity="1"><g transform="translate(50.594649, 11.002839)"><g><path d="M 5.328125 -12.34375 L 10.765625 -12.34375 C 11.210938 -12.34375 11.585938 -12.34375 11.890625 -12.34375 C 12.191406 -12.34375 12.414062 -12.332031 12.5625 -12.3125 C 13.113281 -12.289062 13.488281 -12.191406 13.6875 -12.015625 C 13.914062 -11.847656 14.03125 -11.503906 14.03125 -10.984375 C 14.03125 -10.921875 14.03125 -10.84375 14.03125 -10.75 C 14.03125 -10.65625 14.019531 -10.5625 14 -10.46875 C 13.988281 -10.320312 13.960938 -10.113281 13.921875 -9.84375 C 13.890625 -9.582031 13.851562 -9.25 13.8125 -8.84375 L 13.65625 -7.921875 C 13.519531 -6.910156 13.410156 -6.25 13.328125 -5.9375 C 13.234375 -5.46875 13.078125 -5.125 12.859375 -4.90625 C 12.628906 -4.6875 12.269531 -4.546875 11.78125 -4.484375 C 11.46875 -4.429688 10.875 -4.40625 10 -4.40625 L 4.390625 -4.40625 C 4.316406 -4.40625 4.25 -4.375 4.1875 -4.3125 C 4.15625 -4.28125 4.125 -4.179688 4.09375 -4.015625 C 4.09375 -3.929688 4.066406 -3.765625 4.015625 -3.515625 L 9.5 -3.515625 C 10.476562 -3.515625 11.097656 -3.488281 11.359375 -3.4375 C 11.765625 -3.382812 12.039062 -3.257812 12.1875 -3.0625 C 12.375 -2.882812 12.484375 -2.519531 12.515625 -1.96875 C 12.546875 -1.820312 12.5625 -1.617188 12.5625 -1.359375 C 12.5625 -1.097656 12.5625 -0.785156 12.5625 -0.421875 L 12.5625 0 L 3.140625 0 C 2.640625 0 2.226562 -0.0078125 1.90625 -0.03125 C 1.582031 -0.0625 1.328125 -0.0820312 1.140625 -0.09375 C 0.796875 -0.195312 0.550781 -0.359375 0.40625 -0.578125 C 0.300781 -0.773438 0.25 -1.03125 0.25 -1.34375 L 0.25 -1.546875 C 0.269531 -1.847656 0.34375 -2.503906 0.46875 -3.515625 L 1.21875 -8.84375 L 1.515625 -10.640625 C 1.628906 -11.222656 1.804688 -11.628906 2.046875 -11.859375 C 2.304688 -12.097656 2.65625 -12.238281 3.09375 -12.28125 C 3.269531 -12.320312 3.546875 -12.34375 3.921875 -12.34375 C 4.296875 -12.34375 4.765625 -12.34375 5.328125 -12.34375 Z M 5.390625 -8.84375 C 5.140625 -8.84375 4.992188 -8.835938 4.953125 -8.828125 C 4.921875 -8.804688 4.875 -8.765625 4.8125 -8.703125 C 4.78125 -8.628906 4.742188 -8.550781 4.703125 -8.46875 C 4.703125 -8.40625 4.679688 -8.222656 4.640625 -7.921875 L 9.796875 -7.921875 C 9.929688 -7.941406 10.03125 -7.984375 10.09375 -8.046875 C 10.144531 -8.097656 10.171875 -8.175781 10.171875 -8.28125 C 10.203125 -8.394531 10.226562 -8.582031 10.25 -8.84375 Z M 5.390625 -8.84375 "/></g></g></g></g><g fill="#9869f6" fill-opacity="1"><g transform="translate(64.478381, 11.002839)"><g/></g></g><g fill="#24127b" fill-opacity="1"><g transform="translate(5.102673, 29.179076)"><g><path d="M 3.140625 2.96875 C 3.085938 3.25 3.015625 3.503906 2.921875 3.734375 C 2.847656 3.890625 2.757812 4.03125 2.65625 4.15625 C 2.550781 4.289062 2.429688 4.410156 2.296875 4.515625 C 2.210938 4.578125 2.109375 4.632812 1.984375 4.6875 C 1.867188 4.75 1.738281 4.804688 1.59375 4.859375 C 1.457031 4.910156 1.304688 4.941406 1.140625 4.953125 C 0.972656 4.972656 0.789062 5 0.59375 5.03125 C 0.476562 5.050781 0.34375 5.0625 0.1875 5.0625 C 0.0390625 5.070312 -0.117188 5.078125 -0.296875 5.078125 L -1.5 5.078125 C -1.34375 4.953125 -1.210938 4.847656 -1.109375 4.765625 C -1.015625 4.691406 -0.941406 4.628906 -0.890625 4.578125 C -0.722656 4.421875 -0.625 4.304688 -0.59375 4.234375 C -0.507812 4.148438 -0.453125 4.039062 -0.421875 3.90625 C -0.390625 3.820312 -0.363281 3.691406 -0.34375 3.515625 L 0.09375 0 L 1.203125 -7.921875 L 1.328125 -8.84375 C 1.390625 -9.289062 1.441406 -9.660156 1.484375 -9.953125 C 1.523438 -10.242188 1.550781 -10.460938 1.5625 -10.609375 C 1.6875 -11.148438 1.835938 -11.535156 2.015625 -11.765625 C 2.265625 -12.066406 2.691406 -12.238281 3.296875 -12.28125 C 3.640625 -12.332031 4.300781 -12.359375 5.28125 -12.359375 L 10.890625 -12.359375 C 11.316406 -12.359375 11.671875 -12.359375 11.953125 -12.359375 C 12.242188 -12.359375 12.460938 -12.34375 12.609375 -12.3125 C 13.390625 -12.257812 13.851562 -12.066406 14 -11.734375 C 14.050781 -11.648438 14.082031 -11.546875 14.09375 -11.421875 C 14.113281 -11.296875 14.125 -11.160156 14.125 -11.015625 C 14.125 -10.953125 14.125 -10.878906 14.125 -10.796875 C 14.125 -10.722656 14.117188 -10.640625 14.109375 -10.546875 C 14.109375 -10.265625 14.03125 -9.695312 13.875 -8.84375 C 13.84375 -8.550781 13.765625 -7.957031 13.640625 -7.0625 C 13.515625 -6.175781 13.347656 -4.992188 13.140625 -3.515625 C 13.066406 -3.046875 13.003906 -2.65625 12.953125 -2.34375 C 12.910156 -2.03125 12.867188 -1.78125 12.828125 -1.59375 C 12.734375 -1.082031 12.5625 -0.707031 12.3125 -0.46875 C 12.125 -0.289062 11.800781 -0.160156 11.34375 -0.078125 C 10.988281 -0.0234375 10.359375 0 9.453125 0 L 3.640625 0 Z M 4.109375 -3.515625 L 9.09375 -3.515625 C 9.144531 -3.523438 9.191406 -3.53125 9.234375 -3.53125 C 9.273438 -3.53125 9.304688 -3.53125 9.328125 -3.53125 C 9.367188 -3.570312 9.425781 -3.609375 9.5 -3.640625 C 9.582031 -3.722656 9.628906 -3.820312 9.640625 -3.9375 C 9.671875 -4.039062 9.695312 -4.195312 9.71875 -4.40625 L 10.34375 -8.84375 L 5.875 -8.84375 C 5.582031 -8.84375 5.398438 -8.835938 5.328125 -8.828125 C 5.179688 -8.828125 5.066406 -8.785156 4.984375 -8.703125 C 4.953125 -8.660156 4.910156 -8.566406 4.859375 -8.421875 C 4.835938 -8.390625 4.816406 -8.332031 4.796875 -8.25 C 4.785156 -8.164062 4.765625 -8.054688 4.734375 -7.921875 Z M 4.109375 -3.515625 "/></g></g></g><g fill="#24127b" fill-opacity="1"><g transform="translate(19.454567, 29.179076)"><g><path d="M 1.21875 -8.84375 C 1.320312 -9.59375 1.398438 -10.082031 1.453125 -10.3125 C 1.597656 -11.082031 1.796875 -11.59375 2.046875 -11.84375 C 2.273438 -12.09375 2.628906 -12.238281 3.109375 -12.28125 C 3.296875 -12.320312 3.554688 -12.34375 3.890625 -12.34375 C 4.222656 -12.34375 4.640625 -12.34375 5.140625 -12.34375 L 10.859375 -12.34375 C 11.472656 -12.34375 11.972656 -12.332031 12.359375 -12.3125 C 12.753906 -12.289062 13.035156 -12.257812 13.203125 -12.21875 C 13.503906 -12.164062 13.722656 -12.03125 13.859375 -11.8125 C 13.972656 -11.644531 14.03125 -11.367188 14.03125 -10.984375 L 14.03125 -10.734375 C 14.03125 -10.421875 13.957031 -9.789062 13.8125 -8.84375 L 13.0625 -3.515625 C 12.945312 -2.628906 12.847656 -2.019531 12.765625 -1.6875 C 12.660156 -1.226562 12.535156 -0.890625 12.390625 -0.671875 C 12.203125 -0.390625 11.867188 -0.195312 11.390625 -0.09375 C 11.222656 -0.0820312 10.957031 -0.0625 10.59375 -0.03125 C 10.226562 -0.0078125 9.765625 0 9.203125 0 L 3.34375 0 C 2.8125 0 2.367188 -0.0078125 2.015625 -0.03125 C 1.671875 -0.0625 1.40625 -0.0820312 1.21875 -0.09375 C 0.851562 -0.164062 0.585938 -0.304688 0.421875 -0.515625 C 0.367188 -0.617188 0.328125 -0.738281 0.296875 -0.875 C 0.265625 -1.019531 0.25 -1.175781 0.25 -1.34375 L 0.25 -1.640625 C 0.28125 -1.972656 0.351562 -2.597656 0.46875 -3.515625 C 0.519531 -3.847656 0.582031 -4.25 0.65625 -4.71875 C 0.726562 -5.195312 0.804688 -5.742188 0.890625 -6.359375 C 0.992188 -6.984375 1.070312 -7.5 1.125 -7.90625 C 1.175781 -8.3125 1.207031 -8.625 1.21875 -8.84375 Z M 5.984375 -8.84375 C 5.785156 -8.84375 5.617188 -8.84375 5.484375 -8.84375 C 5.347656 -8.84375 5.25 -8.835938 5.1875 -8.828125 C 5.019531 -8.785156 4.898438 -8.734375 4.828125 -8.671875 C 4.785156 -8.617188 4.738281 -8.476562 4.6875 -8.25 C 4.6875 -8.226562 4.679688 -8.1875 4.671875 -8.125 C 4.660156 -8.070312 4.648438 -8.003906 4.640625 -7.921875 L 4.015625 -3.515625 L 9.203125 -3.515625 C 9.316406 -3.546875 9.390625 -3.578125 9.421875 -3.609375 C 9.484375 -3.679688 9.515625 -3.757812 9.515625 -3.84375 C 9.546875 -3.882812 9.570312 -3.953125 9.59375 -4.046875 C 9.613281 -4.140625 9.628906 -4.257812 9.640625 -4.40625 L 10.265625 -8.84375 Z M 5.984375 -8.84375 "/></g></g></g><g fill="#24127b" fill-opacity="1"><g transform="translate(33.706801, 29.179076)"><g><path d="M 6.234375 -17.453125 L 5.65625 -13.265625 L 2.125 -13.265625 L 2.1875 -13.9375 C 2.269531 -14.414062 2.335938 -14.804688 2.390625 -15.109375 C 2.441406 -15.421875 2.484375 -15.648438 2.515625 -15.796875 C 2.617188 -16.316406 2.757812 -16.675781 2.9375 -16.875 C 3.175781 -17.132812 3.507812 -17.300781 3.9375 -17.375 C 4.320312 -17.425781 5.085938 -17.453125 6.234375 -17.453125 Z M 2 -12.359375 L 5.53125 -12.359375 L 4.28125 -3.484375 C 4.21875 -3.023438 4.160156 -2.632812 4.109375 -2.3125 C 4.054688 -2 4.007812 -1.757812 3.96875 -1.59375 C 3.863281 -1.082031 3.695312 -0.707031 3.46875 -0.46875 C 3.195312 -0.238281 2.796875 -0.0976562 2.265625 -0.046875 C 2.097656 -0.0351562 1.859375 -0.0234375 1.546875 -0.015625 C 1.242188 -0.00390625 0.867188 0 0.421875 0 L -0.75 0 C -0.59375 -0.132812 -0.46875 -0.242188 -0.375 -0.328125 C -0.289062 -0.410156 -0.222656 -0.472656 -0.171875 -0.515625 C 0.046875 -0.734375 0.175781 -0.878906 0.21875 -0.953125 C 0.300781 -1.066406 0.363281 -1.191406 0.40625 -1.328125 C 0.445312 -1.410156 0.476562 -1.570312 0.5 -1.8125 Z M 2 -12.359375 "/></g></g></g><g fill="#24127b" fill-opacity="1"><g transform="translate(39.437593, 29.179076)"><g><path d="M 1.5 -8.828125 C 1.5625 -9.304688 1.617188 -9.695312 1.671875 -10 C 1.722656 -10.3125 1.753906 -10.539062 1.765625 -10.6875 C 1.867188 -11.207031 2.007812 -11.566406 2.1875 -11.765625 C 2.394531 -12.046875 2.726562 -12.210938 3.1875 -12.265625 C 3.519531 -12.316406 4.046875 -12.34375 4.765625 -12.34375 L 11.765625 -12.34375 C 11.992188 -12.34375 12.195312 -12.34375 12.375 -12.34375 C 12.550781 -12.34375 12.695312 -12.332031 12.8125 -12.3125 C 13.320312 -12.289062 13.6875 -12.195312 13.90625 -12.03125 C 14.15625 -11.863281 14.28125 -11.507812 14.28125 -10.96875 C 14.28125 -10.632812 14.207031 -9.921875 14.0625 -8.828125 L 13.9375 -7.921875 L 13.4375 -4.40625 L 13.3125 -3.484375 C 13.238281 -2.972656 13.171875 -2.546875 13.109375 -2.203125 C 13.054688 -1.859375 13.003906 -1.609375 12.953125 -1.453125 C 12.859375 -1.078125 12.734375 -0.785156 12.578125 -0.578125 C 12.378906 -0.359375 12.070312 -0.195312 11.65625 -0.09375 C 11.5 -0.0820312 11.21875 -0.0625 10.8125 -0.03125 C 10.414062 -0.0078125 9.898438 0 9.265625 0 L 9.765625 -3.484375 L 9.890625 -4.40625 L 10.390625 -7.921875 L 10.515625 -8.828125 L 5.953125 -8.828125 C 5.890625 -8.835938 5.832031 -8.84375 5.78125 -8.84375 C 5.726562 -8.84375 5.675781 -8.84375 5.625 -8.84375 C 5.507812 -8.84375 5.4375 -8.835938 5.40625 -8.828125 C 5.289062 -8.828125 5.207031 -8.800781 5.15625 -8.75 C 5.09375 -8.675781 5.035156 -8.578125 4.984375 -8.453125 C 4.984375 -8.378906 4.957031 -8.203125 4.90625 -7.921875 L 4.40625 -4.40625 L 4.28125 -3.484375 C 4.164062 -2.609375 4.066406 -2.003906 3.984375 -1.671875 C 3.929688 -1.398438 3.863281 -1.171875 3.78125 -0.984375 C 3.695312 -0.804688 3.609375 -0.648438 3.515625 -0.515625 C 3.296875 -0.273438 2.914062 -0.117188 2.375 -0.046875 C 2.207031 -0.0351562 1.957031 -0.0234375 1.625 -0.015625 C 1.289062 -0.00390625 0.882812 0 0.40625 0 L -0.75 0 C -0.414062 -0.28125 -0.207031 -0.460938 -0.125 -0.546875 C 0.0703125 -0.710938 0.207031 -0.847656 0.28125 -0.953125 C 0.3125 -0.992188 0.332031 -1.035156 0.34375 -1.078125 C 0.363281 -1.117188 0.382812 -1.164062 0.40625 -1.21875 C 0.4375 -1.300781 0.46875 -1.476562 0.5 -1.75 L 0.75 -3.484375 L 0.875 -4.40625 L 1.375 -7.921875 Z M 1.5 -8.828125 "/></g></g></g><g fill="#24127b" fill-opacity="1"><g transform="translate(53.938978, 29.179076)"><g><path d="M 4.734375 -17.46875 L 7.03125 -17.46875 C 7.425781 -17.46875 7.722656 -17.441406 7.921875 -17.390625 C 8.335938 -17.347656 8.617188 -17.234375 8.765625 -17.046875 C 8.921875 -16.847656 9 -16.53125 9 -16.09375 C 9 -15.925781 8.984375 -15.664062 8.953125 -15.3125 C 8.929688 -14.96875 8.878906 -14.523438 8.796875 -13.984375 L 8.578125 -12.359375 L 14.0625 -12.359375 C 13.90625 -11.296875 13.78125 -10.582031 13.6875 -10.21875 C 13.5625 -9.75 13.34375 -9.410156 13.03125 -9.203125 C 12.8125 -9.066406 12.519531 -8.972656 12.15625 -8.921875 C 11.988281 -8.898438 11.726562 -8.882812 11.375 -8.875 C 11.019531 -8.875 10.566406 -8.875 10.015625 -8.875 L 8.078125 -8.875 L 7.953125 -7.953125 L 7.453125 -4.4375 L 7.328125 -3.53125 L 12.8125 -3.53125 C 12.738281 -3.019531 12.671875 -2.585938 12.609375 -2.234375 C 12.554688 -1.890625 12.507812 -1.628906 12.46875 -1.453125 C 12.363281 -1.035156 12.203125 -0.71875 11.984375 -0.5 C 11.804688 -0.3125 11.484375 -0.175781 11.015625 -0.09375 C 10.660156 -0.0507812 9.960938 -0.03125 8.921875 -0.03125 L 6.671875 -0.03125 C 5.597656 -0.03125 4.882812 -0.0507812 4.53125 -0.09375 C 4.082031 -0.175781 3.785156 -0.328125 3.640625 -0.546875 C 3.535156 -0.734375 3.484375 -0.972656 3.484375 -1.265625 L 3.484375 -1.671875 C 3.535156 -2.003906 3.632812 -2.625 3.78125 -3.53125 L 3.90625 -4.4375 L 4.40625 -7.953125 L 4.53125 -8.875 L 1 -8.875 C 1.082031 -9.351562 1.144531 -9.753906 1.1875 -10.078125 C 1.238281 -10.398438 1.273438 -10.640625 1.296875 -10.796875 C 1.441406 -11.390625 1.65625 -11.796875 1.9375 -12.015625 C 2.1875 -12.160156 2.519531 -12.257812 2.9375 -12.3125 C 3.101562 -12.34375 3.316406 -12.359375 3.578125 -12.359375 C 3.835938 -12.359375 4.148438 -12.359375 4.515625 -12.359375 L 5.03125 -12.359375 L 5.53125 -15.953125 C 5.550781 -16.085938 5.5625 -16.191406 5.5625 -16.265625 C 5.5625 -16.335938 5.5625 -16.390625 5.5625 -16.421875 C 5.5625 -16.566406 5.539062 -16.664062 5.5 -16.71875 C 5.488281 -16.769531 5.460938 -16.820312 5.421875 -16.875 C 5.378906 -16.9375 5.316406 -16.992188 5.234375 -17.046875 C 5.203125 -17.097656 5.144531 -17.15625 5.0625 -17.21875 C 4.976562 -17.289062 4.867188 -17.375 4.734375 -17.46875 Z M 4.734375 -17.46875 "/></g></g></g><g fill="#24127b" fill-opacity="1"><g transform="translate(67.867492, 29.179076)"><g/></g></g></g></g></svg>