<svg xmlns="http://www.w3.org/2000/svg" xmlns:xlink="http://www.w3.org/1999/xlink" width="250" zoomAndPan="magnify" viewBox="0 0 187.5 37.5" height="50" preserveAspectRatio="xMidYMid meet" version="1.0"><defs><g/></defs><g fill="#ff00ff" fill-opacity="1"><g transform="translate(4.091377, 27.46511)"><g><path d="M 1.40625 -16.28125 L 4.765625 -16.28125 L 4.765625 -11.515625 L 11.515625 -11.515625 L 11.515625 -8.140625 L 14.875 -8.140625 L 14.875 -3.375 L 11.515625 -3.375 L 11.515625 -8.140625 L 4.765625 -8.140625 L 4.765625 -11.515625 L 1.40625 -11.515625 Z M 4.765625 -3.375 L 11.515625 -3.375 L 11.515625 0 L 4.765625 0 L 4.765625 -3.375 L 1.40625 -3.375 L 1.40625 -6.734375 L 4.765625 -6.734375 Z M 4.765625 -19.65625 L 11.515625 -19.65625 L 11.515625 -16.28125 L 14.875 -16.28125 L 14.875 -12.921875 L 11.515625 -12.921875 L 11.515625 -16.28125 L 4.765625 -16.28125 Z M 4.765625 -19.65625 "/></g></g></g><g fill="#ff00ff" fill-opacity="1"><g transform="translate(23.353861, 27.46511)"><g><path d="M 4.765625 -16.28125 L 4.765625 -19.65625 L 11.515625 -19.65625 L 11.515625 -16.28125 L 14.875 -16.28125 L 14.875 0 L 11.515625 0 L 11.515625 -8.140625 L 4.765625 -8.140625 L 4.765625 0 L 1.40625 0 L 1.40625 -16.28125 L 4.765625 -16.28125 L 4.765625 -11.515625 L 11.515625 -11.515625 L 11.515625 -16.28125 Z M 4.765625 -16.28125 "/></g></g></g><g fill="#ff00ff" fill-opacity="1"><g transform="translate(42.616344, 27.46511)"><g><path d="M 8.140625 -3.375 L 11.515625 -3.375 L 11.515625 0 L 8.140625 0 L 8.140625 -3.375 L 4.765625 -3.375 L 4.765625 -6.734375 L 1.40625 -6.734375 L 1.40625 -19.65625 L 4.765625 -19.65625 L 4.765625 -6.734375 L 8.140625 -6.734375 Z M 14.875 -19.65625 L 18.25 -19.65625 L 18.25 -6.734375 L 14.875 -6.734375 Z M 11.515625 -6.734375 L 14.875 -6.734375 L 14.875 -3.375 L 11.515625 -3.375 Z M 11.515625 -6.734375 "/></g></g></g><g fill="#ff00ff" fill-opacity="1"><g transform="translate(65.24827, 27.46511)"><g><path d="M 1.40625 -19.65625 L 14.875 -19.65625 L 14.875 -16.28125 L 4.765625 -16.28125 L 4.765625 -11.515625 L 11.515625 -11.515625 L 11.515625 -8.140625 L 4.765625 -8.140625 L 4.765625 -3.375 L 14.875 -3.375 L 14.875 0 L 1.40625 0 Z M 1.40625 -19.65625 "/></g></g></g><g fill="#ff00ff" fill-opacity="1"><g transform="translate(84.538829, 27.46511)"><g/></g></g><g fill="#ff00ff" fill-opacity="1"><g transform="translate(97.371296, 27.46511)"><g><path d="M 4.765625 -16.28125 L 4.765625 -11.515625 L 11.515625 -11.515625 L 11.515625 -8.140625 L 4.765625 -8.140625 L 4.765625 0 L 1.40625 0 L 1.40625 -19.65625 L 11.515625 -19.65625 L 11.515625 -16.28125 L 14.875 -16.28125 L 14.875 -11.515625 L 11.515625 -11.515625 L 11.515625 -16.28125 Z M 4.765625 -16.28125 "/></g></g></g><g fill="#ff00ff" fill-opacity="1"><g transform="translate(116.633779, 27.46511)"><g><path d="M 4.765625 -16.28125 L 4.765625 -19.65625 L 11.515625 -19.65625 L 11.515625 -16.28125 L 14.875 -16.28125 L 14.875 -3.375 L 11.515625 -3.375 L 11.515625 -16.28125 Z M 4.765625 -16.28125 L 4.765625 -3.375 L 11.515625 -3.375 L 11.515625 0 L 4.765625 0 L 4.765625 -3.375 L 1.40625 -3.375 L 1.40625 -16.28125 Z M 4.765625 -16.28125 "/></g></g></g><g fill="#ff00ff" fill-opacity="1"><g transform="translate(135.896263, 27.46511)"><g><path d="M 1.40625 0 L 1.40625 -19.65625 L 4.765625 -19.65625 L 4.765625 0 Z M 1.40625 0 "/></g></g></g><g fill="#ff00ff" fill-opacity="1"><g transform="translate(145.078498, 27.46511)"><g><path d="M 1.40625 -19.65625 L 4.765625 -19.65625 L 4.765625 -16.28125 L 8.140625 -16.28125 L 8.140625 -12.921875 L 11.515625 -12.921875 L 11.515625 -9.546875 L 14.875 -9.546875 L 14.875 -19.65625 L 18.25 -19.65625 L 18.25 0 L 14.875 0 L 14.875 -6.171875 L 11.515625 -6.171875 L 11.515625 -9.546875 L 8.140625 -9.546875 L 8.140625 -12.921875 L 4.765625 -12.921875 L 4.765625 0 L 1.40625 0 Z M 1.40625 -19.65625 "/></g></g></g><g fill="#ff00ff" fill-opacity="1"><g transform="translate(167.710423, 27.46511)"><g><path d="M 1.40625 -19.65625 L 14.875 -19.65625 L 14.875 -16.28125 L 9.828125 -16.28125 L 9.828125 0 L 6.453125 0 L 6.453125 -16.28125 L 1.40625 -16.28125 Z M 1.40625 -19.65625 "/></g></g></g><g fill="#00ffff" fill-opacity="1"><g transform="translate(3.038247, 27.46511)"><g><path d="M 1.40625 -16.28125 L 4.765625 -16.28125 L 4.765625 -11.515625 L 11.515625 -11.515625 L 11.515625 -8.140625 L 14.875 -8.140625 L 14.875 -3.375 L 11.515625 -3.375 L 11.515625 -8.140625 L 4.765625 -8.140625 L 4.765625 -11.515625 L 1.40625 -11.515625 Z M 4.765625 -3.375 L 11.515625 -3.375 L 11.515625 0 L 4.765625 0 L 4.765625 -3.375 L 1.40625 -3.375 L 1.40625 -6.734375 L 4.765625 -6.734375 Z M 4.765625 -19.65625 L 11.515625 -19.65625 L 11.515625 -16.28125 L 14.875 -16.28125 L 14.875 -12.921875 L 11.515625 -12.921875 L 11.515625 -16.28125 L 4.765625 -16.28125 Z M 4.765625 -19.65625 "/></g></g></g><g fill="#00ffff" fill-opacity="1"><g transform="translate(22.30073, 27.46511)"><g><path d="M 4.765625 -16.28125 L 4.765625 -19.65625 L 11.515625 -19.65625 L 11.515625 -16.28125 L 14.875 -16.28125 L 14.875 0 L 11.515625 0 L 11.515625 -8.140625 L 4.765625 -8.140625 L 4.765625 0 L 1.40625 0 L 1.40625 -16.28125 L 4.765625 -16.28125 L 4.765625 -11.515625 L 11.515625 -11.515625 L 11.515625 -16.28125 Z M 4.765625 -16.28125 "/></g></g></g><g fill="#00ffff" fill-opacity="1"><g transform="translate(41.563214, 27.46511)"><g><path d="M 8.140625 -3.375 L 11.515625 -3.375 L 11.515625 0 L 8.140625 0 L 8.140625 -3.375 L 4.765625 -3.375 L 4.765625 -6.734375 L 1.40625 -6.734375 L 1.40625 -19.65625 L 4.765625 -19.65625 L 4.765625 -6.734375 L 8.140625 -6.734375 Z M 14.875 -19.65625 L 18.25 -19.65625 L 18.25 -6.734375 L 14.875 -6.734375 Z M 11.515625 -6.734375 L 14.875 -6.734375 L 14.875 -3.375 L 11.515625 -3.375 Z M 11.515625 -6.734375 "/></g></g></g><g fill="#00ffff" fill-opacity="1"><g transform="translate(64.195139, 27.46511)"><g><path d="M 1.40625 -19.65625 L 14.875 -19.65625 L 14.875 -16.28125 L 4.765625 -16.28125 L 4.765625 -11.515625 L 11.515625 -11.515625 L 11.515625 -8.140625 L 4.765625 -8.140625 L 4.765625 -3.375 L 14.875 -3.375 L 14.875 0 L 1.40625 0 Z M 1.40625 -19.65625 "/></g></g></g><g fill="#00ffff" fill-opacity="1"><g transform="translate(83.485699, 27.46511)"><g/></g></g><g fill="#00ffff" fill-opacity="1"><g transform="translate(96.318165, 27.46511)"><g><path d="M 4.765625 -16.28125 L 4.765625 -11.515625 L 11.515625 -11.515625 L 11.515625 -8.140625 L 4.765625 -8.140625 L 4.765625 0 L 1.40625 0 L 1.40625 -19.65625 L 11.515625 -19.65625 L 11.515625 -16.28125 L 14.875 -16.28125 L 14.875 -11.515625 L 11.515625 -11.515625 L 11.515625 -16.28125 Z M 4.765625 -16.28125 "/></g></g></g><g fill="#00ffff" fill-opacity="1"><g transform="translate(115.580649, 27.46511)"><g><path d="M 4.765625 -16.28125 L 4.765625 -19.65625 L 11.515625 -19.65625 L 11.515625 -16.28125 L 14.875 -16.28125 L 14.875 -3.375 L 11.515625 -3.375 L 11.515625 -16.28125 Z M 4.765625 -16.28125 L 4.765625 -3.375 L 11.515625 -3.375 L 11.515625 0 L 4.765625 0 L 4.765625 -3.375 L 1.40625 -3.375 L 1.40625 -16.28125 Z M 4.765625 -16.28125 "/></g></g></g><g fill="#00ffff" fill-opacity="1"><g transform="translate(134.843133, 27.46511)"><g><path d="M 1.40625 0 L 1.40625 -19.65625 L 4.765625 -19.65625 L 4.765625 0 Z M 1.40625 0 "/></g></g></g><g fill="#00ffff" fill-opacity="1"><g transform="translate(144.025367, 27.46511)"><g><path d="M 1.40625 -19.65625 L 4.765625 -19.65625 L 4.765625 -16.28125 L 8.140625 -16.28125 L 8.140625 -12.921875 L 11.515625 -12.921875 L 11.515625 -9.546875 L 14.875 -9.546875 L 14.875 -19.65625 L 18.25 -19.65625 L 18.25 0 L 14.875 0 L 14.875 -6.171875 L 11.515625 -6.171875 L 11.515625 -9.546875 L 8.140625 -9.546875 L 8.140625 -12.921875 L 4.765625 -12.921875 L 4.765625 0 L 1.40625 0 Z M 1.40625 -19.65625 "/></g></g></g><g fill="#00ffff" fill-opacity="1"><g transform="translate(166.657293, 27.46511)"><g><path d="M 1.40625 -19.65625 L 14.875 -19.65625 L 14.875 -16.28125 L 9.828125 -16.28125 L 9.828125 0 L 6.453125 0 L 6.453125 -16.28125 L 1.40625 -16.28125 Z M 1.40625 -19.65625 "/></g></g></g><g fill="#673bb7" fill-opacity="1"><g transform="translate(3.564812, 27.46511)"><g><path d="M 1.40625 -16.28125 L 4.765625 -16.28125 L 4.765625 -11.515625 L 11.515625 -11.515625 L 11.515625 -8.140625 L 14.875 -8.140625 L 14.875 -3.375 L 11.515625 -3.375 L 11.515625 -8.140625 L 4.765625 -8.140625 L 4.765625 -11.515625 L 1.40625 -11.515625 Z M 4.765625 -3.375 L 11.515625 -3.375 L 11.515625 0 L 4.765625 0 L 4.765625 -3.375 L 1.40625 -3.375 L 1.40625 -6.734375 L 4.765625 -6.734375 Z M 4.765625 -19.65625 L 11.515625 -19.65625 L 11.515625 -16.28125 L 14.875 -16.28125 L 14.875 -12.921875 L 11.515625 -12.921875 L 11.515625 -16.28125 L 4.765625 -16.28125 Z M 4.765625 -19.65625 "/></g></g></g><g fill="#673bb7" fill-opacity="1"><g transform="translate(22.827295, 27.46511)"><g><path d="M 4.765625 -16.28125 L 4.765625 -19.65625 L 11.515625 -19.65625 L 11.515625 -16.28125 L 14.875 -16.28125 L 14.875 0 L 11.515625 0 L 11.515625 -8.140625 L 4.765625 -8.140625 L 4.765625 0 L 1.40625 0 L 1.40625 -16.28125 L 4.765625 -16.28125 L 4.765625 -11.515625 L 11.515625 -11.515625 L 11.515625 -16.28125 Z M 4.765625 -16.28125 "/></g></g></g><g fill="#673bb7" fill-opacity="1"><g transform="translate(42.089779, 27.46511)"><g><path d="M 8.140625 -3.375 L 11.515625 -3.375 L 11.515625 0 L 8.140625 0 L 8.140625 -3.375 L 4.765625 -3.375 L 4.765625 -6.734375 L 1.40625 -6.734375 L 1.40625 -19.65625 L 4.765625 -19.65625 L 4.765625 -6.734375 L 8.140625 -6.734375 Z M 14.875 -19.65625 L 18.25 -19.65625 L 18.25 -6.734375 L 14.875 -6.734375 Z M 11.515625 -6.734375 L 14.875 -6.734375 L 14.875 -3.375 L 11.515625 -3.375 Z M 11.515625 -6.734375 "/></g></g></g><g fill="#673bb7" fill-opacity="1"><g transform="translate(64.721705, 27.46511)"><g><path d="M 1.40625 -19.65625 L 14.875 -19.65625 L 14.875 -16.28125 L 4.765625 -16.28125 L 4.765625 -11.515625 L 11.515625 -11.515625 L 11.515625 -8.140625 L 4.765625 -8.140625 L 4.765625 -3.375 L 14.875 -3.375 L 14.875 0 L 1.40625 0 Z M 1.40625 -19.65625 "/></g></g></g><g fill="#673bb7" fill-opacity="1"><g transform="translate(84.012264, 27.46511)"><g/></g></g><g fill="#673bb7" fill-opacity="1"><g transform="translate(96.84473, 27.46511)"><g><path d="M 4.765625 -16.28125 L 4.765625 -11.515625 L 11.515625 -11.515625 L 11.515625 -8.140625 L 4.765625 -8.140625 L 4.765625 0 L 1.40625 0 L 1.40625 -19.65625 L 11.515625 -19.65625 L 11.515625 -16.28125 L 14.875 -16.28125 L 14.875 -11.515625 L 11.515625 -11.515625 L 11.515625 -16.28125 Z M 4.765625 -16.28125 "/></g></g></g><g fill="#673bb7" fill-opacity="1"><g transform="translate(116.107214, 27.46511)"><g><path d="M 4.765625 -16.28125 L 4.765625 -19.65625 L 11.515625 -19.65625 L 11.515625 -16.28125 L 14.875 -16.28125 L 14.875 -3.375 L 11.515625 -3.375 L 11.515625 -16.28125 Z M 4.765625 -16.28125 L 4.765625 -3.375 L 11.515625 -3.375 L 11.515625 0 L 4.765625 0 L 4.765625 -3.375 L 1.40625 -3.375 L 1.40625 -16.28125 Z M 4.765625 -16.28125 "/></g></g></g><g fill="#673bb7" fill-opacity="1"><g transform="translate(135.369698, 27.46511)"><g><path d="M 1.40625 0 L 1.40625 -19.65625 L 4.765625 -19.65625 L 4.765625 0 Z M 1.40625 0 "/></g></g></g><g fill="#673bb7" fill-opacity="1"><g transform="translate(144.551933, 27.46511)"><g><path d="M 1.40625 -19.65625 L 4.765625 -19.65625 L 4.765625 -16.28125 L 8.140625 -16.28125 L 8.140625 -12.921875 L 11.515625 -12.921875 L 11.515625 -9.546875 L 14.875 -9.546875 L 14.875 -19.65625 L 18.25 -19.65625 L 18.25 0 L 14.875 0 L 14.875 -6.171875 L 11.515625 -6.171875 L 11.515625 -9.546875 L 8.140625 -9.546875 L 8.140625 -12.921875 L 4.765625 -12.921875 L 4.765625 0 L 1.40625 0 Z M 1.40625 -19.65625 "/></g></g></g><g fill="#673bb7" fill-opacity="1"><g transform="translate(167.183858, 27.46511)"><g><path d="M 1.40625 -19.65625 L 14.875 -19.65625 L 14.875 -16.28125 L 9.828125 -16.28125 L 9.828125 0 L 6.453125 0 L 6.453125 -16.28125 L 1.40625 -16.28125 Z M 1.40625 -19.65625 "/></g></g></g></svg>